<?xml version="1.0" encoding="UTF-8"?>
<svg id="Layer_1" data-name="Layer 1" xmlns="http://www.w3.org/2000/svg" viewBox="0 0 601 712">
  <defs>
    <style>
      .cls-1 {
        fill: none;
      }

      .cls-1, .cls-2, .cls-3, .cls-4, .cls-5, .cls-6, .cls-7, .cls-8, .cls-9, .cls-10, .cls-11, .cls-12, .cls-13, .cls-14, .cls-15, .cls-16, .cls-17, .cls-18, .cls-19, .cls-20, .cls-21, .cls-22, .cls-23, .cls-24 {
        stroke-width: 0px;
      }

      .cls-2 {
        opacity: .15;
      }

      .cls-4 {
        fill: #f5851f;
      }

      .cls-5 {
        fill: #f89a2c;
      }

      .cls-6 {
        fill: #80795b;
      }

      .cls-7 {
        fill: #8a2400;
      }

      .cls-8 {
        fill: #6f0000;
      }

      .cls-9 {
        fill: #370002;
      }

      .cls-10 {
        fill: #c56000;
      }

      .cls-11 {
        fill: #c9c29f;
      }

      .cls-12 {
        fill: #c9c9c9;
      }

      .cls-13 {
        fill: #dbb183;
      }

      .cls-14 {
        fill: #bf4d00;
      }

      .cls-15 {
        fill: #bf2028;
      }

      .cls-16 {
        fill: #8e6c47;
      }

      .cls-17 {
        fill: #6d0004;
      }

      .cls-18 {
        fill: #ff9248;
      }

      .cls-19 {
        fill: #ff7676;
      }

      .cls-20 {
        fill: #6c2d00;
      }

      .cls-21 {
        fill: #fff;
      }

      .cls-22 {
        fill: #e55757;
      }

      .cls-23 {
        fill: #fcd39d;
      }

      .cls-24 {
        fill: #ffd68e;
      }
    </style>
  </defs>
  <ellipse class="cls-2" cx="290.51" cy="568.96" rx="188.5" ry="29.62"/>
  <g>
    <g>
      <g>
        <path class="cls-24" d="m264.47,340.46c-.13,16.82,20.94,64.44,20.94,64.44,0,0,5.82-31.99,20.2-27.22-2.92-10.53-1.25-19.86,8.85-19.86-.84-9.34,11.28-26.03,25.79-31,.72-12.79,9.49-28.56,18.06-31.86,2.01-13.44,13.54-32.38,26.05-36.22-11.33.23-43.18,2.38-83.19,32.32-21.99,18.28-36.57,32.58-36.7,49.41Z"/>
        <path class="cls-10" d="m300.79,290.59c-20.12,16.72-36.78,32.02-36.91,49.86-.13,16.76,20.12,62.74,20.99,64.69l.78,1.77.35-1.91c.05-.27,5.09-27.22,16.75-27.22.87,0,1.77.15,2.68.45l1.06.35-.3-1.08c-1.95-7.02-1.65-12.68.82-15.93,1.6-2.1,4.11-3.17,7.45-3.18h.65l-.06-.65c-.82-9.19,11.34-25.58,25.39-30.39l.38-.13.02-.4c.71-12.65,9.46-28.18,17.68-31.34l.32-.12.05-.34c2.02-13.51,13.66-32.06,25.64-35.74l4.09-1.25-4.27.09c-27.03.56-55.91,11.77-83.56,32.46Zm56.98,3.93c-8.54,3.59-17.2,18.83-18.09,31.86-14.41,5.14-26.15,21.16-25.85,30.85-3.43.13-6.04,1.35-7.77,3.63-2.58,3.39-3.03,9.04-1.28,15.96-.68-.15-1.36-.23-2.03-.23-10.88,0-16.15,20-17.54,26.33-3.75-8.69-20.24-47.77-20.13-62.47.12-15.76,12.91-29.36,36.46-48.94,26.27-19.66,53.67-30.71,79.48-32.08-11.23,5.66-21.18,22.18-23.24,35.07Z"/>
      </g>
      <g>
        <path class="cls-5" d="m302.5,288.19c-23.05,17.17-42.63,34.12-43.71,52.95-.53,10.05,4.57,21.64,5.56,36.15.99,14.5.27,27.62.27,27.62,0,0,10.07,3.91,20.8,0,0,0,5.17-14.11-10.33-48.68,7.95,1.19,23.06,11.43,30.54,21.46-7.18-13.66-20.07-24.11-31.99-28.88,5.83-1.06,27.11-.25,40.84,9.01-8.84-7.95-26.53-13.25-40.84-13.25,3.97-5.83,32.17-45.42,86.02-49.73-14.23-1.13-58.96,6.81-91.57,43.9,1.57-8.48,15.61-32.85,42.63-51.66,27.02-18.81,55.63-27.02,73.65-28.35-11.66-1.06-47.19,2.67-81.86,29.46Z"/>
        <path class="cls-18" d="m261.96,337.15c2.09-14.63,13.95-23.76,22.73-34.89-14.56,12.51-25.12,25.2-25.91,38.88-.53,10.05,4.57,21.64,5.56,36.15.99,14.5.27,27.62.27,27.62,0,0,1.01.39,2.73.8,1.15-12.16,1.22-25.06-.84-36.99-1.85-10.74-5.89-20.5-4.55-31.56Z"/>
        <g>
          <path class="cls-4" d="m271.5,353.05c5.42,17.02,8.08,43.62,1.34,53.51,3.59.26,8.02,0,12.57-1.65,0,0,5.17-14.11-10.33-48.68,7.95,1.19,23.06,11.43,30.54,21.46-.41-.79-.85-1.56-1.3-2.33-8.53-10.97-18.71-20.55-32.81-22.31Z"/>
          <path class="cls-4" d="m270.26,347.55c.45,1.29,3.58,1.34,3.36,1.25,5.83-1.06,27.11-.25,40.84,9.01-3.39-3.05-8.09-5.71-13.4-7.83-5.18-.94-20.17-5.29-30.8-2.43Z"/>
          <path class="cls-4" d="m270.04,345.52c1.86,0,2.7-.64,3.72-1.15,3.87-5.63,25.75-35.82,66.57-46.31-17.15,1.25-57.9,22.61-70.29,47.46Z"/>
          <path class="cls-4" d="m308.06,286.28c-20.36,14.88-42.76,34.38-43.68,56.81,2.43-1.43,2.64-3.99,4.13-6.08,2.9-9.7,16.83-32.27,42.21-49.94,16.3-11.34,33.17-18.83,47.95-23.28-19.61,1.43-45.83,18.51-50.6,22.48Z"/>
        </g>
        <path class="cls-7" d="m302.14,287.72c-20.66,15.39-42.8,33.47-43.95,53.39-.28,5.37,1.04,11.26,2.43,17.5,1.25,5.57,2.66,11.89,3.13,18.71.98,14.3.27,27.41.26,27.54l-.02.43.4.16c.19.07,4.65,1.78,10.85,1.78,3.65,0,7.13-.6,10.36-1.77l.26-.1.1-.26c.21-.58,4.97-14.45-9.88-48.08,8.32,1.92,22.28,11.94,29.05,21.01l1.01-.63c-6.31-12.01-17.75-22.67-30.21-28.27.93-.06,1.98-.1,3.11-.1,9.84,0,24.94,2.43,35.08,9.27l.73-.94c-8.42-7.58-25.13-13.13-40.11-13.39,6.54-9.27,34.61-44.52,84.94-48.55v-1.19c-.86-.07-1.82-.1-2.85-.1-17.1,0-57.01,8.92-87.56,42.37,3.3-10.13,17.2-31.83,41.77-48.94,27.06-18.84,55.63-26.94,73.35-28.24v-1.19c-1.15-.11-2.48-.16-3.94-.16-6.65,0-41.7,1.43-78.33,29.74Zm8.23-1.13c-26.97,18.77-41.23,43.16-42.88,52.04l-.39,2.13,1.43-1.62c24.53-27.9,55.65-39.27,75.83-42.64-43.03,9.37-66.57,40.9-71.23,47.74l-.64.93h1.13c10.45,0,22.22,2.82,31.14,7.12-11.3-4.17-22.95-4.44-25.72-4.44-2.26,0-4.22.13-5.53.37l-2.04.37,1.92.77c10.9,4.36,21.2,12.77,28.09,22.7-7.92-7.98-19.46-15.39-26.33-16.42l-1.08-.16.45,1c14.07,31.4,10.96,45.92,10.39,47.98-3.02,1.06-6.27,1.6-9.68,1.6-4.93,0-8.8-1.15-10.02-1.56.11-2.43.59-14.36-.29-27.24-.47-6.92-1.9-13.28-3.15-18.89-1.44-6.43-2.68-11.98-2.41-17.18,1.12-19.41,23.03-37.28,43.48-52.51,29.47-22.77,57.86-28.01,71.05-29.17-17.58,3.17-41.09,11.47-63.54,27.1Z"/>
      </g>
      <g>
        <path class="cls-23" d="m258.52,318.39c-1.54-1.15-5.45,3.45-6.21,9.02-.76,5.58,2.29,13.85,5.07,15.96,2.77,2.11,7.63-.69,7.9-4.42.26-3.73-2.37-6.85-3.98-10.54-1.84-4.23-1.18-8.74-2.78-10.03Z"/>
        <path class="cls-13" d="m261.3,328.42c-1.84-4.23-1.18-8.74-2.78-10.03-.19-.14-.42-.2-.68-.17-1.06,7.57,3.23,14.44.94,21.31-.3,1.22-1.54,1.85-3.04,1.94.54.82,1.09,1.48,1.64,1.9,2.77,2.11,7.63-.69,7.9-4.42.26-3.73-2.37-6.85-3.98-10.54Z"/>
        <path class="cls-16" d="m261.85,328.18c-.86-1.97-1.15-3.99-1.41-5.78-.3-2.04-.53-3.66-1.56-4.49-.26-.19-.58-.3-.91-.3-2.17,0-5.54,4.58-6.24,9.72-.8,5.83,2.31,14.24,5.3,16.51.73.55,1.63.85,2.6.85h0c2.76,0,6.02-2.44,6.25-5.7.2-2.81-1.1-5.2-2.47-7.74-.54-1-1.1-2.02-1.56-3.08Zm2.84,10.74c-.18,2.58-2.87,4.59-5.06,4.59-.72,0-1.36-.2-1.88-.6-2.63-2-5.56-10.13-4.84-15.4.67-4.93,3.77-8.69,5.06-8.69.11,0,.16.03.18.05.64.52.86,2,1.11,3.72.26,1.77.58,3.96,1.5,6.08.48,1.11,1.05,2.16,1.6,3.18,1.29,2.38,2.5,4.62,2.33,7.09Z"/>
      </g>
      <path class="cls-20" d="m362.35,385.22c6.91,3.06,23.5,8.32,23.5,8.32,0,0,12.92-8.21,12.92-9.8s-23.72-8.73-36.42,1.48Z"/>
      <path class="cls-8" d="m380.63,379.24c-7.71,0-14.17,1.91-18.66,5.52l-.76.61.9.4c6.86,3.03,23.4,8.29,23.56,8.34l.26.08.24-.15c4.93-3.13,13.19-8.63,13.19-10.3,0-1.82-9.86-4.51-18.73-4.51Zm5.13,13.65c-2.06-.66-15.51-4.98-22.24-7.81,5.31-3.82,12.18-4.65,17.11-4.65,9.04,0,16.35,2.52,17.47,3.4-.76,1.23-6.69,5.45-12.34,9.06Z"/>
      <path class="cls-20" d="m413.23,394.33c-11.92-2.69-24.06,1.01-24.06,1.01,0,0,18.63,15.72,26.39,19.09,3.66-5.5,15.55-8.14,15.29-9.53-.26-1.39-5.7-7.88-17.62-10.57Z"/>
      <path class="cls-8" d="m413.37,393.75c-2.93-.66-6.11-.99-9.48-.99-8.18,0-14.82,1.99-14.88,2.01l-1.05.32.84.71c.76.64,18.78,15.81,26.54,19.18l.46.2.28-.42c2.16-3.25,7.57-5.56,11.14-7.08,3.03-1.29,4.42-1.89,4.23-2.89-.28-1.48-5.74-8.26-18.07-11.04Zm13.37,12.83c-3.77,1.61-8.89,3.79-11.38,7.11-6.84-3.21-21.23-15-24.93-18.07,2.17-.55,7.37-1.67,13.45-1.67,3.28,0,6.38.32,9.22.96,11.39,2.57,16.6,8.55,17.13,9.97-.39.38-2.03,1.07-3.49,1.7Z"/>
      <path class="cls-20" d="m429.26,416.4c-8.35-2.21-12.93-1.29-12.93-1.29,0,0,16.24,17.55,21.59,20.67,4.03-4.83,11.2-7.99,11.2-10.54,0-2.25-11.52-6.62-19.87-8.84Z"/>
      <path class="cls-8" d="m429.42,415.82c-4.68-1.24-8.2-1.5-10.32-1.5-1.85,0-2.84.19-2.88.2l-1.04.21.72.78c.67.72,16.36,17.65,21.73,20.78l.44.25.32-.39c1.8-2.16,4.26-3.99,6.43-5.6,2.74-2.04,4.91-3.65,4.91-5.33,0-3.34-16.02-8.27-20.31-9.41Zm14.69,13.78c-2.09,1.55-4.45,3.3-6.3,5.4-4.86-3.17-17-15.98-20.23-19.44.4-.03.91-.05,1.52-.05,2.05,0,5.46.25,10.01,1.46,10.46,2.78,19.43,6.86,19.43,8.26,0,1.08-2.15,2.68-4.43,4.37Z"/>
      <path class="cls-20" d="m467.01,436.27c-1.19-1.52-6.06-2.46-13.51-2.66-7.45-.2-15.08,2.66-15.08,2.66,2.11,5.54,16.17,12.84,24.26,12.15-1.05-4.76,5.52-10.64,4.32-12.15Z"/>
      <path class="cls-8" d="m453.52,433.02c-7.49-.2-14.99,2.58-15.3,2.69l-.56.21.21.56c2.11,5.53,15.4,12.58,23.71,12.58.4,0,.79-.02,1.16-.05l.68-.06-.15-.66c-.55-2.52,1.29-5.49,2.77-7.87,1.28-2.06,2.2-3.55,1.44-4.52-1.67-2.12-8.51-2.74-13.96-2.88Zm11.51,6.77c-1.47,2.37-3.28,5.29-3.03,8.07-7.45.27-20.1-6.15-22.76-11.25,1.93-.65,8.19-2.57,14.25-2.41,10.57.28,12.67,1.93,13.06,2.43.25.31-.86,2.09-1.52,3.15Z"/>
      <path class="cls-20" d="m487.63,429.34c-2.04,1.06-6.31,5.83-11.48,10.99-5.17,5.17-10.8,8.44-10.8,8.44,8.28,5.65,27.22-3.14,29.43-8.49-.44-4.82-5.13-12-7.16-10.94Z"/>
      <path class="cls-8" d="m488.07,428.64c-.26,0-.5.06-.72.17-1.57.82-4.27,3.59-7.68,7.09-1.23,1.27-2.56,2.62-3.94,4.01-5.05,5.05-10.62,8.31-10.67,8.34l-.82.48.78.53c1.87,1.28,4.34,1.93,7.33,1.93,9.21,0,21.14-6.22,22.99-10.68l.06-.14v-.15c-.41-4.4-4.56-11.59-7.33-11.59Zm-15.72,21.36c-2.32,0-4.29-.42-5.85-1.24,1.78-1.13,6.09-4.03,10.07-8.01,1.39-1.39,2.72-2.75,3.96-4.02,3.2-3.29,5.97-6.13,7.37-6.86.05-.03.1-.04.17-.04,1.61,0,5.63,5.86,6.11,10.35-1.75,3.75-12.77,9.81-21.83,9.81Z"/>
      <path class="cls-20" d="m485.56,406.17c-.27,3.99,3.44,9.92,8.35,16.94,4.9,7.02,5.04,11.07,5.04,11.07,6.23-3.9,4.9-19.81,2.27-27.75-5.15-.39-15.38-4.25-15.65-.27Z"/>
      <path class="cls-8" d="m501.65,405.87l-.4-.03c-1.48-.11-3.39-.52-5.42-.95-2.56-.54-5.21-1.11-7.22-1.11-2.32,0-3.54.79-3.65,2.34-.26,3.97,3.04,9.57,8.45,17.33,4.7,6.72,4.93,10.68,4.93,10.75l.03,1.03.88-.55c6.59-4.12,5.17-20.46,2.52-28.44l-.13-.38Zm-2.26,27.23c-.34-1.67-1.44-5.24-4.99-10.33-4.32-6.18-8.51-12.55-8.24-16.56.02-.37.08-1.23,2.46-1.23,1.88,0,4.47.55,6.97,1.08,1.89.4,3.69.78,5.18.94,2.29,7.25,3.62,21.61-1.38,26.11Z"/>
      <path class="cls-20" d="m474.96,382.19c0,1.99,3.18,5.7,8.35,9.01,5.17,3.31,13.3,9.04,13.3,9.04,0,0-1.37-11.55-3.89-18.04-2.91-1.85-17.75-1.99-17.75,0Z"/>
      <path class="cls-8" d="m493.27,381.97l-.07-.18-.17-.1c-1.67-1.06-6.47-1.53-10.5-1.53-5.42,0-8.17.69-8.17,2.04,0,2.35,3.54,6.26,8.62,9.51,5.1,3.27,13.19,8.97,13.28,9.02l1.09.77-.16-1.33c-.06-.47-1.41-11.7-3.93-18.19Zm-9.64,8.72c-5.18-3.32-8-6.8-8.07-8.44.32-.31,2.34-.91,6.98-.91,4.31,0,8.3.52,9.7,1.26,1.92,5.07,3.17,13.19,3.61,16.37-2.41-1.68-8.22-5.72-12.21-8.27Z"/>
      <path class="cls-20" d="m460.92,353.71c0,1.46.79,4.24,6.89,11.13,6.09,6.89,19.09,13.17,19.09,13.17,0,0-5.97-17.41-8.09-20.72-3.05-3.18-17.88-5.03-17.88-3.58Z"/>
      <path class="cls-8" d="m479.31,356.96l-.07-.09c-2.53-2.65-11.91-4.26-16.17-4.26-1.35,0-2.74.13-2.74,1.1,0,1.53.73,4.39,7.04,11.52,6.1,6.9,18.74,13.06,19.27,13.31l1.29.62-.46-1.35c-.24-.71-6.02-17.52-8.15-20.85Zm-11.05,7.48c-4.37-4.94-6.58-8.39-6.73-10.51.19-.05.62-.13,1.54-.13,4.54,0,13.14,1.72,15.27,3.86,1.73,2.77,6.06,14.99,7.52,19.15-3.43-1.78-12.78-6.92-17.59-12.37Z"/>
      <path class="cls-20" d="m456.02,327.08c-.79,1.59,1.06,7.82,4.9,13.11,3.84,5.3,12.2,9.87,12.2,9.87,0,0-3.72-14.11-5.44-19.27-1.85-2.12-10.86-5.3-11.66-3.71Z"/>
      <path class="cls-8" d="m468.24,330.6l-.04-.11-.08-.09c-1.6-1.83-7.9-4.34-10.88-4.34-.91,0-1.5.26-1.75.76-.94,1.89,1.01,8.3,4.95,13.73,3.88,5.35,12.05,9.85,12.4,10.04l1.22.66-.35-1.34c-.04-.14-3.75-14.18-5.45-19.31Zm-6.84,9.24c-3.86-5.32-5.45-11.29-4.86-12.48,0,0,.14-.12.7-.12,2.52,0,8.42,2.31,9.91,3.85,1.39,4.2,4.05,14.07,5.02,17.72-2.45-1.48-7.92-5.05-10.77-8.97Z"/>
      <path class="cls-20" d="m452.21,303.97c.3,9.04,11.23,19.62,11.23,19.62,0,0-.3-17.53-2.28-24-3.66-.41-8.65,2.09-8.95,4.38Z"/>
      <path class="cls-8" d="m461.73,299.41l-.11-.37-.39-.04c-.29-.03-.58-.05-.88-.05-3.56,0-8.39,2.33-8.73,4.94v.05s0,.05,0,.05c.3,9.18,10.96,19.59,11.41,20.03l1.04,1-.02-1.44c-.01-.72-.33-17.69-2.3-24.16Zm-8.93,4.59c.28-1.69,4.38-4.03,7.9-3.85,1.5,5.43,1.98,17.64,2.1,21.93-2.71-2.89-9.73-11.03-10-18.08Z"/>
      <g>
        <path class="cls-21" d="m320.76,546.62c-4.94,2.03-8.42,8.81-8.39,10.32.03,1.48,4.71-.17,10.01-.24,5.3-.08,9.01.53,8.63-4.3-.38-4.82-5.31-7.81-10.25-5.78Z"/>
        <path class="cls-11" d="m331.02,552.4c-.31-3.86-3.52-6.53-7.32-6.41,2.23,7.24-6.67,8.27-11.29,11.08.32,1.23,4.86-.3,9.98-.37,5.3-.08,9.01.53,8.63-4.3Z"/>
        <path class="cls-6" d="m323.94,545.38c-1.14,0-2.28.23-3.4.69-5.21,2.13-8.79,9.14-8.76,10.89.01.55.34,1.2,1.83,1.2.77,0,1.83-.15,3.05-.32,1.63-.23,3.65-.51,5.74-.54,3.8-.05,6.81.24,8.32-1.4.73-.79,1.02-1.95.9-3.54-.32-3.98-3.61-6.97-7.67-6.97Zm5.9,9.71c-1.12,1.21-3.96.97-7.46,1.02-2.16.03-4.23.32-5.89.55-1.18.16-2.19.31-2.88.31-.39,0-.56-.05-.63-.07.05-1.44,3.4-7.82,8.02-9.71.97-.4,1.96-.6,2.95-.6,3.49,0,6.22,2.47,6.49,5.88.1,1.25-.09,2.11-.58,2.64Z"/>
      </g>
      <g>
        <path class="cls-5" d="m335.17,522.33s0,12.87-5.78,21.1c-2.77,3.94-7.02,6.85-5.56,12.15,1.46,5.3,18.41,8.98,28.88,6.48,10.46-2.51,18.94-13.87,16.29-45.34-11.39,3.49-33.82,5.61-33.82,5.61Z"/>
        <path class="cls-18" d="m337.53,522.09c-1.48.16-2.36.24-2.36.24,0,0,0,12.87-5.78,21.1-2.77,3.94-7.02,6.85-5.56,12.15.06.22.15.43.26.64,10.84-5.6,13.85-22,13.44-34.13Z"/>
        <path class="cls-4" d="m368.99,516.72c-3.47,1.06-7.96,2-12.54,2.79,3.94,6.87,5.3,16.85.88,25.08-5.47,10.17-17.29,15.97-33.75,9.74.05.4.12.82.23,1.25,1.46,5.3,18.41,8.98,28.88,6.48,10.46-2.51,18.94-13.87,16.29-45.34Z"/>
        <path class="cls-7" d="m369.52,515.93l-.71.22c-11.2,3.44-33.48,5.57-33.7,5.59l-.54.05v.54c0,.13-.07,12.77-5.68,20.76-.63.9-1.36,1.76-2.06,2.59-2.36,2.8-4.79,5.69-3.59,10.05,1.27,4.62,12.31,7.72,21.83,7.72h0c2.88,0,5.49-.28,7.76-.82,9.22-2.21,19.61-11.98,16.75-45.97l-.06-.74Zm-16.96,45.55c-2.18.52-4.7.79-7.48.79h0c-9.84,0-19.69-3.26-20.68-6.85-1.03-3.76,1-6.17,3.35-8.97.72-.85,1.46-1.73,2.12-2.68,5.22-7.43,5.82-18.33,5.88-20.9,3.4-.34,22.2-2.32,32.7-5.37,2.05,25.8-3.45,41-15.9,43.98Z"/>
      </g>
      <g>
        <path class="cls-21" d="m323.69,551.99c-5.03,3.46-7.28,11.87-6.89,13.56.39,1.64,5.22-1.32,11.13-2.69,5.9-1.36,10.2-1.59,8.61-6.89-1.59-5.3-7.82-7.44-12.85-3.99Z"/>
        <path class="cls-11" d="m336.54,555.98c-.81-2.7-2.82-4.57-5.26-5.31,1.67,2.53.41,5.63-1.31,7.68-2.18,2.61-8.94,3.1-13.15,7.22.42,1.6,5.24-1.35,11.12-2.7,5.9-1.36,10.2-1.59,8.61-6.89Z"/>
        <path class="cls-6" d="m328.9,549.71c-1.93,0-3.84.62-5.54,1.79-5.27,3.62-7.59,12.25-7.13,14.19.07.28.33.94,1.36.94.92,0,2.29-.5,4.18-1.19,1.77-.65,3.96-1.45,6.29-1.99.65-.15,1.29-.29,1.9-.42,3.31-.72,5.93-1.28,7.01-3.11.61-1.04.66-2.38.14-4.11-1.09-3.64-4.39-6.09-8.21-6.09Zm7.05,9.59c-.81,1.38-3.21,1.9-6.24,2.55-.61.13-1.25.27-1.91.42-2.4.55-4.64,1.37-6.44,2.03-1.64.6-3.06,1.12-3.77,1.12-.15,0-.21-.02-.21-.02,0,0,0,0,0,0-.35-1.5,1.85-9.64,6.64-12.93,1.5-1.03,3.18-1.58,4.87-1.58,3.34,0,6.12,2.06,7.07,5.24.42,1.39.41,2.42-.02,3.16Z"/>
      </g>
      <g>
        <path class="cls-5" d="m234.73,498.29s-2.57,12.52-3.36,23.84c-4.77,5.56-23.05,28.61-19.47,37.16,3.58,8.54,25.46,14.17,43.83,7.58,11.61-18.11,18.06-28.74,15.93-50.15-18.42-1.54-36.92-18.43-36.92-18.43Z"/>
        <path class="cls-18" d="m235.61,499.06c-.57-.49-.88-.77-.88-.77,0,0-2.57,12.52-3.36,23.84-4.77,5.56-23.05,28.61-19.47,37.16.84,2,2.68,3.83,5.24,5.39.41-15.01,9.16-27.42,17.59-39.1,2.21-3.68.54-17.31.88-26.52Z"/>
        <path class="cls-4" d="m271.64,516.72c-5.54-.46-11.08-2.32-16.13-4.68-.26,12.79,2.89,26.15-3.09,38.11-6.51,13.61-24.04,17.52-38.15,12.4,7.01,6.57,25.54,10.03,41.44,4.33,11.61-18.11,18.06-28.74,15.93-50.15Z"/>
        <path class="cls-7" d="m272.19,516.17l-.49-.04c-18-1.5-36.38-18.11-36.57-18.27l-.77-.71-.21,1.03c-.03.13-2.55,12.54-3.36,23.73-1.88,2.22-23.44,28.08-19.44,37.62,2.63,6.28,14.07,10.83,27.2,10.83h0c6.04,0,12.05-1.01,17.37-2.92l.19-.07.11-.17c11.97-18.68,18.12-29.41,16.02-50.53l-.05-.49Zm-16.86,50.21c-5.15,1.82-10.94,2.78-16.78,2.78h0c-12.47,0-23.7-4.34-26.1-10.1-3.21-7.68,12.9-28.98,19.37-36.54l.13-.15v-.2c.67-9.32,2.55-19.56,3.17-22.76,3.71,3.17,19.88,16.27,35.99,17.85,1.92,20.38-3.79,30.41-15.77,49.11Z"/>
      </g>
      <g>
        <path class="cls-20" d="m248.13,320.67s-7.25,20.55,1.4,39.28c5.08.85,9.84-.24,14.41-.94,4.57-.7,5.66-2.19,6.06-2.78.4-.6-3.18-10.93-6.56-17.98-3.38-7.05-9.28-16.97-15.32-17.58Z"/>
        <path class="cls-8" d="m248.19,320.07l-.47-.05-.16.44c-.07.21-7.23,20.99,1.42,39.73l.13.29.31.05c1.28.21,2.58.32,3.99.32h0c2.93,0,5.76-.46,8.49-.91.71-.12,1.42-.23,2.13-.34,4.94-.75,6.09-2.47,6.47-3.04.78-1.18-4.22-13.79-6.52-18.57-3.07-6.41-9.2-17.25-15.8-17.91Zm15.67,38.34c-.71.11-1.42.23-2.14.34-2.68.44-5.46.9-8.29.9h0c-1.22,0-2.36-.08-3.48-.25-7.55-16.68-2.38-34.96-1.4-38.08,6.08,1.14,12.05,12.32,14.37,17.17,3.24,6.76,6.47,16.14,6.53,17.5-.37.54-1.46,1.79-5.58,2.42Z"/>
      </g>
      <g>
        <path class="cls-20" d="m265.01,373.05c-7.82-7.29-17.35-8.74-17.35-8.74-2.65,14.57,9.14,30.86,15.43,37.12,4.83-5.93,16.36-12.08,15.43-14.73-.93-2.65-5.7-6.36-13.51-13.64Z"/>
        <path class="cls-8" d="m270.73,377.48c-1.57-1.42-3.34-3.03-5.31-4.87-7.86-7.33-17.27-8.83-17.67-8.9l-.57-.09-.1.57c-2.7,14.83,9.02,31.11,15.6,37.65l.47.46.42-.51c2.12-2.6,5.61-5.29,8.69-7.67,4.35-3.35,7.49-5.77,6.84-7.64-.74-2.12-3.61-4.72-8.35-9.02Zm.79,15.71c-2.94,2.26-6.24,4.81-8.46,7.35-7.3-7.48-16.89-22.63-14.91-35.54,2.16.45,9.95,2.42,16.46,8.48,1.97,1.84,3.75,3.45,5.33,4.88,4.45,4.03,7.38,6.69,8.03,8.53.37,1.06-3.41,3.97-6.44,6.3Z"/>
      </g>
      <g>
        <g>
          <path class="cls-23" d="m130.82,103.49c-2.58-1.19-27.94,22.86-25.2,73.18l22.22-9.02s-.4-15.48,1.19-31.38c1.59-15.9,4.37-31.59,1.79-32.78Z"/>
          <path class="cls-13" d="m130.82,103.49c-.15-.07-.37-.04-.66.05-8.48,21.37-11.61,44.65-11.7,67.92l9.38-3.81s-.4-15.48,1.19-31.38c1.59-15.9,4.37-31.59,1.79-32.78Z"/>
          <path class="cls-16" d="m131.07,102.94c-.14-.06-.3-.1-.47-.1-1.1,0-3.16,1.48-5.52,3.97-3.77,3.98-22.44,26.05-20.06,69.89l.05.83,23.37-9.49v-.41c-.01-.15-.39-15.63,1.18-31.31.4-3.98.86-7.89,1.31-11.68,1.62-13.56,2.36-20.68.13-21.71Zm-1.31,21.57c-.45,3.79-.92,7.71-1.32,11.7-1.43,14.32-1.25,28.47-1.2,31.04l-21.06,8.55c-2.08-42.79,16.09-64.27,19.78-68.17,2.48-2.62,4.17-3.6,4.62-3.61,1.54.71.29,11.22-.81,20.49Z"/>
        </g>
        <path class="cls-16" d="m105.96,152.72l.95.71c.06-.07,5.71-7.27,20.95-2.21l.38-1.13c-16.11-5.35-22.03,2.3-22.28,2.62Z"/>
        <path class="cls-16" d="m111.51,130.52l.42,1.12c9.06-3.42,17.5-.84,17.58-.81l.36-1.14c-.36-.11-8.91-2.74-18.36.84Z"/>
      </g>
      <g>
        <path class="cls-21" d="m79.43,310.43s5.83,14.27,11.52,13.88c1.59-.13,1.32-9.54,1.32-9.54,0,0-8.08-1.79-12.85-4.34Z"/>
        <path class="cls-11" d="m92.28,314.76s-2.5-.55-5.55-1.49c2.31,3.29,3.4,7.08,3.9,11.02.11,0,.21.01.32,0,1.59-.13,1.32-9.54,1.32-9.54Z"/>
        <path class="cls-6" d="m92.86,314.28l-.45-.1c-.08-.02-8.05-1.8-12.7-4.28l-1.46-.78.62,1.53c.24.58,5.89,14.25,11.84,14.25.09,0,.18,0,.28,0,1.78-.15,2-5.6,1.87-10.15v-.47Zm-2.01,9.43s-.09,0-.14,0c-3.8,0-8.1-7.68-10.1-12.04,4.11,1.86,9.48,3.19,11.07,3.57.08,4.17-.29,7.96-.84,8.47Z"/>
      </g>
      <g>
        <path class="cls-21" d="m105.89,313.64s9.27,12.32,14.68,10.48c1.5-.53-1.22-14.28-1.22-14.28,0,0-8.39,2-13.45,3.79Z"/>
        <path class="cls-11" d="m119.35,309.85s-2.79.67-6.12,1.57c2.1,3.89,5.05,8.27,6.91,12.81.15-.03.29-.06.44-.11,1.5-.53-1.22-14.28-1.22-14.28Z"/>
        <path class="cls-6" d="m119.81,309.12l-.6.14c-.08.02-8.48,2.03-13.51,3.81l-.77.27.49.65c.34.45,8.27,10.91,13.98,10.91.48,0,.94-.07,1.38-.22,1.32-.47,1.04-5.5-.84-14.95l-.12-.61Zm.47,14.47c-.28.08-.58.12-.89.12-4.36,0-10.69-7.5-12.52-9.78,4.19-1.41,10.11-2.89,12-3.36,1.1,5.67,1.91,12.02,1.4,13.01Z"/>
      </g>
      <g>
        <path class="cls-5" d="m68.35,284.68c-4.5.54-7.58,5.72-6.88,11.56.7,5.85,4.92,10.15,9.42,9.61,4.5-.54,7.58-5.72,6.88-11.56-.7-5.85-4.92-10.15-9.42-9.61Z"/>
        <path class="cls-18" d="m61.43,295.27s.25-9.98,7.47-10.57l-1.32,3.58s-3.54-.51-6.14,7Z"/>
        <path class="cls-4" d="m61.43,295.79c.01.15.02.3.04.46.7,5.85,4.92,10.15,9.42,9.61,4.36-.52,7.37-5.39,6.92-11.01-2.71,3.81-11.62,10.51-16.38.94Z"/>
        <path class="cls-7" d="m68.27,284.09c-2.36.28-4.43,1.73-5.83,4.08-1.37,2.3-1.92,5.19-1.57,8.15.7,5.8,4.67,10.18,9.25,10.18.28,0,.55-.02.83-.05,4.82-.58,8.14-6.06,7.4-12.23-.74-6.16-5.18-10.71-10.08-10.13Zm2.54,21.17c-4.18.5-8.1-3.67-8.75-9.09-.32-2.7.18-5.32,1.41-7.4,1.2-2.02,2.96-3.27,4.95-3.51.23-.03.46-.04.69-.04,3.91,0,7.45,4.01,8.06,9.13.66,5.51-2.19,10.4-6.36,10.9Z"/>
      </g>
      <path class="cls-20" d="m212.72,166.51s4.74,16.58,12.95,29.65c11.39-2.7,18.41,4.29,19.21,2.56.79-1.72.6-9.6-7.75-17.95-8.35-8.34-24.41-14.27-24.41-14.27Z"/>
      <path class="cls-8" d="m212.92,165.95l-1.1-.41.32,1.13c.05.17,4.85,16.82,13.02,29.8l.23.36.42-.1c1.71-.41,3.44-.61,5.14-.61,4.75,0,8.36,1.56,10.76,2.59,1.23.53,2.05.88,2.67.88.66,0,.93-.39,1.04-.62.91-1.96.73-10.03-7.87-18.62-8.34-8.34-23.96-14.16-24.62-14.4Zm31.44,32.45c-.38,0-1.22-.37-2.19-.78-2.48-1.07-6.23-2.68-11.23-2.68-1.65,0-3.33.18-5,.55-6.7-10.8-11.08-24.03-12.31-27.98,3.79,1.52,16.17,6.8,23.06,13.69,8,8,8.29,15.59,7.66,17.21Z"/>
      <path class="cls-20" d="m233.4,200.13s7.1,16.01,10.88,35.29c9.34-.79,16.89,3.37,17.09,0-2.98-25.63-27.96-35.29-27.96-35.29Z"/>
      <path class="cls-8" d="m233.62,199.58l-1.34-.52.58,1.32c.07.16,7.12,16.18,10.84,35.16l.1.52.53-.05c.78-.07,1.6-.1,2.42-.1,3.24,0,6.19.51,8.56.92,1.62.28,3.02.52,4.08.52,1.63,0,2.49-.64,2.57-1.9v-.05s0-.05,0-.05c-2.99-25.69-28.09-35.68-28.34-35.78Zm25.77,36.59c-.95,0-2.31-.23-3.87-.5-2.42-.42-5.43-.94-8.77-.94-.67,0-1.34.02-1.99.06-3.12-15.66-8.45-29.23-10.22-33.5,5.2,2.45,23.7,12.64,26.23,34.15-.02.34-.11.73-1.38.73Z"/>
      <g>
        <path class="cls-20" d="m242.17,234.64s2.88,15.37,5.22,31.18c9.21-1.79,19.58,6.66,20.02,3.97-1.08-20.83-25.24-35.15-25.24-35.15Z"/>
        <path class="cls-8" d="m242.47,234.13l-1.13-.67.24,1.29c.03.15,2.91,15.54,5.21,31.16l.09.62.61-.12c.82-.16,1.69-.24,2.59-.24,4.43,0,8.91,1.9,12.18,3.29,2,.85,3.45,1.46,4.4,1.46h0c1.04,0,1.27-.72,1.32-1.03v-.06s0-.06,0-.06c-1.08-20.91-25.29-35.49-25.53-35.64Zm24.2,35.6h0c-.71,0-2.2-.63-3.93-1.37-3.37-1.43-7.98-3.39-12.65-3.39-.76,0-1.5.05-2.21.16-1.9-12.75-4.14-25.22-4.88-29.25,4.76,3.14,22.82,16.2,23.8,33.84-.02,0-.07.01-.13.01Z"/>
      </g>
      <g>
        <path class="cls-20" d="m246.88,311.81c9.37.46,19.45,9.17,20.53,6.66,3.91-20.49-17.81-46.31-17.81-46.31,0,0-1.22,23.73-2.72,39.64Z"/>
        <path class="cls-8" d="m249.08,270.63l-.08,1.51c-.01.24-1.24,23.9-2.71,39.62l-.06.62.62.03c4.96.24,10.24,2.91,14.09,4.86,2.59,1.31,4.46,2.26,5.66,2.26.88,0,1.23-.51,1.36-.81l.04-.12c3.92-20.53-17.05-45.74-17.94-46.8l-.97-1.16Zm17.76,47.65s-.08.06-.24.06c-.91,0-2.86-.99-5.12-2.13-3.79-1.92-8.93-4.51-13.95-4.94,1.23-13.36,2.28-32.03,2.58-37.5,4.14,5.31,20,27.03,16.73,44.51Z"/>
      </g>
      <g>
        <path class="cls-20" d="m207.52,140.05c-25.63-2.78-35.22,14.77-35.22,14.77,0,0,24.69,5.3,34.06,6.77-3.75-9.26,4.94-20.74,1.17-21.53Z"/>
        <path class="cls-8" d="m207.58,139.45c-1.85-.2-3.68-.3-5.45-.3-21.7,0-30.27,15.22-30.36,15.38l-.38.7.78.17c.25.05,24.81,5.32,34.09,6.77l1.04.16-.39-.98c-2.03-5.01-.24-10.79,1.06-15.02.88-2.85,1.52-4.92.83-6.08-.25-.42-.64-.69-1.21-.8Zm-.76,6.53c-1.27,4.13-2.99,9.71-1.38,14.85-8.82-1.46-27.98-5.52-32.2-6.42,1.94-2.92,10.54-14.07,28.88-14.07,1.73,0,3.52.1,5.27.29.24.05.32.15.37.23.42.71-.24,2.85-.94,5.12Z"/>
      </g>
      <g>
        <path class="cls-20" d="m166.06,126.4c-.82-.62-10.34,3.54-18.41,12.85-7.54,8.7-13.81,22.38-10.86,27.82,1.42,2.62,9.38-4.3,16.08-6.66,6.7-2.35,16.32-5.22,16.32-5.22,0,0-3.13-6.8-3.26-14.35-.13-7.55,1.72-13.25.13-14.44Z"/>
        <path class="cls-8" d="m166.52,140.83c-.06-3.16.24-6.02.48-8.32.37-3.55.6-5.7-.59-6.59-.16-.12-.36-.18-.62-.18-2.16,0-11.1,4.46-18.6,13.11-7.67,8.85-14.05,22.73-10.94,28.49.22.41.68.89,1.63.9,1.61,0,4.04-1.41,7.12-3.2,2.54-1.48,5.43-3.15,8.06-4.07,6.61-2.32,16.2-5.18,16.3-5.21l.66-.2-.29-.62c-.03-.07-3.08-6.79-3.21-14.12Zm-13.85,19.02c-2.74.96-5.67,2.66-8.26,4.17-2.69,1.56-5.23,3.04-6.52,3.04-.38,0-.5-.13-.58-.27-2.8-5.18,3.38-18.6,10.79-27.14,7.5-8.65,16.11-12.6,17.67-12.7.56.6.32,2.85.05,5.45-.24,2.33-.55,5.23-.49,8.46.11,6.35,2.27,12.1,3.04,13.97-2.27.68-10.06,3.05-15.71,5.03Z"/>
      </g>
      <path class="cls-5" d="m473.11,313.31c-7.95-24.9,8.21-37.88,8.21-37.88l-6.09-1.59c-21.46,15.63-16.16,46.89-1.32,77.89,14.84,31,32.85,60.14,25.7,80.8-7.15,20.66-43.18,21.46-59.87,5.03-16.69-16.43-48.75-51.4-85.31-53.25-36.56-1.85-70.21,14.04-84.78,19.34-29.41-16.43-20.4-91.53-20-128.09-.79-70.34-14.17-72.46-23.71-82.52-1.32-13.25-10.33-28.35-25.43-34.44-15.1-6.09-36.69-7.02-63.71,8.48-49.67-2.38-53.91,56.96-55.5,77.09-1.59,20.13-4.7,32.78-4.7,32.78,0,0-10.73,4.97-9.74,19.07.99,14.11,18.48,24.24,39.34,19.27,20.86-4.97,32.78-24.44,32.78-24.44,0,0,1.59,4.77-1.19,16.69-2.78,11.92-9.34,20.47-10.33,26.62-.99,6.16,1.59,9.93,11.33,12.12,15.9,2.58,23.05-6.95,28.61-24.24,5.56-17.29,27.22-28.21,27.22-28.21,14.97,7.15,10.66,35.37,4.83,71.4-5.83,36.03-9.54,77.89,10.6,118.69,20.13,40.8,54.57,39.21,73.65,32.76,37.62,20.58,75.64,8.43,103.45-3.09,34.97,5.17,67.16,6.76,99.74-19.07,49.28-39.74,31.26-92.19,20.4-115.24-10.86-23.05-26.23-41.06-34.18-65.97Z"/>
      <g>
        <path class="cls-18" d="m395.35,404.9c16.45,10.6,44.78,38.94,53.19,38.94-3.27-1.69-6.26-3.79-8.8-6.29-16.69-16.43-48.75-51.4-85.31-53.25-35.12-1.78-67.55,12.82-82.96,18.66.28.08.56.15.84.15,50.34-12.83,83.09-23.95,123.05,1.79Z"/>
        <path class="cls-18" d="m476.4,274.14c-.36-.1-.75-.2-1.17-.31-21.46,15.63-16.16,46.89-1.32,77.89,9.99,20.87,21.41,40.9,25.63,58.07-4.21-28.9-24.55-55.93-31.32-78.79-6.03-20.33-9.27-38.35,8.19-56.86Z"/>
      </g>
      <path class="cls-18" d="m93.59,301.73s-5.44-5.35-2.88-12.1c2.56-6.75,9.42-9.52,16.37-9.63-8.92,2-16.94,9.77-13.49,21.72Z"/>
      <path class="cls-18" d="m82.86,274.88c2.76-19.7,3.33-41.77,7.7-60.06,3.4-14.24,8.81-25.9,15.63-31.86,12.67-11.08,32.59-10.33,32.59-10.33,19.42-14.01,40.06-17.56,61.8-14.01-.03-.01-.05-.02-.08-.03-15.1-6.09-36.69-7.02-63.71,8.48-49.67-2.38-53.91,56.96-55.5,77.09-1.59,20.13-4.7,32.78-4.7,32.78,0,0-10.73,4.97-9.74,19.07.25,3.6,1.59,6.94,3.77,9.83-3.23-11.03.24-24.06,12.24-30.97Z"/>
      <path class="cls-4" d="m187.33,220.79c3.46,14.87-2.04,30.4-14.18,32.91-11.48,2.37-26.63,1.44-32.52-16.28-7.72-23.21-.23-39.66,10.97-43.13,11.2-3.47,31.58,8.65,35.74,26.5Z"/>
      <g>
        <path class="cls-4" d="m138.97,290.85s.15.46.28,1.44c11.59-16.52,34.39-18.99,52.77-25.88-18.68,1.88-35.9,3.46-51.79,15.38-7.95,5.56-13.38,11.65-21.33,18-19.68,17.22-42.52,13.48-48.74,5.43,6.16,8.85,20.1,13.86,36.02,10.07,20.86-4.97,32.78-24.44,32.78-24.44Z"/>
        <path class="cls-4" d="m226.2,290.26c6.36,2.38,10.33,10.33,11.13,17.49,3.97,35.76-3.18,87.43,38.15,100.14-2.07-1.26-3.84-2.75-5.39-4.4-.14.05-.3.11-.44.16-29.41-16.43-20.4-91.53-20-128.09-.79-70.34-14.17-72.46-23.71-82.52-1.32-13.25-10.33-28.35-25.43-34.44-2.95-1.19-6.15-2.18-9.59-2.89,11.14,6.98,19.27,16.58,20.19,30.58,41.1,44.67,7.57,84.64-14.3,97.51-8.62,5.48-18.72,11.37-25.37,19.64-6.84,8.51-9.72,20.31-14.96,29.17-6.46,10.77-16.4,13.87-28.66,6.98,1.2,3.09,4.5,5.25,10.97,6.71,15.9,2.58,23.05-6.95,28.61-24.24,5.56-17.29,27.22-28.21,27.22-28.21,1.86.89,3.43,2.11,4.73,3.62,8.59-4.28,17.73-10.72,26.87-7.2Z"/>
        <path class="cls-4" d="m507.28,379.27c-10.86-23.05-26.23-41.06-34.18-65.97-7.95-24.9,8.21-37.88,8.21-37.88,0,0-.02,0-3.63-.95-9.39,10.49-12.23,22.09-10.23,35.53,2.62,17.58,13.75,39.17,23.19,53.95,14.53,22.74,22.25,47.77,23.51,71.82.47,9.01-2.95,17.94-4.23,26.95-.5,1.99-.99,4.52-1.15,7.06,20.53-34.6,7.22-72.02-1.5-90.51Z"/>
      </g>
      <path class="cls-7" d="m493.57,353.31c-7.43-12.37-15.1-25.17-19.89-40.19-7.72-24.2,7.86-37.11,8.02-37.24l.92-.74-7.51-1.96-.23.17c-10.18,7.41-15.06,18.75-14.52,33.69.46,12.76,4.84,27.88,13.01,44.94,2.44,5.09,4.98,10.17,7.44,15.09,12.41,24.8,24.13,48.23,18.23,65.26-3.44,9.94-14.42,16.11-28.65,16.11-11.74,0-23.05-4.23-30.24-11.31-1.31-1.28-2.7-2.68-4.19-4.17-17.79-17.78-47.57-47.53-81.5-49.25-1.97-.1-3.98-.15-5.99-.15-29.24,0-55.88,10.48-71.8,16.75-2.66,1.05-4.98,1.96-6.96,2.68-24.05-13.79-21.79-67.59-20.14-106.91.31-7.49.61-14.56.68-20.53-.7-61.77-11.04-71.13-20.17-79.39-1.25-1.13-2.43-2.2-3.57-3.39-1.34-12.68-9.81-28.28-25.78-34.73-6.84-2.76-14.2-4.16-21.89-4.16-13.39,0-27.59,4.23-42.2,12.58-21.58-.98-37.19,9.49-46.43,31.04-7.17,16.72-8.67,35.82-9.48,46.09l-.04.53c-1.44,18.28-4.18,30.52-4.63,32.43-1.68.91-10.74,6.43-9.81,19.52.85,12.03,13.45,21.11,29.31,21.11,3.53,0,7.15-.44,10.76-1.3,17.8-4.24,29.27-19.09,32.33-23.48.27,2.14.43,6.91-1.46,15.01-1.52,6.5-4.13,11.9-6.43,16.66-1.85,3.84-3.45,7.15-3.91,10-1.12,6.96,2.29,10.67,11.82,12.8,1.74.28,3.41.43,4.98.43,14.26,0,20.11-12.05,24.3-25.07,5.09-15.83,24.2-26.42,26.66-27.73,14.48,7.3,9.73,36.67,4.24,70.63-6.17,38.12-9.15,78.93,10.65,119.05,14.92,30.23,37.22,36.57,53.3,36.57,8.68,0,16.07-1.84,20.82-3.42,13.52,7.35,28.31,11.07,43.97,11.07,22.39,0,43.61-7.57,59.61-14.2,10.34,1.52,22.52,3.07,34.66,3.07,25.42,0,46.19-7.08,65.38-22.3,21.52-17.35,32.61-39,32.97-64.34.23-16.29-3.94-33.66-12.41-51.62-4.3-9.12-9.36-17.55-14.25-25.71Zm-7.06,140.74c-18.97,15.03-39.51,22.04-64.64,22.04-12.13,0-24.32-1.56-34.65-3.09l-.16-.02-.15.06c-15.92,6.6-37.06,14.17-59.31,14.17-15.55,0-30.22-3.72-43.63-11.05l-.23-.12-.25.08c-4.65,1.57-12.02,3.45-20.69,3.45-15.74,0-37.59-6.23-52.23-35.91-19.65-39.81-16.68-80.4-10.54-118.33,5.6-34.65,10.44-64.57-5.17-72.03l-.26-.13-.26.13c-.22.11-21.94,11.24-27.52,28.56-5.54,17.22-12.25,24.25-23.16,24.25-1.5,0-3.11-.14-4.75-.4-10.18-2.29-11.71-6.23-10.87-11.44.43-2.68,2-5.92,3.81-9.67,2.21-4.58,4.97-10.28,6.51-16.91,2.79-11.95,1.24-16.81,1.18-17.01l-1.07-.12c-.12.19-12.03,19.32-32.41,24.17-3.52.84-7.05,1.26-10.48,1.26-15.23,0-27.32-8.6-28.12-20-.95-13.51,8.97-18.3,9.39-18.49l.26-.12.07-.28c.03-.13,3.14-12.93,4.72-32.88l.04-.53c1.64-20.81,5.99-76.09,51.99-76.09.93,0,1.89.02,2.84.07h.17s.15-.08.15-.08c14.48-8.3,28.52-12.51,41.75-12.51,7.53,0,14.75,1.37,21.44,4.07,15.6,6.29,23.83,21.58,25.06,33.95l.02.2.14.15c1.21,1.28,2.46,2.41,3.77,3.6,8.94,8.1,19.08,17.27,19.77,78.51-.06,5.94-.36,13.01-.68,20.48-1.67,39.76-3.96,94.2,20.98,108.13l.24.13.26-.09c2.06-.75,4.46-1.69,7.25-2.79,15.84-6.23,42.35-16.66,71.36-16.66,1.99,0,3.98.05,5.93.15,33.47,1.7,63.05,31.25,80.72,48.9,1.49,1.49,2.89,2.89,4.2,4.17,7.41,7.29,19.03,11.65,31.08,11.65,14.76,0,26.16-6.48,29.78-16.91,6.06-17.51-5.77-41.15-18.29-66.19-2.46-4.91-5-9.99-7.43-15.07-12.32-25.73-22.13-59.93.91-76.98l4.76,1.24c-3.25,3.17-14.48,16.12-7.57,37.76,4.83,15.15,12.55,28,20.01,40.44,4.88,8.13,9.92,16.54,14.2,25.6,12.52,26.58,26.55,76.8-20.23,114.52Z"/>
      <g>
        <path class="cls-3" d="m140.63,237.41l37.22-27.49s-12.24-15.11-26.36-7.39c-15.11,8.26-10.86,34.89-10.86,34.89Z"/>
        <path class="cls-21" d="m158.37,202.9c-11.41,2.34-18.27,16.88-17.48,31.45.79,14.57,12.45,23.95,29.67,14.89,17.22-9.06,16.69-22.31,11.66-31.85-5.03-9.54-13.52-16.62-23.85-14.5Z"/>
        <path class="cls-12" d="m182.22,217.4c-2.24-4.25-5.17-8.01-8.65-10.69,6.45,12.78,2.6,30.41-9.37,37.45-5.37,3.36-13,5-19.08,2.55,4.97,6.42,13.96,8.57,25.44,2.53,17.22-9.06,16.69-22.31,11.66-31.85Z"/>
        <g>
          <path class="cls-20" d="m176.67,225.14c2.77,7.23.53,14.69-5.01,16.65-5.53,1.96-12.26-2.31-15.03-9.54-2.77-7.23-.53-14.69,5.01-16.65,5.53-1.96,12.26,2.31,15.03,9.54Z"/>
          <path class="cls-20" d="m166.12,234.71c-3.26.5-6.21-.22-9.05-1.43,2.99,6.6,9.33,10.37,14.59,8.51,5.47-1.94,7.71-9.24,5.09-16.39-1.45,4.85-5.62,8.01-10.64,9.32Z"/>
          <path class="cls-3" d="m175.64,228.63c1.91,4.99.52,10.07-3.1,11.35-3.62,1.28-8.11-1.71-10.01-6.7-1.91-4.98-.52-10.07,3.1-11.35,3.62-1.29,8.11,1.71,10.02,6.7Z"/>
          <path class="cls-21" d="m170.06,225.03c.58,2.08-.7,4.21-2.87,4.75-2.17.55-4.4-.69-4.98-2.77-.58-2.08.7-4.21,2.87-4.75,2.17-.55,4.4.69,4.98,2.77Z"/>
          <path class="cls-21" d="m169.4,236.96c.27.96-.32,1.94-1.32,2.19-1,.25-2.02-.32-2.29-1.28-.27-.96.32-1.93,1.32-2.19,1-.25,2.02.32,2.29,1.27Z"/>
          <path class="cls-3" d="m171.11,242.68c-5.74,1.45-12.39-3.03-15.13-10.21-2.9-7.58-.48-15.44,5.4-17.53,5.91-2.08,13.06,2.46,15.93,9.96,2.9,7.58.48,15.44-5.41,17.53-.26.09-.53.17-.8.24Zm-8.55-26.64c-.23.06-.45.13-.68.21-5.17,1.83-7.23,8.91-4.6,15.77,2.6,6.8,8.93,10.98,14.14,9.12,5.17-1.83,7.23-8.91,4.61-15.77-2.49-6.51-8.4-10.6-13.46-9.33Z"/>
        </g>
        <path class="cls-3" d="m162.02,201.93c-1.24,0-2.51.13-3.77.39-11.11,2.28-18.83,16.07-17.95,32.07.62,11.38,7.67,19.02,17.54,19.02h0c4.04,0,8.42-1.22,13-3.64,7.54-3.97,12.31-9.03,14.17-15.05,2.15-6.93-.05-13.4-2.27-17.6-5.1-9.66-12.65-15.19-20.72-15.19Zm21.85,32.45c-1.77,5.7-6.34,10.53-13.59,14.34-4.41,2.32-8.6,3.5-12.45,3.5h0c-9.34,0-15.76-7.02-16.35-17.89-.73-13.29,5.44-28.46,17-30.84,1.18-.24,2.37-.37,3.53-.37,7.62,0,14.79,5.31,19.67,14.56,2.11,4.01,4.21,10.15,2.18,16.69Z"/>
      </g>
      <path class="cls-7" d="m147.34,196.17c-4.19,2.46-6.84,6.24-8.49,9.75-2.11,4.46-1.47,8.9-1.47,8.9.01-.12,1.57-12.34,10.57-17.63,5.91-3.47,13.71-3.26,23.18.63,0,0-6.16-3.44-9.15-3.91-5.66-.9-10.56-.14-14.64,2.26Z"/>
      <g>
        <path class="cls-5" d="m473.97,257.18c-12.92,7.55-19.67,16.09-19.07,17.39.47,1.01,20.85.18,22.65,1.49,1.8,1.31,2.88,18.78,10.83,19.47.89-.3-.4-14.8,4.47-25.83,4.87-11.03,10.13-14.01,9.93-15.4-.2-1.39-15.9-4.67-28.81,2.88Z"/>
        <path class="cls-4" d="m502.35,253.88c-8.18,2.87-15.99,12.41-17.85,27.64-2.38-3.18-3.18-9.54-4.77-10.33-2.91-1.45-17.11-.25-24.84,3.31,0,.02,0,.05,0,.07.47,1.01,20.85.18,22.65,1.49,1.8,1.31,2.88,18.78,10.83,19.47.89-.3-.4-14.8,4.47-25.83,4.87-11.03,10.13-14.01,9.93-15.4-.02-.13-.17-.27-.43-.42Z"/>
        <path class="cls-7" d="m492.78,251.78c-4.91,0-12.21.85-19.11,4.88-12.81,7.49-20.19,16.25-19.31,18.15.33.71,1.68.83,10.36.96,4.65.07,11.67.17,12.48.76.38.3.96,2.56,1.42,4.38,1.49,5.85,3.74,14.68,9.71,15.2h.12s.12-.03.12-.03c.67-.22.7-1.02.86-4.38.23-4.98.66-14.26,3.97-21.77,3.12-7.07,6.35-10.73,8.28-12.91,1.17-1.32,1.81-2.05,1.7-2.81-.23-1.58-6.3-2.43-10.59-2.43Zm8,4.45c-1.85,2.09-5.28,5.98-8.47,13.22-3.4,7.71-3.84,17.13-4.07,22.2-.06,1.3-.12,2.63-.22,3.23-4.82-.85-6.87-8.89-8.24-14.25-.78-3.06-1.19-4.55-1.87-5.05-1.03-.75-5.66-.88-13.16-.99-3.65-.05-8.13-.12-9.26-.39.39-1.79,6.88-9.53,18.8-16.5,6.66-3.9,13.74-4.71,18.51-4.71,5.35,0,8.76,1.02,9.39,1.48-.12.33-.79,1.09-1.4,1.78Z"/>
      </g>
      <path class="cls-1" d="m192.79,294.83c.65-.32,1.29-.63,1.91-.94-.03-.02-.07-.04-.1-.05,0,0-.68.34-1.81,1Z"/>
      <path class="cls-24" d="m489.53,469.88c-24.37,17.49-66.5,13.51-92.72-1.06-26.23-14.57-67.29-33.38-98.02,7.95-25.17,7.68-40.53-2.38-40.53-2.38,0,0-34.62-23.68-38.02-75.64-3.48-53.12,13.11-94.98-9.24-114.2,0,0-6.09,4.26-16.29,9.34,14.84,7.23,10.55,35.4,4.73,71.34-5.83,36.03-9.54,77.89,10.6,118.69,20.13,40.8,54.57,39.21,73.65,32.76,37.62,20.58,75.64,8.43,103.45-3.09,34.97,5.17,67.16,6.76,99.74-19.07,28.27-22.8,34.39-49.79,32.42-73-1.53,6.81-8.66,33.22-29.77,48.36Z"/>
      <path class="cls-10" d="m519.57,417.61l-.85,3.77c-1.69,7.5-8.81,33.14-29.54,48.01-10.44,7.49-24.76,11.45-41.41,11.45-17.85,0-36.32-4.57-50.68-12.55-15.36-8.53-33.6-17.25-52.43-17.25s-33.74,8.48-46.24,25.21c-6.16,1.86-12.26,2.81-18.13,2.81-13.63,0-21.63-5.12-21.7-5.17-.34-.24-34.42-24.14-37.76-75.18-1.25-19.08.1-36.76,1.29-52.36,2.12-27.8,3.8-49.75-10.74-62.25l-.35-.3-.38.27c-.06.04-6.17,4.3-16.21,9.3l-1.08.54,1.09.53c14.69,7.16,9.92,36.61,4.41,70.71-6.17,38.12-9.15,78.93,10.65,119.05,14.92,30.23,37.22,36.57,53.3,36.57,8.68,0,16.07-1.84,20.82-3.42,13.52,7.35,28.31,11.07,43.97,11.07,22.39,0,43.61-7.57,59.61-14.2,10.34,1.52,22.52,3.07,34.66,3.07,25.42,0,46.19-7.08,65.38-22.3,24.15-19.47,35.13-44.21,32.64-73.52l-.33-3.85Zm-33.06,76.44c-18.97,15.03-39.51,22.04-64.64,22.04-12.13,0-24.32-1.56-34.65-3.09l-.16-.02-.15.06c-15.92,6.6-37.06,14.17-59.31,14.17-15.55,0-30.22-3.72-43.63-11.05l-.23-.12-.25.08c-4.65,1.57-12.02,3.45-20.69,3.45-15.74,0-37.59-6.23-52.23-35.91-19.65-39.81-16.68-80.4-10.54-118.33,5.46-33.78,10.2-63.06-4.03-71.42,8.12-4.11,13.51-7.64,14.95-8.61,13.71,12.17,12.07,33.72,9.99,60.96-1.19,15.64-2.55,33.37-1.29,52.53,3.38,51.64,37.93,75.85,38.28,76.1.33.22,8.36,5.37,22.37,5.37,6.05,0,12.33-.98,18.67-2.92l.19-.06.12-.16c12.28-16.51,27.55-24.89,45.4-24.89s36.63,8.65,51.86,17.1c14.53,8.07,33.21,12.7,51.26,12.7,16.9,0,31.45-4.04,42.1-11.68,18.41-13.2,26.25-34.72,29.07-45.02,1.23,27.24-9.67,50.34-32.44,68.7Z"/>
      <path class="cls-7" d="m136.38,293.53l1.02.61c9.79-16.48,53.78-26.78,54.23-26.88l-.27-1.16c-1.83.42-44.93,10.52-54.98,27.43Z"/>
      <g>
        <path class="cls-17" d="m147.01,284.13c.24,6.22.16,17.23-2.68,25.2-4.17,11.72-9.44,21.06-8.05,24.24,1.39,3.18,8.54,3.51,13.71-2.42,5.17-5.93,11.92-20.63,15.2-29.38,3.28-8.74,10.67-26.71,25.11-34.82h0c-5.47,1.36-28.7,7.48-43.29,17.16Z"/>
        <path class="cls-9" d="m190.31,266.97c-3.82.94-16.26,4.21-28.39,9.38-9.49,12.82-12.27,30.55-6.13,45.98,3.68-6.67,7.27-14.87,9.4-20.55,3.28-8.74,10.67-26.71,25.11-34.82h0Z"/>
        <g>
          <path class="cls-19" d="m144.38,309.2s-.03.09-.05.14c-4.17,11.72-9.44,21.06-8.05,24.24,1.39,3.18,8.54,3.51,13.71-2.42,5.17-5.93,11.92-20.63,15.2-29.38.73-1.93,1.65-4.32,2.81-6.95h0s-2.32,0-3.01.49c-2.85-.37-12.3,2.86-20.62,13.87Z"/>
          <path class="cls-22" d="m165,295.32c-1.63-.21-5.43.76-9.94,3.7.85.05,4.71-.89-.21,10.1,1.49-1.39,3.51-4.29,4.06-2.43.91,3.08-6.39,19.5-13.18,25.5-2.6,2.29-7.64,3.1-9.63.6.03.29.09.56.19.79,1.39,3.18,8.54,3.51,13.71-2.42,5.17-5.93,11.92-20.63,15.2-29.38.73-1.93,1.65-4.32,2.81-6.95h0s-2.32,0-3.01.49Z"/>
          <path class="cls-15" d="m164.87,294.71c-.11,0-.22-.01-.34-.01-3.85,0-12.85,3.84-20.62,14.14l-.13.3c-1.4,3.94-2.94,7.63-4.29,10.88-2.77,6.65-4.77,11.46-3.74,13.8.7,1.61,2.66,2.61,5.09,2.61h0c3.36,0,6.95-1.82,9.61-4.87,5.4-6.2,12.26-21.42,15.31-29.56.61-1.64,1.57-4.13,2.8-6.92l.37-.84h-.91c-.54,0-2.26.04-3.14.48Zm-.23,6.86c-3.02,8.06-9.79,23.11-15.09,29.19-2.44,2.8-5.69,4.46-8.71,4.46h0c-1.96,0-3.49-.73-4-1.9-.82-1.87,1.3-6.97,3.75-12.87,1.36-3.26,2.9-6.96,4.31-10.93l.02-.05c8.15-10.75,17.4-13.9,20.01-13.56l.23.03.19-.14c.25-.18,1.03-.29,1.74-.35-1.06,2.46-1.89,4.63-2.45,6.11Z"/>
        </g>
        <path class="cls-15" d="m154.21,310.68c.05-.11,5.46-11.22,11.11-14.86l-.65-1c-5.93,3.82-10.47,15.86-10.47,15.86Z"/>
        <path class="cls-7" d="m146.69,283.63l-.28.18v.33c.24,5.92.2,17.03-2.63,24.98-1.4,3.94-2.94,7.63-4.29,10.88-2.77,6.65-4.77,11.46-3.74,13.8.7,1.61,2.66,2.61,5.09,2.61h0c3.36,0,6.95-1.82,9.61-4.87,5.4-6.2,12.26-21.42,15.31-29.56,2.42-6.44,9.77-26.04,24.84-34.51l-.43-1.1c-6.55,1.62-29.02,7.65-43.48,17.24Zm17.96,17.94c-3.02,8.06-9.79,23.11-15.09,29.19-2.44,2.8-5.69,4.46-8.71,4.46h0c-1.96,0-3.49-.73-4-1.9-.82-1.87,1.3-6.97,3.75-12.87,1.36-3.26,2.9-6.96,4.31-10.93,2.84-7.99,2.94-19.01,2.73-25.09,12.27-8.04,30.73-13.65,39.15-15.94-13.27,9.44-19.86,27-22.13,33.07Z"/>
      </g>
      <path class="cls-7" d="m191.05,264.98c-1.27-1.93-3.52-2.15-3.52-2.15.06.04,5.51,4.22,4.15,10.93,0,0,1.48-2.59,1.3-3.82-.29-2-1.07-3.67-1.92-4.96Z"/>
      <path class="cls-7" d="m107.5,279.99s-5.25-1.22-10.15,1.08c-3.21,1.5-6.31,4.01-7.76,8.17-1.03,2.94-.89,5.51-.3,7.59,1.04,3.64,4.3,4.9,4.3,4.9-.05-.05-5.45-4.77-2.88-12.1,3.4-9.7,16.65-9.63,16.79-9.64Z"/>
      <g>
        <path class="cls-14" d="m103.27,288.29c-2.17-.59-4.67,1.66-5.58,5.02-.91,3.36.11,6.56,2.29,7.15,2.17.59,4.67-1.66,5.59-5.02.91-3.36-.11-6.56-2.29-7.15Z"/>
        <path class="cls-7" d="m103.43,287.71c-.28-.08-.57-.11-.86-.11-2.29,0-4.58,2.34-5.45,5.55-.47,1.74-.47,3.49,0,4.95.5,1.55,1.46,2.59,2.71,2.93.28.08.57.11.86.11,2.29,0,4.58-2.34,5.45-5.55,1.01-3.73-.18-7.2-2.71-7.88Zm1.56,7.57c-.8,2.95-3.03,5.09-4.85,4.6-.85-.23-1.52-.99-1.89-2.14-.4-1.24-.39-2.76.02-4.28.72-2.66,2.57-4.67,4.3-4.67.19,0,.37.02.55.07,1.82.49,2.68,3.43,1.87,6.42Z"/>
      </g>
      <path class="cls-7" d="m75.03,278.59c3.13-1.89,10.11-4.64,10.18-4.67,0,0-7.58,1.7-10.79,3.65l.62,1.02Z"/>
      <g>
        <path class="cls-20" d="m93.27,236.01c-.7,1.44-.46,12.45,1.19,12.92,1.66.46,6.03-11.66,5.63-13.18-.4-1.52-5.96-1.52-6.82.26Z"/>
        <path class="cls-8" d="m97.04,234.04c-1.68,0-3.7.45-4.31,1.71-.7,1.45-.59,10.08.61,12.75.25.56.57.89.96,1,.08.02.17.03.26.03.45,0,.89-.29,1.37-.93,1.93-2.5,5.16-11.38,4.74-13.01-.38-1.44-2.87-1.56-3.63-1.56Zm-2.45,14.27c-1.02-1.05-1.45-10.67-.79-12.04.29-.59,1.68-1.04,3.23-1.04s2.42.44,2.47.66c.3,1.36-3.46,11.59-4.92,12.42Z"/>
      </g>
      <g>
        <path class="cls-20" d="m97.19,218.08c-.97,2.05.51,13.5,2.58,13.18,1.41-.22,5.95-11.9,5.85-13.69-.11-1.78-7.46-1.54-8.43.51Z"/>
        <path class="cls-8" d="m102.3,215.78c-1.74,0-4.88.43-5.65,2.04-.9,1.9,0,10.44,1.68,13.09.4.63.85.95,1.36.95h0c.06,0,.12,0,.18-.01,2.03-.32,6.44-12.87,6.35-14.31-.07-1.12-1.49-1.76-3.92-1.76Zm-2.61,14.89s-.26-.14-.56-.78c-1.32-2.75-2.07-10.13-1.39-11.56.36-.75,2.41-1.36,4.57-1.36,1.89,0,2.71.46,2.73.64.09,1.58-4.13,12.36-5.34,13.06Z"/>
      </g>
      <g>
        <path class="cls-20" d="m102.97,198.25c-.63,2.99,2.5,15.32,4.54,14.45.88-.38,8.27-15.49,6.45-17.7-1.82-2.21-10.36.26-10.99,3.25Z"/>
        <path class="cls-8" d="m111.32,193.55c-3.21,0-8.38,1.92-8.94,4.58-.56,2.67,1.54,11.89,3.61,14.44.42.52.85.77,1.3.77h0c.15,0,.3-.03.45-.09,1.1-.47,5.59-9.98,6.76-14.78.48-1.98.45-3.2-.08-3.85-.58-.7-1.64-1.07-3.09-1.07Zm-4.07,18.58c-.08-.04-.25-.17-.51-.55-1.79-2.62-3.66-11.02-3.2-13.21.35-1.7,4.49-3.63,7.77-3.63,1.06,0,1.84.22,2.17.63,1.4,1.7-4.85,15.2-6.24,16.75Z"/>
      </g>
      <g>
        <path class="cls-20" d="m122.78,156.83c-2,.61-6.87,8.63-8.79,17.68-1.8,8.53-.75,18.11.74,19.07,1.02.66,5.66-6.56,8.64-10.93,2.98-4.37,11.72-11.82,11.62-14.01-.1-2.19-8.35-13.01-12.22-11.82Z"/>
        <path class="cls-8" d="m123.41,156.15c-.28,0-.56.04-.81.12-2.53.78-7.37,9.47-9.2,18.13-1.76,8.32-.9,18.47,1,19.7.14.09.3.14.47.14h0c1.2,0,3.07-2.46,7.74-9.39.43-.65.85-1.27,1.24-1.84,1.24-1.82,3.53-4.21,5.74-6.53,3.75-3.92,6.05-6.4,5.98-7.84-.1-2.23-7.73-12.48-12.18-12.48Zm5.33,19.5c-2.25,2.35-4.57,4.78-5.87,6.68-.39.57-.81,1.2-1.25,1.84-1.96,2.91-5.56,8.25-6.68,8.83-1.03-1.17-2.16-9.93-.38-18.36,1.88-8.9,6.69-16.72,8.38-17.24.14-.04.3-.06.46-.06,3.69,0,10.91,9.6,10.99,11.34.05,1-3.11,4.31-5.65,6.96Z"/>
      </g>
      <path class="cls-7" d="m218.67,190.7c.06.01,5.54,1.11,9.08,4.94l.88-.81c-3.8-4.12-9.95-4.13-9.95-4.13Z"/>
      <g>
        <g>
          <path class="cls-23" d="m224.61,112.82c-2.78-1.59-40.53,40.53-42.92,59.21-.4,3.15,16.84,12.34,25.04,6.76,3.38-2.78,9.14-24.22,13.31-38.73,4.17-14.52,7.35-25.64,4.57-27.23Z"/>
          <path class="cls-13" d="m224.61,112.82c-.12-.07-.3-.05-.53.03-8.42,22.63-15.73,45.82-27.46,67.38,3.71.62,7.4.4,10.1-1.44,3.38-2.78,9.14-24.22,13.31-38.73,4.17-14.52,7.35-25.64,4.57-27.23Z"/>
          <path class="cls-16" d="m224.9,112.31c-.14-.08-.3-.12-.48-.12-4.87,0-41.05,41.97-43.32,59.78-.08.59.22,1.28.88,2.02,2.57,2.92,10.92,7.16,18.16,7.16h0c2.77,0,5.1-.63,6.96-1.9,3.13-2.58,7.85-19.16,12.01-33.79.51-1.81,1.02-3.57,1.49-5.24,4.93-17.14,7.36-26.16,4.29-27.91Zm-5.44,27.59c-.48,1.67-.98,3.43-1.5,5.24-3.7,13.02-8.78,30.86-11.58,33.17-1.62,1.1-3.72,1.66-6.25,1.66h0c-6.8,0-14.9-4.07-17.27-6.76-.47-.53-.61-.91-.59-1.09.98-7.65,8.49-20.84,20.61-36.19,10.58-13.4,19.85-22.35,21.48-22.54,2.27,1.54-1.22,13.67-4.91,26.51Z"/>
        </g>
        <g>
          <path class="cls-16" d="m194.73,146.42l-.54.25-.54.25c.17.38,4.19,8.71,19.37,8.71.89,0,1.82-.03,2.79-.09l-.07-1.19c-16.6,1.04-20.95-7.81-21.01-7.93Z"/>
          <polygon class="cls-3" points="194.73 146.42 194.19 146.67 194.73 146.42 194.73 146.42"/>
        </g>
        <path class="cls-16" d="m209.07,128.04l-1.16.27c.02.09,2.17,8.92,13.1,8.92h0v-1.19h0c-9.96,0-11.86-7.67-11.94-8Z"/>
      </g>
      <g>
        <g>
          <path class="cls-5" d="m293.36,478.19l14.31,19.17c5.96-10.26-6.72-28.88-6.72-28.88l-7.59,9.71Z"/>
          <path class="cls-4" d="m300.94,468.49l-.3.38c3.51,4.06,4.13,10.69,1.86,13.72-1.08,1.45-2.99,1.57-5.12.98l10.29,13.79c5.96-10.26-6.72-28.88-6.72-28.88Z"/>
          <path class="cls-7" d="m300.45,468.82c.12.18,11.75,17.44,7.13,27.43l-13.74-18.41-.96.71,14.85,19.9.45-.78c3.76-6.47.49-15.93-2.68-22.39-1.66-3.39-5.06-6.45-5.06-6.45Z"/>
        </g>
        <g>
          <path class="cls-5" d="m291.57,473.58l-29.21-6.28s-10.53,10.33,2.78,36.96c3.97,18.28,3.58,27.88,0,37.29-3.58,9.4-18.08,26.89-13.51,34.84,4.57,7.95,29.21,11.92,37.55,11.33,8.35-.6,11.92-3.18,15.1-9.54,3.18-6.36,6.36-15.1,5.56-29.61.99-7.55,12.92-43.51-18.28-74.98Z"/>
          <path class="cls-18" d="m270.7,543.79c5.56-18.28-.79-35.76-3.18-54.04-1.59.79-1.59,5.56-3.18,3.18-5.69-7.11-5.01-16.76-2.53-24.98-1.98,2.63-8.09,13.47,3.33,36.3,3.97,18.28,3.58,27.88,0,37.29-3.58,9.4-18.08,26.89-13.51,34.84.79,1.38,2.21,2.64,4.02,3.78.05-2.53.35-4.97.75-6.96,3.18-11.13,11.13-19.07,14.31-29.41Z"/>
          <path class="cls-4" d="m291.57,473.58l-.5-.11c7.27,20.28,14.95,42.37,8.51,63.92,2.93,14.87-2.98,32.36-16.16,41.37-7.38,4.92-15.24,4.6-22.84,3.84,9.33,3.75,22.84,5.51,28.6,5.1,8.35-.6,11.92-3.18,15.1-9.54,3.18-6.36,6.36-15.1,5.56-29.61.99-7.55,12.92-43.51-18.28-74.98Z"/>
          <path class="cls-7" d="m291.14,474c27.6,27.84,21.17,59.23,18.76,71.04-.3,1.46-.53,2.61-.64,3.44v.06s0,.06,0,.06c.8,14.62-2.52,23.34-5.5,29.31-3.21,6.41-6.76,8.65-14.61,9.21-8.55.6-32.71-3.58-36.99-11.03-2.96-5.15,2.77-14.9,7.82-23.51,2.36-4.02,4.59-7.81,5.73-10.81,3.81-10.01,3.81-20.21.02-37.63l-.05-.14c-12.93-25.85-3-36.17-2.9-36.27h0s-3.92,2.3-4.77,8.78c-.79,6.02.16,15.11,6.57,27.95,3.72,17.12,3.72,27.12,0,36.88-1.11,2.91-3.31,6.66-5.64,10.64-5.22,8.89-11.13,18.96-7.83,24.71,4.44,7.72,26.15,11.69,36.13,11.69.73,0,1.4-.02,1.99-.06,8.26-.59,12.2-3.08,15.59-9.87,3.04-6.09,6.43-14.98,5.63-29.85.11-.79.34-1.9.62-3.3,1.94-9.45,6.74-31.44-5.56-53.93-6.45-11.8-14.36-17.35-14.36-17.35Z"/>
        </g>
        <path class="cls-7" d="m304.92,539.24c.04.06,3.96,5.63,4.4,10.97l1.19-.1c-.47-5.66-5.59-10.87-5.59-10.87Z"/>
        <path class="cls-7" d="m264.71,505.05l1.18-.16c-1.05-7.84,2.73-18.82,2.76-18.93,0,0-5.1,8.81-3.95,19.09Z"/>
      </g>
      <g>
        <path class="cls-21" d="m250.92,566.97c-9.11,1.33-16.58,13.89-16.18,17.25.26,2.21,6.93-.03,11.7-.39,4.77-.37,9.87.03,11.03-2.8,1.16-2.83,2.56-15.38-6.55-14.06Z"/>
        <path class="cls-11" d="m253.49,567c3.6,4.15,1.44,10.31-2.75,12.23-4.78,2.19-12.15,2.36-15.73,5.51,1.31,1.25,7.13-.59,11.42-.92,4.77-.37,9.87.03,11.03-2.8,1.04-2.53,2.26-12.8-3.98-14.03Z"/>
        <path class="cls-6" d="m250.84,566.38c-9.09,1.32-17.15,13.99-16.69,17.91.12.99.98,1.49,2.56,1.49h0c1.33,0,3.11-.32,5-.65,1.62-.29,3.29-.59,4.77-.7.89-.07,1.78-.11,2.66-.15,4-.19,7.79-.36,8.88-3.01.82-2,1.81-8.61-.72-12.37-1.39-2.07-3.58-2.92-6.47-2.5Zm6.08,14.42c-.8,1.95-4.21,2.11-7.83,2.28-.89.04-1.8.08-2.7.15-1.54.12-3.24.42-4.89.72-1.83.33-3.57.64-4.79.64h0c-.61,0-1.34-.08-1.38-.44-.36-3.06,6.94-15.32,15.68-16.59.42-.06.82-.09,1.2-.09,1.82,0,3.17.68,4.1,2.08,2.14,3.19,1.39,9.34.61,11.26Z"/>
      </g>
      <g>
        <path class="cls-21" d="m267.76,571.4c-8.94,2.18-15.19,15.4-14.47,18.71.47,2.17,6.9-.68,11.61-1.5,4.71-.82,9.83-.9,10.72-3.83.89-2.93,1.09-15.56-7.85-13.37Z"/>
        <path class="cls-11" d="m270.87,571.27c4.98,7.28-.04,12.64-7.12,14.51-4.45,1.17-7.46,2.65-10.45,4.38.56,2.08,6.91-.73,11.59-1.55,4.71-.82,9.83-.9,10.72-3.83.77-2.54,1.02-12.35-4.74-13.51Z"/>
        <path class="cls-6" d="m267.61,570.82c-8.93,2.18-15.75,15.56-14.91,19.41.13.58.59,1.27,2.07,1.27h0c1.37,0,3.39-.56,5.53-1.16,1.59-.44,3.22-.9,4.69-1.15.88-.15,1.77-.28,2.64-.4,3.97-.57,7.72-1.1,8.55-3.84.6-1.96.97-8.41-1.68-11.99-1.57-2.12-3.92-2.86-6.88-2.14Zm7.42,13.78c-.61,2.02-3.99,2.5-7.58,3.01-.89.13-1.79.25-2.68.41-1.52.26-3.19.73-4.8,1.18-2.06.57-4,1.11-5.21,1.11h0c-.84,0-.89-.25-.91-.33-.65-3.01,5.45-15.91,14.03-18,.64-.16,1.25-.24,1.81-.24,1.59,0,2.88.65,3.83,1.92,2.37,3.19,2.03,9.19,1.5,10.93Z"/>
      </g>
      <path class="cls-5" d="m378,428.55s-37.75,32.83-37.35,70.66c0,17.96,12.91,30.41,37.35,34.81-1.39,6.79-10.33,29.24-16.49,37.59-4.17,5.96-.6,12.52,21.26,11.52,21.86-.99,29.78-2.38,34.46-19.07,2.89-8.74,5.87-16.56,4.88-25.17-.99-8.61-10.53-22.72-23.25-26.29,12.32-10.53,42.32-33.58,35.57-67.36l-56.43-16.69Z"/>
      <path class="cls-18" d="m356.46,519.51c-21.96-21.8,4.28-68.91,20.33-89.85-6.46,6.01-36.49,35.79-36.14,69.56,0,17.96,12.91,30.41,37.35,34.81-.08.4-.19.85-.32,1.35-2.11,8.02-10.37,28.38-16.17,36.23-1.8,2.57-2.15,5.25-.23,7.39,11.76-10.3,16.36-29.83,21.12-44.42,3.3-.65,6.6-1.5,9.9-2.7-12.72,0-27.87-4.44-35.85-12.36Z"/>
      <path class="cls-4" d="m398.86,512.6c12.32-10.53,42.32-33.58,35.57-67.36l-.32-.1c1.3,22.15-27.85,54.92-50.81,75.34,9.16,2.33,19.15,2.34,24.11,10.13,8.74,14.31,3.28,33.2-9.44,42.74-8.86,6.64-27.68,7.34-37.44,4.57,1.79,3.4,8.29,5.85,22.24,5.21,21.86-.99,29.78-2.38,34.46-19.07,2.89-8.74,5.87-16.56,4.88-25.17-.99-8.61-10.53-22.72-23.25-26.29Z"/>
      <path class="cls-7" d="m433.84,445.36c6.32,31.59-20.37,54.12-33.2,64.95-.77.65-1.5,1.26-2.17,1.84l-.85.72,1.07.3c12.52,3.52,21.87,17.63,22.82,25.79.89,7.74-1.54,15-4.11,22.69-.25.74-.5,1.48-.75,2.25-4.62,16.48-12.33,17.66-33.91,18.64-16.12.73-20.5-2.71-21.66-4.83-1.13-2.06-.13-4.27.91-5.75,6.33-8.57,15.24-31.19,16.6-37.82l.12-.6-.6-.11c-23.77-4.28-36.86-16.44-36.86-34.23-.39-37.11,36.77-69.88,37.15-70.2,0,0-6.3,3.96-12.94,11.82-11.07,13.09-25.65,34.86-25.4,58.39,0,18.28,13.22,30.79,37.23,35.29-1.71,7.21-10.19,28.54-16.26,36.77-1.75,2.5-2.1,4.99-.98,7.02,1.43,2.61,5.85,5.54,18.48,5.54,1.33,0,2.75-.03,4.27-.1,21.28-.97,30.11-2.06,35-19.48.25-.75.5-1.49.74-2.22,2.62-7.81,5.09-15.2,4.17-23.2-.98-8.46-9.99-22.32-22.62-26.48.43-.36.87-.74,1.33-1.13,10.61-8.96,30.91-25.78,34.06-49.28,1.44-10.74-1.63-16.58-1.63-16.58Z"/>
      <path class="cls-7" d="m376.29,533.09l-.29,1.16c1.31.32,2.72.46,4.14.46,6.01,0,12.25-2.35,12.57-2.48,0,0-9.93,2.47-16.42.86Z"/>
      <path class="cls-7" d="m388.26,519.17c.43-.19,10.6-4.63,14.85-9.4l-.89-.79c-3.86,3.92-13.96,10.19-13.96,10.19Z"/>
      <path class="cls-7" d="m267.76,403.19c7.12,4.55,18.83,7,19.32,7.1,0,0-11.74-3.68-18.68-8.11l-.64,1Z"/>
      <g>
        <g>
          <path class="cls-24" d="m366.67,311.12c-38.55,4.77-57.46,22.85-60.69,34.77-3.23,11.92,15.51,70.51,15.51,70.51,0,0,7.62-28.22,27.69-25.25,9.73-11.21,19.97-14.08,28.17-14.44,4.75-11.74,14.81-26.56,27.73-28.09,4.18-11.47,24.85-23.94,37.03-25.26-12.72-5.29-36.89-17.01-75.44-12.24Z"/>
          <path class="cls-10" d="m439.71,321.7c-10.85-4.6-29-12.29-55.31-12.29-5.79,0-11.78.38-17.8,1.12-17.33,2.14-32.49,7.26-43.85,14.8-9.16,6.08-15.48,13.52-17.34,20.41-3.23,11.95,14.75,68.45,15.52,70.84l.61,1.92.53-1.95c.07-.25,6.98-25.03,24.2-25.03.92,0,1.87.07,2.82.21l.32.05.21-.25c7.91-9.11,16.99-13.77,27.74-14.23l.38-.02.14-.36c4.8-11.87,14.81-26.25,27.25-27.72l.36-.04.13-.34c4.01-11.01,24.31-23.55,36.53-24.87l2.31-.25-2.15-.89c-.83-.35-1.71-.72-2.64-1.11Zm-35.05,26.37c-12.66,1.75-22.77,16.08-27.7,28.06-10.84.57-20,5.27-28,14.38-.9-.12-1.8-.18-2.67-.18-15.28,0-22.75,18.19-24.78,24.09-3.1-9.93-17.77-57.92-14.94-68.37,3.03-11.18,21.55-29.56,60.19-34.34,5.97-.74,11.9-1.11,17.65-1.11,26.06,0,44.08,7.64,54.84,12.2.23.1.46.19.69.29-12.71,2.4-31.03,14.12-35.27,24.99Z"/>
        </g>
        <g>
          <path class="cls-5" d="m324.55,320.67c-11.33,7.16-18.88,10.32-26.43,14.1-7.55,3.78-2.78,10.6,1.19,34.18,3.97,23.58-3.55,41.42-6.73,46.45-11.66,2.38-14.02,10.77-14.02,10.77l22.86,16.56s15.37-2.25,19.54-23.11c4.17-20.86-4.37-59.61-9.34-69.15,12.12,5.96,28.21,27.42,38.15,41.53-14.7-36.36-35.17-45.3-34.18-46.49.99-1.29,16.29,3.38,27.42,8.94,11.13,5.56,25.23,15.3,34.77,22.85-15.51-20.5-46.1-34.18-55.04-39.34,30.6-7.55,83.49,11.58,83.49,11.58,0,0-27.46-11.77-44.55-14.36-17.09-2.58-24.51-5.17-34.04-6.75,47.16-32.84,103.59-8.75,115.24-4.78-51.13-28.35-107.03-10.13-118.36-2.97Z"/>
          <path class="cls-18" d="m308.45,333.92c5.85-2.29,15.3-10.54,26.16-14.99,14.95-6.13,31.74-10.45,46.55-10.64-27.65.06-49.91,8.15-56.61,12.38-11.33,7.16-18.88,10.32-26.43,14.1-7.55,3.78-2.78,10.6,1.19,34.18,3.97,23.58-3.55,41.42-6.73,46.45-8.8,1.8-11.97,7.11-13,9.61,2.55-2.98,9.49-6.25,10.39-3.43-1.2,2.06-2.02,4.31-2.9,6.19,12.84-14.63,18.7-29.73,17.14-51.39-.64-8.88-2.89-17.62-4.97-29.77-.93-5.45-1.78-8.38,9.21-12.68Z"/>
          <g>
            <path class="cls-4" d="m308.12,347.04c5.54,30.8,14.84,76.02-6.97,95.48l.28.21s15.37-2.25,19.54-23.11c4.17-20.86-4.37-59.61-9.34-69.15,11.79,5.8,27.33,26.25,37.31,40.34-9.83-17.16-23.01-38.35-40.83-43.77Z"/>
            <path class="cls-4" d="m312.83,344.3c1.16.7,2.18,1.09,3,1.06,2.11-.75,16.56,3.75,27.2,9.07,11.13,5.56,25.23,15.3,34.77,22.85-.49-.65-1-1.3-1.53-1.94-13.47-11.39-39.73-35.4-63.45-31.05Z"/>
            <path class="cls-4" d="m406.25,349.52s-9.54-4.09-20.86-7.98c-21.14-4.36-44.21-11.54-65.41-4.99.32.41,1.64,1.05,2.78,1.39,30.6-7.55,83.49,11.58,83.49,11.58Z"/>
            <path class="cls-4" d="m323.69,328.74c1.01,0,2.43.02,4.08-.4,47.13-32.73,103.49-8.68,115.13-4.7-7.18-3.98-14.46-7.04-21.69-9.35-27.82-7.67-72.32-8.53-97.53,14.45Z"/>
          </g>
          <path class="cls-7" d="m368.75,308.24c-21.85,1.91-38.6,8.18-44.52,11.92-8.81,5.57-15.18,8.64-21.35,11.62-1.7.82-3.36,1.62-5.02,2.45-5.86,2.93-4.83,7.54-2.36,18.7.94,4.25,2.12,9.54,3.23,16.11,3.7,21.93-2.57,39.41-6.51,45.82-11.66,2.5-13.07,11.47-13.07,11.47.09-.33,2.43-8.07,13.56-10.35l.25-.05.14-.22c4.02-6.36,10.61-24.34,6.81-46.87-1.11-6.6-2.29-11.91-3.24-16.17-2.4-10.81-3.3-14.86,1.72-17.37,1.66-.83,3.31-1.63,5.01-2.44,5.91-2.85,12.6-6.08,21.47-11.68,5.6-3.54,22.49-9.86,43.98-11.74,16.64-1.46,40.73-.62,65.15,10.41-21.17-7.26-66.91-19.61-106.68,8.09l-1.2.84,1.45.24c3.82.63,7.25,1.42,11.22,2.32,5.91,1.35,12.6,2.88,22.83,4.42,8.17,1.23,18.99,4.56,27.99,7.67-18.48-4.93-47.5-10.87-66.99-6.06l-1.44.35,1.28.74c1.47.85,3.54,1.94,5.95,3.2,11.57,6.08,32.29,16.97,45.58,31.93-8.66-6.53-20.57-14.63-30.7-19.69-9.48-4.74-26.64-10.75-28.14-8.79-.13.16-.19.36-.17.56.06.57.7,1.06,2.42,2.4,5.24,4.08,18.62,14.5,29.68,39.09-14.99-20.78-26.52-32.98-35.18-37.24l-1.63-.8.84,1.61c4.83,9.27,13.46,47.88,9.28,68.75-4.04,20.18-18.89,22.62-19.04,22.64,0,0,7.04.07,12.88-6.6,3.07-3.51,5.88-8.56,7.33-15.81,4.01-20.03-3.66-56.24-8.62-67.88,8.85,5.17,21.07,18.78,36.36,40.49l2.98,4.23-1.94-4.8c-11.54-28.53-26.55-40.23-32.21-44.63-.62-.48-1.22-.95-1.6-1.28,2.95.02,15.57,3.79,26.23,9.12,11.8,5.9,26.05,15.96,34.67,22.78l3.67,2.9-2.82-3.73c-13.06-17.27-36.64-29.66-49.31-36.32-1.73-.91-3.29-1.73-4.57-2.43,30.31-6.48,81.89,11.47,82.41,11.65,0,0-7.6-4.38-17.51-7.77-8.92-3.06-19.47-6.27-27.51-7.48-10.19-1.54-16.86-3.06-22.74-4.41-3.48-.8-6.55-1.5-9.84-2.09,43.47-29.29,93.88-10.98,110.55-4.93,1.17.43,2.16.79,2.95,1.05l.48-1.09c-27.54-15.27-55.68-16.52-74.45-14.87Z"/>
        </g>
        <g>
          <path class="cls-23" d="m305.72,306.65c-1.39-2.19-8.5,1.74-12.12,8.39-3.62,6.66-3.73,18.53-1.24,22.5,2.48,3.97,9.93,2.78,12.05-1.79,2.11-4.57-1.36-10.78-1.62-16.19-.3-6.21,4.32-10.53,2.93-12.92Z"/>
          <path class="cls-13" d="m305.72,306.65c-.19-.3-.5-.47-.88-.55.18,1.25-4.53,6.42-4.8,11.12-.39,6.84,2.35,16.13-2.32,19.14-1.66,1-3.46,1.43-5.23,1.37,2.6,3.74,9.83,2.52,11.91-1.97,2.11-4.57-1.36-10.78-1.62-16.19-.3-6.21,4.32-10.53,2.93-12.92Z"/>
          <path class="cls-16" d="m306.23,306.33c-.26-.4-.78-.88-1.84-.88-2.95,0-8.32,3.82-11.31,9.31-3.69,6.77-3.82,18.96-1.22,23.1,1.07,1.71,3.04,2.69,5.42,2.69h0c2.78,0,6.23-1.4,7.68-4.54,1.42-3.08.48-6.81-.43-10.41-.51-2.03-1.04-4.13-1.14-6.06-.15-3.13,1.03-5.81,1.98-7.97.94-2.14,1.68-3.83.86-5.24Zm-4.03,13.26c.1,2.05.64,4.21,1.17,6.3.9,3.56,1.75,6.92.5,9.62-1.05,2.27-3.76,3.85-6.59,3.85-1.96,0-3.56-.77-4.41-2.13-2.38-3.81-2.19-15.56,1.26-21.9,2.89-5.31,8-8.69,10.26-8.69.41,0,.69.11.82.31.5.87-.13,2.31-.94,4.14-1,2.27-2.24,5.09-2.08,8.51Z"/>
        </g>
        <path class="cls-7" d="m286.65,428.3s3.38-4.6,5.58-9.64c1.16-2.66,2.31-5.33,3.1-7.29l-1.1-.45c-2.3,5.65-7.52,17.27-7.58,17.38Z"/>
      </g>
      <g>
        <path class="cls-21" d="m210.1,549.94c-9.2.4-14.12,10.29-14.07,13.68.04,2.22,5.38.8,10.16.91,4.78.12,10.58,1.88,12.02-.82,1.44-2.7,1.08-14.17-8.12-13.77Z"/>
        <path class="cls-11" d="m213.2,550.33c5.9,6.56-.35,12.13-7,11.82-3.3-.16-6.79.85-10.17,1.39,0,.03,0,.06,0,.09.04,2.22,5.38.8,10.16.91,4.78.12,10.58,1.88,12.02-.82,1.26-2.35,1.14-11.38-5.01-13.38Z"/>
        <path class="cls-6" d="m210.07,549.35c-9.75.42-14.7,10.78-14.64,14.28.03,1.84,2.4,1.84,3.29,1.84h0c.88,0,1.91-.08,3-.16,1.45-.11,2.97-.23,4.45-.19,1.31.03,2.71.19,4.07.34,1.49.17,2.89.33,4.16.33,1.45,0,3.48-.19,4.34-1.81,1.04-1.94,1.15-7.07-1.02-10.69-1.64-2.73-4.26-4.1-7.65-3.96Zm7.61,14.09c-.43.8-1.47,1.18-3.29,1.18-1.2,0-2.57-.16-4.02-.32-1.38-.16-2.81-.32-4.17-.35-.2,0-.4,0-.6,0-1.35,0-2.74.1-3.97.2-1.07.08-2.07.16-2.91.16h0c-2.09,0-2.1-.49-2.1-.67-.05-3.11,4.65-12.69,13.5-13.07,2.96-.13,5.16,1.01,6.58,3.38,1.99,3.32,1.77,8.05.99,9.51Z"/>
      </g>
      <g>
        <path class="cls-21" d="m224.08,557.17c-8.94,2.18-11.84,12.85-11.13,16.16.47,2.17,5.43-.27,10.14-1.09,4.71-.82,10.74-.22,11.63-3.15.89-2.93-1.7-14.11-10.65-11.92Z"/>
        <path class="cls-11" d="m230.62,558.33c2.07,11.17-9.79,9.58-17.47,15.42,1.05,1.37,5.6-.75,9.94-1.51,4.71-.82,10.74-.22,11.63-3.15.61-2.02-.44-7.99-4.1-10.76Z"/>
        <path class="cls-6" d="m223.94,556.59c-9.49,2.32-12.31,13.44-11.57,16.87.13.62.59,1.35,2.04,1.35,1.14,0,2.67-.43,4.46-.92,1.35-.37,2.87-.8,4.33-1.05,1.29-.22,2.69-.34,4.05-.46,3.75-.31,7.29-.61,8.05-3.11.56-1.84-.1-6.35-2.44-9.5-2.17-2.93-5.31-4.05-8.92-3.17Zm10.22,12.33c-.52,1.72-3.67,1.99-7.01,2.27-1.39.12-2.82.24-4.16.47-1.52.26-3.07.7-4.45,1.08-1.63.45-3.16.88-4.14.88h0c-.78,0-.84-.26-.87-.41-.66-3.04,2.09-13.35,10.69-15.46.72-.18,1.42-.26,2.07-.26,2.25,0,4.13,1.01,5.6,2.99,2.25,3.03,2.67,7.11,2.26,8.45Z"/>
      </g>
      <g>
        <path class="cls-21" d="m285.74,574.79c-8.68,2.12-14.74,14.94-14.04,18.15.46,2.11,6.69-.66,11.26-1.46,4.57-.79,9.54-.88,10.4-3.72.86-2.84,1.06-15.09-7.62-12.97Z"/>
        <path class="cls-11" d="m287.88,574.55c3.45,2.45,3.57,8.88.91,11.23-2.77,2.44-11.97,3.44-16.78,7.63,1.37,1.09,6.83-1.22,10.95-1.93,4.57-.79,9.54-.88,10.4-3.72.78-2.58,1.02-12.95-5.48-13.21Z"/>
        <path class="cls-6" d="m285.6,574.21c-8.67,2.12-15.29,15.11-14.48,18.85.12.57.57,1.25,2.03,1.25h0c1.34,0,3.3-.55,5.37-1.12,1.54-.43,3.13-.87,4.54-1.12.85-.15,1.71-.27,2.56-.39,3.86-.55,7.5-1.07,8.31-3.74.58-1.91.94-8.17-1.64-11.65-1.53-2.07-3.82-2.78-6.69-2.08Zm7.19,13.38c-.59,1.95-3.87,2.41-7.33,2.91-.86.12-1.73.25-2.6.4-1.47.26-3.09.71-4.66,1.14-1.99.56-3.88,1.08-5.05,1.08h0c-.8,0-.85-.23-.86-.31-.63-2.92,5.29-15.41,13.6-17.44.62-.15,1.21-.23,1.75-.23,1.56,0,2.77.61,3.7,1.86,2.29,3.09,1.97,8.9,1.45,10.59Z"/>
      </g>
      <g>
        <path class="cls-21" d="m363.28,565.61c-8.32,1.95-14.35,14.65-13.75,17.88.39,2.12,6.39-.54,10.77-1.24s8.45-1,9.99-3.52c2.17-3.53,1.31-15.07-7.01-13.12Z"/>
        <path class="cls-11" d="m365.06,565.4c3.83,1.91,3.18,7.35,1.95,9.44-1.35,2.3-4.7,4.15-8.48,5.05-3.43.82-6.87,2.43-8.97,3.69.56,1.93,6.43-.64,10.73-1.33,4.38-.71,8.45-1,9.99-3.52,2-3.26,1.42-13.34-5.23-13.33Z"/>
        <path class="cls-6" d="m363.14,565.03c-8.31,1.95-14.9,14.81-14.2,18.57.19,1.02,1.14,1.44,2.82,1.24h0c1.19-.14,2.69-.54,4.27-.97,1.47-.4,3-.81,4.35-1.03.54-.09,1.08-.17,1.61-.25,3.92-.59,7.3-1.1,8.8-3.55,1.52-2.48,1.62-7.97-.53-11.34-1.57-2.45-4.05-3.39-7.12-2.67Zm6.64,13.38c-1.21,1.97-4.34,2.44-7.96,2.99-.53.08-1.07.16-1.62.25-1.41.23-2.97.65-4.47,1.06-1.54.42-3,.81-4.1.94h0c-.53.06-1.44.11-1.51-.27-.54-2.93,5.34-15.32,13.31-17.19.31-.07.61-.13.9-.16,2.14-.25,3.8.53,4.94,2.31,1.98,3.11,1.69,8.17.52,10.07Z"/>
      </g>
      <g>
        <path class="cls-21" d="m381.31,569.25c-8.05,2.86-12.65,16.14-11.7,19.28.62,2.06,6.3-1.24,10.57-2.42,4.27-1.19,8.28-1.92,9.55-4.6,1.77-3.75-.36-15.12-8.41-12.26Z"/>
        <path class="cls-11" d="m383.46,568.8c3.09,1.52,4.5,8.74.9,12.34-4.47,2.98-10.34,3.87-14.33,7.9,1.52.8,6.37-1.88,10.15-2.93,4.27-1.19,8.28-1.92,9.55-4.6,1.6-3.39.01-13.01-6.26-12.71Z"/>
        <path class="cls-6" d="m381.11,568.69c-8.05,2.86-13.18,16.36-12.07,20.02.12.41.51,1.09,1.71,1.09,1.29,0,3.18-.74,5.37-1.6,1.42-.56,2.89-1.14,4.21-1.5.53-.15,1.06-.29,1.57-.43,3.83-1.02,7.13-1.9,8.35-4.49,1.09-2.31.85-7.16-1.22-10.42-1.81-2.85-4.64-3.82-7.93-2.66Zm8.07,12.57c-.98,2.09-4.04,2.9-7.58,3.85-.52.14-1.05.28-1.59.43-1.38.38-2.88.97-4.33,1.54-1.99.78-3.87,1.52-4.94,1.52-.5,0-.55-.16-.57-.24-.86-2.85,3.62-15.81,11.33-18.55.79-.28,1.54-.42,2.24-.42,1.75,0,3.19.87,4.28,2.59,1.78,2.81,2.08,7.29,1.15,9.28Z"/>
      </g>
      <g>
        <path class="cls-21" d="m401.63,569.33c-6.87,2.91-10.18,14.65-9.19,17.32.65,1.75,5.42-1.41,9.08-2.66,3.66-1.26,7.12-2.11,8.08-4.49,1.34-3.34-1.1-13.07-7.97-10.17Z"/>
        <path class="cls-11" d="m403.45,568.83c1.79,2.77,2.84,5.97,1.57,9.16-1.39,3.17-8.98,4.76-12.32,9,1.2.88,5.47-1.85,8.82-3,3.66-1.26,7.12-2.11,8.08-4.49,1.22-3.03-.67-11.3-6.15-10.67Z"/>
        <path class="cls-6" d="m401.4,568.78c-7.06,2.99-10.71,14.86-9.52,18.08.13.34.48.9,1.46.9h0c1.15,0,2.84-.78,4.79-1.69,1.21-.56,2.46-1.14,3.58-1.52.45-.16.91-.31,1.35-.45,3.3-1.09,6.15-2.04,7.09-4.38.81-2.01.42-6.03-1.45-8.8-1.74-2.58-4.38-3.37-7.3-2.13Zm7.65,10.49c-.74,1.83-3.34,2.69-6.36,3.7-.45.15-.9.3-1.36.46-1.19.41-2.46,1-3.7,1.57-1.67.78-3.41,1.58-4.29,1.58-.29,0-.32-.08-.34-.13-.9-2.41,2.32-13.8,8.86-16.56.77-.32,1.5-.49,2.17-.49,1.46,0,2.69.74,3.67,2.19,1.59,2.35,2.01,6,1.33,7.69Z"/>
      </g>
      <path class="cls-7" d="m193.12,293.83l1.24.81c14.26-6.63,25.06-15.1,32.14-22.24,9.1-9.18,11.88-17.28,11.88-17.28-.11.23-13.04,23.73-45.26,38.7Z"/>
    </g>
    <path class="cls-20" d="m370.97,514.14c-3.53.06-6.86-1.32-8.91-4.1,1.79-.28,3.5-1.04,4.9-2.48.96-.99-.25-2.4-1.42-1.84-5.59,2.72-10.65,2.06-13.77-3.71-.47-.86-1.83-.27-1.57.66,1.2,4.2,5.33,7.12,9.53,7.47,2.01,4.32,6.67,7.28,11.49,5.89,1.03-.3.85-1.91-.26-1.89Z"/>
    <path class="cls-20" d="m293.63,561.61c-2.95-.86-5.49-1.49-7.41-4.13-.62-.85-2.03-.07-1.43.84,1.15,1.75,2.9,3.39,4.91,4.25-.11,1.95.94,3.78,2.94,4.42.71.23,1.14-.83.5-1.19-1.09-.62-1.82-1.63-2.01-2.78.81.18,1.65.22,2.5.08.79-.13.68-1.29,0-1.48Z"/>
    <path class="cls-20" d="m268.27,451.45c-4.49-.15-8.49-1.84-12.02-4.56-4.81-.19-9.52-3.39-11.59-7.87-.33-.72.69-1.35,1.07-.63,3.56,6.72,10.14,7.36,16.67,4.9.97-.37,1.34,1.02.65,1.54-1.36,1.03-2.84,1.58-4.34,1.88,2.92,1.76,6.13,2.83,9.57,3.26.92.11.98,1.51,0,1.48Z"/>
    <path class="cls-20" d="m238.34,545.51c-1.87-.6-3.74-1.08-5.47-2.02-1.76-.95-3.07-2.38-4.41-3.82-.75-.8-1.94.22-1.46,1.13,1.97,3.75,6.79,6.91,11.09,6.57,1.06-.08,1.3-1.52.25-1.86Z"/>
    <path class="cls-20" d="m245.8,309.45c-2.92,1.74-6.78,1.18-8.89-1.52-.33-.43-1.04.13-.74.57,2.24,3.39,6.94,4.5,10.26,2.02.63-.47.08-1.49-.63-1.07Z"/>
  </g>
  <path class="cls-20" d="m295.9,541.25c-1.87-.6-3.74-1.08-5.47-2.02-1.76-.95-3.07-2.38-4.41-3.82-.75-.8-1.94.22-1.46,1.13,1.97,3.75,6.79,6.91,11.09,6.57,1.06-.08,1.3-1.52.25-1.86Z"/>
</svg>