<?xml version="1.0" encoding="UTF-8"?>
<svg id="Layer_1" data-name="Layer 1" xmlns="http://www.w3.org/2000/svg" viewBox="0 0 601 712">
  <defs>
    <style>
      .cls-1 {
        opacity: .15;
      }

      .cls-1, .cls-2, .cls-3, .cls-4, .cls-5, .cls-6, .cls-7, .cls-8, .cls-9, .cls-10, .cls-11, .cls-12, .cls-13, .cls-14, .cls-15, .cls-16, .cls-17, .cls-18, .cls-19 {
        stroke-width: 0px;
      }

      .cls-2 {
        fill: #26a69a;
        opacity: .24;
      }

      .cls-4 {
        fill: #360000;
      }

      .cls-5 {
        fill: #47a9df;
      }

      .cls-6 {
        fill: #2a0101;
      }

      .cls-7 {
        fill: #1a1a1a;
      }

      .cls-8 {
        fill: #1b75bb;
      }

      .cls-9 {
        fill: #0e3b5e;
      }

      .cls-10 {
        fill: #14588c;
      }

      .cls-11 {
        fill: #e27a7a;
      }

      .cls-12 {
        fill: #dbdbdb;
      }

      .cls-13 {
        fill: #c14848;
      }

      .cls-14 {
        fill: #b2dfdb;
      }

      .cls-15 {
        fill: #308ecd;
      }

      .cls-16 {
        fill: #333;
      }

      .cls-17 {
        fill: #fff;
      }

      .cls-18 {
        fill: #ffa4a4;
      }

      .cls-19 {
        fill: #6b0000;
      }
    </style>
  </defs>
  <ellipse class="cls-1" cx="340.88" cy="574.62" rx="201.41" ry="31.65"/>
  <g>
    <path class="cls-10" d="m321.71,165.9c13.03,5.13,28.69,24.87,28.27,27.32-.42,2.45-11.17-2.24-20.49-.11-4.81-8.6-7.78-27.21-7.78-27.21Z"/>
    <path class="cls-10" d="m349.02,194.27c-1.1.14-2.83-.13-5-.47-3.99-.62-9.45-1.48-14.45-.33l-.27.06-.13-.24c-4.78-8.56-7.79-27.15-7.82-27.34l-.1-.63.6.24c13.16,5.18,28.94,25.1,28.5,27.72-.1.6-.56.89-1.32.99Zm-17.57-1.88c4.53-.59,9.17.14,12.68.69,2.75.43,5.35.84,5.48.08.38-2.2-14.74-21.26-27.44-26.67.57,3.32,3.35,18.58,7.5,26.21.59-.13,1.18-.23,1.78-.3Z"/>
    <g>
      <g>
        <path class="cls-14" d="m198.92,142.31s-12.68,25.47-21.22,31.67c5.91,5.25,10.33,16.11,5.69,26.8,5.66-2.83,7.23-3.03,7.23-3.03,0,0,17.35-.9,21.58,1.38,4.23,2.28,13.21-25.15,13.21-25.15l-10.14-19.36-16.36-12.3Z"/>
        <path class="cls-2" d="m178.13,174.38c.11.1.21.21.32.31,12.05,1.15,28.67,7.31,38.17,20.53.84-1.43,1.69-3.13,2.52-4.95-9.92-11.85-24.59-17.92-41.01-15.9Z"/>
        <path class="cls-2" d="m215.28,154.61l-16.31-12.26c7.35,15.27,14.42,16.22,21.05,45.94,2.95-6.83,5.4-14.31,5.4-14.31l-10.14-19.36Z"/>
        <path class="cls-9" d="m212.93,199.61c-.32.04-.62-.01-.9-.17-4.09-2.21-21.21-1.34-21.39-1.34.02,0-1.61.26-7.09,2.99l-.9.45.4-.92c4.4-10.14.51-20.95-5.6-26.38l.03-.23v-.34c8.37-6.08,20.98-31.28,21.1-31.54l.2-.39,16.81,12.69,10.21,19.5-.05.15c-.31.96-7.76,23.56-12.37,25.4-.16.06-.31.1-.46.12Zm-22.35-2.23c.74-.04,17.53-.88,21.8,1.42.22.12.46.12.74,0,3.54-1.41,9.74-18.24,11.9-24.8l-10.03-19.15-15.94-11.99c-1.67,3.31-12.77,24.92-20.78,31.14,5.94,5.53,9.69,16,5.83,26.01,4.95-2.42,6.42-2.63,6.48-2.64Z"/>
      </g>
      <g>
        <path class="cls-15" d="m225.15,164.36c-5.58-14.53-25.75-23.1-26.23-22.05-.48,1.05,15.92,14.66,18.33,26.52,5.35-.45,7.91-4.47,7.91-4.47Z"/>
        <path class="cls-8" d="m220.13,167.34c-5.58-14.53-17.85-21.55-21.21-25.03-.48,1.05,15.92,14.66,18.33,26.52,5.35-.45,2.88-1.49,2.88-1.49Z"/>
        <path class="cls-10" d="m217.81,169.14c-.17.02-.35.04-.53.06l-.32.03-.06-.32c-1.68-8.32-10.44-17.62-15.14-22.61-2.89-3.06-3.38-3.65-3.16-4.14.1-.21.31-.31.63-.3,2.71.09,21.02,8.7,26.27,22.37l.07.17-.1.16c-.1.16-2.54,3.92-7.65,4.58Zm-.27-.7c4.31-.51,6.7-3.43,7.2-4.12-5.29-13.46-22.56-21.19-25.31-21.7.42.59,1.61,1.86,2.85,3.18,4.69,4.98,13.38,14.2,15.26,22.64Z"/>
      </g>
      <g>
        <path class="cls-15" d="m213.41,176.22c-14.78-7.73-35.2-4.01-35.71-2.24-.51,1.78,14.57-3.5,31.96,9.36,3.49-1.56,3.75-7.13,3.75-7.13Z"/>
        <path class="cls-8" d="m212.09,180.14c-14.78-7.73-26.5-7.91-34.39-6.16-.51,1.78,14.57-3.5,31.96,9.36,3.49-1.56,2.43-3.21,2.43-3.21Z"/>
        <path class="cls-10" d="m209.62,183.77l-.17-.13c-12.66-9.36-24.16-9.04-29.07-8.9-1.8.05-2.62.07-2.93-.33-.11-.15-.15-.34-.09-.53.09-.33.45-.61,1.14-.91,4.46-1.92,22.01-3.92,35.09,2.92l.21.11v.23c-.02.24-.32,5.81-3.97,7.45l-.2.09Zm-31.47-9.78c.38.07,1.31.05,2.2.02,4.96-.14,16.56-.47,29.35,8.91,2.69-1.38,3.23-5.47,3.32-6.49-12.68-6.51-28.97-4.54-33.49-3.07-.87.28-1.24.5-1.39.62Z"/>
      </g>
      <g>
        <path class="cls-15" d="m209.28,193.48c-15.07-1.61-26.04,6.09-25.88,7.3.16,1.21,11.64-4.14,24,1.06,3.19-2.87,1.89-8.36,1.89-8.36Z"/>
        <path class="cls-8" d="m208.82,197.72c-15.07-1.61-20.87.73-25.43,3.06.16,1.21,11.64-4.14,24,1.06,3.19-2.87,1.43-4.12,1.43-4.12Z"/>
        <path class="cls-10" d="m207.46,202.27l-.21-.09c-8.71-3.66-17.07-2.01-21.09-1.22-1.88.37-2.54.49-2.91.22-.12-.09-.2-.22-.22-.36-.04-.28.14-.61.56-1.04,2.23-2.28,12.46-8.09,25.73-6.67l.26.03.06.25c.06.23,1.32,5.73-2,8.72l-.17.16Zm-17.13-2.76c4.46-.58,10.61-.71,16.98,1.91,2.43-2.39,1.85-6.54,1.66-7.6-13.88-1.38-24.14,5.16-25.14,6.78.4,0,1.3-.18,2.18-.36,1.13-.22,2.6-.51,4.32-.74Z"/>
      </g>
    </g>
    <path class="cls-9" d="m254.87,167.47c5.22-35.75,21.31-58.49,17.28-60.72-4.03-2.22-37.8,26.5-44.16,49.93,10.76,3.78,26.88,10.79,26.88,10.79Z"/>
    <path class="cls-9" d="m255.16,168l-.44-.19c-.16-.07-16.23-7.05-26.85-10.78l-.32-.11.09-.33c5.56-20.51,32.66-45.86,42-49.81,1.26-.53,2.14-.64,2.69-.34,1.98,1.09.17,5.53-3.12,13.59-4.36,10.68-10.95,26.83-13.97,47.5l-.07.47Zm-26.73-11.55c9.65,3.41,23.51,9.36,26.14,10.5,3.06-20.53,9.61-36.56,13.95-47.2,2.82-6.91,4.86-11.9,3.45-12.67-.15-.08-.66-.22-2.05.37-9.19,3.89-35.78,28.74-41.49,49Z"/>
    <g>
      <path class="cls-10" d="m323.76,245.61c6.07,4.83,22.73,27.75,21.81,42.45-.37.97-5.21-2.68-9.37-4.22-3.88-1.43-8.32-2.24-8.44-1.76-.12.48,6.59,9.54,10.88,20.29,4.29,10.76,6.15,23.22,5.67,23.8-.51.63-4.74-3.1-9.4-6.1-4.03-2.59-8.6-4.5-8.76-4.03-.18.53,5.55,7.87,9.52,16.47,3.79,8.2,5.82,17.64,5.78,19.42-.04,1.77-4.83-.08-10.31-1.24-5.77-1.22-12.22-1.79-12.22-1.79l.38-66.64,4.46-36.65Z"/>
      <path class="cls-10" d="m340.69,353.01c-1.04.13-2.78-.29-5.52-.98-1.25-.32-2.67-.68-4.11-.98-5.68-1.2-12.12-1.78-12.18-1.79l-.34-.03v-.34s.38-66.64.38-66.64l4.55-37.34.51.41c5.65,4.49,22.9,27.46,21.95,42.76l-.02.11c-.06.17-.19.29-.36.35-.59.22-1.71-.38-3.98-1.64-1.63-.91-3.66-2.04-5.5-2.72-3.36-1.24-6.81-1.9-7.83-1.88.22.4.7,1.17,1.24,2.03,2.25,3.59,6.45,10.26,9.49,17.9,4.09,10.26,6.31,23.32,5.62,24.17-.51.62-1.57-.11-4.83-2.49-1.52-1.11-3.24-2.37-5.05-3.53-3.33-2.14-6.86-3.71-8.05-4,.28.51.9,1.45,1.55,2.44,1.96,3,5.24,8.02,7.79,13.54,3.91,8.47,5.85,17.86,5.81,19.58,0,.33-.14.61-.39.8-.19.14-.43.23-.74.27Zm-21.4-4.44c1.4.14,6.96.72,11.93,1.77,1.45.31,2.88.67,4.14.99,2.59.66,5.04,1.28,5.63.83.05-.04.1-.09.1-.23.04-1.62-1.95-11.02-5.75-19.25-2.52-5.47-5.79-10.46-7.74-13.44-1.68-2.57-1.91-2.96-1.8-3.3.05-.13.15-.23.29-.28.9-.3,5.72,2,9.01,4.12,1.83,1.17,3.56,2.44,5.08,3.55,1.55,1.13,3.3,2.41,3.85,2.54.14-1.28-1.55-12.82-5.75-23.36-3.02-7.58-7.19-14.22-9.43-17.79-1.42-2.26-1.53-2.47-1.46-2.73.03-.13.12-.24.25-.31.84-.44,5.47.63,8.67,1.82,1.9.7,3.95,1.85,5.6,2.77,1.25.7,2.79,1.55,3.29,1.6.73-14.03-14.86-36-21.17-41.53l-4.38,35.98-.38,66.26Z"/>
    </g>
    <g>
      <path class="cls-10" d="m360.13,387.82c17.17-1.31,55.43,9.22,56.19,15.02.46,2.15-12.72,7.19-12.12,8.95.6,1.77,22.78,3.56,30.76,13.84,7.98,10.28-40.4,5.25-40.4,5.25l-34.43-43.06Z"/>
      <path class="cls-10" d="m427.96,431.91c-11.81,1.53-32.28-.55-33.43-.67l-.15-.02-34.96-43.72.69-.05c17.18-1.31,55.78,9.16,56.58,15.34.27,1.26-2.32,2.79-6.62,5.17-1.99,1.1-5.7,3.15-5.51,3.71.24.38,2.83,1.02,5.34,1.63,7.39,1.82,19.76,4.86,25.37,12.1,1,1.29,1.22,2.44.67,3.43-.89,1.6-3.92,2.55-7.96,3.07Zm-33.21-1.38c10.51,1.08,37.84,2.78,40.53-2.05.4-.72.2-1.58-.61-2.63-5.46-7.03-17.67-10.04-24.96-11.83-3.99-.98-5.61-1.41-5.85-2.11-.37-1.09,1.87-2.39,5.85-4.59,2.57-1.42,6.44-3.56,6.26-4.41-.69-5.26-37.06-15.81-55.11-14.78l33.9,42.39Z"/>
    </g>
    <g>
      <path class="cls-10" d="m455.57,472.08c-.3-3.75,2.66-12.85,5.74-20.85,2.92-7.57,5.96-14.15,6.48-14.31.51-.16,1.86,2.53,3.37,5.32,1.62,3.01,3.43,6.16,4.56,6.01.99-.13.11-6.9-2.33-13.23-2.94-7.6-7.59-15.03-6.79-15.84.71-.72,2.71.94,4.95,2.12,2.38,1.26,4.99,2.05,5.25,1.16.26-.88-5.77-6.24-10.89-11.87-4.93-5.42-8.96-11.12-8.06-11.87.86-.72,3.2-.46,5.38-.51,2.43-.06,4.71-.41,5.33-.88.58-.44-7.83-4.11-14.65-9.07-6.99-5.09-12.51-12.47-12.32-13.9.21-1.56,3.85,1.2,7.41,2.36,2.85.93,5.85,1.29,6.25.57.46-.82-8.95-5.79-16.07-12.21-6.77-6.12-11.27-13.69-10.86-14.73.41-1.07,3.15-.21,5.83.41,2.69.62,5.33,1,5.54.51.22-.51-9.56-8.24-16.85-17.55-6.77-8.63-11.37-18.39-10.68-19.76.53-1.08,3.28,1.35,6.14,2.92,1.98,1.09,4.31,1.49,4.71,1.14.49-.42-6.44-7.34-10.65-15.22-4.39-8.22-6.06-17.41-5.41-17.52.63-.1,2.41,2.63,4.3,4.2,1.89,1.57,3.89,1.99,4.42,1.82.49-.15-3.27-8.35-4.38-16.68-1.31-9.85,0-20.07.89-20.11,1.65-.06,4.75,8.15,6.22,8.08.9-.04,2.04-12.19,9.3-22.1,5.49-7.49,12.11-12.39,21.12-13.56-17.26,16.59-24.25,53.37-21.73,64.23,2.52,10.87,17.48,49.32,29.93,65.66,12.45,16.34,27.9,29.83,34.56,47.66,6.66,17.83,6.84,41.91-2.06,54.87-8.89,12.96-33.95,12.71-33.95,12.71Z"/>
      <path class="cls-10" d="m463.77,471.85c-4.71.61-8.11.6-8.2.6h-.33s-.03-.34-.03-.34c-.36-4.54,3.91-16.21,5.77-21.01,1.78-4.62,5.77-14.24,6.71-14.53.66-.2,1.24.73,3.25,4.47l.55,1.02c.86,1.6,3.13,5.8,4.14,5.83.45-.71-.18-6.53-2.58-12.73-1.32-3.42-3.01-6.83-4.36-9.57-2.21-4.48-2.95-6.06-2.35-6.66.71-.72,1.99.05,3.6,1.03.57.35,1.16.7,1.78,1.03,2.33,1.23,4.13,1.66,4.66,1.45.07-.03.07-.05.08-.07-.07-.5-2.49-2.94-4.83-5.31-1.87-1.88-3.98-4.01-5.98-6.21-4.2-4.62-8.39-10.18-8.28-11.85.02-.29.15-.46.25-.54.76-.63,2.27-.62,4.02-.6.52,0,1.06.01,1.58,0,2.29-.06,4.04-.35,4.8-.64-.54-.38-1.85-1.11-3.23-1.86-2.9-1.6-7.28-4.01-11.1-6.79-6.75-4.91-12.7-12.47-12.47-14.24.05-.39.26-.58.43-.67.68-.36,1.88.22,3.69,1.1,1.16.57,2.47,1.21,3.77,1.63,3.01.98,5.26,1.07,5.74.81-.38-.48-2.29-1.77-4.13-3.01-3.32-2.23-7.87-5.29-11.78-8.82-6.43-5.8-11.52-13.67-10.96-15.14.47-1.21,2.52-.72,5.11-.09.38.09.76.18,1.14.27,2.79.64,4.35.78,4.94.71-.42-.46-1.47-1.44-2.58-2.47-3.46-3.21-9.25-8.59-14.04-14.7-6.41-8.19-11.56-18.46-10.72-20.15.11-.22.29-.37.52-.44.72-.19,1.77.46,3.58,1.63.78.51,1.67,1.08,2.54,1.56,1.69.93,3.45,1.26,4.1,1.22-.29-.47-1.11-1.49-1.97-2.55-2.22-2.75-5.94-7.35-8.56-12.25-4.13-7.73-6.03-16.69-5.49-17.79.1-.2.26-.25.34-.27.52-.07,1.05.5,2.21,1.82.72.83,1.54,1.76,2.38,2.46,1.57,1.31,3.17,1.74,3.83,1.77-.11-.45-.44-1.42-.78-2.44-1.08-3.17-2.89-8.47-3.6-13.85-1.22-9.13-.2-19.08.83-20.3.15-.18.3-.22.42-.22,1-.03,2.03,1.64,3.61,4.4.75,1.31,1.97,3.44,2.51,3.66.19-.33.49-1.48.8-2.69,1.12-4.29,3.21-12.28,8.31-19.24,6.04-8.24,12.83-12.6,21.37-13.71l1.1-.14-.8.77c-17.21,16.54-24.06,53.37-21.62,63.89,2.62,11.29,17.68,49.54,29.86,65.52,3.77,4.95,7.86,9.68,11.81,14.26,9.33,10.8,18.14,21.01,22.8,33.49,7.19,19.25,6.29,42.98-2.1,55.21-5.65,8.24-17.85,11.21-26.06,12.27Zm-7.85-.14c3.03-.04,25.19-.72,33.3-12.55,8.26-12.04,9.13-35.49,2.02-54.54-4.62-12.36-13.39-22.52-22.67-33.27-3.96-4.59-8.06-9.33-11.84-14.3-12.24-16.06-27.37-54.46-29.99-65.8-2.43-10.47,4.23-46.73,21.03-63.79-7.81,1.3-14.12,5.54-19.77,13.25-5.02,6.85-7.08,14.75-8.19,19-.68,2.62-.88,3.24-1.39,3.26-.89.04-1.82-1.51-3.27-4.05-.89-1.55-2.2-3.86-2.86-4.02-.69.99-1.89,10.18-.62,19.68.71,5.31,2.5,10.57,3.57,13.72.82,2.41.95,2.86.8,3.15l-.07.14-.18.07c-.75.23-2.87-.32-4.76-1.89-.89-.74-1.72-1.7-2.46-2.54-.47-.54-1.04-1.19-1.37-1.45-.04,1.66,1.59,9.53,5.51,16.86,2.58,4.84,6.13,9.23,8.48,12.14,2.1,2.6,2.53,3.14,2.08,3.53-.67.59-3.36-.12-5.13-1.1-.9-.49-1.8-1.08-2.59-1.59-1.2-.78-2.56-1.66-2.99-1.54-.02,0-.04.01-.06.06-.51,1.03,3.61,10.4,10.64,19.38,4.75,6.06,10.52,11.42,13.96,14.62,2.91,2.7,3.11,2.92,2.94,3.31-.12.27-.42.97-5.96-.3-.39-.09-.77-.18-1.15-.27-1.79-.43-4.02-.98-4.26-.36-.22.91,3.94,8.16,10.76,14.33,3.87,3.49,8.39,6.54,11.7,8.76,3.82,2.57,4.8,3.27,4.44,3.91-.62,1.1-4.34.36-6.69-.41-1.34-.44-2.68-1.09-3.86-1.67-1.19-.58-2.67-1.31-3.02-1.12-.03.02-.04.08-.05.12-.15,1.17,5.22,8.49,12.17,13.55,3.78,2.75,8.14,5.15,11.02,6.74,3.2,1.76,3.77,2.11,3.81,2.55v.2s-.17.18-.17.18c-.77.58-3.34.9-5.54.95-.53.01-1.08,0-1.61,0-1.47-.02-2.99-.03-3.54.43-.3.67,2.62,5.32,8.1,11.34,1.99,2.18,4.09,4.31,5.95,6.19,4.18,4.22,5.21,5.36,5.01,6.03-.05.17-.18.4-.5.53-1.04.43-3.49-.53-5.28-1.47-.63-.34-1.23-.7-1.81-1.05-1.07-.65-2.39-1.45-2.7-1.14-.16.46,1.25,3.31,2.49,5.82,1.36,2.76,3.05,6.18,4.39,9.64,2.28,5.91,3.24,12.16,2.51,13.39-.14.24-.34.32-.47.33-1.24.16-2.75-2.15-4.93-6.2l-.55-1.03c-.87-1.63-1.94-3.63-2.41-4.05-.69.9-3.34,6.56-6.22,14.02-3.75,9.71-5.82,17.07-5.74,20.35Z"/>
    </g>
    <path class="cls-15" d="m323.67,226.39c4.28,18,2.81,65.63,1.13,83.93-1.68,18.3-5.07,36.45,10.28,54.38,15.35,17.93,55.25,29.72,79.94,66.36,24.68,36.64,45.12,49.11,60.31,26.85,15.19-22.27,9.69-41.84-8.51-71.21-18.2-29.37-39.88-54.22-45.34-84.87-5.26-29.56,3.27-60.99,29.24-76.9,2.49-.69-26.04,29.77-15.75,69.99,14.25,55.71,55.59,58.9,77.56,95.04,7.62,22.91,16.78,71.65-7.54,108.76-25.35,38.67-41.93,44.56-74.22,49.73-32.29,5.18-76.92,3.35-120.28-27.42-43.35-30.77-60.35-62.72-56.91-105.51,4.07-50.58,24.67-95.31,30.4-107.96,5.74-12.65,9.19-27.71,7.7-38.26,2.68-4.03-4.4-8.29,1.72-14.47,13.37-13.51,30.28-28.42,30.28-28.42Z"/>
    <path class="cls-8" d="m415,431.05c-24.68-36.64-64.59-48.43-79.94-66.36-15.35-17.93-11.96-36.08-10.28-54.38,1.68-18.3,3.16-65.92-1.13-83.93,0,0-16.91,14.91-30.28,28.42-6.12,6.18.96,10.44-1.72,14.47.57,4.01.42,8.67-.3,13.61,5.48-4.48,14.1-2.75,17.51,1.46,6.48,8.01,4.63,31.54,5.16,48.22.31,9.76,1.02,18.72,3.22,26.77,3.9-.82,5.31-1.29,6.08-.58,3.77,1.57-2.67,3.58-4.28,6.75,2.91,7.05,7.8,13.65,14.73,18.98,50.29,18.72,75.03,73.6,51.21,119.57,3.86,11.53,6.47,2.15,8.22,9.16,3.57,12.32,6.49,24.72,7.05,37.42.76.01,1.51,0,2.26.01,2.51-34.94,10.75-69.36,26.66-100.73-4.55-5.28-9.28-11.59-14.17-18.86Z"/>
    <path class="cls-8" d="m512.51,389.93c-21.97-36.14-63.31-39.33-77.56-95.04-10.28-40.21,18.24-70.68,15.75-69.99-26.37,23.77-25.54,62.77-19.18,83.35,9.67,29,33.41,49.88,53.46,65.83,20.33,19.41,30.69,67.01,2.7,108.04-11.56,16.93-33.66,27.74-57.65,24.83,1.48,5.71-1.3,12.71,1.63,18.24,3.42,7.07,4.31,14.64,5.2,22.21,28.37-5.05,44.4-12.56,68.1-48.7,24.33-37.1,15.17-85.85,7.54-108.76Z"/>
    <path class="cls-10" d="m425.56,549.55c-30.3,3.94-73.32,1.55-115.3-28.24-21.88-15.53-36.96-31.35-46.11-48.37-9.11-16.95-12.69-35.75-10.95-57.46,2.66-33.08,12.81-69.23,30.15-107.46l.28-.62c6.14-13.54,9.08-28.12,7.67-38.06l-.02-.14.08-.12c1.01-1.51.5-3.08-.1-4.9-.89-2.73-1.9-5.83,1.86-9.63,13.23-13.36,30.13-28.29,30.3-28.44l.46-.4.14.59c4.19,17.64,2.97,64.09,1.13,84.04-.14,1.54-.3,3.09-.45,4.63-1.7,17.06-3.31,33.18,10.64,49.48,5.88,6.86,15.34,12.8,26.3,19.68,17.12,10.75,38.44,24.12,53.66,46.71,17.1,25.38,31.1,37.73,42.81,37.77,6.25.02,11.94-3.66,16.9-10.92,15.58-22.84,9.02-42.51-8.52-70.81-4.45-7.17-9.14-14.14-13.68-20.87-14.18-21.03-27.57-40.9-31.71-64.13-5.87-32.95,5.4-62.57,29.41-77.28l.09-.04c.31-.09.48.08.53.15.27.37,0,.79-1.61,3.27-5.56,8.52-22.5,34.46-14.22,66.83,8.59,33.59,27.2,48.12,45.2,62.18,11.6,9.06,23.6,18.43,32.31,32.76l.03.07c2.4,7.2,7.99,26.41,8.23,49.17.24,23.38-5.08,43.54-15.81,59.91-25.18,38.4-42.02,44.69-74.47,49.89-1.7.27-3.45.53-5.25.76Zm-133.51-280.18c1.38,10.06-1.58,24.73-7.75,38.33l-.28.62c-17.31,38.15-27.43,74.22-30.09,107.21-3.46,43.03,13.51,74.49,56.75,105.18,44.27,31.42,89.69,32.22,120.01,27.36,32.93-5.28,48.84-11.24,73.97-49.57,27.49-41.92,11.12-97.56,7.52-108.4-8.64-14.19-20.04-23.1-32.12-32.53-18.1-14.13-36.81-28.74-45.46-62.57-8.36-32.68,8.71-58.82,14.32-67.41.47-.72.9-1.38,1.2-1.87-23.21,14.71-34.04,43.75-28.29,76.04,4.11,23.08,17.46,42.89,31.6,63.85,4.54,6.74,9.24,13.71,13.69,20.89,10.17,16.41,15.21,27.9,16.83,38.4,1.8,11.68-.84,22.23-8.32,33.2-5.1,7.48-10.99,11.26-17.5,11.24-11.97-.03-26.17-12.49-43.41-38.09-15.13-22.47-36.37-35.79-53.44-46.5-11.01-6.91-20.52-12.88-26.47-19.82-14.16-16.54-12.46-33.56-10.81-50.02.15-1.54.31-3.08.45-4.62,1.81-19.69,3.03-65.22-.98-83.21-2.8,2.49-17.82,15.89-29.81,27.99-3.44,3.47-2.55,6.22-1.68,8.88.61,1.87,1.19,3.65.09,5.41Z"/>
    <g>
      <g>
        <path class="cls-14" d="m180.68,389.11s8.6-3.82,17.94-2.69c8.87,1.07,12.74,5.78,13.68,5.93.94.15,7.52-3.1,11.37-1.69,4.97,1.81,7.77,7.05,8.4,7.61.63.56,19.49-46.75,19.49-46.75l-21.49-22.63-16.7,6.47-17.64,21.97-11.2,20.75-3.86,11.03Z"/>
        <path class="cls-2" d="m230.08,328.89l-16.7,6.47-17.64,21.97-11.2,20.75-3.86,11.03s.31-.14.88-.36c6.54-10.02,15.98-27.69,22.33-34.24,12.28-12.67,18.26-20.37,20.83-15.07-5.16,13.95-12.5,28.73-12.63,51.91,2.93-19.36,7.39-29.68,11.53-41.51,2.81-8.03,5.85-11.71,9.3-4.06-.46,7.73-4.11,36.02-1.49,46.74.67-11.89,1.19-34.84,4.66-40.7,2.06-3.24,6.85,5.75,12.74,8.06,2.71-6.73,2.73-8.38,2.73-8.38l-21.49-22.63Z"/>
        <path class="cls-9" d="m232,398.67l-.16-.13c-.15-.14-.35-.42-.68-.89-1.21-1.7-3.72-5.24-7.59-6.65-2.6-.95-6.64.37-9.05,1.15-1.28.42-1.91.61-2.25.56-.32-.05-.69-.33-1.37-.85-1.83-1.39-5.65-4.27-12.3-5.08-9.13-1.11-17.67,2.63-17.75,2.66l-.77.34,4.13-11.82,11.22-20.81,17.74-22.1,17.02-6.6,21.82,22.98-.09.22c-.05.12-4.69,11.77-9.39,23.3-9.58,23.5-10,23.6-10.33,23.68l-.19.04Zm-12.19-8.62c1.42-.18,2.83-.17,4,.26,4.09,1.49,6.69,5.16,7.94,6.92.12.16.23.32.33.46,1.78-3.2,12.16-28.76,19.07-46.09l-21.16-22.28-16.38,6.35-17.58,21.89-11.16,20.7-3.57,10.21c2.32-.89,9.64-3.35,17.38-2.41,6.84.83,10.77,3.8,12.65,5.22.45.34.91.69,1.05.71.2.03,1.11-.27,1.91-.53,1.47-.48,3.52-1.14,5.53-1.41Z"/>
      </g>
      <path class="cls-9" d="m212.67,392.31l-.73.08c-1.76-16.14,9.58-52.04,18.02-62.4l.57.46c-8.37,10.27-19.61,45.86-17.86,61.86Z"/>
      <path class="cls-9" d="m231.73,398.37c-3.63-13.24.25-56.88,3.38-65.87l.69.24c-3.1,8.93-6.96,52.29-3.36,65.43l-.71.19Z"/>
      <g>
        <path class="cls-15" d="m254.69,345.37c-4.15-1.03-18.59-18.42-22.35-19.6-5.87-1.85-18.26,3.36-31.62,20.71-13.36,17.36-21.64,41.67-20.21,43.21,1.43,1.54,7.32-21.81,23.6-39.9,10.4-11.56,21.11-19.28,24.95-17.2,3.84,2.08,11.26,17.6,19.92,21.76,3.39.54,5.72-8.98,5.72-8.98Z"/>
        <path class="cls-8" d="m251.55,350.97c-6.06-1.21-16.5-19.53-21.58-20.98-5.92-1.69-16.27,4.17-27.34,18.18-13.57,17.19-20.09,35.14-22.12,41.52,1.43,1.54,7.32-21.81,23.6-39.9,10.4-11.56,21.11-19.28,24.95-17.2,3.84,2.08,11.26,17.6,19.92,21.76,3.39.54,2.58-3.38,2.58-3.38Z"/>
        <path class="cls-10" d="m180.73,390.12c-.18.02-.35-.04-.49-.18-1.79-1.93,7.28-26.92,20.19-43.68,13.17-17.1,25.83-22.79,32.02-20.84,1.87.59,6.07,4.81,10.51,9.28,4.57,4.59,9.74,9.8,11.82,10.32l.35.09-.09.35c-.25,1.01-2.52,9.83-6.13,9.26l-.1-.03c-5.35-2.58-10.18-9.33-14.05-14.75-2.39-3.35-4.46-6.25-5.89-7.02-3.48-1.89-14.02,5.47-24.5,17.12-10.82,12.03-17.06,26.45-20.41,34.19-1.9,4.38-2.53,5.77-3.21,5.89,0,0-.02,0-.02,0Zm47.54-64.25c-6.61.86-16.72,7.14-27.26,20.83-13.19,17.13-20.96,40.13-20.29,42.6.48-.53,1.5-2.89,2.57-5.37,3.37-7.78,9.63-22.27,20.54-34.39,9.04-10.05,20.84-19.75,25.39-17.28,1.58.86,3.59,3.67,6.13,7.24,3.81,5.34,8.55,11.98,13.72,14.49,2.38.29,4.46-5.66,5.17-8.39-2.39-.92-6.97-5.53-11.81-10.4-4.18-4.21-8.51-8.56-10.21-9.1-1.11-.35-2.45-.44-3.96-.24Z"/>
      </g>
    </g>
    <g>
      <g>
        <path class="cls-15" d="m214.26,460.63c-10.1,4.63-19.2,24.82-10.98,42.93,8.21,18.12,32.24,30.86,32.81,31.9-5.85,1.31-22.53.71-34.09-1.66-11.56-2.37-26.43,6.73-22,20.93,5.99,9.19,34.2,16.68,34.2,16.68l51.88-15.07,19.72-12.25-17.96-23.82-35.96-63.23-17.61,3.59Z"/>
        <path class="cls-5" d="m203.96,535.64c11.18,1.92,23.67,3.01,32-.15-5.97,1.28-22.48.67-33.96-1.69-5.37-1.1-11.45.28-15.99,3.49,9.28-3.02,12.91-2.52,17.95-1.65Z"/>
        <path class="cls-5" d="m220.03,459.46l-5.77,1.18c-10.1,4.63-19.2,24.82-10.98,42.93.91,2.01,2.03,3.96,3.28,5.83-8.32-18.21-4.3-40.14,13.47-49.94Z"/>
        <path class="cls-8" d="m267.83,520.27l-7.13-12.54c4.94,40.54-39.77,19.54-54.69.84,9.83,15.42,29.56,25.95,30.08,26.88-.14.03-.29.06-.44.09,14.07,6.27,29.28,10.15,44.61,11.98l5.53-3.44-17.96-23.82Z"/>
        <path class="cls-8" d="m186.53,536.94c-5.53,3.66-8.98,9.94-6.53,17.79.73,1.12,1.79,2.21,3.09,3.27,15.59-3.37,27.19-11.12,42.26-16.22-9.76-.94-14.82-2.92-22.2-2.59-6.11.28-14.91,4.34-16.61-2.25Z"/>
        <path class="cls-10" d="m214.2,571.79l-.1-.03c-1.16-.31-28.42-7.63-34.42-16.83l-.04-.09c-1.75-5.62-.63-11.02,3.15-15.2,4.56-5.04,12.49-7.59,19.28-6.2,11.47,2.35,27,2.87,33.19,1.81-.44-.3-1.12-.75-1.86-1.23-6.49-4.23-23.72-15.45-30.46-30.31-8.34-18.39.88-38.7,11.16-43.42l.08-.03,17.87-3.65.13.23,35.96,63.23,18.18,24.1-20.15,12.51-51.98,15.09Zm-33.87-17.22c5.73,8.68,32.04,15.96,33.87,16.46l51.73-15.02,19.34-12.02-17.72-23.5-35.86-63.04-17.31,3.53c-10,4.63-18.92,24.45-10.76,42.43,6.65,14.66,23.75,25.8,30.19,30,1.91,1.24,2.47,1.61,2.61,1.87l.23.43-.48.11c-5.66,1.27-22.2.82-34.25-1.66-6.55-1.34-14.19,1.11-18.59,5.97-3.59,3.97-4.66,9.1-3.01,14.44Z"/>
      </g>
      <g>
        <path class="cls-10" d="m169.84,560.35c-.71-.66,1.51-7.23,5.14-11.99,2.95-3.86,6.57-6.47,8.06-6.07,1.44.39,3.25,2.55,4.28,5.71.91,2.81.32,5.84-.13,6.86-.49,1.11-4.27.54-8.54,1.66-4.02,1.06-8.24,4.35-8.8,3.83Z"/>
        <path class="cls-9" d="m185.63,544.52c-.85-1.22-1.78-2.01-2.6-2.23-1.49-.4-5.11,2.21-8.06,6.07-3.63,4.76-5.84,11.33-5.14,11.99,2.15-6.05,7.45-15.04,15.8-15.83Z"/>
        <path class="cls-9" d="m170.12,560.68c-.21.03-.36-.01-.47-.12h0c-.97-.91,1.64-7.82,5.1-12.37,2.94-3.86,6.69-6.62,8.36-6.18,1.68.45,3.48,2.82,4.48,5.9.96,2.94.32,6.03-.14,7.06-.34.76-1.59.86-3.5,1.03-1.47.13-3.3.29-5.23.79-2.14.56-4.38,1.79-6.02,2.69-1.31.72-2.09,1.13-2.57,1.19Zm-.1-.56c.3.01,1.41-.59,2.4-1.13,1.66-.91,3.94-2.16,6.15-2.74,1.97-.52,3.83-.68,5.32-.81,1.52-.13,2.83-.25,3.03-.7.41-.93,1.02-3.89.12-6.66-1.08-3.33-2.88-5.2-4.09-5.53-1.26-.34-4.76,2.03-7.76,5.97-3.63,4.76-5.53,10.9-5.18,11.59Z"/>
      </g>
      <g>
        <path class="cls-15" d="m225.34,541.78c-11.06,2.49-19.63-2.68-33.17,4-12.53,6.18-8.91,13.55-2.69,19.04,7.92,6.98,27.84-.59,27.84-.59l9.25-8.06-1.23-14.38Z"/>
        <path class="cls-8" d="m185.07,551.31c-3.14,4.72-.02,9.59,4.41,13.51,7.92,6.98,27.84-.59,27.84-.59l9.25-8.06-.46-6.78c-6.38,2.16-10.89,2.71-16.75,3.94-8.38,1.76-13.59,7.85-24.29-2.02Z"/>
        <path class="cls-10" d="m204.44,567.82c-5.54.72-11.55.48-15.2-2.73-4.26-3.76-6.2-7.37-5.75-10.72.45-3.35,3.31-6.35,8.52-8.92,8.61-4.24,15.17-3.84,21.52-3.45,3.72.23,7.57.47,11.81-.23,0,0-2.96,1.25-6.32,1.19-1.9,0-3.73-.12-5.54-.23-6.54-.4-12.72-.79-21.15,3.37-4.97,2.45-7.71,5.27-8.12,8.36-.41,3.09,1.44,6.48,5.51,10.07,7.66,6.76,27.27-.59,27.46-.66l.26.68c-.45.17-6.4,2.4-13.01,3.26Z"/>
      </g>
      <g>
        <path class="cls-10" d="m170.88,572.99c-.92-.85,1.88-9.38,6.52-15.58,3.77-5.03,8.44-8.45,10.37-7.95,1.87.49,4.24,3.26,5.6,7.35,1.21,3.63.48,7.56-.1,8.88-.63,1.44-5.53.74-11.04,2.24-5.19,1.41-10.63,5.72-11.36,5.05Z"/>
        <path class="cls-9" d="m191.17,552.32c-1.11-1.57-2.33-2.59-3.39-2.86-1.93-.5-6.6,2.92-10.37,7.95-4.65,6.2-7.45,14.73-6.52,15.58,2.72-7.86,9.49-19.55,20.29-20.66Z"/>
        <path class="cls-9" d="m171.25,573.41c-.27.03-.46-.02-.62-.16h0c-1.27-1.17,2.04-10.15,6.48-16.07,3.77-5.02,8.59-8.65,10.76-8.09,2.18.57,4.53,3.62,5.86,7.59,1.27,3.8.47,7.8-.11,9.14-.43.98-2.06,1.13-4.52,1.37-1.9.18-4.27.4-6.76,1.08-2.76.75-5.66,2.37-7.77,3.55-1.69.95-2.69,1.49-3.31,1.57Zm-.13-.72c.39.02,1.82-.78,3.09-1.49,2.15-1.2,5.09-2.84,7.94-3.62,2.55-.69,4.95-.92,6.89-1.1,1.97-.19,3.66-.35,3.92-.93.53-1.21,1.28-5.05.09-8.62-1.44-4.31-3.78-6.71-5.35-7.12-1.63-.43-6.14,2.68-9.99,7.82-4.65,6.21-7.05,14.17-6.58,15.07Z"/>
      </g>
      <g>
        <path class="cls-15" d="m226.11,549.38c-5.25,5.72-15.03,1.78-22.84,13.16-6.37,11.11-2.92,14.91,7.23,15.45,8.92.47,21.38-4.44,37.61-7.28,5.32-.93,19.01-7.76,19.01-7.76l-5.8-15.56-35.21,2Z"/>
        <path class="cls-8" d="m261.32,547.38l-7.91.45c-10.2,16.12-43.75,27.89-50.7,15.71-5.59,10.34-2.05,13.92,7.79,14.44,8.92.47,21.38-4.44,37.61-7.28,5.32-.93,19.01-7.76,19.01-7.76l-5.8-15.56Z"/>
        <path class="cls-10" d="m216.14,578.07c-2.02.26-3.91.38-5.66.28-5.59-.3-8.81-1.56-10.13-3.98-1.4-2.58-.55-6.51,2.6-12.02,4.76-6.93,10.22-8.23,15.03-9.36,3.22-.76,6.01-1.42,8.13-3.61,0,0-.19,2.11-4.49,3.41-1.11.36-2.28.63-3.47.91-4.69,1.11-10,2.36-14.58,9.04-3,5.24-3.85,8.94-2.58,11.28,1.18,2.17,4.21,3.32,9.53,3.6,5.29.28,12.01-1.4,19.8-3.34,5.26-1.31,11.21-2.8,17.73-3.94,4.77-.84,16.59-6.58,18.61-7.58l-5.69-15.25.69-.26,5.92,15.87-.29.15c-.56.28-13.8,6.86-19.11,7.79-6.49,1.14-12.43,2.62-17.68,3.93-5.31,1.32-10.13,2.53-14.36,3.08Z"/>
      </g>
      <g>
        <path class="cls-10" d="m191.53,585.17c-.92-.7.92-8.83,4.67-14.96,3.05-4.98,7.07-8.55,8.89-8.25,1.77.29,4.2,2.64,5.82,6.31,1.44,3.25,1.1,6.95.68,8.22-.46,1.39-5.04,1.17-10.01,3.04-4.68,1.76-9.32,6.21-10.06,5.66Z"/>
        <path class="cls-9" d="m208.48,564.3c-1.16-1.36-2.38-2.19-3.38-2.35-1.82-.3-5.84,3.27-8.89,8.25-3.75,6.13-5.6,14.26-4.67,14.96,1.83-7.5,7.07-18.9,16.95-20.86Z"/>
        <path class="cls-9" d="m191.91,585.53c-.24.06-.43.03-.58-.09h0c-1.28-.97,1-9.56,4.59-15.41,3.04-4.97,7.19-8.74,9.24-8.41,2.06.33,4.5,2.95,6.08,6.51,1.51,3.4,1.12,7.17.69,8.46-.31.94-1.8,1.23-4.06,1.66-1.74.33-3.91.75-6.16,1.59-2.49.94-5.02,2.68-6.87,3.96-1.48,1.02-2.36,1.61-2.93,1.74Zm-.19-.65c.36-.02,1.62-.88,2.73-1.65,1.88-1.3,4.45-3.07,7.02-4.03,2.3-.86,4.5-1.28,6.27-1.62,1.8-.34,3.35-.64,3.54-1.2.38-1.16.74-4.78-.67-7.97-1.71-3.85-4.08-5.87-5.56-6.11-1.55-.25-5.44,3.01-8.55,8.09-3.76,6.14-5.28,13.7-4.77,14.5Z"/>
      </g>
      <path class="cls-10" d="m270.12,546.47l-.45-.1c-16.17-3.51-28-7.42-35.15-11.62l.37-.63c7.08,4.16,18.84,8.04,34.93,11.54l.45.1-.16.71Z"/>
    </g>
    <g>
      <g>
        <path class="cls-15" d="m228.98,407.77c-3.47,7.94-7.3,20.86-10.27,19.39-13.74-6.82-29.64-9.43-40.75-14.53-2.52-1.15-15.11-6.5-19.08-6.73-3.96-.22-5.57,17.7-5.57,17.7l3.85,8.84s9.83-.05,16.43,7.21c6.6,7.26,36.61,38.29,56.62,25.36,10.67-10.98-1.24-57.25-1.24-57.25Z"/>
        <path class="cls-5" d="m230.25,414.98c-1.21-6.08-1.27-7.21-1.27-7.21-3.47,7.94-7.3,20.86-10.27,19.39-13.74-6.82-29.64-9.43-40.75-14.53-2.52-1.15-15.11-6.5-19.08-6.73-.98-.06-1.58.48-2.28,2.11,9.48,1.73,18.03,6.31,27.14,9.82,6.62,2.55,13.63,4.46,20.12,6.69,5.39,1.85,13.25,6.57,16.46,5.54,3.21-1.03,5.88-6.77,9.94-15.08Z"/>
        <path class="cls-8" d="m197.2,447.17c-12.63-10.35-26.16-27.2-42.09-19.43l2.05,4.7s9.83-.05,16.43,7.21c6.6,7.26,36.61,38.29,56.62,25.36,3.55-3.65,4.6-11.21,4.42-19.67-3.3,3.45-7.2,6.41-11.45,8.78-9.78,4.22-18.61-1.27-25.99-6.95Z"/>
        <path class="cls-10" d="m222.31,468.29c-19.61,2.55-43.77-22.65-48.98-28.38-6.42-7.06-16.06-7.09-16.16-7.09h-.24s-3.99-9.15-3.99-9.15v-.09c.18-1.87,1.76-18.28,5.97-18.03,4.15.23,17.01,5.75,19.21,6.76,4.94,2.26,10.84,4.04,17.08,5.92,7.89,2.37,16.05,4.83,23.68,8.62.2.1.4.1.62.02,1.88-.73,4.33-7.05,6.49-12.62.88-2.27,1.79-4.61,2.66-6.6l.43-.97.26,1.03c.49,1.9,11.84,46.59,1.15,57.59l-.06.05c-2.56,1.66-5.29,2.6-8.11,2.96Zm-64.9-36.2c1.57.06,10.41.67,16.46,7.33,5.89,6.47,36.24,38.1,56.12,25.32,9.47-9.84.58-48.87-1.1-55.81-.73,1.74-1.49,3.68-2.22,5.57-2.43,6.27-4.73,12.19-6.91,13.04-.42.16-.83.15-1.21-.04-7.58-3.76-15.7-6.21-23.56-8.57-6.27-1.89-12.19-3.67-17.18-5.95-3.09-1.41-15.18-6.48-18.94-6.69-2.61-.14-4.56,10.48-5.18,17.27l3.72,8.54Z"/>
      </g>
      <g>
        <g>
          <path class="cls-15" d="m158.88,405.9c-4.09-1.19-16.9,1.81-26.82,3.46-10.68,1.78-18.08-.27-22.21,6.58-2.54,5.33.15,10.12,2.46,11.57,2.31,1.45,33.88.14,33.88.14l9.73-.07,2.96-21.68Z"/>
          <path class="cls-5" d="m159.59,408.66l-.71-2.75c-4.09-1.19-16.9,1.81-26.82,3.46-10.68,1.78-18.08-.27-22.21,6.58-.3.62-.51,1.23-.68,1.84,4.56-7.24,13.41-5.56,23.13-6.61,5.08-.55,13.43-2.27,17.79-2.83,6.14-.8,9.17.16,9.49.32Z"/>
          <path class="cls-8" d="m109.22,417.62c-1.11,3.87.35,7.27,2.06,9.04,10.5-7.37,24.22-3.1,32.48-13.83-6.53,2.2-14.29,4.93-22.61,5.11-4.55.1-10.7,4.33-11.93-.32Z"/>
          <path class="cls-10" d="m119.52,427.57c-3.83.5-6.72.68-7.41.25-2.68-1.69-5.08-6.81-2.59-12.04,3.07-5.11,7.76-5.44,14.24-5.91,2.45-.17,5.23-.37,8.23-.87,2.38-.4,4.97-.88,7.48-1.34,8.39-1.56,16.31-3.04,19.51-2.11l.18.74c-3.03-.88-11.61.61-19.55,2.08-2.51.47-5.11.95-7.49,1.35-3.03.51-5.83.71-8.3.88-6.26.45-10.79.77-13.65,5.52-2.48,5.22.3,9.79,2.34,11.07,1.59,1,21.36-2.6,33.45-5.11l.15.72c-2.29.47-17.24,3.54-26.58,4.76Z"/>
        </g>
        <path class="cls-10" d="m122.85,419.03c.22-4.15-3.05-7.38-4.79-7.88l.2-.7c1.32.38,3.36,2.04,4.49,4.46.99,2.11.1,4.12.1,4.12Z"/>
        <path class="cls-10" d="m132.47,415.26c.27-1.76-.52-4.23-2.32-5.32l.38-.63c1.09.66,1.85,1.75,2.29,2.93.53,1.55-.35,3.01-.35,3.01Z"/>
        <path class="cls-10" d="m141.21,412.52c-.54-2.01-1.42-3.13-3.14-4l.33-.65c.96.48,1.69,1.04,2.25,1.76.11.13.21.28.3.42.63,1.08.26,2.47.26,2.47Z"/>
      </g>
      <g>
        <path class="cls-10" d="m101.73,429.68c-.53-.52,1.34-5.49,4.27-9.03,2.37-2.87,5.24-4.77,6.38-4.42,1.11.34,2.45,2.04,3.17,4.49.64,2.18.1,4.48-.27,5.24-.41.84-3.32.29-6.64,1.03-3.13.7-6.48,3.1-6.9,2.68Z"/>
        <path class="cls-9" d="m114.35,418.06c-.63-.98-1.34-1.63-1.97-1.83-1.14-.35-4.01,1.55-6.38,4.42-2.52,3.05-4.25,7.15-4.34,8.56,3.02-5.48,6.59-10.21,12.7-11.16Z"/>
        <path class="cls-9" d="m101.75,429.99c-.08-.02-.16-.06-.22-.12h0c-.75-.74,1.44-6,4.25-9.4,2.42-2.93,5.35-4.92,6.67-4.51,1.3.4,2.65,2.28,3.35,4.68.67,2.3.1,4.66-.29,5.44-.29.6-1.28.65-2.78.72-1.14.06-2.55.13-4.05.46-1.66.37-3.42,1.25-4.71,1.89-1.19.59-1.85.92-2.23.84Zm10.49-13.51c-.99-.21-3.67,1.49-6.03,4.35-2.88,3.49-4.46,7.91-4.29,8.62.28-.03,1.09-.43,1.81-.79,1.31-.65,3.11-1.55,4.84-1.93,1.54-.34,2.99-.41,4.14-.47,1.11-.05,2.16-.11,2.31-.41.34-.69.87-2.92.25-5.04-.72-2.45-2.04-4.02-2.98-4.3-.02,0-.03,0-.05-.01Z"/>
      </g>
      <g>
        <g>
          <path class="cls-15" d="m143.77,412.83c-3.02,2.56-13.64,8-23.96,9.43-7.16.99-13.78,4-11.93,11.14,1.85,7.14,10.64,8.76,14.17,8.95,3.53.19,22.07-6.93,26.47-14.23l-4.75-15.3Z"/>
          <path class="cls-8" d="m107.69,432.53c.05.29.11.58.18.88,1.85,7.14,10.64,8.76,14.17,8.95,3.53.19,27.12-9.24,27.65-20.6l-.11-.17c-9.35,10.35-30.91,15.39-41.89,10.94Z"/>
          <path class="cls-10" d="m122.86,442.68c-.33.04-.61.06-.83.05-1.26-.07-12.34-.89-14.5-9.23-.63-2.42-.35-4.53.83-6.29,2.27-3.4,7.46-4.76,11.4-5.31,10.81-1.5,21.38-7.17,24.02-9.07,0,0-.78,1.37-3.11,2.73-4.94,2.64-13.04,5.99-20.8,7.07-3.8.53-8.78,1.82-10.9,4.99-1.05,1.58-1.3,3.49-.73,5.7,2.03,7.83,12.63,8.61,13.83,8.68,3.51.19,21.82-6.88,26.14-14.05l.63.38c-4.16,6.9-20.93,13.71-25.97,14.36Z"/>
        </g>
        <path class="cls-10" d="m141.57,424.54c.51-4.38-2.03-6.49-4.25-7.48l.3-.67c1.73.77,3.64,2.16,4.4,4.62.36,1.85-.45,3.53-.45,3.53Z"/>
        <path class="cls-10" d="m132.65,428.78c.43-4.18-1.93-7.33-4.36-8.17l.24-.69c1.78.61,3.52,2.32,4.37,4.72.67,2.15-.25,4.14-.25,4.14Z"/>
        <path class="cls-10" d="m123.28,432.84c.52-6.23-4.41-8.85-6.55-9.69l.27-.68c1.33.52,4.88,2.21,6.38,5.9.75,2.38-.09,4.47-.09,4.47Z"/>
      </g>
      <g>
        <path class="cls-10" d="m103.61,449.58c-.89-.42-.76-7.42,1.31-13.11,1.68-4.62,4.4-8.25,5.97-8.32,1.52-.07,3.95,1.45,5.93,4.18,1.76,2.42,2.11,5.52,1.98,6.64-.14,1.22-3.99,1.83-7.8,4.22-3.59,2.25-6.68,6.72-7.39,6.39Z"/>
        <path class="cls-9" d="m114.16,429.55c-1.21-.94-2.39-1.44-3.26-1.4-1.57.07-4.29,3.7-5.97,8.32-1.78,4.9-2.12,10.76-1.61,12.56,1.33-8.15,3.67-15.6,10.85-19.48Z"/>
        <path class="cls-9" d="m103.78,449.96c-.11.01-.22,0-.32-.05h0c-1.25-.59-.87-8.1,1.12-13.57,1.71-4.72,4.47-8.49,6.3-8.56,1.8-.08,4.3,1.66,6.24,4.33,1.85,2.56,2.18,5.75,2.05,6.89-.1.88-1.31,1.38-3.14,2.13-1.39.57-3.12,1.29-4.83,2.36-1.9,1.19-3.7,3.06-5.02,4.43-1.22,1.26-1.89,1.96-2.4,2.03Zm7.06-21.44c-1.33.17-3.9,3.47-5.58,8.07-2.04,5.61-2.05,11.81-1.52,12.61.33-.15,1.16-1.02,1.9-1.78,1.34-1.39,3.18-3.3,5.16-4.54,1.77-1.11,3.53-1.84,4.94-2.42,1.36-.56,2.64-1.09,2.69-1.54.12-1.01-.21-4.02-1.92-6.38-1.97-2.72-4.32-4.09-5.61-4.03-.02,0-.05,0-.07,0Z"/>
      </g>
      <g>
        <g>
          <path class="cls-15" d="m149.7,421.76c-2.34,4.57-9.09,11.98-15.86,13.84-6.77,1.86-12.89,3.6-15.45,7.91-2.93,4.93,3.59,15.31,12.34,12.66,8.9-2.69,7.63-7.51,19.28-13.45,10.71-5.46,15.87-7.78,16.64-16.98l-16.96-3.98Z"/>
          <path class="cls-8" d="m117.86,447.99c1.03,4.86,6.32,10.16,12.87,8.18,8.9-2.69,7.63-7.51,19.28-13.45,10.71-5.46,15.87-7.78,16.64-16.98l-.23-.05c-4.96,9.83-17.5,11-25.39,17.29-7.38,5.88-14.74,7.52-23.18,5.01Z"/>
          <path class="cls-10" d="m129.17,456.88c-3.55.46-6.99-1.03-9.45-4.18-2.42-3.09-3.1-6.95-1.66-9.38,2.67-4.5,8.98-6.24,15.67-8.08,6.55-1.8,13.47-8.99,15.96-13.49,0,0-.24,1.76-1.95,4.1-3.31,4.06-8.52,8.64-13.81,10.09-6.54,1.8-12.72,3.5-15.23,7.74-1.29,2.18-.64,5.7,1.6,8.56,2.65,3.39,6.51,4.72,10.32,3.57,4.44-1.34,6.27-3.2,8.58-5.54,2.28-2.32,4.87-4.94,10.64-7.88l.98-.5c10.18-5.18,14.83-7.55,15.79-16.3,0,0,.52,2.45-.17,4.3-2.02,5.9-6.94,8.4-15.29,12.65l-.98.5c-5.66,2.89-8.21,5.47-10.45,7.75-2.29,2.32-4.27,4.33-8.89,5.73-.55.17-1.11.29-1.66.36Z"/>
        </g>
        <path class="cls-10" d="m135.33,445.6c-2.61-5.74-8.03-6.4-12.12-5.94l-.08-.73c3.79-.43,6.93.23,9.3,1.91,2.81,2.08,2.9,4.75,2.9,4.75Z"/>
        <path class="cls-10" d="m144.29,442.1c-.65-1.47-3.19-6.32-8.37-6.89l.08-.73c2.65.29,4.65,1.61,6.1,3.08,1.88,2.11,2.19,4.53,2.19,4.53Z"/>
        <path class="cls-10" d="m152.38,434.68c-1.85-3.27-5.13-5.1-8.56-4.79l-.07-.73c2.41-.22,4.75.54,6.64,2.05,1.72,1.47,1.98,3.47,1.98,3.47Z"/>
      </g>
      <g>
        <path class="cls-10" d="m115.28,463.73c-.73-.34-.62-6.06,1.07-10.7,1.37-3.77,3.6-6.73,4.88-6.79,1.24-.06,3.22,1.18,4.84,3.41,1.43,1.98,1.72,4.51,1.62,5.42-.11,1-3.26,1.5-6.37,3.45-2.93,1.84-5.46,5.48-6.03,5.21Z"/>
        <path class="cls-9" d="m123.88,447.38c-.99-.76-1.95-1.17-2.66-1.14-1.28.06-3.51,3.02-4.88,6.79-1.45,4-1.73,8.79-1.32,10.25,1.08-6.65,3-12.73,8.85-15.9Z"/>
        <path class="cls-9" d="m115.41,464.04c-.09.01-.18,0-.26-.04h0c-1.02-.48-.71-6.61.91-11.07,1.4-3.85,3.65-6.93,5.14-6.99,1.47-.07,3.51,1.35,5.09,3.54,1.51,2.09,1.78,4.69,1.67,5.63-.08.72-1.07,1.12-2.56,1.74-1.13.47-2.55,1.05-3.94,1.93-1.55.97-3.02,2.5-4.1,3.61-.99,1.03-1.54,1.6-1.96,1.65Zm5.77-17.5c-1.08.14-3.19,2.83-4.55,6.59-1.66,4.58-1.67,9.64-1.24,10.3.27-.13.95-.83,1.55-1.46,1.1-1.14,2.6-2.69,4.21-3.71,1.44-.91,2.88-1.5,4.03-1.98,1.11-.46,2.15-.89,2.19-1.25.09-.82-.17-3.28-1.56-5.21-1.61-2.22-3.52-3.34-4.58-3.29-.02,0-.04,0-.06,0Z"/>
      </g>
    </g>
    <g>
      <path class="cls-14" d="m279.21,270.9c1.49,10.55-1.76,21.46-7.5,34.11-5.74,12.65-43.19,69.09-47.26,119.68-3.44,42.79,15.65,91.44,59,122.21,43.35,30.77,112.87,16.82,145.16,11.64,32.29-5.18,59.54-17.87,84.9-56.53,24.33-37.1,16.48-83.31-1-112.07-2.96-4.86-8.58-14.25-22.87-25.21,21.36,22.77,24.47,42.19,26.04,60.26,1.3,14.93-2.38,29.06-7.2,43.98-12.28,38-56,57.45-56,57.45,0,0-35.78,8.58-74.57-17.37-26.75-50.64-91.36-48.15-105.6-89.59-14.24-41.44,5.68-77.48,17.72-102.17,10.38-21.28,12.87-47.01,9.81-68.87-8.58,8.32-17.04,17.07-20.64,22.48Z"/>
      <path class="cls-2" d="m523.14,428.44c-3.9-5.3-5.36-23.16-13.41-42.9-3.49-5.21-9.34-12.57-20.1-20.82,21.36,22.77,24.47,42.19,26.04,60.26,1.3,14.93-2.38,29.06-7.2,43.98-12.28,38-56,57.45-56,57.45,0,0-35.78,8.58-74.57-17.37-26.75-50.64-91.36-48.15-105.6-89.59-14.24-41.44,5.68-77.48,17.72-102.17,10.38-21.28,12.87-47.01,9.81-68.87-8.58,8.32-17.04,17.07-20.64,22.48,1.49,10.55-1.76,21.46-7.5,34.11-.34.76-.8,1.68-1.36,2.74,3.59-.54,9.13-.37,11.46,2.12,4.86,5.21,1.77,12.16-2.93,15.72-6.15,4.14-13.61,2.99-21.4,5.45-1.35,2.51-2.76,5.16-4.18,7.91,8.92-2.06,21.03.52,17.72,10.94-3.32,10.45-19.8,13.95-30.26,15.49-1.11,2.62-2.2,5.28-3.26,7.97,6.55-1.22,16.53-4.73,21.31.02,5.92,5.88,5.29,13.58-2.52,19.69-5.61,4.39-13.73,5.64-28.17,9.48-.79,3.27-1.47,6.55-2.05,9.82,9.2-1.99,22.18-5.73,30.12.38,3.37,3.25,5.71,11.22,4,15.13-5.49,13.14-23.01,11.77-35.94,13.47.15,2.84.29,4.55.63,7.41,16.17,2.97,30.17-2.96,37.07-.14,9.16,3.73,8.58,19.48,2.19,24.34-7.61,5.79-21.43,7.97-32.16,6.47,1.79,4.24,2.34,7.19,3.9,9.76,20.3.53,36.02-5.07,47.23-8.32,8.37-2.43,16.13-9.64,25.12-8.24,4.54.89,10.19,4.58,12.93,8.65,5.39,7.42,3.62,16.5-3.99,20.44-15.75,9.42-35.7,13.25-67.47,11.6,2.91,4.09,6.09,8.07,9.5,11.92,10.05.99,34.31,2.86,73.6-13.73,8.27-3.49,16.74-4.9,20.73.3,4.86,6.14,6.34,13.84-3.6,20.69-16.74,10.28-58.99,13.1-66.5,14.44,5.23,3.19,12.53,7.51,19.71,10.57,42.87,12.94,70.11-21.53,78.95-13.75,4.7,4.13-13.14,20.21-19.34,22.57,15.74.56,57.35-6.38,65.84-7.74.95-.15,1.89-.31,2.83-.48-.24-9.32,5.65-18.73,13.24-23.5,4.8-2.84,11.42-2.96,16.06-1.35,5.92,2.06,5.04,8.47,4.36,14.34,5.41-2.66,10.69-5.84,15.85-9.67-.1-.9-.12-1.86-.06-2.85.23-9.62,2.37-22.26,10.6-27.02,5.97-3.71,9.66,3.03,10.94,9.12,2.49-3.03,4.96-6.28,7.42-9.76-1.78-11.57-7.91-15.48-2.16-25.91,3.67-5.83,11.38-9.69,14.94,2.6,1.92-5.1,3.36-10.28,4.37-15.48-7.81-4.58-11.44-14.12-11.23-22.94.25-3.72,4.42-5.74,7.61-3.94,2.08.91,3.98,2.06,5.41,3.69-.14-4.11-.51-8.18-1.08-12.18-1.72-1.58-3.4-3.16-4.58-4.76Z"/>
      <path class="cls-9" d="m287.78,525.55c3.09-.13,6.1-.55,9.03-1.21-2.84-.09-5.68-.19-8.52-.28-.22.43-.39.88-.49,1.36,0,.04-.01.09-.02.13Z"/>
      <path class="cls-9" d="m397.33,563.74c-35.12,4.56-81.82,6.36-114.09-16.55-40.27-28.58-62.94-75.54-59.16-122.54,3.3-40.97,28.74-86.3,40.97-108.08,2.92-5.2,5.22-9.31,6.32-11.72,6.55-14.46,8.79-24.6,7.47-33.91l-.02-.14.08-.12c3.09-4.65,10.05-12.23,20.69-22.54l.52-.5.1.71c3.38,24.16-.21,49.33-9.85,69.08-.7,1.44-1.43,2.91-2.17,4.42-12.19,24.72-28.89,58.58-15.53,97.47,6.93,20.17,26.24,30.05,46.67,40.5,21.17,10.83,45.16,23.09,58.86,48.96,38.19,25.51,73.85,17.35,74.21,17.27.37-.17,43.65-19.81,55.73-57.21,5.2-16.1,8.42-29.71,7.18-43.84-1.64-18.82-4.86-37.58-25.95-60.04l.49-.54c14.2,10.89,19.84,20.18,22.87,25.16l.09.15c17.9,29.44,25.15,75.63,1,112.46-27.71,42.27-57.3,52.23-85.14,56.69-1.96.32-4.07.66-6.29,1.03-7.21,1.19-15.72,2.6-25.05,3.81Zm-117.74-292.76c1.3,9.42-.96,19.66-7.55,34.18-1.11,2.44-3.42,6.56-6.35,11.77-12.2,21.74-37.59,66.97-40.88,107.78-3.76,46.74,18.79,93.44,58.85,121.88,40.59,28.81,104.34,18.27,138.59,12.61,2.23-.37,4.33-.72,6.3-1.03,27.68-4.44,57.09-14.34,84.65-56.37,23.97-36.56,16.77-82.44-1.01-111.68l-.09-.15c-2.74-4.51-7.63-12.56-19.16-22.14,18.51,21.22,21.59,39.83,23.1,57.12,1.24,14.24-1.99,27.94-7.22,44.12-12.19,37.72-55.76,57.48-56.2,57.67-.42.11-36.44,8.35-74.92-17.4l-.08-.05-.04-.08c-13.58-25.72-37.49-37.94-58.59-48.73-20.57-10.52-40.01-20.46-47.03-40.91-13.46-39.18,3.32-73.19,15.57-98.03.74-1.51,1.47-2.98,2.17-4.42,9.48-19.42,13.06-44.14,9.88-67.94-10.22,9.93-16.94,17.26-19.99,21.8Z"/>
    </g>
    <path class="cls-9" d="m295.06,304.3c-2.1-2.29-15.47-3.77-22.65-.15l-.33-.65c7.59-3.82,21.25-2.17,23.52.31l-.54.49Z"/>
    <path class="cls-9" d="m279.9,338.13c-2.68-2.8-9.96-4.79-16.22-4.44-4.29.24-7.53,1.53-9.13,3.63l-.58-.44c1.73-2.27,5.17-3.67,9.67-3.92,6.56-.37,13.93,1.68,16.79,4.67l-.53.51Z"/>
    <path class="cls-9" d="m269.16,370.59c-8.17-6.02-23.42-3.92-30.32.17l-.37-.63c7.25-4.29,22.6-6.41,31.13-.12l-.43.59Z"/>
    <path class="cls-9" d="m268.13,403.01c-9.31-3.82-36.25.39-40.98,5.29l-.53-.51c4.84-5.01,32.31-9.34,41.78-5.46l-.28.68Z"/>
    <path class="cls-9" d="m242.24,444.31c-8.31,1.08-15.4.97-18.02-.35l.33-.65c5.77,2.9,42.21-.64,52.73-13.52l.57.46c-6.24,7.65-22.45,12.35-35.61,14.06Z"/>
    <path class="cls-9" d="m244.68,484.24c-4.33.56-8.12.61-11.03.11l.12-.72c15.11,2.56,54.12-9.58,67.75-32.92l.63.37c-11.16,19.1-39.12,30.78-57.48,33.16Z"/>
    <path class="cls-9" d="m284.03,517.16c-13.72,1.78-25.74,1.51-31.87-.05l.18-.71c8.41,2.14,28.05,1.83,47.88-2.97,17.38-4.2,40.85-13.22,53.93-32.35l.6.41c-13.21,19.32-36.85,28.41-54.36,32.65-5.54,1.34-11.08,2.33-16.36,3.02Z"/>
    <path class="cls-9" d="m316.98,548.81c-11,1.43-21.39,1.66-29.71,1.02l.06-.73c27.92,2.16,79.24-5.56,98.11-35.44l.62.39c-13.4,21.22-42.96,31.36-69.08,34.76Z"/>
    <path class="cls-9" d="m471.74,544.36l-.63-.38c4.64-7.64,4.36-25.62,1.41-29.54l.59-.44c3.04,4.05,3.38,22.53-1.37,30.36Z"/>
    <path class="cls-9" d="m505.57,513.71l-.73-.06c.69-8.13-3.42-20.35-7.72-22.94l.38-.63c4.48,2.69,8.78,15.28,8.07,23.63Z"/>
    <path class="cls-9" d="m524.04,481.17h-.73c-.05-12.36-8.46-18.39-12.74-18.73l.06-.73c4.5.36,13.35,6.63,13.41,19.46Z"/>
    <path class="cls-9" d="m528.31,442.56c-.87-4.12-5.06-8.19-8.45-9.6-1.6-.67-2.96-.72-3.83-.16l-.4-.61c1.1-.71,2.66-.68,4.51.09,3.56,1.48,7.97,5.78,8.88,10.13l-.72.15Z"/>
    <g>
      <g>
        <path class="cls-14" d="m338.14,379.91c12.31-6.33,38.24,15.02,41.34,14.31,2.47-.57,4.39-12.62,14.03-14.12,9.64-1.5,19.93,3.38,21,3.05,1.06-.33.21-10.23,3.78-15.86,3.57-5.63,8.59-8.8,8.59-8.8l-10.23-14.23-20.25-21.47-25.06-10.89-12.75,3.25-3.35,16.48-5.4,18.04-11.69,30.24Z"/>
        <path class="cls-2" d="m354.2,362.94c-.42-1.85,6.9-7.45,9.28-18.82,3.96,13.97,9.27,27.21,15.54,48.44-4.09-21.94-6.49-32.45-13.92-53.21-1.61-12.9,2.37-12.25,4.63-10.27,15.74,14.68,29.15,30.77,43.95,52.2-3.15-8.37-9.3-15.5-13.97-23.01-6.82-10.12-19.12-24.57-28.91-33.63-2.77-9.52,11.37-3.92,13.74-2.75,12.61,5.83,26.75,19.51,42.22,36.68.07-.04.11-.07.11-.07l-10.23-14.23-20.25-21.47-25.06-10.89-12.75,3.25-3.35,16.48-5.4,18.04-11.69,30.24c2.2-1.13,4.83-1.38,7.69-1.03.89.11,9.08-2.87,8.37-15.94Z"/>
        <path class="cls-10" d="m379.46,394.59c-1.08.14-3.47-1.25-8.21-4.08-9.17-5.46-24.53-14.61-32.95-10.28l-.86.44,12.04-31.13,5.4-18.02,3.38-16.68,13.09-3.34.12.05,25.13,10.92.05.05,20.25,21.47,10.49,14.58-.33.21s-4.99,3.2-8.48,8.69c-2.21,3.48-2.69,8.69-3.01,12.14-.25,2.74-.37,3.7-.97,3.88-.39.12-1.16-.11-3.01-.68-3.9-1.2-11.16-3.44-18.04-2.36-6.27.97-9.23,6.63-11.19,10.38-1.07,2.04-1.84,3.51-2.82,3.73-.03,0-.06.01-.09.02Zm-37.9-16.09c8.99-1.17,21.92,6.54,30.06,11.38,3.59,2.14,6.96,4.16,7.77,3.97.66-.15,1.43-1.64,2.33-3.36,2.03-3.88,5.09-9.73,11.72-10.77,7.08-1.11,14.42,1.17,18.37,2.39,1.15.35,2.34.73,2.59.68.16-.2.31-1.82.45-3.24.33-3.52.82-8.83,3.13-12.46,3.05-4.81,7.21-7.89,8.38-8.7l-10.01-13.92-20.17-21.38-24.88-10.81-12.4,3.17-3.3,16.26-5.41,18.08-11.38,29.43c.87-.35,1.79-.58,2.76-.7Z"/>
      </g>
      <path class="cls-9" d="m414.16,383.28c-6.73-17.37-36.99-56.09-54.25-66.54l.38-.63c17.35,10.52,47.78,49.45,54.55,66.91l-.68.26Z"/>
      <path class="cls-9" d="m379.11,394.27c-1.7-12.09-11.7-55.16-20.6-67.13l.59-.44c9.12,12.27,18.98,54.93,20.74,67.46l-.72.1Z"/>
      <g>
        <path class="cls-15" d="m316.66,369.18c6.95-10.79,21.43-7.2,29.51-22.09,7.19-13.24,5.32-37.77,11.35-40.77,6.03-3,26.46,2.35,39.73,12.67,20.52,15.97,28.91,37.63,29.59,39.2.68,1.57-15.9-22.84-34.17-35.22-9.11-6.17-23.7-9.89-29.76-6.1-3.72,2.33.65,18.51-5.06,31.37-5.71,12.86-7.03,13.37-7.03,13.37,0,0,.8,19.19-18.24,23.14l-15.93-15.57Z"/>
        <path class="cls-8" d="m358.99,316.28c-1.1,3.27.31,15.46-2.44,26.89-1.75,7.27-8.1,15.07-8.67,18.95-1.55,8.69-2.61,12.77-13.76,22.26,17.46-4.64,16.7-22.77,16.7-22.77,0,0,1.32-.51,7.03-13.37,5.71-12.86,1.34-29.05,5.06-31.37,6.05-3.79,20.64-.08,29.76,6.1,14.9,10.1,28.67,28.19,32.88,33.67-5.93-11.05-17.5-26.38-30.71-35.42-15.03-10.28-33.88-11.56-35.85-4.95Z"/>
        <path class="cls-10" d="m332.59,384.75c18.52-3.84,17.92-22.65,17.91-22.84v-.26s.23-.09.23-.09c.01-.02,1.47-1.11,6.82-13.17,3.12-7.02,3.2-14.93,3.26-21.28.06-5.29.09-9.11,1.93-10.26,6.29-3.94,21.11-.03,30.15,6.1,14.55,9.86,27.99,27.27,32.61,33.29-3.62-8.07-12.3-24.11-28.45-36.67-12.77-9.93-33.32-15.63-39.34-12.63-2.89,1.43-3.91,8.48-5.09,16.63-1.18,8.16-2.52,17.41-6.1,23.99-4.54,8.36-10.91,10.86-17.08,13.28-4.88,1.91-9.48,3.72-12.8,8.35,0,0,.46-1.76,2.4-3.69,2.97-2.53,6.48-3.91,10.13-5.34,6.04-2.37,12.29-4.82,16.7-12.94,3.51-6.47,4.84-15.64,6.02-23.74,1.26-8.7,2.26-15.57,5.49-17.18,6.33-3.15,26.93,2.45,40.12,12.71,17.83,13.87,26.62,31.94,29.58,39.06l.12.29c.15.34-.09.5-.13.53q-.32.19-1.99-1.98c-4.45-5.79-17.97-23.42-32.59-33.33-8.86-6.01-23.3-9.88-29.36-6.09-1.5.94-1.54,4.78-1.59,9.64-.07,6.42-.15,14.41-3.33,21.57-3.86,8.69-6.08,12.55-6.99,13.39.01,1.82-.31,16.12-13.37,21.79-2.5,1.12-5.28.89-5.28.89Z"/>
      </g>
      <path class="cls-10" d="m311.21,363.6s.6-2.28,3.95-3.87c4.05-1.77,9.92-2.39,15.52-.05l-.28.68c-7.92-3.3-16.96-.35-19.19,3.25Z"/>
    </g>
    <g>
      <g>
        <path class="cls-15" d="m292.79,380.5c-18.68,7.59-26.03,35.03-18.35,52.53,7.68,17.5,10.59,33.23,10.1,38.95-4.6,9.08-5.35,30.78-5.74,41-.39,10.22-4.38,23.99-5.74,25.81-1.37,1.82,13.61,17.68,29.16,12.47,1.04-9.27,5.56-26.78,8.99-35.89,3.43-9.12,14.23-27.24,13.32-38.07-2.13-25.37,2.28-66.97-16.29-78.21l-15.45-18.59Z"/>
        <path class="cls-5" d="m295.31,461.95c-3.67,2.1-5.04,3.05-7.66,5.61-3.95-28.63-11.76-33.56-12.78-48.78-.9-13.46,3.41-25.56,16.51-37.63-17.63,8.37-24.42,34.85-16.93,51.89,7.68,17.5,10.59,33.23,10.1,38.95-4.6,9.08-5.35,30.78-5.74,41-.39,10.22-4.38,23.99-5.74,25.81-.43.57,1.65,2.36,1.97,2.68,3.18-8.1,4.9-14.77,5.81-23.44,1.2-11.46.45-20.84,2.17-32.29,1.14-8.27,3.3-15.83,12.29-23.79Z"/>
        <path class="cls-8" d="m308.82,399.49c9.26,18.24,9.3,49.73,7.29,73.92-1.15,13.87-7.26,24.84-10.28,37.49-3.25,13.6-7.82,27.05-8.53,41.34,1.62-.12,3.27-.42,4.92-.98,1.04-9.27,5.56-26.78,8.99-35.89,3.43-9.12,14.23-27.24,13.32-38.07-2.1-25.09,2.17-66.04-15.71-77.81Z"/>
        <path class="cls-10" d="m298.43,552.51c-11.33,1.47-21.55-6.71-24.8-11.22-.94-1.31-1.23-2.22-.86-2.72,1.21-1.61,5.27-15.14,5.67-25.61l.02-.62c.39-10.22,1.21-31.46,5.73-40.47.44-5.57-2.38-21.18-10.08-38.7-4.26-9.71-4.08-22.72.48-33.95,2.57-6.34,6.33-11.55,10.9-15.23,3.86-2.88,7.31-3.5,7.31-3.5-7.58,3.08-13.8,9.83-17.53,19-4.49,11.05-4.67,23.84-.49,33.38,7.78,17.71,10.61,33.54,10.13,39.13l-.04.13c-4.47,8.83-5.29,30.04-5.68,40.23l-.02.62c-.41,10.51-4.43,24.16-5.82,26.02-.05.07-.03.65.97,2,3.56,4.78,15.41,13.88,27.56,9.98,1.13-9.71,5.74-27.11,8.98-35.75.95-2.52,2.41-5.63,4.11-9.24,4.38-9.32,9.84-20.91,9.19-28.68-.49-5.81-.62-12.45-.76-19.47-.48-23.54-1.02-50.21-15.17-58.78,0,0,2.29.68,4.55,2.77,10.44,11.07,10.92,34.8,11.35,56,.14,7.01.28,13.63.76,19.42.67,7.96-4.83,19.65-9.25,29.05-1.62,3.44-3.15,6.69-4.08,9.18-3.26,8.67-7.89,26.2-8.97,35.81l-.03.23-.22.07c-1.31.44-2.62.73-3.91.9Z"/>
      </g>
      <path class="cls-10" d="m284.67,472.55l-.66-.32c.88-1.79,2.53-4.07,4.73-6.24,2.66-2.61,6.56-4.04,6.56-4.04-5.12,2.82-9.1,7.48-10.64,10.61Z"/>
    </g>
    <g>
      <g>
        <path class="cls-15" d="m274.93,536.84c-5.3,3.59-14.68,5.57-18.77,5.36-4.09-.21-10.88-3.26-17.86.72-4.09,2.62-7.11,13.47,6.29,17.14,9.84,1.92,56.39-5.17,56.39-5.17l-26.05-18.05Z"/>
        <path class="cls-5" d="m258.67,544.03c6.41-.21,13.25-2.16,17.72-6.17l-1.46-1.01c-5.3,3.59-14.68,5.57-18.77,5.36-4.09-.21-10.88-3.26-17.86.72-1.92,1.23-3.6,4.27-3.46,7.52,4.53-11.29,17.54-6.21,23.84-6.42Z"/>
        <path class="cls-8" d="m236.91,555.69c1.52,1.79,3.96,3.35,7.67,4.37,2.19.43,6.21.41,11.12.12,6.76-5.77,13.17-9.79,20.85-14.41-4.44-1.44-13.9,4.73-20.71,3.59-8.19-1.38-13.97.3-18.93,6.33Z"/>
        <path class="cls-10" d="m249.2,560.45c-1.72.22-3.32.24-4.69-.03-7.79-2.14-9.58-6.54-9.95-8.97-.57-3.75,1.35-7.44,3.54-8.84,5.39-3.07,10.73-2.05,14.63-1.3,1.32.25,2.46.47,3.44.52,3.9.2,13.15-1.65,18.75-4.99,0,0-.81,1.35-2.36,2.03-5.65,2.52-13.02,3.87-16.43,3.69-1.04-.05-2.26-.29-3.54-.53-4-.77-8.98-1.72-14.12,1.21-1.97,1.27-3.72,4.65-3.19,8.1.42,2.76,2.39,6.45,9.39,8.37,9.56,1.87,30.87-10.95,31.09-11.08l.38.63c-.76.46-16.32,9.82-26.94,11.2Z"/>
      </g>
      <path class="cls-10" d="m253.13,548.73c-.32-3.82-2.15-6.26-5.59-7.44l.24-.69c2.37.82,4.06,2.23,5.06,4.21.88,1.91.29,3.92.29,3.92Z"/>
      <path class="cls-10" d="m263.83,549.63c.19-4.06-1.1-6.66-2.26-7.66l.48-.56c1.09.94,1.88,2.56,2.27,4.54.47,2.01-.48,3.67-.48,3.67Z"/>
      <path class="cls-10" d="m272.63,545.89c-.15-2.09-1.85-5.36-4.09-5.52l.05-.73c1.65.12,2.92,1.43,3.73,2.92.83,1.63.31,3.33.31,3.33Z"/>
    </g>
    <g>
      <path class="cls-10" d="m231.28,566.47c-.75-.38-.46-6.32,1.44-11.11,1.54-3.88,3.95-6.9,5.28-6.92,1.3-.02,3.32,1.33,4.93,3.7,1.43,2.1,1.65,4.75,1.52,5.69-.15,1.03-3.44,1.46-6.73,3.39-3.1,1.82-5.85,5.54-6.44,5.24Z"/>
      <path class="cls-9" d="m240.74,549.71c-1.01-.83-1.99-1.28-2.74-1.27-1.33.02-3.74,3.03-5.28,6.92-1.64,4.12-2.07,9.09-1.69,10.63,1.33-6.89,3.51-13.16,9.71-16.28Z"/>
      <path class="cls-9" d="m231.4,566.79c-.1,0-.18,0-.27-.05h0c-1.05-.53-.53-6.9,1.29-11.5,1.57-3.96,4.02-7.1,5.57-7.11,1.53-.02,3.61,1.52,5.19,3.84,1.51,2.22,1.71,4.94,1.57,5.91-.11.74-1.15,1.14-2.72,1.73-1.2.45-2.68,1.02-4.17,1.89-1.65.97-3.22,2.51-4.38,3.64-1.06,1.04-1.65,1.62-2.09,1.66Zm6.54-18.03c-1.13.11-3.4,2.85-4.94,6.72-1.87,4.72-2.04,9.98-1.61,10.68.28-.12,1.01-.83,1.66-1.47,1.18-1.15,2.79-2.72,4.5-3.73,1.53-.9,3.04-1.47,4.26-1.93,1.17-.44,2.27-.86,2.32-1.24.12-.86-.07-3.42-1.47-5.47-1.61-2.36-3.57-3.58-4.67-3.57-.02,0-.04,0-.06,0Z"/>
    </g>
    <g>
      <g>
        <path class="cls-15" d="m276.56,545.77c-3.88.24-8.86,3.86-13.69,5.39-3.45,1.09-11.55-1.73-16.56,3.22-5.01,4.96-2.06,12.55,3.18,15.94,5.24,3.39,11.4,2.59,11.4,2.59l22.75-14.22-7.08-12.9Z"/>
        <path class="cls-8" d="m255.89,566.77c-2.84,2.97-8.35-.61-11.72-3.39.85,2.77,2.82,5.33,5.3,6.93,5.24,3.39,11.4,2.59,11.4,2.59l28.33-16.93c-5.94-3.83-13.75,2.56-20.43,3.49-5.98.84-9.57,3.84-12.89,7.31Z"/>
        <path class="cls-10" d="m261.03,573.42h-.08c-.26.04-6.36.79-11.65-2.63-3.26-2.11-5.51-5.62-5.87-9.17-.29-2.8.62-5.34,2.64-7.33,3.48-3.45,8.33-3.26,12.22-3.11,1.83.07,3.42.13,4.49-.2,2.17-.68,4.33-1.83,6.42-2.93,1.2-.63,2.37-1.25,3.51-1.77,2.05-.88,3.85-.51,3.85-.51-2.14.34-4.51,1.6-7.02,2.92-2.12,1.12-4.31,2.28-6.54,2.98-1.19.38-2.83.31-4.74.24-3.75-.15-8.42-.33-11.68,2.9-1.85,1.83-2.69,4.16-2.43,6.74.34,3.28,2.51,6.67,5.54,8.63,4.75,3.07,10.36,2.61,11.08,2.54l22.68-14.18.39.62-22.82,14.27Z"/>
      </g>
      <path class="cls-10" d="m262.06,562.52c-.59-5.92-5.72-9.53-10.24-10.37l.13-.72c3.2.6,6.69,2.51,8.83,5.59,1.87,2.85,1.28,5.5,1.28,5.5Z"/>
      <path class="cls-10" d="m270.61,559.2c.11-2.31-1.53-5.38-3.13-7.09-.82-.88-1.62-1.4-2.19-1.41l.02-.73c1,.03,2.03.91,2.71,1.64.79.85,1.59,2.02,2.21,3.28,1.13,2.5.38,4.32.38,4.32Z"/>
      <path class="cls-10" d="m278.46,554.35c-.31-4.53-2.85-7.31-5.08-7.62l.1-.73c1.91.27,4.01,2.08,5.07,5.08.59,1.96-.08,3.27-.08,3.27Z"/>
    </g>
    <g>
      <path class="cls-10" d="m238.38,581.19c-.89-.42-.76-7.42,1.31-13.11,1.68-4.62,4.4-8.25,5.97-8.32,1.52-.07,3.95,1.45,5.93,4.18,1.76,2.42,2.11,5.52,1.98,6.64-.14,1.22-3.99,1.83-7.8,4.22-3.59,2.25-6.68,6.72-7.39,6.39Z"/>
      <path class="cls-9" d="m248.93,561.15c-1.21-.94-2.39-1.44-3.26-1.4-1.57.07-4.29,3.7-5.97,8.32-1.78,4.9-2.12,10.76-1.61,12.56,1.33-8.15,3.67-15.6,10.85-19.48Z"/>
      <path class="cls-9" d="m238.55,581.57c-.11.01-.22,0-.32-.05h0c-1.25-.59-.87-8.1,1.12-13.57,1.71-4.72,4.47-8.49,6.3-8.56,1.8-.08,4.3,1.66,6.24,4.33,1.85,2.56,2.18,5.75,2.05,6.89-.1.88-1.31,1.38-3.14,2.13-1.39.57-3.12,1.29-4.83,2.36-1.9,1.19-3.7,3.06-5.02,4.43-1.22,1.26-1.89,1.96-2.4,2.03Zm7.06-21.44c-1.33.17-3.9,3.47-5.58,8.07-2.04,5.61-2.05,11.81-1.52,12.61.33-.15,1.16-1.02,1.9-1.78,1.34-1.39,3.18-3.3,5.16-4.54,1.77-1.11,3.53-1.84,4.94-2.42,1.36-.56,2.64-1.09,2.69-1.54.12-1.01-.21-4.02-1.92-6.38-1.97-2.72-4.32-4.09-5.61-4.03-.02,0-.05,0-.07,0Z"/>
    </g>
    <g>
      <g>
        <path class="cls-15" d="m289.21,555.98c-6.08-1.15-9.51,3.83-14.76,5-5.25,1.17-14.56,2.38-15.54,12.84-.98,10.46,13.55,10.6,18.02,5.19,4.46-5.41,12.05-9,16.16-11.92,8.33-5.92,10.33-10.4,9.55-18.34l-13.42,7.22Z"/>
        <path class="cls-8" d="m297.34,551.61c-.57,9.9-8.09,13.24-16.41,17.23-3.97,1.9-4.85,6.26-10.87,6.76-3.06,1.04-7.96-1.47-10.71-4.28-.2.77-.35,1.6-.43,2.5-.98,10.46,13.55,10.6,18.02,5.19,4.46-5.41,12.05-9,16.16-11.92,8.33-5.92,10.33-10.4,9.55-18.34l-5.3,2.85Z"/>
        <path class="cls-10" d="m269.94,582.79c-2.25.29-4.6.07-6.6-.75-3.46-1.43-5.16-4.36-4.8-8.25.93-9.99,9.2-11.75,14.67-12.92.4-.09.79-.17,1.15-.25,2.04-.45,3.84-1.53,5.59-2.57,1.58-.94,3.2-1.91,5.03-2.45,2.47-.59,4.22.37,4.22.37-3.56-.47-6.14,1.07-8.88,2.7-1.8,1.07-3.65,2.18-5.8,2.66-.37.08-.76.16-1.16.25-5.26,1.12-13.21,2.81-14.1,12.27-.33,3.55,1.21,6.21,4.35,7.51,4.25,1.76,10.46.53,13.02-2.58,3.25-3.94,8.16-6.94,12.11-9.36,1.53-.94,2.98-1.82,4.12-2.63,8-5.69,10.2-9.9,9.4-18l.73-.07c.82,8.33-1.53,12.86-9.7,18.67-1.16.83-2.62,1.72-4.16,2.66-3.9,2.39-8.76,5.36-11.93,9.2-1.58,1.91-4.34,3.16-7.27,3.54Z"/>
      </g>
      <path class="cls-10" d="m279.97,571.19c-1.3-5.21-7.14-8.58-11.57-8.34l-.04-.73c3.56-.19,7.83,1.68,10.37,4.95,1.45,1.96,1.24,4.12,1.24,4.12Z"/>
      <path class="cls-10" d="m285.77,565.66c-.24-1.63-1.34-3.3-2.94-4.45-1.51-1.09-3.19-1.53-4.73-1.26l-.13-.72c1.73-.31,3.62.18,5.29,1.39.65.47,1.22,1.01,1.7,1.61,1.29,1.76.81,3.44.81,3.44Z"/>
    </g>
    <g>
      <path class="cls-10" d="m259.39,588.11c-.75-.27-1.16-5.98.11-10.76,1.03-3.88,2.98-7.03,4.25-7.2,1.23-.17,3.32.89,5.13,2.97,1.61,1.84,2.12,4.34,2.1,5.26-.02,1-3.12,1.78-6.04,4.01-2.75,2.09-4.95,5.95-5.55,5.73Z"/>
      <path class="cls-9" d="m266.51,571.04c-1.06-.67-2.05-.99-2.76-.9-1.27.17-3.23,3.32-4.25,7.2-1.09,4.12-.94,8.91-.4,10.34.49-6.73,1.85-12.96,7.41-16.64Z"/>
      <path class="cls-9" d="m259.55,588.41c-.09.02-.18.01-.26-.02h0c-1.06-.39-1.29-6.53-.08-11.12,1.05-3.96,3.02-7.23,4.5-7.42,1.46-.2,3.62,1.04,5.39,3.07,1.69,1.95,2.19,4.52,2.17,5.46-.02.72-.96,1.21-2.4,1.96-1.09.57-2.44,1.27-3.76,2.28-1.46,1.11-2.79,2.76-3.76,3.97-.9,1.11-1.39,1.73-1.81,1.82Zm4.19-17.96c-1.07.24-2.92,3.11-3.95,6.97-1.25,4.72-.8,9.75-.32,10.37.26-.15.87-.91,1.42-1.59.99-1.23,2.35-2.92,3.87-4.07,1.36-1.03,2.74-1.75,3.85-2.33,1.06-.55,2.07-1.08,2.08-1.45.02-.83-.46-3.26-2.02-5.05-1.8-2.07-3.81-3.01-4.86-2.87-.02,0-.04,0-.06.01Z"/>
    </g>
    <g>
      <path class="cls-15" d="m400.53,426.4c-14.93,6.05-31.33,29.79-26.04,71.9,5.29,42.11,15.33,48.07,17.78,65.7,10.45,11.06,47.92-1.55,47.92-1.55,0,0,22.19-25.76,26.53-68.75,4.34-42.99-20.15-82.75-59.7-69.73l-6.49,2.43Z"/>
      <path class="cls-8" d="m444.15,428.77c25.87,27.45,14.19,106.07-18.52,130.93-6.64,5.05-20.44,3.92-28.08,7.49,14.25,4.82,42.64-4.74,42.64-4.74,0,0,22.19-25.76,26.53-68.75,2.73-27.02-5.94-52.76-22.57-64.93Z"/>
      <path class="cls-5" d="m435.38,423.95c-25.93-8.47-47.29,7.33-53.14,20.23-6.76,12.19-10.76,30.18-7.75,54.12.68,5.41,2.68,25.06,11.43,46.07-8.14-31.9-10.68-58.48-6.08-81.44,4.21-21.04,21.65-45,55.54-38.98Z"/>
      <path class="cls-10" d="m416.63,568.27h0c-12.32,1.6-20.61.25-24.64-4.01l-.08-.09-.02-.12c-.94-6.78-3.06-11.94-5.52-17.91-4.02-9.77-9.02-21.93-12.26-47.8-2.39-19.05-.5-36.22,5.47-49.67,4.88-11,12.46-19.24,20.8-22.62l6.5-2.44c16.07-5.29,30.87-2.16,42.08,8.74,13.66,13.28,20.61,36.8,18.13,61.38-4.3,42.62-26.39,68.7-26.62,68.96l-.07.08-.1.03c-.12.04-11.72,3.92-23.68,5.47Zm-24.01-4.44c3.89,4.01,11.93,5.26,23.91,3.7,11.3-1.47,22.28-5.03,23.44-5.41,1.34-1.6,22.21-27.25,26.37-68.47,2.46-24.36-4.4-47.65-17.9-60.77-8.83-8.58-19.92-12.28-32.09-10.7-3,.39-6.11,1.11-9.22,2.13l-6.47,2.43c-15.93,6.46-30.81,31.6-25.8,71.5,3.23,25.76,8.21,37.87,12.21,47.61,2.46,5.99,4.59,11.16,5.55,17.97Z"/>
    </g>
    <g>
      <path class="cls-15" d="m422.01,559.62c3.07-4.68,15.77-9.42,24.49.58,6.65,7.62,3.82,15.81-2.93,19.76-6.74,3.95-14.39,1.87-14.39,1.87l-7.17-22.21Z"/>
      <path class="cls-5" d="m444.4,558.14c-8.54-7.19-19.56-2.84-22.39,1.48l.62,1.93c5.52-6.13,13.03-6.8,21.77-3.41Z"/>
      <path class="cls-8" d="m446.5,560.21c-1.07-1.23-2.21-2.24-3.37-3.05,5.42,11.41-5.36,19.25-16.01,13.95l2.07,10.72s7.65,2.08,14.39-1.87c6.74-3.95,9.57-12.13,2.93-19.76Z"/>
      <path class="cls-10" d="m436.87,582.58c-4.21.55-7.57-.34-7.78-.39l-.19-.05-.06-.19-7.23-22.38.1-.15c1.59-2.43,5.92-5.09,11.13-5.44,3.75-.26,9.22.57,13.94,5.99,3.05,3.5,4.34,7.34,3.73,11.11-.6,3.69-3.06,7.05-6.74,9.2-2.31,1.36-4.71,2.02-6.89,2.3Zm-7.4-1.06c1.21.28,7.98,1.61,13.92-1.88,3.49-2.05,5.82-5.21,6.39-8.69.58-3.54-.65-7.18-3.56-10.51-4.53-5.19-9.75-5.99-13.34-5.74-4.87.33-8.9,2.73-10.47,4.97l7.06,21.85Z"/>
    </g>
    <g>
      <path class="cls-10" d="m448.81,592.06c1.07-.2,2.93-7.67,2.33-14.29-.48-5.37-2.38-9.98-4.04-10.49-1.62-.5-4.65.45-7.55,2.8-2.58,2.09-3.84,5.28-4.02,6.5-.2,1.33,3.76,3.05,7.17,6.65,3.21,3.39,5.26,8.98,6.11,8.83Z"/>
      <path class="cls-9" d="m443.26,567.82c1.55-.64,2.92-.82,3.84-.54,1.66.51,3.56,5.11,4.04,10.49.6,6.62-1.26,14.09-2.33,14.29,1.6-6.95,1.96-18.53-5.55-24.23Z"/>
      <path class="cls-9" d="m446.6,589.55c-1.03-1.82-2.43-4.31-4.14-6.11-1.54-1.62-3.19-2.86-4.53-3.86-1.72-1.29-2.86-2.14-2.73-3.05.18-1.24,1.44-4.51,4.13-6.7,2.82-2.29,5.97-3.44,7.85-2.86,1.87.58,3.78,5.4,4.26,10.76.57,6.32-1.11,14.35-2.59,14.62h0c-.18.03-.35-.02-.53-.17-.42-.34-.92-1.19-1.74-2.65Zm4.22-11.76c-.49-5.48-2.41-9.79-3.82-10.22-1.35-.42-4.2.27-7.25,2.74-2.53,2.05-3.74,5.19-3.91,6.3-.08.54,1.11,1.43,2.48,2.46,1.35,1.01,3.03,2.27,4.61,3.93,1.76,1.86,3.19,4.39,4.23,6.23.62,1.09,1.31,2.32,1.61,2.49.76-.44,2.65-7.32,2.05-13.94Z"/>
    </g>
    <g>
      <path class="cls-15" d="m405.6,561.28c-3.15-3.4-10.97-10.07-20.72-1.37-8.02,7.16-4.42,20.87,5.22,21.21,9.64.35,12.51-4.08,12.51-4.08l2.99-15.76Z"/>
      <path class="cls-5" d="m384.89,559.92c-3.6,3.21-4.85,7.74-4.27,11.8.84-8.89,11.22-17.25,22.85-12.48-3.89-3.26-10.59-6.45-18.57.68Z"/>
      <path class="cls-8" d="m381.77,575.52c1.56,3.17,4.46,5.47,8.33,5.61,9.64.35,12.51-4.08,12.51-4.08l2.94-15.46c-12.41,5.19-7.61,19.27-23.78,13.93Z"/>
      <path class="cls-10" d="m394.41,581.32c-1.26.16-2.7.24-4.32.18-4.21-.15-7.64-2.8-9.19-7.09-1.55-4.3-1-10.53,3.74-14.77,9.5-8.48,17.38-2.77,21.23,1.39l.12.14-.03.18-3.05,15.89c-.1.16-2.18,3.25-8.51,4.07Zm-1.23-25.2c-2.48.32-5.18,1.52-8.04,4.08-4.49,4.01-5.01,9.9-3.54,13.97,1.44,3.99,4.63,6.46,8.53,6.6,8.72.31,11.78-3.38,12.15-3.87l2.94-15.5c-2.52-2.69-6.77-5.97-12.04-5.28Z"/>
    </g>
    <g>
      <path class="cls-10" d="m384.3,593.83c-1.13-.14-3.48-7.82-3.23-14.74.2-5.62,1.91-10.52,3.62-11.14,1.65-.61,4.87.2,8.02,2.49,2.8,2.03,4.29,5.28,4.55,6.54.28,1.38-3.75,3.39-7.09,7.32-3.15,3.7-4.97,9.65-5.86,9.53Z"/>
      <path class="cls-9" d="m388.71,568.3c-1.65-.58-3.09-.69-4.03-.35-1.7.62-3.41,5.52-3.62,11.14-.25,6.92,2.1,14.59,3.23,14.74-2.06-7.14-3.08-19.17,4.41-25.54Z"/>
      <path class="cls-9" d="m384.8,593.95c-.18.16-.35.23-.54.2h0c-1.56-.2-3.76-8.47-3.52-15.07.2-5.61,1.92-10.74,3.83-11.44,1.92-.71,5.27.31,8.33,2.53,2.93,2.12,4.42,5.46,4.68,6.74.19.94-.95,1.89-2.67,3.33-1.33,1.11-2.99,2.49-4.49,4.27-1.67,1.97-3,4.64-3.96,6.59-.77,1.56-1.24,2.47-1.66,2.85Zm-.47-.46c.3-.19.96-1.51,1.54-2.68.98-1.98,2.32-4.69,4.05-6.73,1.55-1.82,3.23-3.22,4.57-4.35,1.37-1.15,2.56-2.14,2.44-2.7-.24-1.15-1.68-4.35-4.42-6.34-3.32-2.41-6.32-2.95-7.71-2.45-1.45.53-3.19,5.11-3.4,10.85-.25,6.93,2.1,13.98,2.92,14.39Z"/>
    </g>
    <g>
      <path class="cls-15" d="m415.98,554.99c-11.01.79-18.12,13.88-17.15,21.31.97,7.44,6.16,10.51,17.41,10.47,10.05-.04,18.57-3.01,17.48-12.66-1.2-10.54-6.77-19.91-17.73-19.12Z"/>
      <path class="cls-5" d="m426.44,558.2c-2.7-2.27-6.16-3.52-10.46-3.21-10.16.73-16.98,11.91-17.23,19.48,4.17-11.32,13.82-20.37,27.69-16.27Z"/>
      <path class="cls-8" d="m428.54,560.35c-.23,8.19-3.86,12.87-9.54,16.04-5.84,2.83-13.77,6.16-20.09.54,0,.39-.14-.99-.09-.62.97,7.44,6.16,10.51,17.41,10.47,10.05-.04,18.57-3.01,17.48-12.66-.6-5.25-2.28-10.21-5.17-13.76Z"/>
      <path class="cls-10" d="m421.48,586.82c-1.6.21-3.35.32-5.25.32-11.47.05-16.79-3.18-17.77-10.79-.56-4.35,1.52-10.29,5.19-14.77,3.4-4.16,7.78-6.63,12.3-6.95,11.64-.84,16.99,9.49,18.12,19.44.38,3.37-.37,6.15-2.24,8.25-2.11,2.37-5.58,3.87-10.35,4.49Zm-6.27-31.38c-4.05.53-7.93,2.85-11,6.61-3.55,4.34-5.57,10.06-5.03,14.22.94,7.25,5.88,10.19,17.05,10.15,7.32-.03,12.38-1.57,15.06-4.57,1.73-1.94,2.42-4.53,2.06-7.68-1.09-9.61-6.22-19.59-17.34-18.79h0c-.26.02-.53.05-.79.08Z"/>
    </g>
    <path class="cls-10" d="m418.36,598.71c-1.08.36-6.52-5.54-9.29-11.89-2.25-5.15-2.83-10.31-1.56-11.61,1.23-1.26,4.48-1.92,8.31-1.23,3.4.62,6.16,2.9,6.93,3.93.85,1.12-1.91,4.67-3.22,9.67-1.23,4.7-.31,10.85-1.16,11.13Z"/>
    <path class="cls-9" d="m411.28,573.78c-1.74.19-3.08.71-3.78,1.43-1.26,1.3-.69,6.46,1.56,11.61,2.77,6.35,8.21,12.25,9.29,11.89-4.95-5.55-11.08-15.95-7.08-24.93Z"/>
    <path class="cls-9" d="m418.86,598.6c-.09.22-.22.36-.4.42h0c-1.49.49-7.05-6.01-9.7-12.07-2.25-5.14-2.91-10.51-1.5-11.97,1.43-1.47,4.89-2,8.61-1.32,3.56.65,6.34,3.01,7.13,4.05.58.76-.04,2.11-.96,4.15-.72,1.58-1.61,3.54-2.2,5.79-.66,2.5-.69,5.48-.72,7.66-.02,1.74-.04,2.77-.26,3.29Zm-.63-.21c.19-.3.21-1.77.22-3.08.03-2.21.06-5.24.74-7.82.61-2.31,1.51-4.3,2.24-5.9.74-1.63,1.38-3.03,1.04-3.49-.71-.94-3.39-3.2-6.73-3.8-4.03-.73-6.98.07-8.01,1.13-1.08,1.1-.67,5.99,1.63,11.25,2.77,6.35,7.95,11.69,8.86,11.71Z"/>
    <g>
      <path class="cls-15" d="m244.04,154.53c15.79-12.87,58.41-14.23,75.64,6.65,17.23,20.88,16.87,54.14,10.8,67.96-5.83,13.79-15.23,36.17-41.64,48.7-11.16,4.72-20.48,7.81-27.89,14.45-9.26,12.03-31.95,26.23-46.21,22.98-2.79-.62,1.47-15.2-3.63-37.41,3.29-20.11-11.6-45.72-11.6-45.72,0,0-11.69-14.22,4.13-21.2,2.98-14.9,1.48-43.48,20.28-48.39-.18-5.14,2.23-10.39,7.29-12.04,6.93-2.26,12.82,4.02,12.82,4.02Z"/>
      <path class="cls-5" d="m242.61,155.54c.19.05-1.09.97-1.89,3.38,15.94-15.19,43.42-13.14,63.01-9.01-20.08-8.3-47.66-5.19-59.69,4.62,0,0-5.89-6.28-12.82-4.02-5.06,1.65-7.47,6.9-7.29,12.04-6.48,1.69-11.37,7.35-14.05,13.93,3.81-5.27,11.57-15.5,20.46-11.68-1.19-1.66-2.63-2.54-4.42-2.6-.31-3,1.23-8.34,5.51-10.03,4.02-1.59,8.8,1.25,11.17,3.38Z"/>
      <path class="cls-5" d="m205.15,212.96c.84-1.1-1.44-2.27-1.49-2.02-13.03,5.74-7.4,16.4-5.01,19.98-2.85-8.2-1.87-16.14,6.51-17.96Z"/>
      <path class="cls-8" d="m225.78,199.01c2.41-8.15,2.76-17.55-.6-21.91-4.31-5.6-12.77-4.11-16.08,1.56-2.23,6.21-2.87,12.41-3.67,19.12,8.35,2.38,14.1,4.61,20.34,1.23Z"/>
      <path class="cls-8" d="m220.39,309.05c13.22-6.15,9.9-21.88,12.11-33.23-6.08.79-11.79,1.1-17.82.7,4.34,12.92.78,31.89,5.71,32.53Z"/>
      <path class="cls-8" d="m319.68,161.18c-.97-1.18-2.04-2.28-3.17-3.32,22.26,31.46,10.92,74.81-3.16,91.4-4.52,5.87-11.88,15.78-19.64,21.12-9.27,6.38-17.79,6.98-27.76,13.03.48-1.24,1.21-5.12,1.66-7.39-10.91,16.7-31.13,38.05-53.3,38.97.12.14.27.24.44.27,14.26,3.25,36.95-10.95,46.21-22.98,7.41-6.64,16.73-9.73,27.89-14.45,26.41-12.53,35.8-34.91,41.64-48.7,6.08-13.83,6.43-47.08-10.8-67.96Z"/>
      <path class="cls-10" d="m222.67,315.86c-2.83.37-5.53.32-8-.24-1.45-.32-1.39-2.85-1.29-7.89.13-6.3.36-16.84-2.62-29.79l-.02-.07v-.07c3.24-19.75-11.39-45.22-11.54-45.48-.19-.23-5.48-6.75-3.92-13.26.84-3.53,3.55-6.35,8.05-8.38.6-3.05,1.02-6.69,1.46-10.55,1.74-15.05,3.9-33.76,18.76-37.86-.07-4.83,2.21-10.37,7.55-12.11,6.27-2.05,11.76,2.73,12.96,3.87,16.08-12.76,58.5-14.19,75.9,6.91,9.84,11.93,13.16,26.61,14.22,36.82,1.23,11.92-.06,23.99-3.37,31.52l-.05.13c-5.73,13.54-15.31,36.2-41.76,48.75-1.9.8-3.73,1.56-5.51,2.28-8.68,3.56-16.18,6.63-22.29,12.1-7.28,9.47-24.48,21.47-38.53,23.3Zm-11.18-38.02c2.98,13.01,2.75,23.58,2.62,29.9-.09,4.05-.15,6.97.72,7.16,14.45,3.29,37.16-11.57,45.84-22.84,6.25-5.61,13.8-8.7,22.54-12.28,1.78-.73,3.61-1.48,5.49-2.27,26.19-12.43,35.7-34.93,41.39-48.37l.06-.13c5.62-12.78,6.83-46.29-10.74-67.59-7.7-9.34-21.58-15.11-38.09-15.85-14.79-.66-29.33,2.97-37.03,9.25l-.26.22-.23-.25c-.06-.06-5.81-6.08-12.44-3.92-5.08,1.66-7.2,7.06-7.04,11.68v.29s-.27.07-.27.07c-14.64,3.82-16.78,22.39-18.5,37.31-.46,3.94-.89,7.67-1.51,10.79l-.04.19-.17.08c-4.39,1.93-7.01,4.61-7.81,7.96-1.47,6.16,3.76,12.61,3.81,12.68.18.31,14.92,25.95,11.69,45.94Z"/>
    </g>
    <path class="cls-10" d="m261.25,292.51l-.58-.44c4.23-5.61,5.35-9.96,6.24-13.46.23-.91.45-1.76.71-2.58,0,0-.05,2.93-.76,5.59-.9,3.02-2.35,6.59-5.6,10.9Z"/>
    <path class="cls-10" d="m230.34,164.8c-1.59-2.18-4.4-2.38-6.32-1.9l-.18-.71c.8-.2,1.75-.3,2.71-.2,2.85.31,3.79,2.81,3.79,2.81Z"/>
    <path class="cls-10" d="m240.72,158.92s-.1-2.56,3.11-4.69l.42.6c-2.22,1.58-3.52,4.07-3.54,4.09Z"/>
    <path class="cls-10" d="m252.6,199.39s.64-3.68,2.36-6.94c3.34-5.75,8.6-11.53,15.2-14.72,5.28-2.55,13.04-5.06,22.94-.52,3.59,1.71,5.84,4.27,5.84,4.27-12.61-9.01-22.28-6.08-28.46-3.1-9.05,4.38-15.5,13.7-17.88,21Z"/>
    <g>
      <path class="cls-3" d="m226.33,199.44c1.11-9.23,1.15-21.48-8.97-22.84-10.12-1.36-16.67,12.47-16.98,22.52-.31,10.05,2.88,21.24,11.55,25.12,6.95-1.27,14.41-24.8,14.41-24.8Z"/>
      <path class="cls-17" d="m226.01,200.28c1.08-8.9.76-21.13-9-22.44-9.76-1.31-15.74,12.44-16.04,22.13-.3,9.69,2.78,20.49,11.14,24.24,6.71-1.23,13.9-23.93,13.9-23.93Z"/>
      <path class="cls-12" d="m201.14,205.26c.8,8.06,4.1,15.88,10.96,18.96,3.53-.65,7.2-7.25,9.88-13.36-6.71,7.4-16.87,4.67-20.84-5.6Z"/>
      <path class="cls-3" d="m212.06,224.59l-.1-.05c-8.81-3.95-11.65-15.29-11.36-24.59.2-6.57,3.12-15.51,8.29-19.89,2.49-2.11,5.24-2.99,8.17-2.59,9.82,1.32,10.49,13.16,9.32,22.85v.07c-.31.94-7.36,22.93-14.2,24.18l-.11.02Zm2.51-46.4c-1.83.24-3.58,1.05-5.21,2.44-5.01,4.24-7.83,12.95-8.03,19.35-.28,9.02,2.42,20,10.82,23.85,6.27-1.38,13.19-22.66,13.5-23.63,1.13-9.36.53-20.76-8.69-22-.81-.11-1.61-.11-2.39-.01Z"/>
    </g>
    <g>
      <g>
        <path class="cls-16" d="m215.71,198.37c4.63-.17,8.54,4.93,8.74,11.4.19,6.47-3.41,11.85-8.04,12.03-4.63.18-8.54-4.93-8.74-11.39-.19-6.47,3.41-11.86,8.04-12.03Z"/>
        <path class="cls-7" d="m218.15,214.96c2.4-.59,4.67-2.25,6.29-3.97-.16,5.74-3.88,10.65-8.07,10.81-4.35.16-8.39-4.63-8.66-10.67,2.41,3.16,6.59,4.33,10.44,3.83Z"/>
        <path class="cls-6" d="m216.23,222.14c-1.79.02-3.51-.71-4.99-2.09-2.33-2.17-3.78-5.77-3.9-9.63-.2-6.64,3.55-12.19,8.36-12.37h0c1.84-.07,3.65.65,5.18,2.09,2.33,2.17,3.79,5.77,3.9,9.63.2,6.64-3.55,12.19-8.36,12.37-.06,0-.13,0-.19,0Zm-.51-23.43c-4.44.17-7.9,5.41-7.72,11.69.11,3.68,1.49,7.11,3.69,9.16,1.4,1.31,3.04,1.98,4.7,1.91,4.44-.17,7.9-5.41,7.72-11.69-.11-3.68-1.49-7.11-3.69-9.16-1.4-1.31-3.04-1.98-4.7-1.91h0Z"/>
      </g>
      <path class="cls-3" d="m214.85,203.88c2.7-.1,4.98,3.03,5.1,7,.12,3.97-1.97,7.27-4.67,7.37-2.7.1-4.98-3.03-5.1-7-.12-3.97,1.97-7.27,4.67-7.37Z"/>
      <path class="cls-17" d="m215.29,203.96c1.55-.21,2.97.9,3.15,2.5.19,1.6-.92,3.06-2.48,3.28-1.55.22-2.96-.91-3.15-2.5-.19-1.6.92-3.06,2.48-3.28Z"/>
      <path class="cls-17" d="m217.63,213.8c.72-.1,1.36.42,1.45,1.15.09.74-.42,1.41-1.14,1.51-.72.1-1.36-.42-1.45-1.15-.09-.73.42-1.41,1.14-1.51Z"/>
    </g>
    <g>
      <path class="cls-19" d="m218.48,277.27c2.9,8.11.3,30.67,2.24,31.44,3.96,1.58,22.76-9.84,31.68-27.36,8.76-17.22,14.31-37.52,14.31-37.52l-11.61,1.51-36.62,31.94Z"/>
      <path class="cls-4" d="m255.1,245.33l-29.42,25.66c4.17,9.35,9.17,18.27,13.5,27.42,4.93-4.54,9.81-10.35,13.23-17.07,8.76-17.22,14.31-37.52,14.31-37.52l-11.61,1.51Z"/>
      <g>
        <g>
          <path class="cls-18" d="m252.4,281.35c1.17-2.3,2.28-4.65,3.33-7-7.1-.13-12.64,1.67-16.15,4.85-6.46-.51-11.74,3.31-14.73,9.42-2.62,5.35-2.19,14.02-4.66,18.83.12.72.29,1.16.54,1.26,3.96,1.58,22.76-9.84,31.68-27.36Z"/>
          <path class="cls-11" d="m252.4,281.35c1.17-2.3,2.28-4.65,3.33-7-7.1-.13-12.64,1.67-16.15,4.85-6.46-.51-11.74,3.31-14.73,9.42-.44.89-.78,1.88-1.08,2.92,1.34-3.44,5.92-10.93,9.08-9.43,1.29.5.46,3.56.67,6.88,1.71-3.91,8.46-11.14,13.21-10.26,5.87,1.4-5.08,18.81-19.09,28.06,13.22-6.38,23.08-22.14,24.76-25.45Z"/>
          <path class="cls-13" d="m222.26,309.16c-.69.09-1.26.05-1.68-.11-.38-.15-.61-.61-.76-1.54l-.02-.12.06-.11c1.2-2.33,1.7-5.57,2.23-9.01.53-3.47,1.09-7.07,2.43-9.82,3.21-6.56,8.65-10.07,14.93-9.63,3.71-3.29,9.34-4.97,16.28-4.84h.55s-.23.51-.23.51c-1.11,2.48-2.23,4.84-3.34,7.01-8.06,15.84-24.24,26.84-30.46,27.65Zm-1.7-1.66c.14.75.29.86.3.87,3.42,1.37,22.18-9.44,31.21-27.19l.33.17-.33-.17c1.02-2.01,2.06-4.18,3.09-6.47-6.57-.03-11.87,1.61-15.34,4.76l-.12.11h-.16c-6.03-.49-11.27,2.87-14.37,9.2-1.3,2.65-1.84,6.19-2.37,9.61-.53,3.44-1.03,6.7-2.24,9.12Z"/>
        </g>
        <path class="cls-13" d="m233.66,288.3s-.11-1.83,1.12-3.79c1.35-2.17,3.16-4.54,4.59-5.61l.44.59c-2.21,1.65-5.54,6.85-6.14,8.81Z"/>
      </g>
      <path class="cls-10" d="m222.26,309.16c-.69.09-1.26.05-1.68-.11-1-.4-1.07-3.39-1.01-11.21.06-7.14.14-16.02-1.44-20.44l-.08-.24,36.89-32.17,12.27-1.59-.14.53c-.06.2-5.66,20.54-14.34,37.59-8.06,15.84-24.24,26.84-30.46,27.65Zm-3.36-31.78c1.54,4.61,1.46,13.39,1.4,20.46-.04,4.73-.09,10.1.55,10.53,3.43,1.36,22.18-9.44,31.21-27.19,7.86-15.45,13.19-33.61,14.14-36.93l-10.95,1.42-36.35,31.7Z"/>
    </g>
    <g>
      <path class="cls-15" d="m181.29,245.2s-5.13-.44-7.76,1.81c-1.62,1.39-7.21,17.85,1.52,22.12,4.66-.11,6.24-23.93,6.24-23.93Z"/>
      <path class="cls-5" d="m181.05,248.12c.17-1.78.24-2.92.24-2.92,0,0-5.13-.44-7.76,1.81-.39.34-1.02,1.56-1.62,3.27,2.46-2.41,6.39-3.16,9.13-2.16Z"/>
      <path class="cls-8" d="m170.28,259.55c.01,3.99,1.18,7.82,4.78,9.59,1.97-.05,3.38-4.32,4.37-9.25-3.2.86-6.79,1.16-9.14-.34Z"/>
      <path class="cls-10" d="m175.24,269.49c-.06,0-.11.01-.17.01h-.09s-.08-.04-.08-.04c-2.74-1.34-4.37-3.92-4.84-7.65-.82-6.49,2.12-14.11,3.25-15.07,2.71-2.32,7.81-1.91,8.03-1.9l.36.03-.02.36c-.16,2.44-1.7,23.65-6.42,24.26Zm-.1-.72s.02,0,.03,0c3.07-.4,5.1-13.89,5.74-23.21-1.19-.05-5.04-.05-7.13,1.74-.91.78-3.78,8.28-3,14.43.44,3.44,1.9,5.81,4.35,7.05Z"/>
    </g>
    <path class="cls-15" d="m229.71,179.06c-.26,10.36-11.83,38.25-21.61,46.71-10.05.75-31.36,8.99-33.67,38.56-2.31,29.57,12.06,41.72,14.45,41.17,2.39-.56,4.64-9.7,20.2-14.92,15.56-5.22,43.61-16.49,58.61-48.69l-37.98-62.83Z"/>
    <path class="cls-5" d="m192.57,234.05c13.48-9.87,33.72-6.73,44.31,10.07-4.8-12.16-18.44-18.26-25.16-18.14,9.8-12.59,19.3-31.77,18-46.91v-.02c-.27,10.36-11.84,38.25-21.62,46.71-10.05.75-31.36,8.99-33.67,38.56-.82,10.45.46,18.72,2.54,25.03-2.79-18.52-1.91-43.14,15.6-55.31Z"/>
    <path class="cls-8" d="m229.79,275.8c-8.1,3.98-20.12,7.01-27.56,9.36-11.65,3.69-19.43,13.51-25.39,3.81,3.79,11.82,10.48,16.9,12.04,16.54,2.39-.56,4.64-9.7,20.2-14.92,15.56-5.22,43.61-16.49,58.61-48.69l-.81-1.34c-6.35,12.28-19.75,26.72-37.09,35.24Z"/>
    <path class="cls-10" d="m188.88,305.96c-.74.1-1.96-.53-3.37-1.74-6.29-5.4-13.05-19.07-11.43-39.83,2.24-28.77,22.29-37.98,33.89-38.89,9.64-8.45,20.75-35.46,21.75-46.44,0,0,.79,3.99-1.4,9.68-3.92,12.92-12.4,30.84-19.97,37.39l-.09.08h-.12c-11.34.86-31.12,9.86-33.33,38.24-1.6,20.48,5.02,33.93,11.18,39.22,1.49,1.28,2.52,1.64,2.82,1.56.57-.13,1.25-1.02,2.18-2.24,2.4-3.13,6.86-8.95,17.98-12.68,18.22-6.11,44.09-17.79,58.4-48.5l.66.31c-14.43,30.97-40.48,42.73-58.83,48.88-10.91,3.66-15.28,9.36-17.64,12.43-1.07,1.39-1.77,2.31-2.6,2.5-.03,0-.06.01-.1.02Z"/>
    <path class="cls-10" d="m236.89,244.12c-2.09-4.31-10.32-18.33-28.76-17.9l-.02-.73c13.72-.31,21.92,7.17,26.19,12.98,2.26,3.11,2.59,5.66,2.59,5.66Z"/>
    <path class="cls-10" d="m315.09,156.6c-8.24-5.29-32.49-12.55-55.09,11.42-22.6,23.97-28.48,45.39-28.48,45.39,0,0-2.41-8.11-2.03-15.6.3-5.93,2.28-13.43,3.6-14.3,1.57-1.03,4.24,10.24,6.57,6.4.48-.79,2.11-11.97,5.22-21.13,3.24-9.55,9.02-16.74,10.51-17.37,1.58-.67.27,3.24.5,6.95.19,3.13.98,5.86,1.64,5.27,1.43-1.3,9.06-34.64,34.43-37.94,1.76-.23-1.75,4.75-4.19,10.38-2.46,5.68-3.86,12.03-2.79,11.68,2.93-.96,23.72-12.43,35.01-5.04,3.85,2.52-4.9,13.9-4.9,13.9Z"/>
    <path class="cls-10" d="m231.54,214.73l-.36-1.23c-.02-.08-2.42-8.26-2.04-15.72.31-5.97,2.27-13.61,3.76-14.59.19-.12.4-.16.62-.1.71.19,1.34,1.39,2.31,3.32.82,1.64,1.95,3.89,2.78,3.93.24,0,.49-.2.74-.62.13-.24.46-1.86.84-3.74.85-4.2,2.27-11.22,4.34-17.32,3.21-9.48,9.02-16.87,10.71-17.59.35-.15.65-.14.89.03.55.4.45,1.46.28,3.22-.11,1.17-.25,2.63-.17,4.01.17,2.78.75,4.59,1.07,4.96.21-.33.66-1.52,1.13-2.78,3.3-8.86,12.06-32.4,33.46-35.18.43-.06.65.12.76.27.44.64-.24,2.02-1.84,5.08-.87,1.66-1.85,3.54-2.71,5.54-2.27,5.25-3.33,10.19-3.11,11.14.43-.16,1.17-.49,2.16-.93,6.35-2.86,23.22-10.44,33.03-4.02.59.39.96.98,1.09,1.74.69,4.06-5.63,12.34-5.9,12.69l-.2.27-.28-.18c-9.46-6.08-33.05-11.52-54.63,11.36-22.27,23.62-28.33,45.02-28.39,45.24l-.34,1.23Zm1.77-30.94c-1.07.7-3.13,7.75-3.45,14.02-.29,5.66,1.05,11.75,1.69,14.28,1.63-4.88,8.81-23.79,28.18-44.34,21.69-23.01,45.45-17.77,55.27-11.66,1.08-1.46,6.13-8.49,5.56-11.85-.1-.57-.35-.98-.77-1.25-9.48-6.2-26.08,1.26-32.33,4.07-1.12.5-1.92.86-2.37,1.01-.22.08-.45.02-.6-.15-.86-.95.87-7.24,2.94-12.02.87-2.02,1.86-3.91,2.74-5.59.94-1.79,1.99-3.82,1.9-4.3-.01,0-.04,0-.07,0h0c-20.96,2.73-29.61,25.97-32.86,34.71-.76,2.03-1.07,2.86-1.36,3.13-.19.18-.43.22-.66.13-1.01-.41-1.48-3.87-1.59-5.65-.09-1.44.05-2.93.17-4.13.1-1,.23-2.37.02-2.56,0,0,0,0,0,0-.02,0-.07,0-.16.05-1.31.56-7.04,7.53-10.31,17.16-2.05,6.06-3.47,13.05-4.32,17.23-.53,2.6-.75,3.66-.93,3.97-.41.67-.88.99-1.4.98-1.26-.05-2.3-2.13-3.41-4.33-.52-1.04-1.48-2.97-1.86-2.94Z"/>
    <path class="cls-9" d="m296.31,169.2c25.62-25.47,34.33-51.93,38.52-50.02,4.18,1.92,1.2,46.15-13.85,65.2-9.44-6.4-24.66-15.18-24.66-15.18Z"/>
    <path class="cls-9" d="m321.05,184.87l-.28-.19c-9.32-6.32-24.49-15.08-24.64-15.17l-.41-.24.34-.34c14.82-14.73,23.87-29.63,29.86-39.49,4.52-7.44,7.01-11.54,9.06-10.6.57.26,1.01,1.04,1.33,2.36,2.37,9.86-1.87,46.72-15.04,63.39l-.21.27Zm-24.14-15.75c2.48,1.44,15.5,9.04,23.99,14.77,12.89-16.64,17.03-52.8,14.7-62.5-.35-1.47-.76-1.8-.92-1.87-1.46-.67-4.26,3.94-8.14,10.31-5.96,9.82-14.95,24.62-29.63,39.29Z"/>
    <g>
      <path class="cls-15" d="m292.64,171.17c1.24-3.36,4.04-6.26,11.95-3.6,7.91,2.66,19.7,9.62,22.08,15.21,2.39,5.59-1.87,13.51-1.87,13.51l-32.16-25.12Z"/>
      <path class="cls-10" d="m324.8,196.29c.04-.08,3.83-7.99,1.54-13.36-2.36-5.53-14.33-12.47-21.86-15.01-7.81-2.63-10.37.17-11.84,3.25,0,0,.21-2.76,2.78-4.22,1.95-1.01,4.84-1.23,9.29.27,7.51,2.53,19.77,9.47,22.3,15.41,1.11,2.6.91,5.68.36,8.28-.66,3.08-2.57,5.37-2.57,5.37Z"/>
    </g>
    <path class="cls-15" d="m272.62,248.41c-5.39.7-11.64-.89-15.02-3.69l9.1-5.28c4.77,3.15,9.33,7.48,9.33,7.48-1.15.37-2.15,1.33-3.41,1.49Z"/>
    <path class="cls-10" d="m272.62,248.41c-.59.08-1.18.13-1.78.16-3.3.18-6.73-.28-9.7-1.32-2.47-.75-3.53-2.53-3.53-2.53,4.77,3.15,12.51,4.07,18.43,2.2,0,0-1.27,1.1-3.41,1.49Z"/>
    <path class="cls-10" d="m198.25,266.5c.14-4.87,1.45-8.92,3.96-12.2,3.12-3.69,5.45-3.99,5.45-3.99-7.04,4.59-9.76,11.85-8.31,22.18,0,0-1.16-2.32-1.1-6Z"/>
    <path class="cls-9" d="m216.4,254.17c-2.1-1.07-9.79,2.26-11.88,8.92-2.09,6.67-.22,9.99.35,10.9.57.91,7.94-4.84,10.35-8.97,2.42-4.13,3.02-9.91,1.17-10.85Z"/>
    <path class="cls-10" d="m216.4,254.17c.5,6.83-9.87,19.72-12.83,15.06.09,2.68.95,4.19,1.31,4.76.57.91,7.94-4.84,10.35-8.97,2.42-4.13,3.02-9.91,1.17-10.85Z"/>
    <path class="cls-10" d="m205.21,274.45s-.07,0-.1,0c-.33,0-.48-.17-.55-.27-.97-1.55-2.31-5.07-.39-11.2,1.38-4.42,5.12-7.36,8.15-8.64,1.79-.75,3.38-.94,4.25-.5.48.25.84.74,1.05,1.46.7,2.37-.21,6.72-2.07,9.9-2.26,3.86-8.58,9.01-10.33,9.24Zm-.07-.72c1.06-.07,7.43-4.89,9.77-8.89,1.95-3.33,2.56-7.43,2-9.32-.11-.36-.31-.83-.68-1.02h0c-.66-.33-2.08-.13-3.63.52-2.88,1.21-6.42,4-7.73,8.18-1.8,5.76-.63,9.04.27,10.52Z"/>
    <path class="cls-9" d="m184.43,226.72c-3.91.15-5.59,27.01,2.15,31.7,5.23,3.17,16.08-12.1,15.14-15.06-.78-2.46-4.23-4.04-7.5-7.57-3.88-4.19-7.59-9.14-9.78-9.06Z"/>
    <path class="cls-9" d="m188.72,259.17c-.87.11-1.66-.03-2.33-.44-6.05-3.66-6.57-20.64-4.55-28.44.67-2.57,1.54-3.89,2.58-3.94h0c1.87-.07,4.48,2.89,7.5,6.31.84.95,1.7,1.93,2.57,2.87,1.31,1.42,2.66,2.52,3.85,3.5,1.81,1.48,3.24,2.65,3.73,4.21.73,2.3-4.4,10.16-9.01,13.79-1.6,1.26-3.06,1.98-4.33,2.14Zm-4.32-32.09c-.28.04-1.09.42-1.86,3.39-1.97,7.61-1.55,24.13,4.22,27.63,1.75,1.06,4.14-.31,5.84-1.65,4.85-3.82,9.3-11.3,8.76-12.99-.43-1.36-1.78-2.47-3.5-3.87-1.21-.99-2.58-2.11-3.93-3.57-.87-.94-1.74-1.93-2.58-2.88-2.77-3.15-5.39-6.12-6.92-6.06h0s-.02,0-.04,0Z"/>
    <path class="cls-14" d="m371.38,191.18c-5.9,7.77-14.04,31.73.11,46.94-10.73,2.58-22.04,27.69-22.28,33.48-5.37-8.13-19.38-21.16-19.38-21.16l-8.98-4.45,1.22-11.88-2.27-13.25,22.22-19.22,22.55-9.57,6.79-.88Z"/>
    <path class="cls-2" d="m371.38,191.18l-6.79.88-22.55,9.57-22.22,19.22,4.72,12.63c10.94-17.07,29.26-30.15,46.15-41.31.24-.35.47-.69.7-.99Z"/>
    <path class="cls-2" d="m368.77,239.14c-8.19-6.21-30.47-5.59-46.94-2.52l.88,9.88c13.42-8.44,26.78-10.48,46.06-7.36Z"/>
    <path class="cls-9" d="m349.53,272.74l-.62-.94c-5.15-7.79-18.46-20.29-19.28-21.06l-9.16-4.54,1.24-12.09-2.3-13.41,22.47-19.42,22.65-9.6,7.66-1-.53.7c-4.97,6.55-14.58,30.7.09,46.47l.43.46-.61.15c-10.24,2.46-21.75,27.19-22,33.14l-.05,1.13Zm-28.28-26.97l8.84,4.4c.14.13,13.19,12.3,18.87,20.4,1.22-7.4,11.78-29.48,21.86-32.65-13-14.56-6.68-37.08-.24-46.28l-5.9.77-22.46,9.53-22.02,19.05,2.25,13.1-1.2,11.68Z"/>
    <g>
      <path class="cls-15" d="m317.88,217.91c2-3.62,11.92-13.09,23.65-18.79,14.15-6.88,30.05-9.71,30.77-8.79.67.85-13.75,6.51-26.44,15.18-12.38,8.46-23.04,19.93-22.19,20.89.84.94,12.97.21,24.86,2.5,16.02,3.08,24.36,8.59,24.77,10.29.43,1.79-12.14-4.01-25.13-4.25-10.93-.2-22.55,5.15-23.15,6.31-.61,1.17,8.14,6.39,14.17,13.22,7.01,7.93,11.49,17.57,11.02,18.55-.56,1.19-6.61-8.74-15.09-15.8-4.6-3.83-15.5-7.22-18.46-8.12l1.22-31.17Z"/>
      <path class="cls-8" d="m316.84,244.38l-.18,4.7c2.96.9,13.86,4.29,18.46,8.12,8.48,7.06,14.53,16.99,15.09,15.8-5.37-8.22-9.97-15.03-16.88-19.64-5.16-3.44-10.69-4.39-16.48-8.99Z"/>
      <path class="cls-8" d="m344.29,202.67c-13.75,9.3-24.07,21.16-20.97,23.85-.85-.96,10.15-12.56,22.54-21.02,12.69-8.67,27.11-14.33,26.44-15.18-.03-.04-18.99,6.26-28.01,12.36Z"/>
      <path class="cls-8" d="m324.61,241.3c.6-1.16,12.61-6.57,23.55-6.37,12.99.24,25.57,6.04,25.13,4.25-.05-.22-12.98-6.82-26.65-6.36-12.85.44-22.98,5.58-22.03,8.48Z"/>
      <path class="cls-10" d="m350.13,273.47s0,0,0,0c-.59.07-1.36-.84-3.71-3.73-2.67-3.28-6.72-8.24-11.53-12.26-4.39-3.66-11.76-6.12-15.04-6.91l-3.18-1.5c3.75.71,12.8,3.16,18.69,7.84,4.87,4.06,8.94,9.05,11.63,12.36,1.21,1.48,2.36,2.89,2.9,3.33-.22-1.8-4.41-10.5-10.97-17.91-3.13-3.54-7.04-6.68-9.9-8.98-3.53-2.84-4.73-3.86-4.32-4.65.7-1.35,12.51-6.71,23.48-6.51,7.65.14,15.05,2.17,19.94,3.51,2.06.57,4.19,1.15,4.79,1.09-.7-1.52-8.68-6.88-24.44-9.91-6.9-1.33-14-1.64-18.7-1.85-4.21-.19-5.93-.28-6.36-.77-.08-.09-.17-.25-.13-.5.25-2.02,10.77-12.99,22.39-20.93,7.37-5.04,15.31-9.05,20.57-11.71,2.48-1.25,4.84-2.45,5.55-3-2.28-.27-16.87,2.53-30.09,8.95-11.83,5.75-21.93,15.21-23.81,18.46,0,0,.43-1.97,3.7-5.31,4.48-4.28,11.74-9.91,19.78-13.81,13.83-6.72,30.24-9.93,31.22-8.69.09.11.12.25.09.4-.12.56-1.27,1.19-6.13,3.65-5.24,2.65-13.15,6.66-20.48,11.66-12.08,8.25-21.84,18.85-22.08,20.37.5.26,3.08.37,5.8.49,4.72.21,11.85.52,18.81,1.86,15.49,2.98,24.54,8.46,25.05,10.56.07.31-.06.5-.15.58-.48.47-1.81.14-5.58-.9-4.86-1.33-12.21-3.35-19.76-3.48-10.76-.2-22.25,5.11-22.82,6.11.03.44,2.21,2.19,4.13,3.74,2.88,2.31,6.82,5.48,9.99,9.06,6.75,7.63,11.7,17.64,11.08,18.95-.08.17-.23.28-.4.3Z"/>
    </g>
    <g>
      <path class="cls-8" d="m256.95,229.61c-1.62-3.19,5.02-40.35,20.36-46.46,15.35-6.11,26.31,10.37,26.01,26.89-.3,16.48-8.56,23.68-18.52,26.48-9.96,2.8-25.68-2.63-27.86-6.91Z"/>
      <path class="cls-3" d="m257.1,230.78c-1.58-2.82,5.58-36.04,20.98-41.7,15.4-5.66,26.12,8.87,25.59,23.61-.53,14.69-8.88,21.23-18.86,23.87-9.98,2.63-25.59-1.98-27.71-5.77Z"/>
      <path class="cls-17" d="m257.55,231.05c-1.54-2.72,5.56-34.79,20.72-40.3,15.15-5.5,25.65,8.5,25.09,22.72-.56,14.18-8.77,20.51-18.59,23.08-9.81,2.57-25.14-1.85-27.22-5.5Z"/>
      <path class="cls-12" d="m258.57,221.81c-1.15,4.78-1.5,8.41-1.02,9.24,2.07,3.65,17.41,8.07,27.22,5.5,9.79-2.56,17.98-8.86,18.58-22.96-5.49,17.19-35.22,21.27-44.77,8.22Z"/>
      <path class="cls-3" d="m282.02,237.45c-9.84,1.28-22.78-2.67-24.79-6.22h0c-.87-1.53.56-9.89,3.69-18.39,2.57-6.97,8.23-19.16,17.22-22.43,7.59-2.75,13.11-.46,16.41,1.95,5.91,4.31,9.51,12.61,9.17,21.14-.49,12.39-6.83,20.27-18.86,23.42-.91.24-1.86.42-2.84.54Zm.65-47.42c-1.4.18-2.83.54-4.28,1.06-8.72,3.16-14.26,15.14-16.78,21.99-3.32,9.02-4.33,16.75-3.74,17.78h0c1.87,3.29,16.71,7.97,26.81,5.33,11.68-3.05,17.84-10.7,18.31-22.74.33-8.29-3.16-16.34-8.87-20.52-3.38-2.47-7.28-3.45-11.45-2.91Z"/>
    </g>
    <path class="cls-16" d="m282.53,206.6c5.06-.56,9.75,4.72,10.47,11.79.72,7.07-2.8,13.25-7.85,13.81-5.06.56-9.75-4.72-10.47-11.79-.72-7.07,2.79-13.25,7.85-13.81Z"/>
    <path class="cls-7" d="m286.52,224.57c2.59-.83,4.94-2.83,6.57-4.85.28,6.3-3.41,11.97-7.98,12.48-4.75.52-9.56-4.41-10.33-11,2.89,3.27,7.56,4.22,11.74,3.37Z"/>
    <path class="cls-6" d="m284.98,232.59c-1.95.16-3.9-.5-5.63-1.9-2.72-2.2-4.6-6.02-5.03-10.24-.74-7.26,2.93-13.63,8.18-14.21h0c2.01-.22,4.04.43,5.84,1.88,2.72,2.2,4.6,6.02,5.03,10.24.74,7.26-2.93,13.63-8.18,14.21-.07,0-.14.01-.21.02Zm-2.41-25.62c-4.85.54-8.23,6.55-7.53,13.41.41,4.02,2.19,7.67,4.76,9.74,1.64,1.33,3.48,1.93,5.3,1.72,4.85-.54,8.23-6.55,7.53-13.41-.41-4.02-2.19-7.67-4.76-9.74-1.64-1.33-3.48-1.93-5.3-1.72h0Z"/>
    <path class="cls-3" d="m282.02,212.7c2.95-.33,5.7,2.93,6.14,7.26.44,4.34-1.59,8.12-4.53,8.44-2.95.33-5.7-2.93-6.14-7.26-.44-4.34,1.59-8.12,4.54-8.44Z"/>
    <path class="cls-17" d="m282.51,212.75c1.69-.36,3.32.76,3.65,2.49.33,1.73-.77,3.43-2.45,3.79-1.68.36-3.32-.76-3.65-2.49-.33-1.73.77-3.43,2.45-3.79Z"/>
    <path class="cls-17" d="m285.85,223.34c.78-.16,1.53.35,1.68,1.15.15.8-.35,1.58-1.13,1.74-.78.16-1.53-.35-1.68-1.15-.15-.8.35-1.58,1.13-1.74Z"/>
  </g>
</svg>