<?xml version="1.0" encoding="UTF-8"?>
<svg xmlns="http://www.w3.org/2000/svg" xmlns:xlink="http://www.w3.org/1999/xlink" viewBox="0 0 601 712">
  <defs>
    <style>
      .cls-1 {
        fill: url(#linear-gradient-119);
      }

      .cls-1, .cls-2, .cls-3, .cls-4, .cls-5, .cls-6, .cls-7, .cls-8, .cls-9, .cls-10, .cls-11, .cls-12, .cls-13, .cls-14, .cls-15, .cls-16, .cls-17, .cls-18, .cls-19, .cls-20, .cls-21, .cls-22, .cls-23, .cls-24, .cls-25, .cls-26, .cls-27, .cls-28, .cls-29, .cls-30, .cls-31, .cls-32, .cls-33, .cls-34, .cls-35, .cls-36, .cls-37, .cls-38, .cls-39, .cls-40, .cls-41, .cls-42, .cls-43, .cls-44, .cls-45, .cls-46, .cls-47, .cls-48, .cls-49, .cls-50, .cls-51, .cls-52, .cls-53, .cls-54, .cls-55, .cls-56, .cls-57, .cls-58, .cls-59, .cls-60, .cls-61, .cls-62, .cls-63, .cls-64, .cls-65, .cls-66, .cls-67, .cls-68, .cls-69, .cls-70, .cls-71, .cls-72, .cls-73, .cls-74, .cls-75, .cls-76, .cls-77, .cls-78, .cls-79, .cls-80, .cls-81, .cls-82, .cls-83, .cls-84, .cls-85, .cls-86, .cls-87, .cls-88, .cls-89, .cls-90, .cls-91, .cls-92, .cls-93, .cls-94, .cls-95, .cls-96, .cls-97, .cls-98, .cls-99, .cls-100, .cls-101, .cls-102, .cls-103, .cls-104, .cls-105, .cls-106, .cls-107, .cls-108, .cls-109, .cls-110, .cls-111, .cls-112, .cls-113, .cls-114, .cls-115, .cls-116, .cls-117, .cls-118, .cls-119, .cls-120, .cls-121, .cls-122, .cls-123, .cls-124, .cls-125, .cls-126, .cls-127, .cls-128, .cls-129, .cls-130, .cls-131, .cls-132, .cls-133, .cls-134, .cls-135, .cls-136 {
        stroke-width: 0px;
      }

      .cls-2 {
        fill: url(#linear-gradient);
      }

      .cls-3 {
        fill: url(#linear-gradient-123);
      }

      .cls-3, .cls-4, .cls-5, .cls-6, .cls-8, .cls-9, .cls-10, .cls-11, .cls-12, .cls-13, .cls-14, .cls-15, .cls-16, .cls-17, .cls-18, .cls-19, .cls-20, .cls-21, .cls-22, .cls-23, .cls-24, .cls-25, .cls-26, .cls-27, .cls-28, .cls-29, .cls-30, .cls-31, .cls-32, .cls-33, .cls-34, .cls-35, .cls-36, .cls-37, .cls-38, .cls-39, .cls-40, .cls-41, .cls-42, .cls-43, .cls-44, .cls-45, .cls-46, .cls-47, .cls-48, .cls-49, .cls-50, .cls-51, .cls-52, .cls-53, .cls-54, .cls-55, .cls-56, .cls-57, .cls-58, .cls-59, .cls-60, .cls-61, .cls-62, .cls-66, .cls-67, .cls-68, .cls-69, .cls-70, .cls-71, .cls-83, .cls-84, .cls-85, .cls-86, .cls-87, .cls-88, .cls-89, .cls-90, .cls-91, .cls-92, .cls-93, .cls-94, .cls-95, .cls-96, .cls-97, .cls-98, .cls-99, .cls-100, .cls-101, .cls-102, .cls-103, .cls-104, .cls-105, .cls-106, .cls-107, .cls-108, .cls-109, .cls-110, .cls-111, .cls-112, .cls-113, .cls-114, .cls-115, .cls-116, .cls-117, .cls-118, .cls-119, .cls-120, .cls-121, .cls-122, .cls-123, .cls-124, .cls-125, .cls-126, .cls-127, .cls-128, .cls-129, .cls-130, .cls-131, .cls-132, .cls-133, .cls-134, .cls-135, .cls-136 {
        opacity: .5;
      }

      .cls-3, .cls-4, .cls-5, .cls-6, .cls-66, .cls-67, .cls-68, .cls-69, .cls-70, .cls-71, .cls-83, .cls-84, .cls-85, .cls-86, .cls-87, .cls-88, .cls-89, .cls-90, .cls-91, .cls-92, .cls-93, .cls-94, .cls-95, .cls-96, .cls-97, .cls-98, .cls-99, .cls-100, .cls-101, .cls-102, .cls-103, .cls-104, .cls-105, .cls-106, .cls-107, .cls-108, .cls-109, .cls-110, .cls-111, .cls-112, .cls-113, .cls-114, .cls-115, .cls-116, .cls-117, .cls-118, .cls-119, .cls-120, .cls-121, .cls-122, .cls-123, .cls-124, .cls-125, .cls-126, .cls-127, .cls-128, .cls-129, .cls-130, .cls-131, .cls-132, .cls-133, .cls-134, .cls-135, .cls-136 {
        mix-blend-mode: multiply;
      }

      .cls-4 {
        fill: url(#linear-gradient-121);
      }

      .cls-5 {
        fill: url(#linear-gradient-122);
      }

      .cls-6 {
        fill: url(#linear-gradient-120);
      }

      .cls-7 {
        opacity: .15;
      }

      .cls-8 {
        fill: url(#linear-gradient-101);
      }

      .cls-8, .cls-9, .cls-10, .cls-11, .cls-12, .cls-13, .cls-14, .cls-15, .cls-16, .cls-17, .cls-18, .cls-19, .cls-20, .cls-21, .cls-22, .cls-23, .cls-24, .cls-25, .cls-26, .cls-27, .cls-28, .cls-29, .cls-30, .cls-31, .cls-32, .cls-33, .cls-34, .cls-35, .cls-36, .cls-37, .cls-38, .cls-39, .cls-40, .cls-41, .cls-42, .cls-43, .cls-44, .cls-45, .cls-46, .cls-47, .cls-48, .cls-49, .cls-50, .cls-51, .cls-52, .cls-53, .cls-54, .cls-55, .cls-56, .cls-57, .cls-58, .cls-59, .cls-60, .cls-61, .cls-62 {
        mix-blend-mode: screen;
      }

      .cls-9 {
        fill: url(#linear-gradient-100);
      }

      .cls-10 {
        fill: url(#linear-gradient-106);
      }

      .cls-11 {
        fill: url(#linear-gradient-107);
      }

      .cls-12 {
        fill: url(#linear-gradient-109);
      }

      .cls-13 {
        fill: url(#linear-gradient-108);
      }

      .cls-14 {
        fill: url(#linear-gradient-111);
      }

      .cls-15 {
        fill: url(#linear-gradient-112);
      }

      .cls-16 {
        fill: url(#linear-gradient-115);
      }

      .cls-17 {
        fill: url(#linear-gradient-116);
      }

      .cls-18 {
        fill: url(#linear-gradient-114);
      }

      .cls-19 {
        fill: url(#linear-gradient-113);
      }

      .cls-20 {
        fill: url(#linear-gradient-110);
      }

      .cls-21 {
        fill: url(#linear-gradient-105);
      }

      .cls-22 {
        fill: url(#linear-gradient-117);
      }

      .cls-23 {
        fill: url(#linear-gradient-118);
      }

      .cls-24 {
        fill: url(#linear-gradient-102);
      }

      .cls-25 {
        fill: url(#linear-gradient-104);
      }

      .cls-26 {
        fill: url(#linear-gradient-103);
      }

      .cls-27 {
        fill: url(#linear-gradient-77);
      }

      .cls-28 {
        fill: url(#linear-gradient-78);
      }

      .cls-29 {
        fill: url(#linear-gradient-79);
      }

      .cls-30 {
        fill: url(#linear-gradient-66);
      }

      .cls-31 {
        fill: url(#linear-gradient-65);
      }

      .cls-32 {
        fill: url(#linear-gradient-64);
      }

      .cls-33 {
        fill: url(#linear-gradient-75);
      }

      .cls-34 {
        fill: url(#linear-gradient-74);
      }

      .cls-35 {
        fill: url(#linear-gradient-76);
      }

      .cls-36 {
        fill: url(#linear-gradient-70);
      }

      .cls-37 {
        fill: url(#linear-gradient-71);
      }

      .cls-38 {
        fill: url(#linear-gradient-72);
      }

      .cls-39 {
        fill: url(#linear-gradient-73);
      }

      .cls-40 {
        fill: url(#linear-gradient-68);
      }

      .cls-41 {
        fill: url(#linear-gradient-69);
      }

      .cls-42 {
        fill: url(#linear-gradient-67);
      }

      .cls-43 {
        fill: url(#linear-gradient-96);
      }

      .cls-44 {
        fill: url(#linear-gradient-97);
      }

      .cls-45 {
        fill: url(#linear-gradient-94);
      }

      .cls-46 {
        fill: url(#linear-gradient-92);
      }

      .cls-47 {
        fill: url(#linear-gradient-90);
      }

      .cls-48 {
        fill: url(#linear-gradient-93);
      }

      .cls-49 {
        fill: url(#linear-gradient-91);
      }

      .cls-50 {
        fill: url(#linear-gradient-98);
      }

      .cls-51 {
        fill: url(#linear-gradient-99);
      }

      .cls-52 {
        fill: url(#linear-gradient-95);
      }

      .cls-53 {
        fill: url(#linear-gradient-81);
      }

      .cls-54 {
        fill: url(#linear-gradient-80);
      }

      .cls-55 {
        fill: url(#linear-gradient-89);
      }

      .cls-56 {
        fill: url(#linear-gradient-88);
      }

      .cls-57 {
        fill: url(#linear-gradient-86);
      }

      .cls-58 {
        fill: url(#linear-gradient-87);
      }

      .cls-59 {
        fill: url(#linear-gradient-85);
      }

      .cls-60 {
        fill: url(#linear-gradient-83);
      }

      .cls-61 {
        fill: url(#linear-gradient-84);
      }

      .cls-62 {
        fill: url(#linear-gradient-82);
      }

      .cls-63 {
        fill: url(#linear-gradient-2);
      }

      .cls-64 {
        fill: url(#linear-gradient-3);
      }

      .cls-137 {
        isolation: isolate;
      }

      .cls-66 {
        fill: url(#linear-gradient-7);
      }

      .cls-67 {
        fill: url(#linear-gradient-6);
      }

      .cls-68 {
        fill: url(#linear-gradient-5);
      }

      .cls-69 {
        fill: url(#linear-gradient-4);
      }

      .cls-70 {
        fill: url(#linear-gradient-8);
      }

      .cls-71 {
        fill: url(#linear-gradient-9);
      }

      .cls-72 {
        fill: #f5851f;
      }

      .cls-73 {
        fill: #fabf9e;
      }

      .cls-74 {
        fill: #fabf7a;
      }

      .cls-75 {
        fill: #8a4762;
      }

      .cls-76 {
        fill: #868684;
      }

      .cls-77 {
        fill: #323232;
      }

      .cls-78 {
        fill: #6c2d00;
      }

      .cls-79 {
        fill: #fff;
      }

      .cls-80 {
        fill: #ef3f76;
      }

      .cls-81 {
        fill: #ffd68e;
      }

      .cls-82 {
        fill: #ee4544;
      }

      .cls-83 {
        fill: url(#linear-gradient-60);
      }

      .cls-84 {
        fill: url(#linear-gradient-62);
      }

      .cls-85 {
        fill: url(#linear-gradient-61);
      }

      .cls-86 {
        fill: url(#linear-gradient-63);
      }

      .cls-87 {
        fill: url(#linear-gradient-54);
      }

      .cls-88 {
        fill: url(#linear-gradient-56);
      }

      .cls-89 {
        fill: url(#linear-gradient-53);
      }

      .cls-90 {
        fill: url(#linear-gradient-58);
      }

      .cls-91 {
        fill: url(#linear-gradient-55);
      }

      .cls-92 {
        fill: url(#linear-gradient-59);
      }

      .cls-93 {
        fill: url(#linear-gradient-57);
      }

      .cls-94 {
        fill: url(#linear-gradient-52);
      }

      .cls-95 {
        fill: url(#linear-gradient-50);
      }

      .cls-96 {
        fill: url(#linear-gradient-51);
      }

      .cls-97 {
        fill: url(#linear-gradient-46);
      }

      .cls-98 {
        fill: url(#linear-gradient-45);
      }

      .cls-99 {
        fill: url(#linear-gradient-47);
      }

      .cls-100 {
        fill: url(#linear-gradient-48);
      }

      .cls-101 {
        fill: url(#linear-gradient-49);
      }

      .cls-102 {
        fill: url(#linear-gradient-44);
      }

      .cls-103 {
        fill: url(#linear-gradient-42);
      }

      .cls-104 {
        fill: url(#linear-gradient-43);
      }

      .cls-105 {
        fill: url(#linear-gradient-40);
      }

      .cls-106 {
        fill: url(#linear-gradient-41);
      }

      .cls-107 {
        fill: url(#linear-gradient-24);
      }

      .cls-108 {
        fill: url(#linear-gradient-26);
      }

      .cls-109 {
        fill: url(#linear-gradient-27);
      }

      .cls-110 {
        fill: url(#linear-gradient-21);
      }

      .cls-111 {
        fill: url(#linear-gradient-15);
      }

      .cls-112 {
        fill: url(#linear-gradient-19);
      }

      .cls-113 {
        fill: url(#linear-gradient-12);
      }

      .cls-114 {
        fill: url(#linear-gradient-13);
      }

      .cls-115 {
        fill: url(#linear-gradient-17);
      }

      .cls-116 {
        fill: url(#linear-gradient-16);
      }

      .cls-117 {
        fill: url(#linear-gradient-18);
      }

      .cls-118 {
        fill: url(#linear-gradient-14);
      }

      .cls-119 {
        fill: url(#linear-gradient-23);
      }

      .cls-120 {
        fill: url(#linear-gradient-22);
      }

      .cls-121 {
        fill: url(#linear-gradient-20);
      }

      .cls-122 {
        fill: url(#linear-gradient-11);
      }

      .cls-123 {
        fill: url(#linear-gradient-10);
      }

      .cls-124 {
        fill: url(#linear-gradient-38);
      }

      .cls-125 {
        fill: url(#linear-gradient-35);
      }

      .cls-126 {
        fill: url(#linear-gradient-37);
      }

      .cls-127 {
        fill: url(#linear-gradient-34);
      }

      .cls-128 {
        fill: url(#linear-gradient-32);
      }

      .cls-129 {
        fill: url(#linear-gradient-29);
      }

      .cls-130 {
        fill: url(#linear-gradient-25);
      }

      .cls-131 {
        fill: url(#linear-gradient-28);
      }

      .cls-132 {
        fill: url(#linear-gradient-33);
      }

      .cls-133 {
        fill: url(#linear-gradient-30);
      }

      .cls-134 {
        fill: url(#linear-gradient-31);
      }

      .cls-135 {
        fill: url(#linear-gradient-36);
      }

      .cls-136 {
        fill: url(#linear-gradient-39);
      }
    </style>
    <linearGradient id="linear-gradient" x1="539.85" y1="180.55" x2="528.82" y2="176.03" gradientTransform="translate(-66.42 31.66) rotate(1.54)" gradientUnits="userSpaceOnUse">
      <stop offset="0" stop-color="#ffd76a"/>
      <stop offset="1" stop-color="#fff"/>
    </linearGradient>
    <linearGradient id="linear-gradient-2" x1="607.02" y1="189.17" x2="725.97" y2="189.17" gradientTransform="translate(-152.55 70.64) rotate(3.53)" gradientUnits="userSpaceOnUse">
      <stop offset="0" stop-color="#f5851f"/>
      <stop offset="1" stop-color="#ee4544"/>
    </linearGradient>
    <linearGradient id="linear-gradient-3" x1="665.99" y1="136.06" x2="680.54" y2="136.06" xlink:href="#linear-gradient-2"/>
    <linearGradient id="linear-gradient-4" x1="341.89" y1="328.91" x2="356.11" y2="53.06" gradientTransform="translate(-152.55 70.64) rotate(3.53)" gradientUnits="userSpaceOnUse">
      <stop offset="0" stop-color="#fff"/>
      <stop offset="1" stop-color="#470000"/>
    </linearGradient>
    <linearGradient id="linear-gradient-5" x1="513.88" y1="276.85" x2="503.43" y2="213.51" xlink:href="#linear-gradient-4"/>
    <linearGradient id="linear-gradient-6" x1="540.59" y1="84.79" x2="486.15" y2="73.33" xlink:href="#linear-gradient-4"/>
    <linearGradient id="linear-gradient-7" x1="393.75" y1="52.34" x2="472.87" y2="144.46" xlink:href="#linear-gradient-4"/>
    <linearGradient id="linear-gradient-8" x1="591.79" y1="413.34" x2="551.72" y2="454.61" xlink:href="#linear-gradient-4"/>
    <linearGradient id="linear-gradient-9" x1="439.35" y1="363.9" x2="392.55" y2="523.45" xlink:href="#linear-gradient-4"/>
    <linearGradient id="linear-gradient-10" x1="304.38" y1="380.34" x2="289.38" y2="431.47" xlink:href="#linear-gradient-4"/>
    <linearGradient id="linear-gradient-11" x1="342.62" y1="483.96" x2="408.2" y2="514.93" gradientTransform="translate(-152.55 70.64) rotate(3.53)" gradientUnits="userSpaceOnUse">
      <stop offset="0" stop-color="#fff"/>
      <stop offset="1" stop-color="#000"/>
    </linearGradient>
    <linearGradient id="linear-gradient-12" x1="151.2" y1="570.97" x2="162.8" y2="581.05" gradientTransform="matrix(1,0,0,1,0,0)" xlink:href="#linear-gradient-11"/>
    <linearGradient id="linear-gradient-13" x1="427.81" y1="283.22" x2="431.81" y2="205.65" xlink:href="#linear-gradient-4"/>
    <linearGradient id="linear-gradient-14" x1="346.8" y1="314.02" x2="357.89" y2="99.1" xlink:href="#linear-gradient-4"/>
    <linearGradient id="linear-gradient-15" x1="264.63" y1="310.1" x2="275.71" y2="95.17" xlink:href="#linear-gradient-4"/>
    <linearGradient id="linear-gradient-16" x1="416.12" y1="391.09" x2="402.18" y2="443.61" gradientTransform="matrix(1,0,0,1,0,0)" xlink:href="#linear-gradient-4"/>
    <linearGradient id="linear-gradient-17" x1="323.62" y1="254.57" x2="237.13" y2="580.42" gradientTransform="matrix(1,0,0,1,0,0)" xlink:href="#linear-gradient-4"/>
    <linearGradient id="linear-gradient-18" x1="315.88" y1="272.02" x2="320.16" y2="287.52" gradientTransform="matrix(1,0,0,1,0,0)" xlink:href="#linear-gradient-4"/>
    <linearGradient id="linear-gradient-19" x1="366.07" y1="230.26" x2="372.83" y2="254.78" gradientTransform="matrix(1,0,0,1,0,0)" xlink:href="#linear-gradient-4"/>
    <linearGradient id="linear-gradient-20" x1="449.55" y1="250.71" x2="451.47" y2="257.66" gradientTransform="matrix(1,0,0,1,0,0)" xlink:href="#linear-gradient-4"/>
    <linearGradient id="linear-gradient-21" x1="444.69" y1="286.61" x2="426.21" y2="284.68" gradientTransform="matrix(1,0,0,1,0,0)" xlink:href="#linear-gradient-11"/>
    <linearGradient id="linear-gradient-22" x1="430.61" y1="337.98" x2="419.8" y2="336.85" gradientTransform="matrix(1,0,0,1,0,0)" xlink:href="#linear-gradient-11"/>
    <linearGradient id="linear-gradient-23" x1="295.91" y1="206.77" x2="350.8" y2="241.26" gradientTransform="matrix(1,0,0,1,0,0)" xlink:href="#linear-gradient-11"/>
    <linearGradient id="linear-gradient-24" x1=".31" y1="328.58" x2="59.51" y2="356.54" gradientTransform="matrix(1,0,0,1,0,0)" xlink:href="#linear-gradient-11"/>
    <linearGradient id="linear-gradient-25" x1="13.77" y1="333.91" x2="56.01" y2="353.86" gradientTransform="matrix(1,0,0,1,0,0)" xlink:href="#linear-gradient-11"/>
    <linearGradient id="linear-gradient-26" x1="117.98" y1="560.73" x2="189.16" y2="594.35" gradientTransform="matrix(1,0,0,1,0,0)" xlink:href="#linear-gradient-11"/>
    <linearGradient id="linear-gradient-27" x1="175.5" y1="584.61" x2="219.54" y2="605.41" gradientTransform="matrix(1,0,0,1,0,0)" xlink:href="#linear-gradient-11"/>
    <linearGradient id="linear-gradient-28" x1="437.53" y1="409.76" x2="443.7" y2="415.12" gradientTransform="matrix(1,0,0,1,0,0)" xlink:href="#linear-gradient-11"/>
    <linearGradient id="linear-gradient-29" x1="430.12" y1="424.27" x2="437.51" y2="430.69" gradientTransform="matrix(1,0,0,1,0,0)" xlink:href="#linear-gradient-11"/>
    <linearGradient id="linear-gradient-30" x1="480.24" y1="538.98" x2="458.09" y2="582.07" gradientTransform="matrix(1,0,0,1,0,0)" xlink:href="#linear-gradient-11"/>
    <linearGradient id="linear-gradient-31" x1="456.53" y1="545.49" x2="438.94" y2="588.88" gradientTransform="matrix(1,0,0,1,0,0)" xlink:href="#linear-gradient-11"/>
    <linearGradient id="linear-gradient-32" x1="451.29" y1="544.42" x2="435.92" y2="614.51" gradientTransform="matrix(1,0,0,1,0,0)" xlink:href="#linear-gradient-11"/>
    <linearGradient id="linear-gradient-33" x1="474.11" y1="550.72" x2="460.2" y2="577.78" gradientTransform="matrix(1,0,0,1,0,0)" xlink:href="#linear-gradient-11"/>
    <linearGradient id="linear-gradient-34" x1="130.94" y1="430.95" x2="103.85" y2="523.3" gradientUnits="userSpaceOnUse">
      <stop offset="0" stop-color="#fff"/>
      <stop offset="1" stop-color="#6c2d00"/>
    </linearGradient>
    <linearGradient id="linear-gradient-35" x1="184.5" y1="529.22" x2="188.05" y2="575.82" gradientTransform="matrix(1,0,0,1,0,0)" xlink:href="#linear-gradient-4"/>
    <linearGradient id="linear-gradient-36" x1="187.02" y1="533.39" x2="190.27" y2="576.07" gradientTransform="matrix(1,0,0,1,0,0)" xlink:href="#linear-gradient-4"/>
    <linearGradient id="linear-gradient-37" x1="155.69" y1="530.83" x2="350.18" y2="544.42" gradientTransform="matrix(1,0,0,1,0,0)" xlink:href="#linear-gradient-4"/>
    <linearGradient id="linear-gradient-38" x1="228.91" y1="426.19" x2="286.39" y2="471.31" gradientTransform="matrix(1,0,0,1,0,0)" xlink:href="#linear-gradient-4"/>
    <linearGradient id="linear-gradient-39" x1="200.02" y1="504.61" x2="250.8" y2="508.55" gradientTransform="matrix(1,0,0,1,0,0)" xlink:href="#linear-gradient-4"/>
    <linearGradient id="linear-gradient-40" x1="351.61" y1="498.48" x2="342.16" y2="428.28" gradientTransform="matrix(1,0,0,1,0,0)" xlink:href="#linear-gradient-4"/>
    <linearGradient id="linear-gradient-41" x1="349.81" y1="450.89" x2="337.22" y2="357.41" gradientTransform="matrix(1,0,0,1,0,0)" xlink:href="#linear-gradient-4"/>
    <linearGradient id="linear-gradient-42" x1="357.27" y1="410.57" x2="344.82" y2="318.18" gradientTransform="matrix(1,0,0,1,0,0)" xlink:href="#linear-gradient-4"/>
    <linearGradient id="linear-gradient-43" x1="368.47" y1="389.74" x2="349.11" y2="246" gradientTransform="matrix(1,0,0,1,0,0)" xlink:href="#linear-gradient-4"/>
    <linearGradient id="linear-gradient-44" x1="175.22" y1="397.16" x2="184.93" y2="208.91" gradientTransform="matrix(1,0,0,1,0,0)" xlink:href="#linear-gradient-4"/>
    <linearGradient id="linear-gradient-45" x1="95.59" y1="392.39" x2="105.95" y2="191.47" gradientTransform="matrix(1,0,0,1,0,0)" xlink:href="#linear-gradient-4"/>
    <linearGradient id="linear-gradient-46" x1="349.97" y1="231.11" x2="355.2" y2="129.68" gradientTransform="matrix(1,0,0,1,0,0)" xlink:href="#linear-gradient-4"/>
    <linearGradient id="linear-gradient-47" x1="330.44" y1="237.37" x2="335.03" y2="148.46" gradientTransform="matrix(1,0,0,1,0,0)" xlink:href="#linear-gradient-4"/>
    <linearGradient id="linear-gradient-48" x1="312.45" y1="301.87" x2="317.84" y2="197.39" gradientTransform="matrix(1,0,0,1,0,0)" xlink:href="#linear-gradient-4"/>
    <linearGradient id="linear-gradient-49" x1="314.77" y1="333.42" x2="318" y2="270.84" gradientTransform="matrix(1,0,0,1,0,0)" xlink:href="#linear-gradient-4"/>
    <linearGradient id="linear-gradient-50" x1="322.69" y1="221.16" x2="351.98" y2="242.51" gradientTransform="matrix(1,0,0,1,0,0)" xlink:href="#linear-gradient-11"/>
    <linearGradient id="linear-gradient-51" x1="370.62" y1="174.99" x2="373.15" y2="125.82" gradientTransform="matrix(1,0,0,1,0,0)" xlink:href="#linear-gradient-4"/>
    <linearGradient id="linear-gradient-52" x1="360.49" y1="285" x2="341.24" y2="306.9" gradientTransform="matrix(1,0,0,1,0,0)" xlink:href="#linear-gradient-4"/>
    <linearGradient id="linear-gradient-53" x1="418.46" y1="223.44" x2="299.1" y2="304.05" gradientTransform="matrix(1,0,0,1,0,0)" xlink:href="#linear-gradient-4"/>
    <linearGradient id="linear-gradient-54" x1="432.04" y1="223.79" x2="453.44" y2="232.1" gradientTransform="matrix(1,0,0,1,0,0)" xlink:href="#linear-gradient-4"/>
    <linearGradient id="linear-gradient-55" x1="396.77" y1="312.9" x2="402.81" y2="376.4" gradientTransform="matrix(1,0,0,1,0,0)" xlink:href="#linear-gradient-4"/>
    <linearGradient id="linear-gradient-56" x1="334.5" y1="135.78" x2="314.76" y2="132.14" gradientTransform="matrix(1,0,0,1,0,0)" xlink:href="#linear-gradient-11"/>
    <linearGradient id="linear-gradient-57" x1="298.93" y1="122.41" x2="339.27" y2="141.46" gradientTransform="matrix(1,0,0,1,0,0)" xlink:href="#linear-gradient-11"/>
    <linearGradient id="linear-gradient-58" x1="412.65" y1="145.66" x2="409.86" y2="130.16" gradientTransform="matrix(1,0,0,1,0,0)" xlink:href="#linear-gradient-11"/>
    <linearGradient id="linear-gradient-59" x1="411.85" y1="142.51" x2="409.66" y2="130.31" gradientTransform="matrix(1,0,0,1,0,0)" xlink:href="#linear-gradient-11"/>
    <linearGradient id="linear-gradient-60" x1="419.84" y1="190.65" x2="404.18" y2="189.32" gradientTransform="matrix(1,0,0,1,0,0)" xlink:href="#linear-gradient-11"/>
    <linearGradient id="linear-gradient-61" x1="415.42" y1="190.55" x2="404.51" y2="189.63" gradientTransform="matrix(1,0,0,1,0,0)" xlink:href="#linear-gradient-11"/>
    <linearGradient id="linear-gradient-62" x1="156.05" y1="185.36" x2="135.57" y2="188.65" gradientTransform="matrix(1,0,0,1,0,0)" xlink:href="#linear-gradient-11"/>
    <linearGradient id="linear-gradient-63" x1="146.27" y1="186.88" x2="133.63" y2="188.91" gradientTransform="matrix(1,0,0,1,0,0)" xlink:href="#linear-gradient-11"/>
    <linearGradient id="linear-gradient-64" x1="594.16" y1="274.36" x2="580.86" y2="296.05" gradientTransform="translate(-152.55 70.64) rotate(3.53)" gradientUnits="userSpaceOnUse">
      <stop offset="0" stop-color="#ffe69c"/>
      <stop offset="1" stop-color="#000"/>
    </linearGradient>
    <linearGradient id="linear-gradient-65" x1="592.58" y1="278.24" x2="586.69" y2="289.57" xlink:href="#linear-gradient-64"/>
    <linearGradient id="linear-gradient-66" x1="617.35" y1="333.37" x2="598.27" y2="358.21" xlink:href="#linear-gradient-64"/>
    <linearGradient id="linear-gradient-67" x1="599.87" y1="323.7" x2="592.72" y2="338" xlink:href="#linear-gradient-64"/>
    <linearGradient id="linear-gradient-68" x1="641.16" y1="410.5" x2="628.57" y2="427.78" xlink:href="#linear-gradient-64"/>
    <linearGradient id="linear-gradient-69" x1="559.67" y1="284.95" x2="545.59" y2="289.28" xlink:href="#linear-gradient-64"/>
    <linearGradient id="linear-gradient-70" x1="582.4" y1="324.96" x2="556.62" y2="331.32" xlink:href="#linear-gradient-64"/>
    <linearGradient id="linear-gradient-71" x1="590.46" y1="373.84" x2="571.54" y2="378.5" xlink:href="#linear-gradient-64"/>
    <linearGradient id="linear-gradient-72" x1="619.75" y1="203.46" x2="595.61" y2="163.02" xlink:href="#linear-gradient-64"/>
    <linearGradient id="linear-gradient-73" x1="633.66" y1="187.72" x2="552.94" y2="250.51" xlink:href="#linear-gradient-64"/>
    <linearGradient id="linear-gradient-74" x1="605.66" y1="207.37" x2="593.1" y2="217.59" xlink:href="#linear-gradient-64"/>
    <linearGradient id="linear-gradient-75" x1="604.19" y1="208.95" x2="584.52" y2="225.47" xlink:href="#linear-gradient-64"/>
    <linearGradient id="linear-gradient-76" x1="602.94" y1="177.33" x2="598.68" y2="175.74" xlink:href="#linear-gradient-64"/>
    <linearGradient id="linear-gradient-77" x1="614.36" y1="192.97" x2="594.7" y2="183.54" xlink:href="#linear-gradient-64"/>
    <linearGradient id="linear-gradient-78" x1="617.34" y1="192.67" x2="613.28" y2="158.98" xlink:href="#linear-gradient-64"/>
    <linearGradient id="linear-gradient-79" x1="486.59" y1="299.21" x2="459.43" y2="304.54" xlink:href="#linear-gradient-64"/>
    <linearGradient id="linear-gradient-80" x1="487.52" y1="307.39" x2="470.91" y2="310.66" xlink:href="#linear-gradient-64"/>
    <linearGradient id="linear-gradient-81" x1="530.49" y1="239.47" x2="522.26" y2="226.14" xlink:href="#linear-gradient-64"/>
    <linearGradient id="linear-gradient-82" x1="530.52" y1="240.09" x2="525.26" y2="231.58" xlink:href="#linear-gradient-64"/>
    <linearGradient id="linear-gradient-83" x1="443.95" y1="209.99" x2="427.01" y2="219.4" gradientTransform="matrix(1,0,0,1,0,0)" xlink:href="#linear-gradient-64"/>
    <linearGradient id="linear-gradient-84" x1="449.76" y1="301.19" x2="441.06" y2="297.01" gradientTransform="matrix(1,0,0,1,0,0)" xlink:href="#linear-gradient-64"/>
    <linearGradient id="linear-gradient-85" x1="451.01" y1="330.67" x2="422.72" y2="317.11" gradientTransform="matrix(1,0,0,1,0,0)" xlink:href="#linear-gradient-64"/>
    <linearGradient id="linear-gradient-86" x1="427.58" y1="339.34" x2="425.18" y2="339.87" gradientTransform="matrix(1,0,0,1,0,0)" xlink:href="#linear-gradient-64"/>
    <linearGradient id="linear-gradient-87" x1="439.38" y1="285.6" x2="431.95" y2="282.42" gradientTransform="matrix(1,0,0,1,0,0)" xlink:href="#linear-gradient-64"/>
    <linearGradient id="linear-gradient-88" x1="446.49" y1="405.14" x2="443.46" y2="408.63" gradientTransform="matrix(1,0,0,1,0,0)" xlink:href="#linear-gradient-64"/>
    <linearGradient id="linear-gradient-89" x1="444.27" y1="422.48" x2="440.32" y2="427.04" gradientTransform="matrix(1,0,0,1,0,0)" xlink:href="#linear-gradient-64"/>
    <linearGradient id="linear-gradient-90" x1="454.68" y1="303.1" x2="514.26" y2="311.9" gradientTransform="matrix(1,0,0,1,0,0)" xlink:href="#linear-gradient-64"/>
    <linearGradient id="linear-gradient-91" x1="461.19" y1="309.47" x2="515.65" y2="318.33" gradientUnits="userSpaceOnUse">
      <stop offset="0" stop-color="#f5851f"/>
      <stop offset="1" stop-color="#000"/>
    </linearGradient>
    <linearGradient id="linear-gradient-92" x1="474.18" y1="316.86" x2="518.46" y2="320.77" gradientUnits="userSpaceOnUse">
      <stop offset="0" stop-color="#ff9c1c"/>
      <stop offset="1" stop-color="#000"/>
    </linearGradient>
    <linearGradient id="linear-gradient-93" x1="485.11" y1="315.7" x2="537.14" y2="303.66" gradientUnits="userSpaceOnUse">
      <stop offset="0" stop-color="#ff9c1c"/>
      <stop offset="1" stop-color="#000"/>
    </linearGradient>
    <linearGradient id="linear-gradient-94" x1="400.86" y1="319.42" x2="411.53" y2="316.96" gradientTransform="matrix(1,0,0,1,0,0)" xlink:href="#linear-gradient-64"/>
    <linearGradient id="linear-gradient-95" x1="468.18" y1="340.8" x2="436.01" y2="340.29" gradientTransform="matrix(1,0,0,1,0,0)" xlink:href="#linear-gradient-64"/>
    <linearGradient id="linear-gradient-96" x1="500.54" y1="562.75" x2="433.01" y2="526.73" gradientTransform="matrix(1,0,0,1,0,0)" xlink:href="#linear-gradient-64"/>
    <linearGradient id="linear-gradient-97" x1="478.03" y1="572.41" x2="413.65" y2="538.07" gradientTransform="matrix(1,0,0,1,0,0)" xlink:href="#linear-gradient-64"/>
    <linearGradient id="linear-gradient-98" x1="452.22" y1="559.61" x2="449.16" y2="563.32" gradientTransform="matrix(1,0,0,1,0,0)" xlink:href="#linear-gradient-64"/>
    <linearGradient id="linear-gradient-99" x1="476.19" y1="550.15" x2="472.47" y2="553.75" gradientTransform="matrix(1,0,0,1,0,0)" xlink:href="#linear-gradient-64"/>
    <linearGradient id="linear-gradient-100" x1="288.63" y1="261.28" x2="339.03" y2="271.77" gradientUnits="userSpaceOnUse">
      <stop offset="0" stop-color="#fff"/>
      <stop offset="1" stop-color="#3d0000"/>
    </linearGradient>
    <linearGradient id="linear-gradient-101" x1="290.69" y1="225.14" x2="354.42" y2="238.41" xlink:href="#linear-gradient-100"/>
    <linearGradient id="linear-gradient-102" x1="121.94" y1="202.81" x2="133.2" y2="211.52" xlink:href="#linear-gradient-100"/>
    <linearGradient id="linear-gradient-103" x1="65.06" y1="253.05" x2="74.61" y2="260.44" xlink:href="#linear-gradient-100"/>
    <linearGradient id="linear-gradient-104" x1="173.21" y1="550.23" x2="223.72" y2="567.07" xlink:href="#linear-gradient-100"/>
    <linearGradient id="linear-gradient-105" x1="144.79" y1="534.14" x2="188.54" y2="548.72" xlink:href="#linear-gradient-100"/>
    <linearGradient id="linear-gradient-106" x1="166.69" y1="488.6" x2="218.56" y2="484.39" xlink:href="#linear-gradient-100"/>
    <linearGradient id="linear-gradient-107" x1="126.63" y1="401.47" x2="123.49" y2="488.53" xlink:href="#linear-gradient-100"/>
    <linearGradient id="linear-gradient-108" x1="48.56" y1="404.09" x2="47.11" y2="444.38" xlink:href="#linear-gradient-100"/>
    <linearGradient id="linear-gradient-109" x1="299.36" y1="142.48" x2="324.38" y2="157.56" xlink:href="#linear-gradient-100"/>
    <linearGradient id="linear-gradient-110" x1="390.42" y1="118.62" x2="395.41" y2="144.67" xlink:href="#linear-gradient-100"/>
    <linearGradient id="linear-gradient-111" x1="327.8" y1="134.51" x2="343.9" y2="137.87" xlink:href="#linear-gradient-100"/>
    <linearGradient id="linear-gradient-112" x1="126.52" y1="179.78" x2="179.47" y2="190.8" xlink:href="#linear-gradient-100"/>
    <linearGradient id="linear-gradient-113" x1="394.95" y1="147.32" x2="421.93" y2="152.93" xlink:href="#linear-gradient-100"/>
    <linearGradient id="linear-gradient-114" x1="408.75" y1="188.8" x2="433.25" y2="193.9" xlink:href="#linear-gradient-100"/>
    <linearGradient id="linear-gradient-115" x1="-128.25" y1="740.14" x2="-106.68" y2="709.87" gradientTransform="translate(235.79 -137.5) rotate(-5.81)" xlink:href="#linear-gradient-11"/>
    <linearGradient id="linear-gradient-116" x1="137.84" y1="603.35" x2="162.32" y2="563.11" gradientTransform="matrix(1,0,0,1,0,0)" xlink:href="#linear-gradient-11"/>
    <linearGradient id="linear-gradient-117" x1="132.77" y1="370.81" x2="122.86" y2="371.27" xlink:href="#linear-gradient-100"/>
    <linearGradient id="linear-gradient-118" x1="80.66" y1="393.61" x2="-26.93" y2="287.36" xlink:href="#linear-gradient-100"/>
    <linearGradient id="linear-gradient-119" x1="364.9" y1="257.86" x2="400.96" y2="257.86" gradientUnits="userSpaceOnUse">
      <stop offset="0" stop-color="#fff"/>
      <stop offset="1" stop-color="#dfb995"/>
    </linearGradient>
    <linearGradient id="linear-gradient-120" x1="533.21" y1="182.89" x2="524.87" y2="177.12" gradientTransform="translate(-149.2 45.45) rotate(2.63)" gradientUnits="userSpaceOnUse">
      <stop offset="0" stop-color="#fff"/>
      <stop offset="1" stop-color="#603813"/>
    </linearGradient>
    <linearGradient id="linear-gradient-121" x1="544.43" y1="164.77" x2="539.7" y2="180.02" gradientTransform="translate(-152.55 70.64) rotate(3.53)" gradientUnits="userSpaceOnUse">
      <stop offset="0" stop-color="#fff"/>
      <stop offset="1" stop-color="#6c2d00"/>
    </linearGradient>
    <linearGradient id="linear-gradient-122" x1="556.81" y1="159.07" x2="562.83" y2="161.01" gradientTransform="translate(-152.55 70.64) rotate(3.53)" gradientUnits="userSpaceOnUse">
      <stop offset="0" stop-color="#fff"/>
      <stop offset="1" stop-color="#603813"/>
    </linearGradient>
    <linearGradient id="linear-gradient-123" x1="542.63" y1="147.15" x2="533.83" y2="171.1" gradientTransform="translate(-152.55 70.64) rotate(3.53)" gradientUnits="userSpaceOnUse">
      <stop offset="0" stop-color="#fff"/>
      <stop offset="1" stop-color="#603813"/>
    </linearGradient>
  </defs>
  <g class="cls-137">
    <g id="Layer_1" data-name="Layer 1">
      <g>
        <ellipse class="cls-7" cx="305.17" cy="575.85" rx="220.36" ry="34.63"/>
        <g>
          <path class="cls-78" d="m451.52,326.29s-10.1-19.45,7.24-37.97c0,0-21.55-23.17-49.43,1.48l-9.27,9.98s23.6-4.2,51.46,26.52Z"/>
          <path class="cls-79" d="m444.86,279.38s-4.7,4.4-5.73,8.51c-1.04,4.1-4.39,11.97-9.6-9.19,0,0,7.14-1.65,15.33.68Z"/>
          <path class="cls-79" d="m420.19,337.26s4.63-3.1,6.47-7.67c0,0,2.46,2.23,4.1,17.97,0,0-9.95-7.65-10.57-10.29Z"/>
          <path class="cls-72" d="m24.02,323.59s-5.38-8.19-1.11-13.81c4.27-5.63,6.89-3.5,14.34-9.72,0,0,25.4-62.02,86.16-92.42l2.85-8.07s6.64-12.15,41.32-8.05c0,0,8.3,5.61,7.98,16.98,0,0,27.78,20.55,36.91,37.99,9.13,17.45,18.13,49.79,79.5,73.2,0,0-6.44-29.44-4.7-57.6,1.73-28.15,13.71-63.14,13.71-63.14,0,0,7.18-52.94,7.3-54.9.11-1.95,4.93-3.62,4.93-3.62,0,0,20.4-12.48,26.53-10.14,6.13,2.34.8,6.33,47.03,1.32,0,0-.76-6.72,5.52-6.73,6.28,0,10.92,20.3,6.92,34.18,0,0,.12,4.33-11,.11,0,0-9.8-.21-26.92,29.35,0,0-11.42,19.71-6.33,26.3l3.06,1.37s40.18-27.75,81.69-7.14l13.19,15.33s4.61,8.13,25.74,9.05c0,0,16.12,12.38,12.06,33.72-4.06,21.34-16.79,30.37-23.29,27.61,0,0-6.16-1.95-9.78-6.88-3.62-4.93-22.03-18.24-43.42-2.28,0,0-7.85,6.19-10.46,10.34,0,0-1.75,3.04-4.58,4.43,0,0,21.36,54.7,47.49,51.2,0,0,19-2.75,3.28-28.06l3.08.98s11.31,14.04,6.28,25.51c-5.02,11.47-19.17,11.77-36.88-.31l-27.41-7.58s-13.33,12.53-13.84,20.74l-1.08,17.6s-.92,8.59.89,11.05c1.82,2.46,6.5,15.71,6.5,15.71l-2.1,2.22s8.08,21.7,10.51,26.95c2.42,5.25,7,13.77,7,13.77l-2.68,5.33s9.04,25.29,3.25,49.27l-1.29,1.89s-11.46,45.6-83.03,47.87c0,0-36.29,2.88-62.55-16.8,0,0,1.33,10.28-.04,13.34,0,0-2.68,11.61-28.93,42.58,0,0-5.57,4.45-15.95,4.12,0,0,1.76-15.66-12.84-22.19,0,0-11.9-3.72-16.38,8.24l-2.81-3.05-4.82,1.08s3.56-15.16-8.44-23.27c0,0-10.78-3.67-15.59,3.41,0,0,5.13-10.18,7.55-10.91,2.42-.73,6.62.03,6.62.03,0,0,23.66-18.79,36.58-21.38l-1.82-4.99s-36.84,1.44-53.22-2.34c0,0-64.33-9.1-95.77-64.05,0,0-19.61-34.85-8.71-44.85,0,0,2.42-.65,3.89,1.03,1.48,1.68,24.22,30.77,56.7,43.05,32.48,12.29,87.42.24,102.33-17.04,0,0,8.88-9.35,20.05-10.64,0,0,23.29-44.06,59.59-74.67,0,0-23.35-6.18-43.69,2.85,0,0-3.64,1.36-6.13,3.18-2.48,1.83-4.68,5.25-19.69-1.61-15.01-6.86-55.84-18.47-77.57.37l-1.4,3.48s-4.26-1.45-9.78-1.79c-5.52-.34-6.68-.81-7.79-2.06-1.11-1.25-38.06-24.5-38.06-24.5,0,0-6.96-2.1-18.3,1.64,0,0-6.6,4.34-12.53,4.37l2.63-4.19s-5.77-9.06-8.04-10.79c-2.26-1.72-8.9-9.64-18.53-7.47l-1.65,4.86Z"/>
          <path class="cls-77" d="m25.82,317.98s-9.36,20.58-7.64,43.63c0,0,1.74,8.21,33.91-24.46,0,0-13.07-21.51-26.27-19.17Z"/>
          <path class="cls-77" d="m168.05,204.05s-5.61-24.68-21.92-39.33c0,0-7.32-6.39-11.16-1.87-3.84,4.51-1.32,11.79-1.68,17.7-.37,5.91.42,21.99-.38,25.5-.81,3.51,18.12,14.17,35.14-1.99Z"/>
          <path class="cls-77" d="m428.27,203.9s-9.1-18.85-10.25-22.04c-1.14-3.19-2.48-3.28-3.81-3.36-1.33-.08-7.15,14.73-7.76,17.37-.61,2.64-2.52,4.75-2.52,4.75,0,0,11.34-.97,24.34,3.29Z"/>
          <path class="cls-77" d="m321.16,155.91s-8.17-2.29-8.25-10.59c-.08-8.31,11.43-31.35,20.36-31.98,0,0,4.74.29,3.78,6.16-.95,5.88-.31,24.32,1.1,30.34,0,0-1.55,5.84-8.12,6.62,0,0-2.61.64-8.86-.55Z"/>
          <path class="cls-77" d="m399.72,156.08s24.52-8.03,23.97-15.14c-.55-7.11-25.97-11.15-25.97-11.15,0,0,4.16,6.13,2,26.29Z"/>
          <path class="cls-77" d="m184.82,579.1c-4.75,6.37-9.88,25.51-4.3,31.19,5.59,5.68,29.85-12.41,29.85-12.41,0,0,3.74-16.34-9.82-22.27,0,0-10.23-3.89-15.73,3.48Z"/>
          <path class="cls-77" d="m158.14,557.74c-10.21.61-23.43,33.58-12.17,33.67,11.27.1,28.48-9.52,28.48-9.52,0,0,5.72-25.47-16.32-24.15Z"/>
          <path class="cls-77" d="m132.74,363.89s-3.84,13.94-8.7,14.02c-4.85.07-6.34-18.3-6.34-18.3,0,0,2.17,2.42,5.05,1.98,2.89-.44,8.56.83,9.99,2.3Z"/>
          <path class="cls-77" d="m316.22,436.33c.28,17.23-3.22,17.29-3.22,17.29-6.08-1.72-12.15-8.01-12.15-8.01,0,0-3.27,13.78-7.76,12.43-4.49-1.35-10.19-13.54-10.19-13.54,0,0,21.87,6.27,31.57-6.69l1.75-1.48Z"/>
          <path class="cls-77" d="m439.46,400.88s12.09,8.81,11.01,13.32c-1.08,4.5-11.78,3.58-11.78,3.58,0,0,2.99-6.86.77-16.9Z"/>
          <path class="cls-77" d="m429.36,429.32s12.44,7.76,14.53,4.39c2.09-3.37-4.74-14.82-4.74-14.82,0,0-.45,8.99-9.79,10.43Z"/>
          <path class="cls-77" d="m461.42,569.41s17.87,3.75,20.97-3.57c3.1-7.31-10.98-22.3-10.98-22.3,0,0-15.45,3.07-14.05,18.98l4.07,6.89Z"/>
          <path class="cls-77" d="m431.04,576.81c15.25,6.35,29.01,6.08,31.19-.85,2.2-6.93-12.3-22.39-12.3-22.39,0,0-22.16-.51-19.1,20.25l.21,2.98Z"/>
          <path class="cls-78" d="m272.69,364.8s-4.84,1.48-8.98,1.23c-4.14-.26-8.01,4.85-7.71,19.11,0,0,14.75-17.69,16.69-20.34Z"/>
          <path class="cls-78" d="m251.47,391.38s-5.39.86-9.57,1.19c-4.18.34-7.24,1.93-7.88,22.07,0,0,13.36-20.94,17.45-23.26Z"/>
          <path class="cls-78" d="m226.55,426.23s-12.21-.75-17.19-.39c-4.99.35-6.02,17.17-6.02,17.17,0,0,3.23-9.89,22.07-13.87l1.15-2.92Z"/>
          <path class="cls-78" d="m189.63,450.44s-9.1-8.18-11.26-5.33c-2.16,2.85-8.05,12.41-8.05,12.41,0,0,13.87-2.91,19.31-7.09Z"/>
          <path class="cls-78" d="m162.25,459.68s-3.8-8.17-6.89-6.38c-3.09,1.8-14.15,9.39-14.15,9.39,0,0,18.22-1.2,21.04-3.01Z"/>
          <path class="cls-78" d="m113.12,459.82s8.12-3.45,14.48-3.85c6.36-.4,6.73,6.35,6.73,6.35,0,0-17.41.12-21.21-2.5Z"/>
          <path class="cls-78" d="m62.6,432.18s2.99-10.1.51-14.61c-2.49-4.5-15.11-.35-15.11-.35,0,0,12,12.42,14.6,14.96Z"/>
          <path class="cls-78" d="m42.7,440.45s-18.08-1.9-17.74-7.42c.34-5.52,13.39-11.84,13.39-11.84,0,0,.87,11.53,4.35,19.26Z"/>
          <path class="cls-2" d="m469.66,236.11s-13.46,2.82-17.43-4.46c0,0,2.16-9.76,13.23-20.29,0,0,3.65-.04,4.21,24.75Z"/>
          <path class="cls-80" d="m401.27,298.34s24.33,2.62,40.26,19.05c0,0,.16,7.12,8.39,6.14,0,0,7.82,5.78,5.47,19.57-2.35,13.79-20.41,7.4-24.67,3,0,0-1.96-16.82-4.06-16.51,0,0-3.97,6.22-5.91,7.23,0,0-12.51-10.94-21.92-35.62l2.43-2.86Z"/>
          <path class="cls-63" d="m442.67,310.51s3.59,6.91,18.39,5.59c14.8-1.32,18.23-13.6,18.23-13.6,0,0,9.61,3.27,7.24,12.94,0,0,9.55-2.98,8.93-14.62-.62-11.64-3.46-16.27,6.79-23.23,0,0-5.4,15.28,3.54,14.94,8.94-.34,18.88-9.54,13.69-26.81,0,0,8.87.99,11.12,14.96,0,0,4.05-7.78,14.05-10.74,10-2.95,16.98-7.87,16.62-16.37,0,0,6.27,14.21-5.52,24.64-11.8,10.43-11.21,22.51-10.57,26.56.65,4.05-4.31,26.5-18.33,29.65,0,0,14.58,2.24,14.96,17.87,0,0-9.18-10.38-22.06-4.03-12.87,6.35-19.3,1.94-26.14-2.95-6.83-4.88-36.15-21.41-44.59-21.93-8.45-.52-10.59-9.13-6.35-12.88Z"/>
          <path class="cls-64" d="m505.36,265.57s.34-5.63,6.98-9.36c6.64-3.73,7.29-8.21,4.35-15.55-2.94-7.34-7.61-11.01-7.61-11.01,0,0,4.37,8.55,3.04,11.86-1.33,3.31-13.68,8.2-6.75,24.07Z"/>
          <path class="cls-72" d="m394.46,434.67s29.1-6.3,42.41,13.93c13.32,20.24,3.02,55.99-2.78,71.41,0,0,26.13,7.3,37.32,23.54,0,0-13.33.58-14.39,17.9,0,0-6.4-7.67-8.01-7.77,0,0-22.95-.23-17.96,23.14,0,0-66.39-12.58-55.92-38.21,0,0,27.42-12.05,30.59-50.27,0,0,1.61-15.13-5.52-32.83,0,0,2.63-3.28,2.68-5.33.06-2.04-8.41-15.5-8.41-15.5Z"/>
          <path class="cls-72" d="m387.52,416.04s21.93,4.98,38.84,12.9c0,0,11.15,2.71,13.7-12.5,2.56-15.21-2.13-17.92-2.13-17.92,0,0-10.49-17.5-57.85-18.06,0,0-3.72,6.74,7.38,26.76l-2.31,1.4,2.37,7.43Z"/>
          <path class="cls-77" d="m331.63,250.92s5.99-15.34,19.46-28.81c0,0-32.93-5.99-36.29-7.48-3.37-1.5-9.74,1.87-7.11,5.61,2.62,3.74,23.95,30.68,23.95,30.68Z"/>
          <path class="cls-74" d="m354.57,214.18s-3.87-9.67,11.18-33.11c15.05-23.43,23.22-21.93,24.08-21.93,0,0-35.69-12.25-45.15.22-9.46,12.47-2.36,46,9.89,54.82Z"/>
          <path class="cls-74" d="m61.61,337.38s3.54-4.96,7.08-19.11c3.54-14.16,24.06-76.45,67.95-84.94,43.89-8.49,58.75,12.03,70.08,37.52,11.32,25.48,23.56,45.09,58.75,50.26,32.27,4.74,20.53,32.56,19.82,33.98-.71,1.42-24.78-9.2-49.55,4.95,0,0-4.92,8.77-23.38-1.45-18.46-10.22-59.36-14.49-73,.57l-2.55,3.69s-5.96-.57-9.37-1.14c-3.41-.57-5.96.28-6.82-.28-.85-.57-37.78-24.71-37.78-24.71,0,0-9.8-7.74-21.23.67Z"/>
          <path class="cls-73" d="m199.4,524.96s-49.59.66-68.64-5.91c-19.05-6.57-49.92-21.02-66.67-41.38-16.75-20.37-22-34.49-25.29-51.9,0,0,20.22,57.31,66.67,67.98,57.15,13.14,85.06,0,85.06,0,0,0,3.61,22.66,8.87,31.2Z"/>
          <path class="cls-81" d="m394.59,342.19s-13.19,15.49-13.19,20.65c0,0-2.87,20.07-1.72,26.38,1.15,6.3,7.46,17.78,7.46,17.78l-2.29,2.29s12.62,32.69,17.2,39.58c0,0,1.66,2.76-1.17,6.45,0,0,8.92,28.72,2.61,49.17,0,0-6.31,20.45-27.84,34.59-21.53,14.14-76.79,28.49-118.99-1.31,0,0,.28-4.46.28-4.46,1.97-1.73,27.2-.95,32.84-1.17,35.3-1.37,36.65-32,35.1-59.9-1.31-23.55-1-47.4,3.46-70.62,2.21-11.51,5.49-22.9,10.44-33.56,3.17-6.81,10.74-24.54,18-27.49,0,0,13.1-5.31,14.87-4.25,1.77,1.06,22.94,5.87,22.94,5.87Z"/>
          <path class="cls-69" d="m44.18,323.55c-2.71-3.79,11.5-4.89,12.07-14.18.57-9.3,6.25-25.74,15.47-39.17,9.22-13.43,40.92-43.2,53.93-42.4,13.01.8-2.04-12.25,3.82-16.56q5.86-4.31,11.22-.24c5.35,4.06,23.58-4.15,26.48-5.83,2.9-1.69.13,13.07,4.72,14.28,4.59,1.22,23.54,11.72,32.79,28.14,9.25,16.43,15.9,44.83,30.2,55.04,14.3,10.21,53.63,22.9,61.89,25.27,8.25,2.37,18.77-1.64,17.66,1.09-1.83,4.53-28.15,23.97-28.15,23.97,0,0-33.28-3.92-54.34,8.53,0,0-3.97,4.01-10.94.38-6.98-3.63-68.46-25.12-84.01.05,0,0-13.94-.86-17.49-3.88-3.55-3.02-40.39-25.81-40.39-25.81,0,0-13.83-2.72-17.89,2.63-4.06,5.35-10.45,3.09-10.45,3.09,0,0,4.59,1.22-6.58-14.4Z"/>
          <path class="cls-68" d="m394.34,341.95l-7.75,10.5s-22.73,1.83-24.73,3c-2,1.17-11.85,3.79-17.8,6.01-5.95,2.22-13.07,2.42-20.76,1.3-7.67-1.12-35.11-6.68-37.04-6.8,0,0,3.62-6.24,17.11-15.74,13.5-9.5,19-25.31,19-25.31,0,0,11.65-10.91,12.65-26.99,0,0,15.74,17.11,16.38,27.49l-8.05,25.99s-.76,1.89,1.17,2.01c1.93.12,22.35-6.37,25.65-7.46,3.29-1.09,24.16,6.01,24.16,6.01Z"/>
          <path class="cls-67" d="m354.09,213.73s-3.78-12.13,11.71-33.82c15.49-21.69,21.16-21.91,22.86-21.81,1.69.1-37.03-14.74-46.67,3.92-9.64,18.66,5.02,47.31,12.1,51.71Z"/>
          <path class="cls-66" d="m308.55,144.12s-4.21,13.33,15.18,20.19c0,0,3.91.81,7.3,10.07,3.4,9.27,13.89,41.06,22.04,46.66,0,0-33.77-3.21-39.8-6.41-6.03-3.2-6.97,2.97-5.49,6.46,1.48,3.49,22.55,29.13,22.55,29.13,0,0-.62,10.16-28.31,27.7,0,0-28.89,7.38,33.01,10.01,0,0,.42,7.91-2.08,11.71-2.49,3.81-15.3.19-20.31-1.25-5.01-1.45-8,1.2-4.21,22.39,0,0-12.59,2.06-15.23-.94-2.65-2.99-10.65-47.65-2.39-80.55,0,0,9.36-41.89,10.52-51.45,1.16-9.55,7.22-43.72,7.22-43.72Z"/>
          <path class="cls-70" d="m401.4,456.22s11.56,6.7,10.61,22.2c-.95,15.49-10.02,46.04-10.5,53.79-.48,7.75-6.99,6.75,3.22,15.75,10.21,9.01,26.57,15.4,26.57,15.4l-.21,13.14s-65.68-11.81-55.75-36.93c0,0,43.15-20.68,26.06-83.35Z"/>
          <path class="cls-71" d="m199.63,575.41c-1.64-.95,12.18,6.13,19.44-4.78,7.25-10.93,24.23-14.66,26.12-25.91,1.89-11.26-11.94-58.77-10.01-70.62,1.93-11.84.14-11.94,5.73-5.62,5.59,6.32,15.73,45.83,16.08,69.19,0,0-.14,11.96-.92,14.9-.78,2.94-25.11,38.54-28.87,41.29-3.76,2.76-16.38,3.78-16.38,3.78,0,0,2.67-14.2-11.2-22.23Z"/>
          <path class="cls-123" d="m190.77,495.9s-90.64,24.33-145.35-49.04c0,0,32.12,90.52,153.23,76.44,0,0-5.11-14.07-7.88-27.4Z"/>
          <path class="cls-122" d="m199.63,575.41s-18.01,20.43-16.25,30.71c0,0-2.07,14.22,27.45-8.49,0,0,5.47-11.04-11.2-22.23Z"/>
          <path class="cls-113" d="m175.08,580.62s-15.25,11.02-30.85,11.1c0,0-3.45-11.65,25.84-31.17,0,0,7.81,8.28,5.01,20.07Z"/>
          <path class="cls-114" d="m233.07,356.03c5.02-4.44,4.31-31.39,12.48-35.63,8.18-4.25,31.53,1.94,38.98,9.53,7.45,7.58,1.75,23.05,1.75,23.05,0,0-33.71-5.24-54.34,8.53l1.13-5.47Z"/>
          <path class="cls-118" d="m221,361.88c3.24,1.4.51-36.63,1-44.52.49-7.88-6.23-27.29-9.63-36.2-3.41-8.91-24.78-47.42-29.9-41.41-5.11,6.02-42.9,66.99-45.31,119.07,0,0,22.19-23.69,83.85,3.06Z"/>
          <path class="cls-111" d="m115.91,356.73c.15-2.37-1.1-20.64,5.82-43.16,6.93-22.52,29.7-70.97,20.62-77.86-9.07-6.89-54.98,6.11-77.16,96.54,0,0,6.55-3.55,11.18-1.69,4.63,1.87,39.54,26.18,39.54,26.18Z"/>
          <path class="cls-116" d="m384.58,400.94s5.57,6.5,12.08,10.23c6.51,3.72,39.98,11.16,39.98,11.16,0,0-.04,6.54-10.1,7.51,0,0-19.45-11.67-38.25-12.64l-3.57-8.43,2.27-1.62-2.42-6.2Z"/>
          <path class="cls-115" d="m289.75,358.84c4.41,2.79-3.68,15.21-4.94,18.63-6.46,17.45-1.32,36.16,3.85,53.23,2.03,6.69,4.86,13.14,5.72,20.15.36,2.93,1.13,7.76-.94,10.34-1.07,1.34-8.64,3.37-7.9.4-.32,1.3-2.6,6.81-4.54,4.54-1.95-2.26-30.8-22.04-17.51-79.74,0,0,16.53-33.71,26.25-27.56Z"/>
          <path class="cls-117" d="m298.22,284.08s36.08,2.94,37.96,4.54c0,0,7.22-11.49-.26-19.51,0,0-9.09,5.35-14.97,7.48-5.88,2.14-30.74,5.35-22.72,7.48Z"/>
          <path class="cls-112" d="m377.07,233.29s-16.04,9.35-10.96,32.08c0,0-15.5-35.82,10.96-32.08Z"/>
          <path class="cls-121" d="m445.23,253.07s1.87,5.35,11.49,5.61c0,0-3.74-6.42-11.49-5.61Z"/>
          <path class="cls-110" d="m436.14,292.64c.96,0-2.14-2.94-1.87-5.61.27-2.67,1.07-8.29,1.07-8.29,0,0-5.35-.8-6.42.27-1.07,1.07,3.48,13.63,7.22,13.63Z"/>
          <path class="cls-120" d="m425.45,343.96s1.6-14.44.54-12.83c-1.07,1.61-5.08,6.42-5.08,6.42,0,0,2.14,5.34,4.54,6.41Z"/>
          <path class="cls-119" d="m334.28,244.28s-21.5-21.97-18.23-22.9c3.27-.94,30.38,3.74,30.38,3.74,0,0-12.62,14.02-12.15,19.16Z"/>
          <path class="cls-107" d="m38.98,321.95c-.67-.32-15.25,39.8-20.65,37.94,0,0-.93,5.02,5.76,1.49,6.69-3.53,26.23-20.09,28.09-24.55,0,0-4.47-10.79-13.21-14.88Z"/>
          <path class="cls-130" d="m44.56,326.6s-4.65,24.18-20.09,34.22c0,0,20.83-12.27,27.71-23.99,0,0-5.21-8.93-7.63-10.23Z"/>
          <path class="cls-108" d="m143.28,590.7s19.27-3.34,31.34-21.32c0,0,2.57,6.67.77,11.81,0,0-25.94,14.13-32.1,9.51Z"/>
          <path class="cls-109" d="m207.49,582.99s-21.06,19.52-16.44,25.68c0,0,17.2-8.47,20.03-11.56,0,0,3.6-7.19-3.6-14.13Z"/>
          <path class="cls-131" d="m440.26,409.46s2.73,6.06,10.32,3.94c0,0-.3,6.07-12.14,4.86,0,0,2.13-5.46,1.82-8.8Z"/>
          <path class="cls-129" d="m436.32,424.63s3.64,9.1,6.67,8.49c0,0-5.15,3.64-13.65-4.55,0,0,4.55-.3,6.98-3.94Z"/>
          <path class="cls-133" d="m462.11,547.53s15.48,19.42,19.73,16.08c0,0,0,10.62-20.33,5.77l-5.46-8.49s1.51-10.01,6.07-13.35Z"/>
          <path class="cls-134" d="m436.32,557.54s14.56,17.9,25.79,13.35c0,0,4.25,18.21-30.35,6.37,0,0-4.54-13.05,4.55-19.72Z"/>
          <path class="cls-128" d="m432.07,563s12.74,20.03,28.22,13.96c0,0-1.35,9.7-29.2-.46,0,0-3.27-8.03.98-13.5Z"/>
          <path class="cls-132" d="m458.47,553.9s12.75,14.56,21.24,13.96c0,0-5.16,4.55-18.21,1.52l-5.46-8.49s.6-6.07,2.43-6.98Z"/>
          <path class="cls-127" d="m193.91,458.12s-11.61,35.21,5.81,66.18c0,0-49.54,6.2-86.69-11.6,0,0-64.63-28.64-73.53-81.66,0,0-1.94-10.07-.78-13.55,1.16-3.48,3.1-7.35,3.1-4.26s.77,8.12,3.09,11.22c2.32,3.1,3.87,13.93,8.13,13.16,4.26-.77,4.65-3.87,4.26-.77-.39,3.1-.77,6.96.39,8.12,1.16,1.16,9.68,10.83,11.61,10.45,1.93-.39,5.03-5.42,5.81-2.71.77,2.71,1.93,5.04,1.55,6.97-.39,1.93.78,4.64,3.87,6.19,3.09,1.55,8.51,5.81,13.16,3.87,4.65-1.94,8.13,0,8.9,2.71.78,2.71,8.52,7.35,13.16,9.29,4.65,1.94,17.81,5.04,18.19,3.1.39-1.94-1.94-7.35,2.32-6.19,4.26,1.16,10.45,2.32,9.67,3.87-.77,1.55-4.65,6.57-3.48,6.96,1.16.39,22.84,3.1,25.93.39,3.09-2.71-.77-4.64,2.32-5.03,3.09-.39,8.12-6.19,8.51-3.48.39,2.71.39,6.58,2.32,6.58s6.58-25.93,12.38-29.8Z"/>
          <path class="cls-125" d="m179.61,581.45s2.62-19.66,25.87-31.12c0,0,3.93-2.62.98-2.62s-3.28-6.22-9.5-3.6c-6.22,2.62-14.41,4.59-20.63,8.52-6.22,3.93-9.5,4.58-11.14,4.91-1.64.33,10.22,4.08,10.18,23.65,0,0,3.58-.73,4.23.26Z"/>
          <path class="cls-135" d="m179.61,581.45s3.27-18.02,25.87-32.1l-4.26-2.95s-22.6,15.07-29.15,17.36c0,0,5.62,7.67,3.3,17.43l4.23.26Z"/>
          <path class="cls-126" d="m210.07,586.36c-1.09-1.27,11.79-.32,15.39-4.26,3.6-3.93,13.75-13.43,18.01-18.67,4.26-5.24,6.55-6.88,7.86-12.78,1.31-5.89-.33-53.06-7.86-76.31,0,0,12.45,42.57,16.38,49.12,3.93,6.55,58.95,35.37,113.97,16.05,0,0-54.83,34.59-116.83-1.86,0,0-.76,13.53-.92,14.9-.16,1.37-11.95,24.3-28,40.34,0,0-9.76,6.13-17,4.21,0,0,.95-8.46-1.02-10.76Z"/>
          <path class="cls-124" d="m268.48,485.14c1.74,6.42,3.72-27.61,0-35.04-3.72-7.43-13.8-19.64-17.52-24.95-3.72-5.31-6.9-14.87-7.96-16.46-1.06-1.59-14.33,14.33-19.11,20.17l-16.46,9.03s41.94-23.36,61.05,47.25Z"/>
          <path class="cls-136" d="m203.14,538.65s14.54,9.54,26.58,2.5c0,0,1.36-4.09,1.36-6.59s-.23-2.27.68-4.09c.91-1.82,2.96-3.63,1.82-5.22-1.14-1.59-2.04-1.59-2.27-3.86-.23-2.27-2.5-14.77-2.5-14.77,0,0,2.73-1.36,3.41-4.09.68-2.73,2.27-1.14-.22-4.09-2.5-2.95-3.87-5.45-4.09-7.72-.23-2.27-2.73-4.54-1.59-9.54,1.14-5,2.95-6.36,2.04-8.63-.91-2.27-2.95-3.64-2.95-3.64,0,0-22.72,2.05-24.99,1.59-2.27-.46,6.82,7.73,6.36,14.77-.46,7.04-.68,7.95-4.09,8.63-3.4.68,3.41,4.54,4.55,7.26,1.14,2.73,1.82,10.23,2.04,14.31.23,4.09-1.13,5.91-2.04,6.59-.91.68,1.36,1.59,2.5,3.18,1.14,1.59,3.63,16.13-6.59,13.4Z"/>
          <path class="cls-105" d="m402,455.29s-5.09,11.63-13.81,16.35c-8.72,4.72-75.6,16-98.5-15.62,0,0,3.27,5.09,6.91-.36,0,0,46.52,29.07,105.4-.36Z"/>
          <path class="cls-106" d="m385.28,409.85s-5.08,10.54-17.81,12c-12.72,1.45-61.42,1.46-66.88-31.98,0,0,28.34,39.25,84.68,19.99Z"/>
          <path class="cls-103" d="m380.55,364.79s-11.26,13.09-22.9,10.9c-11.63-2.18-23.99-8.72-38.16-26.9,0,0,5.45,26.53,28.71,33.07,23.26,6.54,29.44-6.18,32.35-17.08Z"/>
          <path class="cls-104" d="m394.34,341.95c1.8,1.36-22.86.31-25.05,1.03-2.18.73-39.25,14.17-38.16,9.45,1.09-4.72,5.09-28.71,5.09-28.71l-3.63-22.17,4.72-11.63s16.72,17.08,14.9,26.53c-1.82,9.45-11.27,26.17-9.09,26.53,2.18.36,25.81-7.27,25.81-7.27,0,0,23.57,4.84,25.41,6.24Z"/>
          <path class="cls-102" d="m139.68,358.42c4.3-17.12,8.61-34.26,13.96-51.1,5.03-15.84,10.43-33.04,20.19-46.7,6.65-9.31,15.16-12.69,22.71-2.48,6.29,8.5,9.88,19.29,13.72,29.05,3.26,8.3,5,23.66,6.51,32.45-.64-3.73-5.97-17.16-8.21-24.62-2.07-6.9-15.57-33.49-26.25-21.66-3.96,4.38-4.14,11.6-4.77,17.15-1.48,13.21-3.72,26.46-4.87,39.69-.3,3.56.46,16.29,1.95,19.65.4.9-6.85-.27-7.91-.28-2.7-.03-5.4.35-8.03.9-6.84,1.43-12.98,4.5-19,7.95Z"/>
          <path class="cls-98" d="m112.47,353.87c-.77-.28.12-13.03.13-14.67.22-24.75,14.92-46.07,20.64-69.53,2.48-10.17,9.83-30.38-4.35-31.23-16.67-.99-39.29,20.84-47.98,33.05-7.15,10.04-12.58,23.04-15.3,35.05,9.54-17.1,25.17-34.46,37.68-49.75,4.35-5.31,23.77-16.57,23.19-7.24-.26,4.06-12.38,24.04-14.01,27.84-6.83,15.89-13.42,31.88-20.32,47.74-1.78,4.1-3.52,8.22-5.28,12.33,0,0,25.57,16.41,25.6,16.42Z"/>
          <path class="cls-97" d="m353.96,211.43s-8.71-38.69,13.06-57.55c0,0-21.28-5.8-26.11,14.03-4.84,19.83,6.29,37.72,13.06,43.53Z"/>
          <path class="cls-99" d="m352.02,220.13s-20.32-44.49-22.73-46.91c-2.42-2.42-9.19-9.19-10.15-1.93-.97,7.25-6.29,36.27-7.25,39.17-.97,2.9-.97,4.35-.97,4.35,0,0,34.34,8.22,41.11,5.32Z"/>
          <path class="cls-100" d="m331.71,251.57s-23.21-34.87-23.94-30.49c-.73,4.38-5.57,42.59-6.53,45.49-.97,2.9-4.35,14.02-4.35,14.02,0,0,23.21-10.16,34.82-29.02Z"/>
          <path class="cls-101" d="m336.17,288.62c-6.88-.79-37.96-4.54-37.96-4.54,0,0,3.99,20.2,4.47,25.04.49,4.84,3.87,11.61,3.87,11.61l1.87.04s-6.71-18.9.55-21.8c7.25-2.9,19.83,3.38,22.25.48,2.42-2.9,4.95-10.82,4.95-10.82Z"/>
          <path class="cls-95" d="m337.03,238.03s-20.31-13.06-14.51-13.54c5.8-.48,21.28,5.32,21.28,5.32l-6.77,8.22Z"/>
          <path class="cls-96" d="m400.25,147.48s-.34,11.65-2.06,12.68c-1.71,1.03-5.13,1.37-8.22,0-3.09-1.37-22.28-6.85-26.05-6.85s-16.45-1.03-20.9,10.62c0,0,3.78-12.34,3.43-14.05-.34-1.71-4.8-5.14-1.03-5.83,3.77-.69,7.54.68,10.97.68s6.16-1.03,13.7-.68c7.54.34,14.74,4.79,16.79,5.14,2.06.34,2.4-10.97,2.74-11.31.34-.34,2.05,12.34,3.43,14.05,1.37,1.71,5.14,7.88,7.2-4.45Z"/>
          <path class="cls-94" d="m351.89,320.23c.08,1.5,3.38-9.79,7.15-14.68,3.77-4.89,7.54-8.66,4.52-10.54-3.01-1.88-10.17-13.55-10.92-16.19-.75-2.64-3.76-8.28-5.64-3.39-1.88,4.89-3.39,4.9-5.27,6.78-1.88,1.88-5.65,4.89-5.65,4.89,0,0,14.69,13.18,15.81,33.13Z"/>
          <path class="cls-89" d="m409.87,256.6c.8-2.62-7.91-6.4-7.91-10.92s-3.01-5.64-5.27-7.53c-2.26-1.88-14.69-10.54-16.57-10.92-1.88-.38-10.54-1.88-13.55-1.88s-10.93,7.53-9.42,9.79c1.51,2.26,6.03,29.37,7.53,31.25l1.51,1.88s-3.02-32.76,10.92-33.13c0,0,23.34,18.45,24.85,24.47,1.51,6.02-3.01,10.92-3.01,10.92,0,0,9.41-9.04,10.92-13.93Z"/>
          <path class="cls-87" d="m464.79,237.14c.73.16-14.53-1-20.54-3.26-6.01-2.26-15.03-14.78-13.53-13.78,1.51,1,23.05,6.77,23.05,6.77,0,0-6.26,6.51,11.02,10.27Z"/>
          <path class="cls-91" d="m371.75,336.41s.35-18.73,3.18-16.96c2.83,1.77,27.57,9.89,38.17,19.08,10.6,9.19,14.84,15.55,14.84,15.55,0,0-.35-5.65-56.19-17.67Z"/>
          <path class="cls-88" d="m325.16,156.15s1.37-34,10.32-41.44c0,0-.15-1.82-1.82-1.22-1.67.61-11.08,1.52-20.8,30.81,0,0-1.97,11.54,12.3,11.84Z"/>
          <path class="cls-93" d="m321.21,155.7s-4.1-21.4,9.41-41.29c0,0-12.9,5.76-17.76,31.27,0,0,.3,7.75,8.35,10.02Z"/>
          <path class="cls-90" d="m400.81,145.74s15.8-3.88,21.85-2.32c0,0,1.56-1.86.93-4.03-.62-2.17-15.04-9.3-25.88-9.61,0,0,3.1,9.76,3.1,15.96Z"/>
          <path class="cls-92" d="m400.34,142.02s12.24-5.11,22.62-1.86c0,0-4.03-6.82-24.17-9.92,0,0,.61,8.99,1.55,11.78Z"/>
          <path class="cls-83" d="m419.26,202.44s-3.98-21.24-3.45-23.89c0,0-1.06-.53-1.86.53-.8,1.06-9.55,21.5-9.55,21.5l14.86,1.86Z"/>
          <path class="cls-85" d="m414.74,201.91s-2.12-21.5-.8-22.83c1.33-1.33-9.55,21.5-9.55,21.5l10.35,1.33Z"/>
          <path class="cls-84" d="m153.69,211.18s-16.42-43.72-14.91-49.03c0,0-2.53-.76-4.04,1.01-1.52,1.77-2.27,5.05-1.77,6.82.51,1.77.25,35.63,0,37.4-.26,1.77,12.38,9.1,20.72,3.79Z"/>
          <path class="cls-86" d="m134.73,163.16s-2.78,24.77,11.63,49.28c0,0-11.12-2.28-13.39-6.07,0,0,.75-15.16.51-23.76-.26-8.59-1.27-17.94,1.26-19.46Z"/>
          <path class="cls-32" d="m437.53,397.06s7.21,8.63-.33,26.26c0,0-2.12-7.45-6.34-9.01-4.21-1.55-43.93-14.34-46.05-14.9-2.12-.56-3.89-6.71-4.13-9.74-.25-3.03-.33-8.64-.33-8.64,0,0,32.92-2.72,57.19,16.02Z"/>
          <path class="cls-31" d="m388.04,381.95s10.04,4.93,13.56,10.74c3.52,5.81,32.63,8.91,38.36,20.89,0,0,.96-8.56-1.25-14.73,0,0-19.58-18.01-50.67-16.91Z"/>
          <path class="cls-30" d="m394.69,434.45l8.11,14.55s-2.08,4.55-1.42,5.67c.64,1.12,2.11,6.61,2.11,6.61,0,0,7.77-3.48,16.39,2.82,8.62,6.29,13.43,15.96,13.82,27.15.39,11.19,3.88,18.97,3.88,18.97,0,0,14.79-41.24-3.52-65.78,0,0-14.21-14.92-39.37-9.98Z"/>
          <path class="cls-42" d="m397.95,440.06s8.62.53,13.22,1.89c4.6,1.37,12.97,5.85,16.08,7.84,3.12,1.99,6.15,5.42,6.15,5.42,0,0-10.99,8.7-6.5,6.09,4.48-2.61,13.21-3.87,13.21-3.87,0,0-4.49-26.57-45.41-22.97l3.26,5.6Z"/>
          <path class="cls-40" d="m434.08,520.09l-8.14,9.23s23.56,3.61,34.45,19.77c0,0,5.7-4.7,11.22-6.51,0,0-8.15-13.83-37.52-22.49Z"/>
          <path class="cls-41" d="m380.36,374.5c.62-.89-.49,13.01.31,15.18.79,2.18,6.72,16.95,6.72,16.95,0,0-13.93,3.83-21.88,4.42,0,0,7.42-3.51,8.27-5.62.86-2.11-2.92-10.99-1.33-13.41,1.59-2.42,5.55-14.07,7.92-17.52Z"/>
          <path class="cls-36" d="m387.31,413.83s9.3,30.47,14.77,35.13c0,0-.64,4.65-16.64,6.9,0,0,4.17-3.34,1.21-7.85-2.97-4.5-8.97-23.97-7.68-27.49,1.3-3.53,8.34-6.69,8.34-6.69Z"/>
          <path class="cls-37" d="m402.85,460.25s-7.3,3.37-8.15,8.23c-.85,4.86-.08,27.82,1.93,30.68,2,2.85,6.75,4.63,6.75,4.63,0,0,5.65-10.96-.53-43.54Z"/>
          <path class="cls-38" d="m489.95,251.16s-.08,19.1-9.4,19.61c-9.3.52-25.12-8.64-34.39-8.66-9.27-.02-31.97,5.12-46.59,29.87,0,0-8.93,12-18.17,11.43,0,0,11.73,4.54,24.6-9.4,12.86-13.94,28.01-20.65,43.34-12.61,15.33,8.04,17.17,22.34,29.5,8.37,0,0,15.92-10.48,11.11-38.61Z"/>
          <path class="cls-39" d="m394.01,303.1s22.51,47.4,44.34,50.16c17.79,2.26,30.54-7.37,13.87-28.06,0,0,11.36,22.1-3.87,25.21,0,0-21.67,13.71-48.93-51.02l-5.43,3.72Z"/>
          <path class="cls-34" d="m440.29,317.64c2.59,5.77,7.98,5.43,7.98,5.43,1.6,1.7,3.19,3.51,4.76,5.45,0,0,11.1,19.82-7.16,22.63,0,0-12.94-32.52-39.03-34.65,0,0-12.13-15.95-5.47-17.64,0,0,18.28-1,38.59,17.45l.33,1.33Z"/>
          <path class="cls-33" d="m449.09,324.06c.96,1.09,1.92,2.22,2.86,3.41,0,0,8.86,9.46,1.58,21.07,0,0-23.43-41.04-51.2-41.43,0,0-3.62-4.94-3.04-5.95.59-1.01,2.22-1.96,2.22-1.96,0,0,19.78.3,39.22,16.68,0,0,.7,4.29,2.29,5.62,1.59,1.33,6.08,2.57,6.08,2.57Z"/>
          <path class="cls-35" d="m445.05,279.16s-4.57,5.05-5.55,7.92c-.98,2.87-.96,6.87-3.01,5.41-2.04-1.46-.26-4.28-.69-6.17-.41-1.89-1.91-7.85-1.91-7.85,0,0,7.84-1.65,11.15.69Z"/>
          <path class="cls-27" d="m457.52,288.72s-10.36,12.42-8.77,25.59l-5.65-3.55s-2.61,3.31-1.92,5.22c.69,1.91-12.97-10.13-20.79-13.01,0,0-2.3-14.54,5.72-23.64,0,0,19.01-5.76,31.41,9.4Z"/>
          <path class="cls-28" d="m409.11,289.45s14.58-18.48,31.2-19.33c16.62-.85,22.17,15.43,26.91,14.78,4.72-.64,10.01-10.32,10.01-10.32,0,0-3.08,14.5,1.33,8.83,4.41-5.67,12.09-8.63,12.61-27.04,0,0,.74,33.48-20.56,39.36,0,0-5.28-.64-11.45-6.96-6.17-6.32-24.62-21.52-50.05.66Z"/>
          <path class="cls-29" d="m298.7,379.01c.35,2.55.74,5.09,1.26,7.6,1.48,7.1,4.19,13.98,6.98,20.65,2.61,6.26,5.85,12.19,8.7,18.35,0,0,8.39,18.1-19.77,20.17,0,0,1.86.59-1.9-7.72-3.76-8.31-8.43-32.83-6.72-45.08,1.09-7.92,1.75-15.89,3.08-23.78.55-3.24,1.01-6.77,2.28-9.83.95-2.3,1.87-1.9,2.67.3.9,2.53,2.29,4.66,2.76,7.3.68,3.79.14,8.24.66,12.05Z"/>
          <path class="cls-54" d="m316.39,426.24s1.91,12.29-8.49,17.28c0,0-.85-5.39-3.57-14.17-2.73-8.77-12.24-32.5-6.72-54.72,0,0,3.2,29.87,18.79,51.6Z"/>
          <path class="cls-53" d="m370.85,335.33s4.05-13.31-4.68-18.37c0,0-18.55,18.23-22.33,27.04,0,0,23.2-9.55,27.01-8.67Z"/>
          <path class="cls-62" d="m369.76,324.12c-.37-.72-27.43,20.91-24.23,20.13,3.2-.79,25.01-7.31,25.01-7.31,0,0,2.54-6.33-.78-12.82Z"/>
          <path class="cls-60" d="m453.07,227.41s-30.66-11.15-27.42-14.41c3.25-3.25-8.37-10.68-8.37-10.68l23.24,6.04,13.47,17.19-.92,1.86Z"/>
          <path class="cls-61" d="m456.42,288.84s-10.35,10.09-9.03,23.89c0,0-2.12-.13-2.92-1.73-.8-1.59-1.46-2.12-1.46-2.12,0,0-3.58,2.79-3.45,5.97,0,0-8.89-6.24-8.23-6.77.66-.53,3.19-.66,4.25-2.79,1.06-2.12,2.39-5.31,4.11-9.56,1.73-4.25,6.37-13.94,7.83-14.07,1.46-.13,8.89,7.17,8.89,7.17Z"/>
          <path class="cls-59" d="m415.41,302.38c-.48-.05,18.58,15.93,25.35,24.02,6.77,8.1,13.8,18.32,13.8,18.32,0,0,4.25-12.34-6.24-21.24,0,0-5.57,0-7.96-7.17,0,0-15.66-12.87-24.95-13.94Z"/>
          <path class="cls-57" d="m426.56,343.92s1.33-10.62,1.33-11.28,1.86,12.87,1.86,12.87c0,0-2.13-.66-3.19-1.59Z"/>
          <path class="cls-58" d="m437.17,278.89s-2.52,9.82-.13,13.54c0,0,4.51-11.55,7.96-12.21,0,0-4.91-2.52-7.83-1.33Z"/>
          <path class="cls-56" d="m440.96,408.43s6.14,3.65,8.44,3.26c0,0-5.37-9.01-9.21-9.2l.77,5.94Z"/>
          <path class="cls-55" d="m438.47,423.01s4.03,9.59,4.6,8.82c.58-.77-2.11-10.36-3.84-11.51l-.77,2.69Z"/>
          <path class="cls-47" d="m464,322.23c2.86-.44,5.71-.92,8.55-1.45-.6-2.08,3.01-2.28,4.49-3.18,1.92-1.18,2.54-3.32,4.16-4.48.11,1.86.35,4-.33,5.77-.58,1.5-2.06,2.5-2.5,3.94,8.33.66,16.1-2.79,20.15-10.12,1.24-2.26,2.75-5.84,2.6-8.47-.19-3.32-2.9-6.74-1.21-10.18.44,2.13,2.44,14.1,5.45,13.57,1.85-.33,1.35-5.17,2.26-6.64,2.6-4.23,8.48-4.95,12.09-7.71,3.53-2.69,4.89-8.75,6.56-12.65,2.07,5.35,2.33,12.77.35,18.16,3.46-2.18,6.51-3.82,8.76-7.23,2.1-3.19,5.67-6.76,9.67-7-.97,4.96-5.88,9.76-8.2,14.3-2.19,4.29-3.38,7.35-3.81,11.96-.92,9.75-8.74,14.2-16.52,18.93.91-.17,1.91.08,2.81.03-2.1,3.3-7.88,3.88-9.39,8.04,2.2-.03,7.35,1.86,7.09,4.56-.81.11-1.86-.18-2.62-.02-1.71.36-2.7.71-4.42,1.31-3.61,1.25-7.52-1.59-11.14-3.1-3.84-1.6-6.31-1.87-9.05-4.98-1.14-1.3-2.55-3.41-4.04-4.5-3.05-2.23-9.39-3.27-13.02-4.29-4.66-1.31-9.55-1.6-14.23-3.01,1.79-2.52,6.99-1.02,9.67-1.95,2.4-.84,4.95-4.44,7.56-3.51l-11.72,3.91Z"/>
          <path class="cls-49" d="m482.13,335.54c-.75-.84-1.34-1.81-1.74-2.87,4.16.99,7.21,4.79,10.7,7.15,3.63,2.46,8.41,3.14,11.68,6.05-.55-1.14-1.42-1.9-1.95-3.1,4.37.31,6.47,4.95,11.35,4.25,3.26-.47,6.08-1.49,9.42-1.09-3.4-4.87,11.92-3.15,14.28-3.18-8.44-5.37-19.41-2.5-28.57-5.55-2.62-.87-4.98-2.63-7.53-3.92-2.78-1.41-9.31-5.98-12.3-4.92,2.61-5.17,10.16-1.06,14.25-1.89,2.34-.47,3.49-2.87,5.88-3.93,3.19-1.42,5.99-3.09,9.11-4.58,3.94-1.88,8.22-4.66,12.71-4.61-3.78-2-10.29,1.13-14.25,1.96-4.12.86-9.51.72-12.45,4.19-.08-6.13,7.85-10.46,10.83-15.1,2.62-4.09,6.8-6.93,11.23-8.91-3.01,0-6.13.19-8.96,1.38-3.01,1.26-4.99,4.02-7.89,5.35-3.27,1.49-5.24-.13-7.58-2.73-3.33-3.71-3.35-9.16-4.13-13.97,0,6.59-.63,13.21-.32,19.79.21,4.48,1.4,6.2-2.6,9.1-3.84,2.79-7.86,8.77-12.98,7.75.99-2.17,1.24-18.11-1.6-18.48-1.07,2.52.08,5.22-1.35,7.79-1.33,2.4-3.31,3.09-5.64,3.81-2.48.76-4.4,1.9-7.3,1.65-3.93-.34-7.89-.97-11.78-1.56-2.5-.38-7.86-2.52-10.24-1.29-3.38,1.74,3.48,3.7,5.34,4.43,5.86,2.3,12.38,3.32,18.03,6.04,3,1.45,5.54,3.61,8.15,5.64,2.23,1.74,6.45,3.37,8.21,5.34Z"/>
          <path class="cls-46" d="m484.83,329.71c.36.31.79.63,1.15.91-4.4.54-11.53-6.78-15.79-4.46-2.47-3.04-8-5.15-11.04-6.48,2.35-.87,5.29-.72,7.73-1.3,1.52-.36,2.58-.59,4.27-.72,3.23-.25,6.01-3.3,9.08-2.88-.08,1.86-2.41,2.29-2.84,4.11,1.72.69,3.72.38,5.48.07,1.79-.31,4.99-.24,6.56-.96,1.97-.9,3.51-3.71,5.49-4.92,2.76-1.69,5.03-2.45,7.13-5.12.3,3.23-2.48,6.6-4.02,9.3,1.68-2.16,3.85-1.53,6.01-2.51,2.1-.96,3.41-3.21,4.89-4.83,3.67-4.03,7.61-8.5,12.01-11.45.83,5.29-4.01,10.2-4.81,15.23,2.61-.37,6.27-1.95,8.86-1.62,2.18.28,3.32,2.43,5.67,1.94-1.69,2.03-3.17,4.27-5.03,6.16,8.29,1.16-6.01,10.58-7.82,12.85-3.68,4.59,8.17,6,2.84,8.05-2.33.89-5.33-.96-7.75-.35-1.11.28-1.44,1.44-2.7,1.66-2.68.47-4.71-2.01-7.14-2.66-2.15-.58-4.03.32-6.08-.02-3.15-.52-4.98-3.47-7.48-4.9-3.7-2.13-8-4.56-11.81-6.42l7.16,1.3Z"/>
          <path class="cls-48" d="m522.7,322.42c5.98-2.71,8.91-8.98,10.82-15.13-.78,3.73-3.77,4.07-7.14,3.83.08-2.65,3.13-4.75,4.48-6.97.98-1.63,1.54-3.09,2.19-5,1.76-5.12,6.11-10.24,9.79-14.22-8.05,6.17-13.32,14.45-21.05,20.56-.53-5.03,5.18-10.36,5.52-15.89-2.93,2.27-19.43,20.06-16.94,22.87,2.93-2.56,5.2-1.68,4.29,1.87-.58,2.28-2.98,4.55-4.21,6.43-.3.46-1.22,2.46-1.55,2.72-4.78,3.79-15.87,8.09-22.15,7.85,3.05.23,5.94-2.07,9.03-2.32,3.42-.27,6.6.38,9.95-.78,2.5-.87,4.71-2.43,7.23-3.3,3.16-1.08,6.66-1.14,9.72-2.53Z"/>
          <path class="cls-45" d="m398.22,301.85l19.26,31.92s-26.36-28.88-19.26-31.92Z"/>
          <path class="cls-52" d="m455.48,327.18s13.17,24.32-5.07,26.35c-18.24,2.03-26.85-6.08-35.47-19.25,0,0,16.21,25.33,34.96,15.71,0,0,15.2-3.04,5.57-22.8Z"/>
          <path class="cls-43" d="m459.53,550.12c-1.52-12.67-21.28-23.82-20.78-25.33,2.73-8.17,33.95,18.24,33.95,18.24l-13.17,7.09Z"/>
          <path class="cls-44" d="m450.92,554.68s-16.72-16.21-31.41-19.25c0,0,15.21,22.3,17.23,22.3,0,0,4.56-5.07,14.18-3.04Z"/>
          <path class="cls-50" d="m440.44,556.01s15.06,15.99,19.63,11.96c0,0-7.53-11.7-9.81-13.44,0,0-7.26-1.34-9.81,1.48Z"/>
          <path class="cls-51" d="m464.1,546.6s15.33,16.67,17.88,13.17c0,0-7.26-13.71-10.62-16.53,0,0-4.57,1.07-7.26,3.36Z"/>
          <path class="cls-9" d="m296.79,280.81s22.63-6.47,26.79-10.16c4.16-3.7,7.39-6,8.78-7.39,1.39-1.39-1.85-11.09-1.85-11.09,0,0-5.55,14.78-33.72,28.64Z"/>
          <path class="cls-8" d="m332.82,250.33s-23.09-30.49-21.71-31.87c1.39-1.39,36.49,2.31,36.49,2.31,0,0-34.18-7.85-36.49-6.93-2.31.92-12.47,1.38,21.71,36.49Z"/>
          <path class="cls-24" d="m128.1,197.79s-6.13,18.18,25.15,17.33c0,0-13.31.63-20.71-1.48-7.39-2.11-5.91,3.38-5.7,4.86,0,0-3.8-4.44-3.8-7.82s3.38-12.05,5.07-12.89Z"/>
          <path class="cls-26" d="m22.07,313.53s-3.68-8.58,14.09,1.84c0,0,1.23-2.45,6.13-2.45s7.36.61,9.81,1.23c2.45.61-9.19-4.9-9.19-7.96s4.29-11.03,5.52-14.71c1.22-3.67,47.18-65.55,75.97-77.2,0,0-2.11-.44-1.36-3.59.75-3.15,1.97-4.99,1.97-4.99,0,0-50.24,20.83-87,93.74,0,0-9.19,6.74-14.09,9.19l-1.84,4.9Z"/>
          <path class="cls-25" d="m183.8,574.87c.14-4.31,11.56-6.06,15.02-5.81,4.65.34,9.7,2.69,13.93,4.55-.99-3.29-4.34-2.71-6.45-4.76-2.33-2.28,1.34-1.55,3.33-2.88-1.16-1.23-7.27-1.27-3.89-4.16.61-.52,2.63-.24,3.43-.36,2.64-.41,1.71.05,2.99-1.83,1.19-1.74.48-2.43,3.12-3.59,2.14-.94,3.92-1.19,5.67-2.9,2.57-2.5,5.3-4.13,8.04-5.4-2.98,0-5.73.56-8.59.61-2.5.04-8.65-2.16-10.03.55.42.22.88.8,1.22.96-1.51,1.83-4.45,2.12-6.53,3.29-1.37.77-1.79,1.91-3.56,2.28.91.97,2.79,1.24,4.22,1.54-3.26,3.35-7.73,2.17-11.54,4.49.17.31.35.87.56,1.17-1.88,3.58-10.51,7.78-10.34,11.96l-.61.31Z"/>
          <path class="cls-21" d="m155.75,553.52c-.14.4-.21.79-.26,1.18,4.83-2.83,8.25-.92,13,.31-.98-2.53,1.3-2.51,3.19-3.1.81-.25,2.68-.32,3.3-1.06.42-.51-.13-1.47-.04-1.59,1.41-1.85,1.93-2.44,4.66-3.29,1.53-.48,4.61-.33,3.31-2.76,2.3-.85,4.8-1.52,6.66-3.19-2.7-2.05,1.85-5.75,3.27-7.29-3.65,4.37-10.8,8.27-15.99,10.66-2.89,1.33-4.8,2.99-7.32,4.95-2.94,2.29-4.52,2.15-8,2.37-3.4.21-4.83,1.91-7.29,4.01.12-.39.2-.78.28-1.2h1.22Z"/>
          <path class="cls-10" d="m204.95,533.01c.06-1.26.32-2.65.08-3.78-.22-.99-1.96-2.12-.9-3.35.71-.82,4.16.03,5.06.07,2.53.13,5.14.29,7.66.26,3.59-.05,8.01-.83,10.83-2.03-3.45.99-7.8,1.06-11.38.51-2.33-.36-5.82-.87-8.07-1.7-1.18-.43-4.81-2.19-5.56-3.15-.83-1.07-.33-2.41-.78-3.72-.49-1.43-1.66-2.32-1.98-3.78-.65-3.01-.87-5.68-1.76-8.63-.56-1.87-2.13-4.21-.02-5.24,2.43-1.2,8.51.56,11.11.77,4.63.37,9.05-1.44,13.53-2.02-4.02,0-8.22.39-12.21,0-3.24-.32-6.22-1.91-9.32-2.84-1.9-.57-4.11-1.26-5.36-2.96-1.42-1.93-.66-5.06-.76-7.57-.12-2.94-1.66-10.7,3-11.3,1.73-.22,3.97,1.34,6.02.99,1.79-.3,3.54-1.36,5.41-1.73,2.92-.56,8.97-1.25,11-3.29-4.33-.53-8.94.92-13.34.71-3.11-.14-6.19-.64-9.3-.8,1.14-3.27,5.73-3.9,6.28-7.02.24-1.39-.62-2.18.23-3.54.82-1.31,3.22-1.87,4.28-2.96-2.43-.33-2.48-3.27-1.69-5.11.82-1.9,2.47-2.09,3.23-3.77.42-.93-.02-2.17.56-3.23.71-1.3,2.75-2.6,3.92-3.51,2.33-1.82,5.01-3.77,7.12-5.55-26.35,2.99-31.01,31.97-31,55.14,0,9.16,1.98,16.59,4.48,25.22,1.27,4.41,2.21,8.77,4.1,12.87.49,1.07,1.25,2.33,1.56,3.51.51,1.95-1.22,5.07,1.85,5.48,2.01.27,2.04-1.07,2.13-2.95Z"/>
          <path class="cls-11" d="m201.24,445.47s-8.22,11.35-8.61,20.74c0,0-94.3,29.74-142.82-47.35,0,0,56.35,77.87,151.43,26.61Z"/>
          <path class="cls-13" d="m41.98,436.07s-3.52-19.17,1.57-18.39c5.09.78,12.52,7.83,12.52,7.83,0,0-11.35-14.09-14.48-12.13-3.13,1.95-1.96,16.82.39,22.69Z"/>
          <path class="cls-12" d="m309.78,143.02s-5.14,16.45,26.04,15.08c0,0-35.98,6.51-26.04-15.08Z"/>
          <path class="cls-20" d="m388.26,127.26s6.51.68,8.22,25.7c0,0,4.8-35.98-8.22-25.7Z"/>
          <path class="cls-14" d="m332.74,155.26s-4.42-24.47,4.84-38.44c0,0-3.56,20.37.79,34.92,0,0-1.3,2.24-5.63,3.52Z"/>
          <path class="cls-15" d="m143.08,162.15c-.89-.6,14.66,21.48,18.45,46,0,0,5.81-1.77,6.57-4.55,0,0-8.85-30.58-25.02-41.45Z"/>
          <path class="cls-19" d="m400.77,150.84s11.94-3.47,18.23-5.14c0,0-5.9,6.42-17.59,8.86,0,0-1.92,2.7-.64-3.72Z"/>
          <path class="cls-18" d="m421.74,202.31l-5.14-22.68s10.66,22.87,10.76,23.16l-5.62-.49Z"/>
          <path class="cls-16" d="m199.7,577.18s-15.22,14.7-17.74,33.04c0,0,13.18-18.6,22.37-25.29,0,0,.4-4.15-4.63-7.75Z"/>
          <path class="cls-17" d="m143.52,586.09s8.45-18.27,19.36-25.63c0,0,1.91,5.46,2.18,6.82.27,1.36-14.45,9.81-18.27,18.27l-3.27.54Z"/>
          <path class="cls-22" d="m132.08,364.71s-7.38.6-7.68,1.35c-.3.75-3.01,13.25,1.2,10.99,4.21-2.26,6.47-12.34,6.47-12.34Z"/>
          <path class="cls-23" d="m53.08,337.45s-7.28-4.48-11.2-3.36c-3.92,1.12-28.55,30.5-21.27,27.99,7.28-2.52,26.31-16.79,32.47-24.63Z"/>
          <path class="cls-65" d="m116.65,359.69c.37,4.54,1.98,19.36,7.41,19.28,5.38-.08,9.03-12.34,9.71-14.8l-2.05-.56c-1.51,5.47-4.89,13.2-7.7,13.24-2.31.03-4.58-8.93-5.26-17.33l-2.12.17Z"/>
          <path class="cls-65" d="m438.83,401.74c4.78,3.49,11.23,9.58,10.6,12.22-.71,2.95-8.12,2.99-10.66,2.77l-.18,2.11c1.19.11,11.64.85,12.9-4.38,1.19-4.95-10.19-13.75-12.31-15.3l-.36,2.58Z"/>
          <path class="cls-65" d="m438.24,419.43c2.7,4.53,5.96,11.77,4.75,13.72,0,0-.49.28-.49.28-2.4.56-8.99-2.78-12.58-5.01l-1.12,1.8c1.02.64,10.15,6.23,14.18,5.29l1.81-1.24c2.31-3.73-3.53-13.92-4.73-15.92l-1.83,1.09Z"/>
          <path class="cls-65" d="m405.42,195.63c-.54,2.32-3,5.6-3.02,5.62l2.31.08c.09-.09,2.11-2.35,2.77-5.22.65-2.79,5.51-14.77,6.99-16.46.99.09,1.73.31,2.54,2.57,1.15,3.21,9.92,21.38,10.29,22.15l1.92-.92c-.09-.19-9.09-18.83-10.21-21.94-1.27-3.56-2.97-3.95-4.74-4.06-2.88-.17-8.82,18.01-8.86,18.19Z"/>
          <path class="cls-65" d="m397.55,130.83c9.51,1.51,24.73,5.61,25.08,10.18.35,4.57-14.07,11.05-23.24,14.05l.66,2.02c2.59-.85,25.3-8.52,24.7-16.24-.59-7.73-24.18-11.69-26.86-12.12l-.33,2.1Z"/>
          <path class="cls-76" d="m424.66,330.93c-.86,1.71-4.01,4.7-5.15,5.71l1.4,1.59c.18-.16,4.43-3.92,5.64-6.35,0,0,.24-.39.45-.73.51,1.04,1.51,4.43,2.63,15.73l2.11-.21c-1.59-16.14-3.02-17.71-4.45-17.98-1.39-.26-2.17,1.3-2.64,2.23Z"/>
          <path class="cls-1" d="m375.56,233.12s-13.46,6.67-10.13,29.35c3.32,22.68,17.64,19.96,19.31,20.06,1.66.1,15.57-.43,16.22-24.53,0,0-11.58-19.31-25.39-24.88Z"/>
          <path class="cls-78" d="m375.95,205.95c-.14.04-21.82,6.6-35.21,27.73l-2.57,4.43c12.96-20.43,38.25-30.09,38.46-30.15,33.61-12.77,60.23.01,62.19,1.86,0,0,5.11,5.85,5.11,5.85l9.98,11.36,1.53-1.47-9.88-11.25-5.27-6.02c-3.57-3.37-31.71-14.73-64.33-2.33Z"/>
          <path class="cls-65" d="m307.61,215.14c-1.54,2.1-1.2,5.46.85,8.37,3.26,4.63,21.58,27.66,22.36,28.64l.97-1.99c-.19-.24-18.37-23.29-21.6-27.87-1.49-2.12-1.85-4.55-.87-5.89.86-1.17,2.66-1.4,5.08-.63,7,2.22,34.59,6.19,35.82,6.38l1.72-1.7c-.3-.05-30.05-4.54-36.9-6.7-3.31-1.05-6.02-.54-7.44,1.4Z"/>
          <path class="cls-78" d="m305.59,274.4c-8.75,4.68-10.76,6.71-10.76,8.34,0,.16.02.31.06.46.5,2.27,4.37,2.52,12.84,3.07,7.27.47,17.22,1.14,27.77,3.49,1.3,1.5,13.77,16.11,14.8,25.94.05.45.07.92.07,1.4,0,5.56-2.97,12.87-5.2,18.32-1.71,4.21-2.68,6.68-2.68,8.22,0,.5.1.9.31,1.23.29.47.77.74,1.35.78,1.69.1,5.37-1.2,11.21-3.35,5.8-2.12,13.02-4.76,15.48-4.38,5.28.81,46.06,9.97,52.75,13.85l1.19.69c6.74,3.94,15.14,8.84,24.04,7.19,4.06-.75,9.62-3.86,11.9-10.14,1.87-5.11,2.01-13.72-7.84-25.72l-1.64,1.35c9.22,11.22,9.16,19.05,7.49,23.64-1.98,5.44-6.79,8.13-10.3,8.78-8.13,1.51-16.14-3.17-22.59-6.93l-1.19-.7c-7.32-4.24-49.29-13.46-53.49-14.11-3.01-.47-9.88,2.05-16.54,4.49-4.23,1.55-9.02,3.3-10.35,3.22.1-.55,1.63-4.3,2.85-7.31,2.5-6.13,5.92-14.53,5.28-20.74-1.15-10.99-14.97-26.74-15.56-27.41l-.23-.26-.34-.07c-10.84-2.44-21-3.1-28.42-3.59-4.82-.31-10.29-.67-10.94-1.49.13-.38,1.54-1.87,9.69-6.4,22.73-12.64,30.04-35.25,30.2-36.02-.66,1.37-1.32,2.73-1.97,4.1-2.1,4.41-5.14,8.59-8.01,12.54-3.05,4.18-6.83,7.86-10.93,11.01-3.2,2.46-6.74,4.6-10.31,6.51Z"/>
          <path class="cls-65" d="m447.98,314.74l2.11-.18c-.01-.16-1.22-15.75,8.72-24.55l-1.41-1.59c-10.75,9.52-9.48,25.64-9.42,26.32Z"/>
          <path class="cls-78" d="m397.76,300.7c.83,1.94,20.66,47.68,40.86,51.31,11.03,1.98,15.42-2.65,17.06-5.59,3.48-6.26,1.07-16.02-5.87-23.74l-1.58,1.42c6.34,7.06,8.64,15.82,5.59,21.29-2.35,4.22-7.62,5.83-14.83,4.53-19.08-3.43-39.09-49.59-39.29-50.06l-1.95.84Z"/>
          <path class="cls-75" d="m400.79,300.13c.24,0,24.47.73,39.6,18.19l.38-2.32c-15.76-18.19-39.69-17.99-39.94-17.99l-.05,2.12Z"/>
          <path class="cls-65" d="m470.81,295.24l1.81.09c.28-.42,6.81-10.37,6.85-21.94l-.11-1.66c-.03,10.91-8.49,23.41-8.55,23.51Z"/>
          <path class="cls-78" d="m469.35,237.61c3.42,1.02,7.74,8.33,10.14,17.95l-.15-2.51c-.36-1.61-3.66-15.77-9.39-17.48l-.61,2.04Z"/>
          <path class="cls-65" d="m458.09,260.74s-1.29-6.11-5.2-8.02c-3.9-1.92-9.09.78-5.79,1.65,3.29.87,4.84-2.38,10.99,6.37Z"/>
          <path class="cls-78" d="m368.68,231.08l.18,2.12c14.99-1.3,32.59,27.4,32.76,27.69l1.41-2.15c-.75-1.23-18.06-29.06-34.35-27.65Z"/>
          <path class="cls-78" d="m361.54,240.24l-.29,1.97c2.14-8.68,13.57-8.63,13.67-8.65l-1.11-1.51c-.47.06-10.72.93-12.27,8.19Z"/>
          <path class="cls-78" d="m376.36,232.64c-.58.21-14.11,5.44-11.51,29.91,1.43,13.43,11.1,21.43,19.61,21.4,7.77-.03,16.73-6.67,18.57-25.22l.03-.34-.17-.3c-.4-.69-10.03-17.02-25.67-25.39l-.42-.22-.45.16Zm-9.39,29.69c-.22-2.07-.32-3.99-.32-5.77,0-16.07,8.09-20.82,10-21.72,14.06,7.72,23.19,22.31,24.21,24-1.5,14.35-7.6,22.96-16.4,22.99-7.58.03-16.19-7.26-17.49-19.5Z"/>
          <path class="cls-78" d="m377.21,242.04s-5.21,3.03-4.84,18.79c.13,5.4,3.06,16.14,10.4,14.27,7.5-1.91,7.41-14.51,6.71-20.02-2.48-19.57-10.84-14.62-12.27-13.04Z"/>
          <path class="cls-79" d="m373.15,252.57c-1.46-.44-2.19-2.25-1.66-4.04.55-1.8,2.16-2.89,3.62-2.46,1.45.44,2.19,2.24,1.65,4.04-.54,1.8-2.16,2.89-3.61,2.46Z"/>
          <path class="cls-76" d="m428.5,279c.53,2.13,3.36,12.82,6.45,14.64l1.68.27c1.84-.49,2.56-2.39,3.39-4.6,1-2.65,2.25-5.96,5.77-8.41l-1.21-1.74c-4.07,2.82-5.5,6.63-6.55,9.4-.65,1.73-1.16,3.09-1.95,3.3-1.18-.21-3.78-6.46-5.53-13.38l-2.06.52Z"/>
          <path class="cls-78" d="m174.85,208.28c32.9,28.6,37.11,38.07,43.47,52.42l.43.97c6.79,15.3,15.7,22.99,16.08,23.31,38.56,35.44,64.89,37.44,65.99,37.51,33.37-.97,36.27-33.3,36.3-33.63l-2.11-.17c-.1,1.25-2.8,30.76-34.14,31.67-.17-.01-26.65-2.09-64.62-36.98-.12-.1-8.96-7.75-15.54-22.58l-.43-.97c-6.48-14.6-10.76-24.25-44.02-53.16l-1.39,1.6Z"/>
          <path class="cls-78" d="m163.95,190.28l.24,2.11c.24-.02,5.81-.47,8.98,8.82,3.3,9.66-4.71,20.44-4.76,20.51l5.47-6.34c.87-1.87,4.04-8.5,1.29-14.86-4.6-10.67-10.93-10.28-11.23-10.24Z"/>
          <path class="cls-78" d="m125.1,200.52l-3.67,10.14.05.3c.08.4,2.07,9.91,8.27,9.6l2.51.02c-8.64-2.02-8.44-8.97-8.62-9.78.21-.59,3.46-9.56,3.46-9.56,1.26-3.57,6.89-6.01,6.95-6.04l-.83-1.95c-.27.11-6.54,2.83-8.12,7.28Z"/>
          <path class="cls-78" d="m36.55,299.41c.22-.31-4.96,4.01-11.25,7.09-2.21,1.09-3.7,2.77-4.41,5-1.78,5.59,2,12.68,2.16,12.97l1.87-1.01c-.04-.06-3.52-6.59-2.01-11.32.54-1.68,1.63-2.9,3.32-3.73,6.54-3.2,11.74-7.55,11.96-7.73,34.38-71.15,85.04-92.26,85.54-92.47l-.79-1.97c-.52.21-51.9,21.57-86.39,93.16Z"/>
          <path class="cls-65" d="m24.76,317.67l.62,2.03c.37-.11,9.14-2.64,16.34,5.51l5.2,5.56c3.95,4.06,4.67,4.91,3.8,7.64l2.02.64c1.28-4.03-.36-5.7-4.3-9.76l-5.13-5.48c-8.13-9.2-18.13-6.26-18.56-6.13Z"/>
          <path class="cls-78" d="m62.71,334.93c-5.57,5.39-14.03,5.51-14.11,5.51v2.12c.39,0,9.41-.11,15.34-5.93-.17.14,9.74-4.76,17.69.13,8.46,5.2,30.23,19.04,33.59,21.6,0,0,1.85,1.53,1.85,1.53,2.02,1.77,3.48,3.04,8.09,2.82,2.04-.1,4.11.57,5.93,1.17,2.65.86,5.64,1.84,6.83-1.1.9-2.23,1.61-2.76,2.91-3.71l1.9-1.51c.22-.2,25.14-18.02,75.72,4.9.26.16,8.57,4.89,14.64.75,3.53-2.41,21.44-14.47,51.22-7.09l1.68-1.63c-30.66-7.6-50.44,4.46-54.09,6.96-4.95,3.38-12.39-.84-12.47-.88-45.74-20.74-73.23-8.91-78.09-4.61l-1.75,1.39c-1.4,1.03-2.5,1.84-3.62,4.63-.37.92-1.08.9-4.21-.12-1.9-.62-4.26-1.39-6.69-1.27-3.75.18-4.7-.65-6.59-2.3l-1.96-1.62c-3.47-2.64-25.05-16.36-33.76-21.72-8.98-5.53-19.58-.25-20.03-.02Z"/>
          <path class="cls-78" d="m222.59,430.64l2.36-.54c36.33-58.54,69.58-83.2,69.98-83.24l-4.53,2.59c-.4.04-31.22,22.24-67.81,81.19Z"/>
          <path class="cls-78" d="m263.78,364.96c-1.64-.1-3.19.5-4.48,1.73-3.05,2.93-4.56,9.31-4.36,18.46l2.12-.05c-.24-11.36,2.21-15.45,3.71-16.88.85-.82,1.82-1.21,2.87-1.14,4.28.26,9.15-1.21,9.36-1.27l2.23-2.07s-7.56,1.46-11.45,1.22Z"/>
          <path class="cls-78" d="m241.81,391.51c-5.52.45-8.25,4.02-8.86,23.1l2.12.07c.66-20.54,3.83-20.8,6.91-21.05l9.65-1.19-.33-2.1-9.49,1.18Z"/>
          <path class="cls-78" d="m198.94,446.53c-5.74,8.67-9.9,21.35-9.9,36.87,0,13.49,3.19,29.13,11.21,46.11-.38.63-1.1,1.97-1.1,3.94,0,.92.18,1.91.68,2.92,2.16,4.38,9.2,6.84,20.93,7.31l1.73-.27c-13.55-.54-19.5-5.47-20.74-7.96-1.29-2.59.47-5.16.55-5.28l.35-.51-.26-.56c-17.17-35.93-12.12-65.61-1.67-81.39,7.74-11.7,19.02-17.83,31.75-17.26,32.9,1.45,35.32,45.76,35.31,47.44l-.1-4.85c0-.43-.18-43.16-35.12-44.71-13.32-.59-25.57,6.04-33.62,18.2Z"/>
          <path class="cls-78" d="m164.82,549.92c-1.38-.3-6.39-1.11-9.01,2.34l-1.14,1.48c-2.58,3.33-5.5,7.1-5.68,9.97l2.12.13c.13-2.22,2.96-5.87,5.23-8.8l1.15-1.49c2.12-2.79,7.26-1.48,7.31-1.47l.51.13.41-.33c18.36-14.58,35.88-21.27,36.05-21.34l-.75-1.99c-.17.07-17.74,6.79-36.22,21.36Z"/>
          <path class="cls-78" d="m238.4,464.26c15.3,30.46,17.18,68.04,17.18,80.66,0,3.23-.1,5.08-.11,5.17-.59,9.52-22.46,35.6-27.84,41.54-3.68,4.06-11.83,4.84-15.39,4.99.27-.77.42-1.67.42-2.67,0-1.44-.28-3.11-.85-4.92-2.11-6.69-7.84-14.29-15.42-15.15-9.12-1.05-12.88,4.91-14.17,7.87-.8-.72-2.02-1.83-2.02-1.83,0,0-2.44.39-4.04.64.32-.96.63-2.18.63-3.92,0-2.87-.75-6.81-3.31-11.94-6.21-12.43-18.11-6.93-18.22-6.87l.91,1.92c.41-.2,10.15-4.64,15.42,5.9,5.38,10.78,2.07,15.58,2.03,15.62l-1.49,2.07s6.58-1.03,7.41-1.16c.56.51,3.49,3.22,3.49,3.22l.68-1.55c.09-.37,2.34-9.02,12.44-7.86,6.35.73,11.66,7.43,13.64,13.68,1.06,3.38.99,6.24-.19,7.29l-2.05,1.82,2.74.04c.56,0,13.59.14,18.94-5.76,5.84-6.45,27.76-32.6,28.39-42.83.03-.44,2.46-44.14-17-82.89l-2.19-3.07Z"/>
          <path class="cls-78" d="m315.57,553.92c-35.96.11-58.38-16.58-58.59-16.74l-.37,1.99c.22.17,22.24,16.98,58.98,16.87,17.63-.05,76.2-4.22,89.87-55.85l-2.05-.55c-13.29,50.17-70.58,54.22-87.83,54.27Z"/>
          <path class="cls-78" d="m383.59,560.1c12.56,7.88,45.85,17.45,47.26,17.85l1.68.48-.35-1.72c-.03-.12-2.53-12.61,3.66-17.07,5.11-3.68,9.95-5.42,12.96-4.64,1.28.32,2.19,1.09,2.79,2.34l1.92-.91c-.88-1.83-2.28-3-4.18-3.49-3.67-.94-9.03.88-14.73,4.98-4.16,2.99-5.08,8.62-5.08,13.02,0,1.87.15,3.37.31,4.5-6.92-2.04-34.35-10.38-45.11-17.14-7.03-4.41-8.47-10.38-8.47-14.53,0-2.75.63-4.71.7-4.91l-2.01-.68c-.05.13-4.47,13.67,8.66,21.92Z"/>
          <path class="cls-78" d="m433.18,521.73c20.87,4.73,33.85,17.32,37.35,21.07-4.77,1.15-8.59,3.27-11.01,6.71-2.76,3.92-3.31,8.4-3.31,11.31,0,1.77.2,2.96.22,3.09l2.09-.37c-.01-.07-1.21-7.23,2.74-12.81,2.39-3.38,6.2-5.54,11.31-6.4l1.8-.3-1.16-1.41c-.14-.17-14.32-17.23-39.56-22.95l-.47,2.07Z"/>
          <path class="cls-78" d="m395.33,433.02l.21,2.12c18.2-1.79,31.25,2.24,38.79,11.95,16.52,21.3,1.65,63.22.2,68.03-4.7,15.6-22.38,21.61-22.52,21.64l4.19-1.27c.59-.14,14.48-3.62,20.32-19.64,1.76-4.84,16.7-47.86-.52-70.06-8.01-10.33-21.7-14.62-40.68-12.76Z"/>
          <path class="cls-78" d="m380.4,362.33c-.19.33-6.6,12.97-21.06,12.08-14.79-.91-28.37-11.68-32.19-17.28l1.41,2.26c4.04,5.91,15.05,16.17,30.65,17.13,15.89.98,23.1-13.33,23.17-13.47,2.34-9.17,13.46-20.72,13.57-20.84l-1.8-.84c-.47.49-11.36,11.44-13.76,20.95Z"/>
          <path class="cls-78" d="m378.93,381.89c0,4.56.36,8.83,1.44,11.38,0,0,5.38,12.64,5.92,13.92-.68.61-1.94,1.71-1.94,1.71l1.41,1.59,3.08-2.72-6.52-15.33c-2.96-6.96.12-29.48.15-29.7l-2.11-.29c-.09.63-1.45,10.59-1.45,19.45Z"/>
          <path class="cls-78" d="m372.92,464.95c-17.59,2.57-35.29,2.49-51.19-.25-8.62-1.48-17.19-4.88-23.51-9.33l-1.22,1.74c6.56,4.61,15.44,8.14,24.36,9.68,16.12,2.78,34.06,2.88,51.86.26,9.88-1.45,21.03-3.64,28.22-11.38l-1.55-1.45c-6.73,7.23-17.45,9.33-26.98,10.73Z"/>
          <path class="cls-78" d="m384.2,409.71c.48,1.32,11.17,30.95,17.66,40.83-.14-.32.11,1.43-1.98,3.68l1.56,1.44c2.87-3.09,2.37-5.8,2.35-5.91-6.52-10.06-17.65-40.72-17.77-41.04l-1.82,1Z"/>
          <path class="cls-78" d="m399.63,454.12c.06.22,4.9,16.54,4.95,33.31.01,5.6-.53,11.24-1.94,16.36-1.57,1.1-15.77,10.36-51.63,14.24-22.22,2.41-66.36,2.88-90.45-17.83l1.89,2.09c24.7,21.23,66.23,20.3,88.79,17.85,38.63-4.19,52.43-14.44,53.01-14.88l.28-.22.1-.34c6-21.07-2.58-49.99-2.95-51.22l-2.03.62Z"/>
          <path class="cls-78" d="m287.21,355.76l-.78.35s4.46,1.1,7.22,3.25c2.61,2.03,4.06,5.34,4.79,15.14l.46-5.91c-.3-6.11-.84-8.5-3.99-10.92-3.56-2.74-7.54-1.93-7.71-1.9Z"/>
          <polygon class="cls-78" points="296.78 345.2 300.38 343.91 309.07 335.04 304.5 339.19 296.78 345.2"/>
          <path class="cls-78" d="m306.92,297.71c-1.7,1.54-1.6,4.13-1.49,6.64l.02,2.52c-.26,4.26,2.09,13.15,2.19,13.53l2.05-.55c-.02-.09-2.36-8.93-2.12-12.85,0,0-.03-2.74-.03-2.74-.09-2.01-.17-4.1.79-4.97.61-.54,1.73-.71,3.33-.47l6.01,1.25c6.43,1.51,13.08,3.07,16.73-.16l-1.4-1.59c-2.83,2.5-9.21,1-14.84-.32l-6.18-1.28c-2.29-.33-3.95,0-5.06,1Z"/>
          <path class="cls-78" d="m310.54,140.67c-1.93.6-3.65,1.47-3.49,5.57.11,2.99-1.71,13.64-3.48,23.93-1.65,9.64-3.36,19.61-3.65,24.19-.18,3.01-1.76,8.7-3.76,15.91-4.05,14.6-10.16,36.66-10.25,57.47-.11,30.63,5.09,52,5.14,52.21l2.06-.51c-.05-.21-5.19-21.34-5.08-51.69.08-20.53,6.15-42.43,10.17-56.92,2.03-7.33,3.64-13.11,3.84-16.35.27-4.46,1.98-14.37,3.62-23.96,1.87-10.88,3.63-21.15,3.51-24.37-.11-2.81.68-3.06,1.99-3.46.97-.3,2.3-.71,3.03-2.26l-1.05-1.12c-.32.67-1.68,1.06-2.6,1.34Z"/>
          <path class="cls-78" d="m391.21,124.15c-4.26.34-5.2,4.88-5.41,6.51-5.55,1.99-37.89,3.13-41.38,1.37l-7.42-3.99-1.06,1.84,7.53,4.05c4.69,2.36,39.59.54,43.76-1.51l.55-.27.04-.61c0-.05.37-5,3.57-5.26.89-.07,1.88.37,2.85,1.28,2.33,2.17,5.04,7.67,4.96,16.01v4.18c0,9-.17,12.12-3.63,12.29l-4.01-.78c-2.69-.94-5.47-1.92-10.94,2.51-7.17,5.81-31.24,36.48-27.29,52.83l.07.31.23.22c.23.22,2.33,2.13,4.49,2.01l2.33-1.18-.17-1.85-2.28.9c-.95.05-2.09-.77-2.65-1.24-.21-.98-.34-2-.34-3.09,0-15.34,19.44-41.2,26.94-47.27,4.55-3.68,6.47-3.01,8.9-2.15l4.82.9c5.67-.28,5.65-5.6,5.64-14.41v-4.16c.07-7.55-2.09-14.29-5.63-17.58-1.43-1.32-2.97-1.96-4.47-1.84Z"/>
          <path class="cls-78" d="m344.9,157.76c-4.28,4.66-5.78,13.42-4.59,26.79,1.77,19.88,12.87,30.15,13.34,30.57l1.43-1.57c-.11-.1-10.96-10.18-12.65-29.19-1.12-12.57.73-20.61,4.04-25.16,3.11-4.28,10.54-6,13.99-6.4l-5.44.26c-4.64.53-7.76,2.13-10.12,4.7Z"/>
          <path class="cls-78" d="m364.44,152.93c.11.02,14.73,2.39,24.92,7.96l.84-1.95c-8.11-3.47-19.06-5.38-19.52-5.47l-6.24-.53Z"/>
          <path class="cls-65" d="m179.67,610.9c6.06,6.17,28.68-10.39,31.24-12.29l-1.27-1.7c-9.1,6.78-24.86,16.17-28.46,12.51-5.04-5.14.64-22.98,4.48-29.59l-1.95-.89c-3.68,6.35-10.44,25.45-4.04,31.97Z"/>
          <path class="cls-65" d="m140.62,586.26c.28,5.38,3.47,6.21,5.34,6.22,11.42.1,28.29-9.26,29-9.66l-1.04-1.85c-.17.09-17.09,9.49-27.95,9.39-.75,0-3.02-.02-3.24-4.21-.46-8.76,8.74-26.57,14.8-26.82l-.24-2.11c-7.96.46-17.17,19.74-16.68,29.04Z"/>
          <path class="cls-78" d="m40.44,413.14c-8.48,8.14,5.52,38,6.11,39.27,15.96,40.58,65.52,63.07,89.49,69.28,23.35,6.06,63.58,3.97,63.98,3.95l-.12-2.12c-.4.03-40.3,2.09-63.33-3.89-27.44-7.11-73.55-31.11-88.08-68.07-3.92-8.32-12.7-31.03-6.51-36.97.05-.04.76-.23.76-.23.66.05,2.11.56,4.41,3.52,5.62,7.22,36.73,37.42,62.56,42.94,31.24,6.67,64.79,1.19,92.06-15.03l-1.09-1.83c-26.81,15.95-59.81,21.34-90.54,14.77-26.98-5.76-58.1-38.02-61.32-42.16-2.21-2.84-4.27-4.3-6.12-4.34-1.43-.03-2.19.81-2.27.9Z"/>
          <path class="cls-78" d="m209.28,424.78c-5.63.4-6.83,15.2-7.01,18.17l2.12.13c.39-6.41,2.26-15.99,5.04-16.18,4.86-.35,16.93.39,17.05.39l.13-2.12c-.5-.03-12.33-.75-17.33-.39Z"/>
          <path class="cls-78" d="m179.4,443.47l-1.87,1.01-8.11,12.5,1.81,1.11,7.99-12.33c2.38-.36,7.16,3.19,9.7,5.48l1.42-1.58c-1.22-1.1-7.45-6.52-10.94-6.19Z"/>
          <path class="cls-78" d="m154.83,452.38l-14.22,9.44,1.2,1.75,14.08-9.35.72-.06c1.62.51,3.73,3.93,4.68,5.97l1.92-.9c-.29-.63-2.93-6.14-5.96-7.1l-2.42.25Z"/>
          <path class="cls-78" d="m127.54,454.91c-6.47.4-14.5,3.79-14.84,3.94l.83,1.95c.08-.03,8.03-3.39,14.14-3.77,1.51-.09,2.75.27,3.67,1.09,1.75,1.54,1.93,4.24,1.93,4.27l2.12-.12c0-.15-.22-3.59-2.64-5.73-1.36-1.21-3.12-1.75-5.22-1.62Z"/>
          <path class="cls-78" d="m47.66,416.22l.66,2.01c4.56-1.5,12.35-2.86,13.85-.15,1.87,3.37.2,11.1-.6,13.8l2.04.61c.12-.43,3.09-10.59.41-15.43-2.84-5.13-15-1.29-16.37-.84Z"/>
          <path class="cls-78" d="m23.9,432.96c-.38,6.22,15.5,8.21,18.69,8.55l.22-2.11c-7.09-.75-16.98-3.2-16.79-6.31.24-4.01,9.32-9.26,12.79-10.94l-.93-1.91c-1.39.67-13.62,6.76-13.99,12.73Z"/>
          <path class="cls-65" d="m17.06,355.71c0,1.67.08,3.3.25,4.88-.06.21-.13.35-.13.71,0,.49.13,1.06.58,1.54.92.99,2.62,1.03,5.33.14,5.72-1.89,28.56-21.04,30.55-25.62l-1.95-.85c-1.57,3.61-23.67,22.6-29.27,24.45-2.55.84-3.12.43-3.12.43l.12-.93c-1.87-16.83,7.7-42.06,7.8-42.31l-1.98-.76c-.36.95-8.18,21.56-8.18,38.32Z"/>
          <path class="cls-78" d="m281.47,444.45l.2.37.41.13c.68.21,16.78,5.12,27.45-.77,4.15-2.29,6.9-5.92,8.19-10.78.05-.45.36-6.19-2.4-11.4l-1.4-2.57c-3.79-6.9-12.95-26-14.81-36.93l1.26,7.18c1.92,11.28,7.85,23.77,11.7,30.77l1.38,2.54c2.48,4.67,2.19,10.02,2.19,10.07-1.1,4.06-3.5,7.25-7.12,9.25-9.23,5.1-23.37,1.29-25.32.73-4.74-8.84-5.87-26.84-5.87-41,0-10.53-.82-23.87-.65-24.75l-.59,4.31c-.56,1.39-3.47,47,5.39,62.84Z"/>
          <path class="cls-65" d="m317.15,435.37l-.99,1.37c-.49.99-.88,1.4-.88,1.87,0,11.09-1.81,13.3-2.34,13.83-3.83-1.2-7.69-4.26-9.76-6.1-.66.25-1.38.38-2.06.47-.54.08-1.14.21-1.73.15-.94,3.28-2.85,8.66-5,9.9l-1,.16c-3.31-1-7.37-7.97-8.9-11.24l-2.57-.83c.6,1.29,6.05,12.66,10.85,14.1l2.67-.35c3.03-1.75,5.09-8,5.96-11.09,2.16,1.98,6.66,5.72,11.3,7.03.31.04,1.75-.71,1.75-.71,1.99-2.07,2.84-9.11,2.68-18.57Z"/>
          <path class="cls-78" d="m380.06,380.3l.12,2.12c15.94-.93,38.45.92,55.14,15.03l.75.62c1.5,1.13,5.09,7.35,2.04,20.58-.89,3.86-2.6,6.59-5.07,8.14-3.38,2.12-7.15,1.27-7.19,1.26-12.42-7.66-37.02-11.86-38.06-12.04l-.35,2.1c.25.04,25.23,4.31,37.61,11.88.5.17,4.93,1.19,9.08-1.39,2.99-1.85,5.02-5.04,6.04-9.47,2.97-12.88-.06-20.67-2.82-22.75l-.66-.55c-17.22-14.57-40.31-16.48-56.64-15.53Z"/>
          <path class="cls-78" d="m40.75,414.01c.03.07,2.89,8.04,3.19,10.19.23,1.68,2.62,6.13,4.74,10.06l1.97,3.75c.41.82.89,1.29,1.48,1.44.9.22,1.72-.38,2.51-.95.61-.44,1.24-.9,1.66-.77.75.24.73.9.44,2.73l-.26,2.07c-.12,1.95,2.31,4.36,4.89,6.92l3.41,3.65c1.14,1.5,2.35,2.33,3.62,2.45,1.21.12,2.43-.38,3.73-1.53l1.15-.51c.69.05,1.37.84,2.03,1.61l.39.44c.29.33-.11,1.27-.54,2.24-.76,1.72-1.79,4.09-.51,6.44,2.14,3.95,13.63,7.72,16.41,7.43l3-1.1c1.02-.57,1.83-1.02,3.12-.73,1.31.3,1.29.68.93,2.44l-.35,2.37c-.06.92-.21,3.35,34.77,11.38l.71.16c.84.19,1.44.09,1.85-.29.71-.67.48-1.94.22-3.42l-.25-1.65c.74-.96,3.48-.2,5.49.36l3.12.78c.51.1.84.25.91.42.17.38-.5,1.4-1.08,2.31l-2.02,4c-.13.45-.05.89.24,1.26,1.72,2.23,11.75,2.19,21.88,1.96l4.68-.04c1.11.07,1.68-.4,1.96-.81.29-.43.4-.98.4-1.58,0-1.53-.67-3.15-.92-3.73.43-.54,2.56-2.98,6.25-3.13,1.56-.06,1.8.14,1.83.17.07.09-.08.64-.17.98l-.33,3.82c.11.7.5,1.26,1.12,1.61,2.91,1.64,10.67-1.43,11.56-1.79l-.4-.99c-2.25.92-8.54,3.03-10.63,1.85-.35-.19-.54-.46-.6-.85l.3-3.37c.21-.75.39-1.41-.02-1.92-.38-.48-1.12-.63-2.7-.58-4.63.18-7.15,3.63-7.25,3.78l-.18.25.13.28c.6,1.31,1.33,3.71.73,4.59-.07.09-.27.39-1.01.35l-4.77.04c-6.32.14-19.49.44-21.02-1.55-.06-.32,1.84-4.04,1.84-4.04.86-1.34,1.54-2.41,1.16-3.3-.23-.53-.78-.87-1.7-1.04l-3.03-.76c-2.84-.79-5.29-1.47-6.35-.57-.26.22-.55.63-.47,1.34l.26,1.72c.17.98.38,2.19.09,2.47-.12.11-.44.12-.88.02l-.7-.16c-32.42-7.44-33.9-10.03-33.95-10.29l.33-2.21c.11-.55.22-1.09.22-1.59,0-.95-.4-1.73-1.96-2.09-1.68-.39-2.79.24-3.88.83l-2.59.98c-2.48.25-13.49-3.42-15.37-6.88-1.03-1.9-.19-3.81.55-5.5.59-1.36,1.11-2.53.36-3.37l-.37-.42c-.8-.94-1.63-1.91-2.76-1.98l-1.92.78c-1.07.94-2.02,1.36-2.92,1.27-.96-.1-1.92-.78-2.87-2.04l-3.51-3.77c-2.19-2.17-4.67-4.63-4.58-6.1l.25-1.97c.27-1.73.53-3.37-1.17-3.9-.94-.29-1.82.35-2.61.93-.59.43-1.2.89-1.63.78-.33-.08-.61-.52-.78-.87l-1.99-3.79c-1.87-3.47-4.42-8.22-4.62-9.71-.32-2.26-3.12-10.07-3.23-10.4l-1,.37Z"/>
          <path class="cls-78" d="m189.26,491.33c.17.1,17.91,10.39,36.97,2.28l.47-.28c-18.56,7.9-36.73-2.82-36.91-2.92l-.54.91Z"/>
          <path class="cls-78" d="m197.62,518.69c.42.41,10.46,10.03,32.58,2.98l.66-.28c-21.46,6.84-33.68-4.14-33.78-4.23l.54,1.53Z"/>
          <path class="cls-78" d="m179.33,580.94l1.04.21c.03-.17,4.32-18.56,21.78-29.12l-1.26.45c-17.87,10.81-21.51,28.29-21.55,28.46Z"/>
          <path class="cls-78" d="m232.18,522.64c1.56,1.41.8,4.18-.66,6.69l-.29.51c-1.08,1.87-1.04,3.41-1,5.36l-.03,3.19c-.15,2.5-1.04,2.9-2.17,3.4l-1.46.85-2.02.92,3.92-.8c1.22-.54,2.61-1.16,2.8-4.31l.03-3.28c-.05-1.92-.07-3.2.85-4.8l.3-.5c1.4-2.4,2.72-4.67.45-6.73l-.71-.5Z"/>
          <path class="cls-78" d="m227.04,493.08l4.52,5.68s.7,1.09.7,1.09c.17,1.27-1.14,3.01-2.2,4.4l-.84,1.14c-.84,1.22-.45,3.69-.03,6.3.37,2.32,1.24,6.49.58,7.62l.46-1c.85-1.45.44-4.04,0-6.79-.34-2.19-.74-4.67-.14-5.54l.81-1.1c1.24-1.63,2.64-3.48,2.41-5.19l-1.12-1.8-4.51-4.19-.65-.65Z"/>
          <path class="cls-78" d="m217.55,468.87l-3.28.31c-4.24.39-15.74,1.85-18.6.58l1.13.43c3.11,1.39,12.88.48,17.57.04l3.28-.31c2.9-.3,7.29-.75,8.5.62,1.5,1.7,2.24,2.84-.05,6.43-1.95,3.04-.89,7.65-.26,10.41l1.6,3.7-.21-1.86-.35-2.07c-.6-2.59-1.58-6.94.12-9.6,2.63-4.13,1.69-5.73-.05-7.71-1.58-1.78-5.92-1.34-9.41-.98Z"/>
          <path class="cls-78" d="m420.51,511.82l-4.78.88c-3.09,1.12-3.16,1.82-2.92,4.37l.07.88c.24,2.92-2.65,8.31-2.67,8.36l-1.36,3.19c.12-.23,5.36-8.4,5.1-11.64l-.08-.89c-.21-2.25-.22-2.39,2.22-3.27,0,0,4.57-.83,4.57-.83,5.15-.73,12.94-1.82,16.75-5.5l.13-1.6c-3.56,3.43-12.01,5.33-17.03,6.04Z"/>
          <path class="cls-78" d="m430.73,539.17c.13.08,15.77,10.85,21.45,16.81l.77-.73c-5.78-6.07-18.15-13.71-18.67-14.04l-3.55-2.05Z"/>
          <path class="cls-78" d="m423.54,492.29c-3.38.2-4.91.31-5.46.8-1.62,1.44-1.18,2.66-.12,5.58,1.14,3.2-1.69,10.98-1.72,11.03l1.4-2.38c.11-.21,2.61-5.38,1.43-8.71-1.18-3.27-1.33-3.79-.28-4.73.36-.27,2.73-.41,4.82-.54,6.12-.36,15.37-.92,19.39-5.06l-.76-.74c-3.73,3.85-13.09,4.41-18.69,4.75Z"/>
          <path class="cls-78" d="m420.8,466.26c-.68,1.46-.1,4.62,1.46,7.86,1.32,2.77.13,7.13-.66,10.01l-.65,2.9-.49,2.9,2.16-5.51c.88-3.22,2.08-7.62.59-10.75-1.56-3.26-1.91-5.97-1.46-6.96v-1.31c-.29.08-.7.29-.96.87Z"/>
          <path class="cls-78" d="m427.73,460.49l-2.29,1.19c3.77-1.6,12.98-4.11,14.38-3.45l.46-.96c-2.24-1.06-10.85,2.5-12.55,3.22Z"/>
          <path class="cls-78" d="m413.23,436.58c-1.44,1.04-3.41,2.46-3.36,4.27.03,1.03.74,1.99,2.1,2.84,3.06,1.92,4.16,4.17,4.18,5.65,0,.73-.24,1.31-.72,1.62-.38.25-.6.61-.63,1.03-.11,1.32,1.53,2.96,3.7,4.98l1.27,1.24,2.79,2.42-3.34-4.44c-1.2-1.12-3.45-3.2-3.37-4.11.94-.76,1.37-1.65,1.35-2.75-.02-1.75-1.26-4.39-4.68-6.53-1.04-.66-1.58-1.32-1.6-1.98-.04-1.24,1.74-2.53,3.97-4.89l.96-.73-1.76.72-.87.66Z"/>
          <path class="cls-65" d="m470.63,544.27c3.79,4.03,13.1,15.69,10.78,21.16-2.26,5.34-15.03,3.93-19.77,2.94l-.44,2.08c.77.16,18.77,3.84,22.17-4.19,3.28-7.73-8.55-20.82-10.04-22.4l-2.7.41Z"/>
          <path class="cls-65" d="m449.46,555.03c3.92,4.17,13.51,15.54,11.87,20.73-.46,1.46-1.57,2.6-3.29,3.4-5.4,2.5-15.79,1.24-26.48-3.22l-.81,1.96c11.39,4.74,22.19,5.96,28.19,3.18,2.28-1.06,3.77-2.63,4.42-4.69,2.31-7.31-8.32-18.35-9.84-19.97l-4.05-1.4Z"/>
          <path class="cls-6" d="m378.18,234.87c2,.39,4.04,1.78,5.36,3.39-3.67-.21-7.32,2.37-9.57.06.21,1.18,0,2.06,1.06,3.22-1.91.51-3.49,1.81-4.57,3.39.3.38.76.87,1.21,1.18-.23.48-.82.71-1.1,1.17.05.3.69.57.63.87-2.15,1.61-1.57,4.43-2.26,6.7.69.37,1.5,1.58,2.41,1.88-1.5.53-2.8,1.54-3.49,3,.13.15.55.14.63.26-.48,2.57-1.51,5.13-1.22,7.77-4.05-10.07-2.62-34.81,11.96-32.84l-1.05-.05Z"/>
          <path class="cls-4" d="m368.36,270.72c.85-.8,2.29-1.75,3.51-2.32-.56,2.54.3,4.26,1.84,6.03.53-.37,1.42-.42,1.87-.67-.3,3.52,4.26,4.8,6.94,5.52.35-.72,1.48-1.52,1.84-2.28.87,1.54,1.74,3.3,2.94,4.67-5.04,6.29-22.57-8.3-17.85-11.52l-1.1.57Z"/>
          <path class="cls-5" d="m390.12,280.37c2.27-.82,0-4.5-1.29-6.22.63.31,1.56.39,2.24.72-.36-.77-.36-2.4-.8-3.19.64.23,1.61.08,2.26.28-.3-1.04.02-2.08-.6-3.16,4.16,1.14,3.94-1.73,1.33-3.53,1.54.33,2.08-.39,3.2-.69-.67-.48-1.12-1.55-1.97-2,.63-.21,1.2-.63,1.88-.83.03-.56-.63-.73-.73-1.21.2-.19.82-.32.86-.59-1.24-.29-2.54-.75-3.81-.94-.15,0-.15,0,0,.01,1.11-.52,1.14-1.32,1.83-1.98-.84-.17-1.73-1.01-2.62-1.11.91-.48,1.29-1.45,1.97-1.97-.44-.19-.96-.52-1.41-.7,1.07-2.05-2.77-7.98-4.04-10.44,5.35,1.7,12.95,13.9,13.05,19.5.09,6-4.84,16.45-10.79,18.88-.27.11-.64.02-.59.01l.05-.85Z"/>
          <path class="cls-79" d="m392.26,262.38c-2.71.91-5.82-1.08-6.94-4.43-1.12-3.35.18-6.8,2.89-7.71,2.72-.91,5.82,1.07,6.94,4.42,1.12,3.36-.17,6.81-2.89,7.71Z"/>
          <path class="cls-3" d="m375.6,279.08s-4.01-3.78,2.81-17.11l.92-9.11s-10.36,2.18-12.64,10.51c0,0-.96,9.82,8.91,15.72Z"/>
          <path class="cls-82" d="m560.36,250c0,.2-.15,4.02-.15,4.21,0,6.75-5.2,11.57-15.86,14.72-7.25,2.14-11.34,6.58-13.28,9.2-2.96-12.2-11.11-13.42-11.48-13.46l-1.6-.18.46,1.54c2.95,9.84.67,15.97-1.77,19.37-2.6,3.64-6.69,5.91-10.95,6.07-1.43.06-2.44-.34-3.09-1.22-2.08-2.82-.27-9.84.59-12.3l1.07-3.05-2.67,1.81c-6.62,4.5-8.08,8.25-8.08,13.07,0,1.68.17,3.49.37,5.51l.45,5.59c.02.35.03.69.03,1.03,0,7.19-4.21,10.47-6.6,11.77.04-.39.15-.83.15-1.2,0-8.03-8.25-10.94-8.34-10.97l-1.06-.36-.3,1.08c-.14.47-3.45,11.6-17.31,12.83-13.79,1.23-17.32-4.97-17.36-5.03l-.63-1.17-1.01.87c-2.29,2.03-3.08,5.35-2,8.47,1.26,3.66,4.62,6,8.99,6.27,8.02.49,37.11,16.79,44.04,21.74,6.7,4.79,13.63,9.74,27.22,3.03,11.97-5.9,20.44,3.39,20.8,3.79l1.92,2.16-.07-2.89c-.29-11.81-8.31-16.36-12.82-18.01,11.72-5.26,16.23-23.49,16.23-28.8,0-.34-.02-.63-.05-.86-.12-.79-.27-2.04-.27-3.62,0-5.23,1.56-14.09,10.49-21.98,5.98-5.28,7.52-11.54,7.52-16.58s-1.69-9.21-1.72-9.29l-1.87-3.15Zm-28.82,31.18c.04-.07,3.99-7.43,13.41-10.21,9.33-2.75,14.74-7.03,16.55-12.61.22,1.21.4,2.54.4,4.08,0,4.53-1.41,10.16-6.87,14.99-9.52,8.42-11.2,17.94-11.2,23.58,0,1.72.15,3.08.29,3.94.03.19.04.43.04.72,0,5.12-4.91,24.89-17.56,27.73l-3.07.85c.52.08,15.01,3.39,16.84,15.46-3.54-2.8-11.23-7.25-21.1-2.39-12.46,6.14-18.57,1.77-25.05-2.86-6.2-4.43-36.24-21.58-45.14-22.13-3.49-.21-6.15-2.02-7.12-4.84-.24-.7-.36-1.41-.36-2.1,0-1.17.44-2.22,1.08-3.13,1.86,2.09,6.87,5.94,18.47,4.9,12.76-1.13,17.46-10.13,18.73-13.24,1.82.85,5.96,3.31,5.96,8.58,0,.83-.1,1.72-.34,2.69l-.45,1.83,1.8-.56c.1-.03,9.7-3.17,9.7-14.56,0-.37,0-.75-.03-1.13l-.46-5.68c-.19-2.03-.37-3.77-.37-5.33,0-3.6,1.07-6.27,4.63-9.29-.39,1.65-.76,3.72-.76,5.73s.36,3.91,1.39,5.3c1.08,1.47,2.73,2.17,4.89,2.09,4.9-.18,9.61-2.78,12.6-6.96,1.81-2.54,3.56-6.4,3.56-11.87,0-2.22-.39-4.77-1.07-7.53,2.46.98,7.1,4.06,8.64,13.62l.51,3.14,1.48-2.82Z"/>
          <path class="cls-82" d="m507.95,227.11c1.61,3.14,4.02,11.92,3.18,14l-2.08,2.3c-3.85,3.64-10.28,9.72-4.67,22.59l1.08,2.74c.02-.21,1.39-8.22,7.4-11.6,7.84-4.41,7.59-9.94,4.81-16.87-3.01-7.51-7.73-11.29-7.94-11.45l-1.79-1.7Zm-3.62,29.61c0-5.91,3.57-9.29,6.19-11.76l2.58-3.05c.22-.55.32-1.21.32-1.93,0-1.47-.44-3.17-.97-4.81,1.13,1.6,2.27,3.46,3.25,5.9,1.04,2.59,1.58,4.73,1.58,6.56,0,3.29-1.75,5.58-5.46,7.67-3.74,2.11-5.57,4.73-6.51,6.82-.6-1.97-.98-3.81-.98-5.39Z"/>
          <path class="cls-78" d="m469.83,233.45l8.64,1.37c6.08,3.61,10.53,16.38,10.58,16.5,3.65,14.4-2.09,26.42-5.86,32.29-4.18,6.53-8.42,9.76-9.4,9.94l-1.76.55c-2.11.83-4.29,1.69-17.3-9.57-6.45-5.58-14.19-8.11-22.38-7.31-10.18,1-20.61,7.16-27.89,16.5-11.02,14.12-30.02,11.17-30.64,10.99l3.78,1.04c.17.05,16.61,4.56,28.54-10.73,6.93-8.89,16.81-14.76,26.42-15.7,7.59-.74,14.78,1.61,20.78,6.8,13.04,11.29,16.06,11.29,19.47,9.94l1.37-.44c2.1-.39,6.82-4.66,10.8-10.88,3.94-6.17,9.98-18.79,6.1-34.04-.22-.64-4.78-13.72-11.93-17.87-.38-.13-8.96-1.5-8.96-1.5l-.36,2.1Z"/>
          <path class="cls-76" d="m464.13,210.93c-.16.18-16.01,18.18-11.99,22.65,3.31,3.68,9.08,5.01,17.63,4.07l.95-.1v-.96c-.08-7.48-.61-25.04-4.21-26.42-.47-.18-1.4-.32-2.39.76Zm-10.41,21.23c-1.54-1.72,5.55-12.79,11.98-19.79,1.58.76,2.72,12.49,2.88,23.24-7.26.65-12.15-.45-14.86-3.44Z"/>
          <path class="cls-78" d="m313.68,401.6c24.48,25.43,71.29,9.27,71.76,9.1l-.71-2.01c-.46.17-49.15,15.5-72.68-8.93l1.63,1.84Z"/>
          <path class="cls-65" d="m311.85,145.32c.09,9,9.49,10.97,9.58,10.99l2.85.07c-.3-.08-11.21-2.26-10.32-11.08,0-.03,0-.05,0-.08,0-7.77,11.1-30.23,19.37-30.83,0,.01,1.26.17,2.06,1.18.47.61.71,1.42.71,2.44,0,.41-.04.84-.12,1.32-.31,1.96-.46,5.25-.46,9.01,0,7.65.6,17.16,1.52,21.39.1,2.74-3.51,6.14-8.99,6.79l2.12.07c7.57-.27,8.91-6.21,8.98-6.48l.07-.25-.06-.26c-1.38-5.88-2.04-24.06-1.08-29.93.37-2.27.02-4.11-1.05-5.44-1.44-1.8-3.62-1.95-3.71-1.96-9.77.68-21.58,24.39-21.49,33.05Z"/>
          <path class="cls-65" d="m138.02,160.18c-1.54.11-2.84.78-3.86,1.97-2.93,3.44-2.53,8.14-2.15,12.69l.22,5.64-.05,11.1c.07,5.76.14,12.3-.3,14.23-.35,1.53,1.13,3.41,3.96,5.03,6.18,3.53,20.06,6.23,32.95-6.01l.44-.41-.14-.59c-.23-1.02-5.87-25.18-22.24-39.89-.2-.17-4.7-4.05-8.83-3.74Zm.19,49.48c-3.09-1.42-4.29-2.98-4.26-3.4.5-2.16.43-8.26.35-14.72l.05-10.94-.22-5.94c-.37-4.3-.71-8.36,1.65-11.13.64-.76,1.43-1.16,2.39-1.23,3.25-.24,7.22,3.18,7.26,3.21,14.76,13.26,20.62,34.97,21.41,38.13-10.22,9.39-21.46,9.32-28.64,6.01Z"/>
        </g>
      </g>
    </g>
  </g>
</svg>