<?xml version="1.0" encoding="UTF-8"?>
<svg id="Layer_1" data-name="Layer 1" xmlns="http://www.w3.org/2000/svg" viewBox="0 0 601 712">
  <defs>
    <style>
      .cls-1 {
        opacity: .15;
      }

      .cls-1, .cls-2, .cls-3, .cls-4, .cls-5, .cls-6, .cls-7, .cls-8, .cls-9, .cls-10, .cls-11, .cls-12, .cls-13, .cls-14, .cls-15, .cls-16, .cls-17, .cls-18, .cls-19, .cls-20 {
        stroke-width: 0px;
      }

      .cls-2, .cls-21 {
        opacity: .4;
      }

      .cls-2, .cls-19 {
        fill: #fff;
      }

      .cls-3 {
        fill: #603813;
      }

      .cls-4 {
        fill: #775238;
      }

      .cls-5 {
        fill: #80795b;
      }

      .cls-6 {
        fill: #9a958b;
      }

      .cls-7 {
        fill: #8a5d3b;
      }

      .cls-8 {
        fill: #2e7d32;
      }

      .cls-9 {
        fill: #388e3c;
      }

      .cls-10 {
        fill: #42210b;
      }

      .cls-11 {
        fill: #a87c4f;
      }

      .cls-12 {
        fill: #dfb995;
      }

      .cls-13 {
        fill: #c9c29f;
      }

      .cls-14 {
        fill: #c9c9c9;
      }

      .cls-15 {
        fill: #a5d6a7;
      }

      .cls-16 {
        fill: #cdc7b9;
      }

      .cls-17 {
        fill: #736044;
      }

      .cls-18 {
        fill: #7ca17d;
      }

      .cls-20 {
        fill: #edecea;
      }
    </style>
  </defs>
  <ellipse class="cls-1" cx="355.48" cy="549.08" rx="132.68" ry="20.85"/>
  <g>
    <g>
      <path class="cls-3" d="m284.25,544.97l4.97,1.68s4.98,12.82,7.82,14.65c3.35-.87,14.4-3.85,20.74-1.99-5.71,1.12-22.23,8.12-22.23,8.12,0,0-10.55-15.07-11.3-22.46Z"/>
      <path class="cls-3" d="m295.36,568.11l-.25-.36c-.43-.62-10.64-15.27-11.39-22.72l-.08-.84,6.01,2.03.09.24c1.33,3.42,5.18,12.46,7.43,14.26l.06-.02c2.9-.76,9.7-2.53,15.59-2.53,2,0,3.72.21,5.13.62l2.14.63-2.19.43c-5.59,1.09-21.96,8.02-22.12,8.08l-.41.17Zm-10.44-22.34c1.25,6.75,9.3,18.76,10.83,20.99,2.3-.97,13.28-5.54,19.54-7.37-.77-.09-1.6-.13-2.49-.13-5.74,0-12.45,1.75-15.31,2.49l-.54.14-.2-.13c-2.78-1.79-7.11-12.56-7.94-14.68l-3.89-1.31Z"/>
    </g>
    <g>
      <path class="cls-9" d="m284.25,544.97s7.26,16.3,11.36,19.84c6.33-2.7,18.25-6.52,22.17-5.49-2.24,1.68-18.87,17.38-20.12,45.7-11.67-11.67-23.72-39.86-13.41-60.04Z"/>
      <path class="cls-8" d="m317.78,559.32c-3.91-1.02-15.83,2.79-22.17,5.49-4.1-3.54-11.36-19.84-11.36-19.84-.09.17-.16.35-.25.53.66,9.98,5.21,19.39,7.89,28.8,2.9-4.35,7.26-7.25,11.61-10.16-6.79,12.12-9.68,26.51-6.96,39.7.37.41.75.79,1.12,1.17,1.24-28.31,17.88-44.02,20.12-45.7Z"/>
      <path class="cls-3" d="m298.15,606.27l-.87-.87c-12.04-12.04-23.78-40.57-13.51-60.67l.52-1.01.46,1.04c.07.16,6.97,15.58,10.97,19.42,5.62-2.36,15.45-5.57,20.43-5.57.69,0,1.29.06,1.76.19l1.09.29-.9.68c-.19.14-18.58,15.24-19.9,45.29l-.05,1.23Zm-13.92-60.02c-8.91,19.1,1.66,45.43,12.95,57.48,1.56-25.82,15.58-40.54,19.34-44.04-.12,0-.25,0-.38,0-4.87,0-15.01,3.35-20.33,5.62l-.31.13-.26-.22c-3.57-3.09-9.32-15.26-11.02-18.97Z"/>
    </g>
    <g>
      <path class="cls-3" d="m427.8,396.14s13.91,9.35,13.91,41.43c-.99,2.03-6.58-8.77-14.53-13.12,1.49-10.18,1.61-24.22.62-28.32Z"/>
      <path class="cls-3" d="m441.36,438.37c-.84,0-1.8-1.1-3.87-3.59-2.62-3.15-6.22-7.47-10.57-9.85l-.33-.18.05-.37c1.48-10.14,1.59-24.16.63-28.11l-.33-1.36,1.16.78c.58.39,14.15,9.88,14.15,41.89v.13l-.06.11c-.17.35-.48.56-.84.56Zm-13.59-14.2c4.39,2.52,8.09,6.96,10.56,9.92,1.07,1.28,2.26,2.71,2.84,3.1-.09-25.81-9.34-36.67-12.57-39.67.7,5.28.5,17.31-.82,26.65Z"/>
    </g>
    <g>
      <path class="cls-3" d="m424.83,368.87s16,7.01,19.62,37.2c-.84,2.04-8.06-7.41-17.09-10.47.45-9.78-1-23.01-2.53-26.73Z"/>
      <path class="cls-3" d="m444.04,406.9c-.86,0-2.02-.93-4.37-2.88-3.18-2.63-7.53-6.23-12.48-7.91l-.39-.13.02-.41c.45-9.72-1.02-22.92-2.49-26.5l-.51-1.25,1.23.54c.67.29,16.33,7.48,19.94,37.64l.02.14-.05.13c-.16.4-.5.62-.92.62Zm-16.12-11.68c4.99,1.8,9.46,5.5,12.44,7.97,1.41,1.17,2.87,2.38,3.51,2.59-3.04-24.5-14.39-33.46-18.09-35.76,1.35,4.87,2.5,16.22,2.14,25.2Z"/>
    </g>
    <g>
      <path class="cls-3" d="m391.66,286.63s2.61-1,7.95-1.56c5.34-.55,8.57-.8,8.44-2.29-.12-1.49-15.81-12.54-29.33-11.55,2.63,2.61,12.94,15.4,12.94,15.4Z"/>
      <path class="cls-3" d="m391.49,287.28l-.25-.31c-.1-.13-10.32-12.8-12.9-15.35l-.85-.84,1.19-.09c.58-.04,1.18-.06,1.79-.06,12.85,0,27.95,10.11,28.12,12.11.16,1.94-2.77,2.25-8.1,2.79l-.83.08c-5.21.54-7.78,1.51-7.81,1.52l-.37.14Zm-11.55-15.56c3.16,3.46,10.45,12.47,11.91,14.27.91-.3,3.44-1.02,7.71-1.46l.83-.09c3.71-.38,7.2-.74,7.13-1.62-.49-1.24-14.13-11.11-27.03-11.11-.18,0-.36,0-.54,0Z"/>
    </g>
    <g>
      <path class="cls-3" d="m392.16,289.85s14.53,2.5,21.73,8.76c7.2,6.26,11.3,12.97,10.93,14.58-.37,1.61-11.3-1.99-18.63-1.49-8.44-13.53-14.03-21.85-14.03-21.85Z"/>
      <path class="cls-3" d="m423.61,314.16c-1.22,0-3.19-.34-5.46-.73-3.17-.55-7.12-1.23-10.48-1.23-.51,0-.99.02-1.44.05l-.33.02-.17-.28c-8.34-13.37-13.97-21.76-14.02-21.84l-.71-1.05,1.25.22c.6.1,14.76,2.6,22,8.89,6.84,5.95,11.59,13.01,11.1,15.12-.19.84-1.31.84-1.74.84Zm-15.94-3.05c3.45,0,7.45.69,10.66,1.24,2.23.38,4.15.72,5.28.72.42,0,.61-.05.69-.08.1-1.32-3.35-7.53-10.77-13.97-5.77-5.02-16.52-7.62-20.2-8.39,1.76,2.66,6.61,10.03,13.15,20.51.38-.02.78-.03,1.19-.03Z"/>
    </g>
    <path class="cls-3" d="m407.56,314.07s23.35,10.94,28.68,30.49c-.75,1.42-11.72-4.3-19.12-3.8-5.84-14.03-9.56-26.69-9.56-26.69Z"/>
    <path class="cls-3" d="m435.64,345.33c-1,0-2.82-.59-5.12-1.33-3.86-1.24-9.24-2.98-13.36-2.7l-.39.03-.15-.36c-5.78-13.89-9.54-26.62-9.58-26.74l-.34-1.16,1.09.51c.24.11,23.64,11.28,28.98,30.84l.06.21-.1.19c-.18.34-.55.52-1.09.52Zm-17.56-5.15c4.13,0,9.12,1.61,12.77,2.78,2.09.67,3.89,1.25,4.74,1.28-4.75-16.37-22.49-26.65-27.14-29.11,1.07,3.46,4.38,13.84,9.03,25.06.2,0,.4-.01.6-.01Z"/>
    <g>
      <path class="cls-3" d="m417.63,341.77s22.9,9.86,27.37,39.1c-1.12,1.49-8.38-8.38-19.93-10.06-3.73-13.6-7.44-29.04-7.44-29.04Z"/>
      <path class="cls-3" d="m444.67,381.57c-.73,0-1.67-.71-3.55-2.18-3.33-2.61-8.91-6.98-16.14-8.03l-.35-.05-.09-.34c-3.69-13.45-7.4-28.9-7.44-29.06l-.25-1.06,1,.43c.23.1,23.22,10.31,27.69,39.52l.03.23-.14.18c-.18.24-.45.37-.76.37Zm-19.18-11.24c7.34,1.18,12.94,5.56,16.3,8.2.99.78,2.02,1.58,2.57,1.85-4.01-24.66-21.51-35.29-25.94-37.61.92,3.77,3.99,16.31,7.07,27.56Z"/>
    </g>
    <path class="cls-9" d="m303.52,295.21s-2.88,9.5-11.26,15.08c-8.38,5.58-26.05,11.91-23.92,19.08,1.38,4.75,15.29,7.92,23.92,6.3,8.63-1.61,14.22-6.18,17.2-11.78-3.48-8.83-5.94-28.68-5.94-28.68Z"/>
    <path class="cls-8" d="m304.68,303.22c.08,8.03-.89,16.04-5.53,22.23-6.28,8.79-22.34,9.42-30.78,1.44-.25.82-.28,1.65-.03,2.49,1.38,4.75,15.29,7.92,23.92,6.3,8.63-1.61,14.22-6.18,17.2-11.78-2.04-5.18-3.73-14.15-4.78-20.68Z"/>
    <g class="cls-21">
      <path class="cls-19" d="m304.96,304.92c-.91-5.45-1.44-9.7-1.44-9.7,0,0-2.88,9.5-11.26,15.08-7.91,5.26-24.08,11.2-24.09,17.88,11.01-9.13,27.85-12.43,36.79-23.25Z"/>
    </g>
    <path class="cls-3" d="m287.2,336.64h0c-8.36,0-18.15-2.86-19.39-7.12-1.68-5.67,7.3-10.44,15.98-15.05,3.05-1.62,5.93-3.15,8.17-4.64,8.13-5.41,11.01-14.69,11.04-14.78l.74-2.46.32,2.55c.02.2,2.49,19.88,5.91,28.55l.09.23-.12.22c-2.36,4.44-7.33,10.14-17.58,12.06-1.54.29-3.28.44-5.16.44Zm16.06-39.21c-1.34,3.15-4.56,9.22-10.7,13.31-2.28,1.51-5.18,3.06-8.26,4.69-7.91,4.2-16.87,8.96-15.44,13.78.97,3.32,9.71,6.34,18.34,6.34,1.81,0,3.48-.14,4.96-.42,9.65-1.81,14.4-7.08,16.7-11.28-2.78-7.24-4.86-21.08-5.6-26.42Z"/>
    <g>
      <path class="cls-20" d="m288.75,344.37c1.3.32,3.32-6.52,3.51-8.69.19-2.17-2.11-5.59-4.72-4.9-2.61.68-2.3,12.73,1.21,13.6Z"/>
      <path class="cls-16" d="m290.75,331.93c-2.25,3.93-1.6,8.09-1.43,12.19,1.25-1.22,2.78-6.57,2.94-8.45.1-1.17-.52-2.68-1.51-3.74Z"/>
      <path class="cls-6" d="m288.84,344.92c-.09-.03-.15,0-.22-.03-2.28-.56-3.32-4.65-3.35-8.45,0-1.32.12-5.68,2.13-6.21,1.29-.34,2.69.17,3.79,1.37,1.07,1.17,1.72,2.82,1.6,4.11-.12,1.44-1.93,9.2-3.96,9.2Zm-.62-13.7c-.18,0-.36.02-.54.07-.66.17-1.34,2.15-1.32,5.15.03,3.83,1.09,6.98,2.47,7.38.86-.41,2.68-5.87,2.88-8.2.09-.99-.46-2.34-1.32-3.28-.66-.72-1.43-1.12-2.17-1.12Z"/>
    </g>
    <g>
      <path class="cls-20" d="m275.37,346.48c.85.42,2.33-2.96,4.22-5.46,2.09-2.76,3.9-4.09,3.92-5.53.02-2.24-1.07-6.46-4.35-5.84-2.3.43-4.51,5.55-4.82,8.41-.31,2.86-.09,7.86,1.03,8.41Z"/>
      <path class="cls-16" d="m275.38,346.48c.85.41,2.32-2.97,4.22-5.47,2.09-2.76,3.9-4.09,3.92-5.53,0-.99-.2-2.38-.73-3.56-4.07,3.55-6.19,9.41-7.4,14.55Z"/>
      <path class="cls-6" d="m275.53,347.06h0c-.14,0-.27-.03-.4-.09-1.66-.83-1.56-6.86-1.33-8.96.31-2.84,2.54-8.37,5.26-8.89,1.22-.23,2.29.1,3.15.96,1.48,1.5,1.86,4.11,1.85,5.41-.01,1.15-.88,2.13-2.07,3.5-.59.67-1.25,1.43-1.95,2.35-.66.88-1.29,1.88-1.84,2.77-1.23,1.99-1.86,2.95-2.67,2.95Zm4.27-16.92c-.17,0-.35.02-.53.05-1.91.36-4.08,5.2-4.38,7.94-.36,3.3.08,7.26.67,7.82.37-.23,1.14-1.48,1.72-2.41.56-.91,1.2-1.94,1.89-2.85.72-.96,1.4-1.73,2-2.42,1.04-1.19,1.79-2.04,1.8-2.79.01-1.48-.46-3.56-1.53-4.64-.47-.48-1.01-.71-1.64-.71Z"/>
    </g>
    <g>
      <path class="cls-20" d="m267.1,343.06c.83.32,1.91-2.97,3.46-5.47,1.71-2.76,3.28-4.16,3.17-5.5-.18-2.09-1.57-5.93-4.57-5.07-2.11.61-3.72,5.58-3.76,8.28-.04,2.7.61,7.34,1.7,7.77Z"/>
      <path class="cls-16" d="m267.33,343.05c.8-.28,1.82-3.19,3.22-5.46,1.71-2.76,3.28-4.16,3.17-5.5-.07-.84-.34-1.96-.83-2.94-3.39,3.49-4.52,8.67-5.57,13.91Z"/>
      <path class="cls-6" d="m267.21,343.62h0c-.11,0-.21-.02-.31-.06-1.78-.69-2.06-7.06-2.05-8.28.04-2.69,1.65-8.07,4.15-8.79.34-.1.67-.15.99-.15,2.76,0,4.09,3.49,4.27,5.69.09,1.09-.63,2.08-1.63,3.47-.49.68-1.05,1.44-1.62,2.37-.54.87-1.03,1.87-1.47,2.74-.93,1.88-1.5,3.01-2.34,3.01Zm2.79-16.19c-.22,0-.45.03-.69.1-1.74.5-3.33,5.19-3.37,7.76-.04,3.04.69,6.65,1.28,7.2.33-.29.92-1.48,1.36-2.37.45-.9.95-1.91,1.52-2.83.59-.96,1.16-1.74,1.66-2.43.86-1.19,1.49-2.05,1.43-2.74-.16-1.89-1.28-4.69-3.19-4.69Z"/>
    </g>
    <path class="cls-9" d="m309.25,343.47l26.04,51.76s-13.51-.57-26.03-5.41c-12.52-4.84-22.77-7.57-22.77-7.57,0,0-7.08,25.46-14.9,28.44-7.82,2.98-28.46,1.74-34.16-10.58-.86-4.32,7.15-7.58,15.35-22.34,8.2-14.76,11.55-25,26.26-30.03,14.71-5.03,30.21-4.25,30.21-4.25Z"/>
    <path class="cls-8" d="m322.86,370.52c-11.12,8.26-29,8.31-42.74,6.06-.59,6.65-.98,13.19-5.64,18.51-9.04,10.44-24.76,12.19-36.91,5.28,5.89,12.05,26.25,13.25,34.01,10.3,7.82-2.98,14.9-28.44,14.9-28.44,0,0,10.24,2.73,22.77,7.57,12.52,4.84,26.03,5.41,26.03,5.41l-12.43-24.71Z"/>
    <g class="cls-21">
      <path class="cls-19" d="m274.48,355.19c11.14-6.78,23.91-8.06,36.77-7.73l-2.01-3.99s-15.5-.78-30.21,4.25c-14.71,5.03-18.07,15.27-26.26,30.03-6.43,11.58-12.74,16.08-14.75,19.57,15.12-11.26,20.46-31.69,36.46-42.13Z"/>
    </g>
    <path class="cls-3" d="m262.36,412.58c-9.55,0-21.25-3.22-25.43-12.26l-.04-.12c-.47-2.38,1.29-4.31,4.2-7.5,2.97-3.25,7.04-7.71,11.2-15.21,1.21-2.17,2.3-4.24,3.36-6.23,6.07-11.44,10.46-19.7,23.2-24.06,11.42-3.9,23.4-4.33,28.01-4.33,1.51,0,2.36.04,2.4.04l.32.02,26.59,52.87-.92-.04c-.14,0-13.74-.63-26.2-5.45-10.78-4.17-19.96-6.8-22.19-7.41-1.09,3.76-7.63,25.44-15.08,28.28-2.37.9-5.71,1.4-9.42,1.4Zm-24.41-12.66c4,8.54,15.64,11.57,24.41,11.57,3.53,0,6.82-.48,9.03-1.33,7.48-2.85,14.5-27.82,14.57-28.07l.14-.52.52.14c.1.03,10.42,2.8,22.82,7.59,10.42,4.03,21.66,5.09,24.92,5.32l-25.47-50.63c-.38-.01-1.07-.03-2.03-.03-4.56,0-16.39.42-27.66,4.27-12.34,4.22-16.64,12.32-22.59,23.54-1.06,2-2.16,4.06-3.37,6.25-4.23,7.61-8.34,12.12-11.35,15.41-2.66,2.91-4.27,4.68-3.95,6.5Z"/>
    <path class="cls-3" d="m287.94,383.21c-2.82-.83-5.93-2.26-5.93-2.26.13.01,3.32.35,6.24,1.21l-.31,1.04Z"/>
    <g>
      <path class="cls-20" d="m253.8,419.52c.31,1.01,3.17-2.7,6.15-4.38,2.98-1.68,3.89-2.27,4.1-3.15.61-2.53-1.77-6.06-3.92-5.51-2.14.55-7.92,7.82-6.33,13.03Z"/>
      <path class="cls-16" d="m253.69,419.12c.03.14.06.27.1.41.31,1.01,3.17-2.7,6.15-4.38,2.98-1.68,3.89-2.27,4.1-3.15.2-.82.08-1.74-.24-2.59-4.56,1.8-8.43,5.4-10.12,9.71Z"/>
      <path class="cls-6" d="m254,420.24h0c-.34,0-.62-.21-.73-.56-.94-3.09.58-6.51,1.57-8.27,1.52-2.7,3.78-5.1,5.15-5.45,1.11-.28,2.39.3,3.36,1.53,1.09,1.38,1.57,3.2,1.22,4.64-.27,1.11-1.28,1.76-4.36,3.49-1.35.76-2.69,1.97-3.77,2.94-1.3,1.17-1.89,1.68-2.44,1.68Zm6.58-13.26c-.11,0-.22.01-.32.04-.81.21-2.87,2.09-4.47,4.93-.87,1.54-2.18,4.45-1.57,7.07.37-.26.98-.8,1.49-1.26,1.12-1.01,2.51-2.26,3.96-3.08,2.84-1.6,3.69-2.16,3.84-2.8.27-1.11-.14-2.6-1.02-3.71-.59-.76-1.29-1.19-1.91-1.19Z"/>
    </g>
    <g>
      <path class="cls-20" d="m237.06,413.06c-.11,1.17,5.17-1.09,8.88-2.08,3.71-.99,5.71-.99,6.77-2.79,1.06-1.8.4-6.86-1.36-7.43-4.04-1.3-13.66,5.81-14.29,12.3Z"/>
      <path class="cls-16" d="m237.29,413.36c1.03.3,5.44-1.51,8.65-2.37,3.71-.99,5.71-.99,6.77-2.79.43-.74.57-2.03.47-3.33-6.09,1.4-11.68,3.7-15.89,8.49Z"/>
      <path class="cls-6" d="m237.58,413.94h0c-.39,0-.67-.1-.86-.3-.15-.17-.22-.39-.2-.62.61-6.42,9.26-12.95,13.75-12.95.45,0,.88.06,1.25.18.68.22,1.25.9,1.66,1.96.7,1.84.87,4.79,0,6.27-.93,1.59-2.49,1.95-4.84,2.49-.67.16-1.42.33-2.26.55-1.14.3-2.43.73-3.68,1.14-2.08.69-3.88,1.28-4.82,1.28Zm12.69-12.79c-3.97,0-11.86,5.97-12.63,11.7.81-.03,2.64-.64,4.42-1.22,1.26-.42,2.57-.85,3.74-1.16.85-.23,1.61-.4,2.3-.56,2.22-.51,3.45-.8,4.14-1.98.61-1.04.57-3.62-.08-5.33-.28-.72-.63-1.2-.98-1.31-.27-.09-.57-.13-.91-.13Z"/>
    </g>
    <g>
      <path class="cls-20" d="m224.83,398.63c-.03,1.27,3.79.87,7.82,1.68,4.04.81,5.28,1.87,6.58,1.74,1.3-.13,3.99-6.21,2-8.7-.95-1.18-4.78-1.41-8.45-.18-4.04,1.34-7.91,4.26-7.95,5.46Z"/>
      <path class="cls-16" d="m224.91,398.33c-.05.11-.08.21-.08.31-.03,1.27,3.79.87,7.82,1.68,4.04.81,5.28,1.87,6.58,1.74.7-.07,1.78-1.84,2.35-3.85-5.42-1.12-10.93-1.61-16.67.13Z"/>
      <path class="cls-6" d="m239.02,402.6h0c-.66,0-1.3-.23-2.18-.54-.96-.34-2.28-.81-4.29-1.22-1.47-.29-2.89-.42-4.15-.54-2.41-.22-4.14-.38-4.11-1.69.05-1.74,4.61-4.73,8.32-5.96,1.64-.54,3.42-.84,5.02-.84,1.14,0,3.18.16,4.03,1.2,1.36,1.69.86,4.61-.05,6.78-.34.81-1.24,2.69-2.32,2.8-.09,0-.18.01-.27.01Zm-1.39-9.71c-1.49,0-3.15.28-4.68.79-4.26,1.42-7.56,4.25-7.58,4.96.18.3,1.88.46,3.12.57,1.29.12,2.74.25,4.27.55,2.09.42,3.45.91,4.45,1.26.81.29,1.34.48,1.81.48h0c.05,0,.11,0,.16,0,.27-.07,1.11-1.12,1.7-2.88.56-1.65.83-3.81-.08-4.93-.3-.37-1.31-.8-3.18-.8Z"/>
    </g>
    <g>
      <path class="cls-15" d="m146.98,109.86s8.01,9.5,4.28,29.8c8.57.56,12.11,3.35,12.11,3.35l-8.62,7.82s2.1,19.58.42,34.28c10.43,11.17,27.57,32.34,27.29,49.97,8.29,2.73,14.06,11.96,14.06,11.96l54.45,15.98s18.24-8.51,27.95-13.4c-9.32-15.65-23.38-49.05-24.67-70.35-1.29-21.3,4.45-24.48-19.92-40.43-48.68-31.86-87.36-28.99-87.36-28.99Z"/>
      <path class="cls-18" d="m182.79,235.21c.14.05.27.1.41.16.07-.24.14-.47.2-.71-.2.18-.41.37-.61.55Z"/>
      <path class="cls-18" d="m254.25,179.28c-1.29-21.3,4.45-24.48-19.92-40.43-48.68-31.86-87.36-28.99-87.36-28.99,0,0,.31.37.77,1.1,23.91,3.9,70.37,23.99,74.47,42.03-25.14,1.78-49.87,13.1-67,31.76-.01.12-.02.25-.04.37.23.25.47.5.7.76,22.42-8.68,45.51-12.06,69.28-12.06-20.71,14.62-34.76,36.9-41.75,60.85,17.37-15.73,35.53-29.39,56.98-39.08-1.52,22.25,8.26,44.85,23.9,61.18,5.07-2.42,10.6-5.08,14.64-7.12-9.32-15.66-23.38-49.05-24.67-70.35Z"/>
      <path class="cls-17" d="m251.02,263.61l-.2-.06-54.65-16.04-.11-.18c-.06-.09-5.77-9.09-13.77-11.73l-.38-.13v-.4c.29-17.56-16.88-38.61-27.14-49.59l-.17-.18.03-.25c1.65-14.47-.4-33.97-.42-34.16l-.03-.27,8.3-7.54c-1.28-.75-4.83-2.46-11.25-2.88l-.61-.04.11-.6c3.63-19.77-4.09-29.26-4.17-29.35l-.68-.81,1.06-.08s.94-.07,2.64-.07c9.51,0,43.73,2.1,85.06,29.15,19.98,13.08,19.97,17.82,19.93,30.49,0,2.97-.02,6.33.23,10.36,1.27,20.93,15.1,54.16,24.6,70.1l.3.5-.52.26c-9.61,4.85-27.78,13.33-27.97,13.41l-.19.09Zm-54.14-17.03l54.06,15.87c1.92-.89,18.06-8.44,27.23-13.05-9.54-16.23-23.18-49.21-24.45-70.09-.25-4.07-.24-7.45-.23-10.43.03-12.58.04-16.82-19.44-29.57-43.83-28.69-79.6-29.14-86.02-28.95,1.83,2.73,6.81,12.01,3.89,28.8,8.2.65,11.66,3.31,11.8,3.42l.5.4-8.89,8.07c.24,2.43,1.93,20.26.42,33.88,10.31,11.07,27.3,32.01,27.27,49.77,7.64,2.71,13,10.56,13.86,11.88Z"/>
    </g>
    <g>
      <path class="cls-9" d="m278.92,249.63l12.12-6.11s-12.05-8.32-21.22-29.91c-9.17-21.6-6.25-43.2-9.04-51.77-2.79-8.57-12.85-19-32.04-30.92-19.18-11.92-50.29-25.7-81.77-21.05,14.71,3.54,27.94,3.54,52.15,14.34,24.21,10.8,48.99,34.83,48.99,34.83,0,0-67.43-.19-93.37,26.51,11.29-6.46,53.51-27.82,96.22-16.39-17.14,5.71-49.6,28.56-68.51,65.94,7.17-6.95,35.6-46.81,68.51-53.15.12,15.65,1.02,51.55,27.95,67.68Z"/>
      <g>
        <path class="cls-8" d="m182.53,234.97s-.04.08-.06.12c7.17-6.95,35.6-46.81,68.51-53.15,0,.13,0,.26,0,.39.62-1.4,1.22-2.78,1.74-4.17-31.39,4.28-52.26,32.41-70.19,56.8Z"/>
        <path class="cls-8" d="m155.21,185.28c11.94-6.75,53.6-27.4,95.76-16.13-1.35.45-2.81,1.02-4.33,1.68,2.33-.56,4.61-1.23,6.8-2.1-14.51-13.06-77.81-2.02-98.23,16.55Z"/>
        <path class="cls-8" d="m269.83,213.6c-9.17-21.6-6.25-43.2-9.04-51.77-2.79-8.57-12.85-19-32.04-30.92-13.58-8.44-33.13-17.8-54.56-20.9,26.72,7.28,51.7,19.58,72.73,39.14,14.51,13.78,8.71,34.1,13.06,52.24,4.88,16.02,11.09,34.71,25.06,45.17l6.01-3.03s-12.05-8.32-21.22-29.91Z"/>
      </g>
      <path class="cls-3" d="m278.9,250.25l-.26-.15c-27.38-16.4-28.09-52.93-28.21-67.49-26.76,5.52-50.54,33.24-62.01,46.62-2.41,2.82-4.32,5.04-5.58,6.26l-2.33,2.26,1.47-2.9c18.55-36.66,50.21-59.21,67.14-65.61-7.65-1.89-15.73-2.84-24.05-2.84-33.16,0-62,15.02-70.04,19.62l-3.35,1.92,2.69-2.77c23.95-24.65,82.58-26.53,92.4-26.67-4.82-4.51-26.69-24.36-47.85-33.8-17.6-7.85-29.59-10.02-40.17-11.93-4.06-.73-7.9-1.42-11.89-2.39l-2.73-.66,2.78-.41c4.19-.62,8.54-.93,12.92-.93,29.34,0,55.96,13.82,69.21,22.06,18.38,11.42,29.24,21.92,32.27,31.21,1,3.06,1.27,7.61,1.62,13.36.62,10.3,1.48,24.42,7.4,38.37,9,21.21,20.91,29.6,21.03,29.68l.75.52-13.21,6.66Zm-27.39-68.96v.65c.12,13.87.41,50.65,27.44,67.07l11.08-5.59c-2.74-2.18-12.85-11.11-20.7-29.61-6-14.13-6.86-28.35-7.49-38.73-.34-5.67-.62-10.15-1.57-13.08-2.91-8.91-13.9-19.5-31.81-30.63-13.16-8.18-39.58-21.89-68.64-21.89-3.28,0-6.55.18-9.73.53,2.93.63,5.83,1.15,8.85,1.7,10.64,1.92,22.69,4.09,40.42,12,24.02,10.72,48.9,34.7,49.14,34.94l.97.94h-1.35s0,0,0,0c-2.68,0-62.71.28-89.84,23.42,11.35-5.97,37.37-17.69,66.79-17.69,9.04,0,17.81,1.12,26.05,3.32l1.75.47-1.72.57c-15.73,5.24-47.02,26.58-66.28,62,.81-.93,1.73-1.99,2.73-3.16,11.65-13.58,35.88-41.83,63.28-47.1l.64-.12Z"/>
    </g>
    <g>
      <path class="cls-3" d="m276.8,248.52s7.6-23.79,14.04-24.44c2.35-.16,4.21,9.45,8.18,12.22-5.84,5.13-22.23,12.22-22.23,12.22Z"/>
      <path class="cls-3" d="m275.92,249.49l.36-1.14c.31-.99,7.79-24.14,14.51-24.82h.11c1.47,0,2.45,2.14,3.82,5.1,1.27,2.75,2.7,5.87,4.62,7.21l.57.4-.52.46c-5.83,5.13-21.7,12.02-22.37,12.31l-1.1.48Zm14.98-24.88c-4.72.48-10.79,15.73-13.2,22.91,3.66-1.64,15.34-7.02,20.47-11.21-1.87-1.64-3.23-4.59-4.44-7.22-.92-1.99-2.06-4.47-2.83-4.47Z"/>
    </g>
    <g>
      <path class="cls-3" d="m299.03,235.09s11.18-21.85,24.71-20.74c1.12.5-4.1,12.68-2.98,17.7-5.84-.2-14.9,1.3-21.73,3.04Z"/>
      <path class="cls-3" d="m298,235.92l.55-1.07c.45-.88,11.5-22.16,25.24-21.03l.18.04c.85.38.54,1.63-.66,5.92-1.11,3.94-2.63,9.34-2.01,12.15l.15.69-.7-.02c-.35-.01-.7-.02-1.07-.02-6.32,0-15,1.64-20.51,3.04l-1.17.3Zm24.74-21.06c-10.9,0-20.25,15.19-22.63,19.41,5.72-1.38,14.02-2.87,20.02-2.78-.36-3.14,1.01-8.03,2.13-12.01.52-1.83,1.09-3.88,1.11-4.61-.21-.01-.42-.02-.63-.02Z"/>
    </g>
    <g>
      <path class="cls-3" d="m355.31,224.07c-.56-1.93-8.66-2.73-16.48-1.71-11.92,1.4-18.22,8.37-18.22,8.37,0,0,12.91,4.48,20.72,7.56,5.77-4,14.54-12.29,13.98-14.22Z"/>
      <path class="cls-3" d="m341.41,238.9l-.27-.11c-7.72-3.03-20.57-7.5-20.7-7.55l-.78-.27.55-.61c.26-.29,6.57-7.14,18.56-8.54,2.25-.29,4.64-.45,6.9-.45s9.48.18,10.17,2.55c.75,2.57-9.49,11.55-14.19,14.82l-.24.17Zm-19.79-8.4c2.94,1.03,13.04,4.58,19.65,7.17,6.63-4.66,13.9-12.17,13.53-13.45-.21-.73-3.18-1.76-9.12-1.76-2.22,0-4.56.15-6.77.44-9.55,1.12-15.47,5.91-17.28,7.6Z"/>
    </g>
    <g>
      <path class="cls-3" d="m340.22,238.29s9.69-2.33,18.16-1.21c8.48,1.12,18.25,7.82,19.37,10.43.28,1.21-13.6,1.68-17.97,6.43-9.03-6.89-19.56-15.65-19.56-15.65Z"/>
      <path class="cls-3" d="m359.85,254.67l-.39-.3c-8.94-6.82-19.47-15.57-19.58-15.66l-.83-.69,1.06-.25c.06-.02,6.44-1.53,13.31-1.53,1.8,0,3.5.1,5.05.31,8.65,1.14,18.58,7.91,19.8,10.76l.03.09c.04.19,0,.39-.1.55-.35.54-1.43.78-4.48,1.37-4.32.84-10.85,2.1-13.52,5l-.34.36Zm-18.41-16.08c2.65,2.19,10.95,9.01,18.3,14.63,3.07-2.9,9.47-4.14,13.76-4.97,1.41-.27,2.99-.58,3.6-.82-1.58-2.51-10.52-8.71-18.78-9.8-1.5-.2-3.16-.3-4.91-.3-5.08,0-9.89.84-11.97,1.27Z"/>
    </g>
    <path class="cls-9" d="m275.12,293.33s14.25-1.86,26.64-14.14c2.61,8.18,1.86,14.22,1.37,22.5-.5,8.28,1.74,19.93,5.46,27.64.75,19.88-.31,75.01,63.76,74.83,8.94,9.13,17.88,32.97,16.76,51.41-1.12,18.44-22.17,36.14-38.56,46.19-16.39,10.06-55.13,30.92-58.11,71.9,5.96-10.99,13.04-34.64,51.6-49.17,38.56-14.53,69.1-20.3,82.89-66.5,7.45-26.82,16.52-133.56-60.97-201.76-23.34-24.49-48.68-29.96-64.82-23-16.14,6.95-25.08,18.68-50.17,23,13.8,9.98,24.15,37.1,24.15,37.1Z"/>
    <path class="cls-8" d="m373.7,263.46c-5.02,1.08-10.04,3.42-15.05,4.67,38.45,15.24,48.61,58.77,58.04,95.77,11.61,42.81,15.96,93.59-16.69,126.24-22.49,23.22-55.14,26.84-82.71,44.26-7.47,4.84-13.88,11.01-19.38,17.38-2.9,6.57-4.87,13.84-5.46,21.89,5.96-10.99,13.04-34.64,51.6-49.17,38.56-14.53,69.1-20.3,82.89-66.5,7.19-25.89,15.88-126.25-53.23-194.53Z"/>
    <g class="cls-21">
      <path class="cls-19" d="m358.31,248.94c-21.08-18.22-42.78-21.91-57.17-15.71-16.14,6.95-25.08,18.68-50.17,23,1.25.9,2.47,1.95,3.66,3.1,18.16-4.7,34.58-16.41,52.36-22.56,18.7-6.4,34.81,3.89,51.32,12.16Z"/>
    </g>
    <path class="cls-3" d="m291.72,576.14l.18-2.52c2.82-38.78,36.87-59.33,55.16-70.37,1.14-.69,2.22-1.34,3.21-1.95,8.66-5.31,37-24.31,38.3-45.76,1.11-18.24-7.74-41.77-16.45-50.83h-.09c-61.61,0-63.21-50.94-63.9-72.69-.03-.9-.06-1.75-.08-2.54-3.68-7.67-5.98-19.34-5.47-27.81.05-.84.1-1.65.15-2.45.44-6.76.79-12.16-1.24-19-12.23,11.7-26.17,13.65-26.31,13.66l-.43.06-.15-.4c-.1-.27-10.45-27.08-23.96-36.85l-1.05-.76,1.27-.22c16.29-2.8,25.71-8.75,34.82-14.49,4.93-3.11,9.59-6.05,15.22-8.47,4.37-1.88,9.27-2.83,14.58-2.83,16.83,0,34.89,9.22,50.85,25.96,17.95,15.79,32.55,34.87,43.36,56.66,9.06,18.26,15.49,38.46,19.12,60.02,6.68,39.72,2.02,73.36-1.38,85.6-12.32,41.28-38.02,50.53-70.56,62.23-4.1,1.47-8.34,3-12.66,4.63-33.61,12.66-43.24,32.48-48.99,44.31-.81,1.67-1.58,3.25-2.32,4.61l-1.2,2.22Zm80.86-172.53l.16.16c8.92,9.1,18.05,33.2,16.92,51.82-1.33,21.98-30.05,41.24-38.82,46.63-.99.61-2.07,1.26-3.22,1.95-17.68,10.67-50.21,30.31-54.38,66.73.33-.67.67-1.36,1.01-2.07,5.82-11.98,15.57-32.04,49.59-44.86,4.33-1.63,8.57-3.16,12.68-4.63,32.25-11.6,57.72-20.76,69.88-61.51,3.37-12.15,8-45.58,1.35-85.12-5.53-32.86-20.8-79.68-62.16-116.08-15.56-16.32-33.8-25.65-50.1-25.65-5.16,0-9.92.92-14.15,2.75-5.55,2.39-10.18,5.31-15.07,8.4-8.97,5.66-18.24,11.5-33.99,14.42,12.5,9.87,21.81,32.69,23.18,36.18,2.43-.43,14.98-3.09,25.9-13.92l.63-.63.27.85c2.38,7.45,2.01,13.09,1.55,20.25-.05.8-.1,1.61-.15,2.45-.5,8.34,1.78,19.85,5.41,27.37l.05.1v.11c.04.83.06,1.72.09,2.66.67,21.44,2.25,71.64,62.81,71.64h.55Z"/>
    <g>
      <path class="cls-15" d="m328.21,520.76c18.25-10.62,54.89-21.54,68.79-51.35,13.91-29.8,8.69-58.11-4.97-79.72-13.66-21.61-3.1-45.48-15.77-66.82-12.67-21.34-40.05-50.71-50.48-58.84-10.43-8.13-33.19-14.47-52.9,10.28-2,2.07-3.51,3.5-4.55,4.44,4.24,7.93,6.78,14.59,6.78,14.59,0,0,14.25-1.86,26.64-14.14,2.61,8.18,1.86,14.22,1.37,22.5-.5,8.28,1.74,19.93,5.46,27.64.75,19.88-.31,75.01,63.76,74.83,8.94,9.13,17.88,32.97,16.76,51.41-1.12,18.44-22.17,36.14-38.56,46.19-13.88,8.52-43.77,24.78-54.43,54.43.11-.19,13.89-24.86,32.08-35.44Z"/>
      <path class="cls-18" d="m392.04,389.69c-13.66-21.61-3.1-45.48-15.77-66.82-12.67-21.34-40.05-50.71-50.48-58.84-10.43-8.13-33.19-14.47-52.9,10.28-2,2.07-3.51,3.5-4.55,4.44,4.24,7.93,6.78,14.59,6.78,14.59,0,0,14.25-1.86,26.64-14.14.06.19.11.38.17.57.32-.83.51-1.48.85-1.48,6.53-2.9,9.43-7.98,12.33-14.51.97-2.59,2.9-1.45,4.35-.73,5.08,2.18,9.43,7.98,5.8,13.06-4.32,7.19-14.34,7.25-22.29,7.96.05.28.08.56.13.84,11.5,3.38,26.27-2.88,31.88-.94,3.63,1.45,6.09,8.32,2.61,11.73-6.05,5.93-24.15,7.96-34.24,2.28-.07,1.13-.15,2.3-.22,3.51,13.24,4.96,27.12,3.64,40.99,3.64,5.08,0,8.71,7.25,5.8,10.16-10.48,11.06-29.37,11.84-44.3,6.09.51,1.78,1.09,3.49,1.73,5.1,19,7.82,34.75-.41,43.42,8.74,5.71,6.03-6.14,27.83-40.83,14.88.19,1.41.4,2.83.65,4.28,12.1,5.64,25.56,3.32,38.86,6.83,2.9.73,4.92,5.69,4.1,9.22-2.36,10.21-23.34,12.78-34.07,8.89.98,1.59,2.05,3.14,3.23,4.64,8.52,3.12,26.34-4.94,22.87,8.96-.82,2.73-2.76,4.22-5.26,5.03,8.28,3.91,18.75,6.25,32.03,6.21,2.74,2.79,5.47,6.97,7.92,11.94,10.65-.58,20.38,2.43,16.82,14.54-1.5,3.51-6.47,3.9-10.59,2.37.36,1.39.68,2.79.98,4.2,8.67.51,13.82,6.2,11.06,15.19-1.47,4.42-5.6,6.17-9.69,5.5-.14.93-.34,1.85-.57,2.78,2.77,1.26,5.91,2.03,5.91,4.06,0,7.25-7.38,14.8-13.91,17.7-1.95.65-4.35.56-4.52-.86-.82.88-1.66,1.75-2.52,2.6.54,1.87,3.4,3.25,2.08,5.23-2.9,3.63-5.08,5.8-9.43,6.53-2.24.45-4.48.62-6.38-.17-1.14.83-2.27,1.61-3.4,2.38-4.42,9.62-16.09,14.89-28.24,18.36-12.45,9.33-25.45,22.17-31.74,39.69.11-.19,13.89-24.86,32.08-35.44,18.25-10.62,54.89-21.54,68.79-51.35,13.91-29.8,8.69-58.11-4.97-79.72Zm-101.59-109.95c-2.18,2.18-5.8,3.63-7.98,1.45-4.92-3.51-3.03-13.15,3.68-14.41,5.44,1.08,6.88,8.45,4.3,12.96Zm18.14-10.16c-1.45,4.35-7.62,6.65-11.97,7.38-.65-4.56-.36-10.7-3-14.21,3.59-3.14,8.45-4.47,12.79-2.61,2.9,1.45,2.9,5.8,2.18,9.43Z"/>
      <path class="cls-17" d="m296.61,556.46l-.99-.45c9.96-27.72,36.95-44.02,51.45-52.77,1.14-.69,2.21-1.34,3.2-1.94,8.66-5.31,37-24.31,38.3-45.76,1.11-18.24-7.74-41.77-16.45-50.83h-.09c-61.61,0-63.21-50.94-63.9-72.7-.03-.9-.06-1.75-.08-2.54-3.68-7.67-5.98-19.34-5.47-27.81.05-.84.1-1.65.15-2.45.44-6.76.79-12.16-1.24-19-12.23,11.7-26.17,13.65-26.31,13.66l-.43.06-.15-.4c-.03-.07-2.58-6.72-6.76-14.52l-.2-.38.32-.29c1.34-1.21,2.86-2.69,4.52-4.41,11.63-14.61,23.85-17.68,32.05-17.68,10.96,0,18.74,5.14,21.57,7.35,9.97,7.77,37.44,36.8,50.61,59,6.27,10.57,6.92,21.9,7.55,32.86.65,11.33,1.32,23.04,8.21,33.95,15.75,24.91,17.52,53.41,5,80.24-10.9,23.37-35.15,34.97-54.63,44.29-5.32,2.55-10.35,4.95-14.38,7.3-17.87,10.39-31.31,34.22-31.87,35.23Zm75.97-152.85l.16.16c8.92,9.1,18.05,33.2,16.92,51.82-1.33,21.98-30.05,41.24-38.82,46.63-.99.61-2.07,1.26-3.21,1.95-13.21,7.97-36.86,22.26-48.25,45.71,5.31-8.07,15.81-22.18,28.55-29.6,4.07-2.37,9.11-4.78,14.46-7.34,19.33-9.25,43.38-20.76,54.12-43.77,12.36-26.49,10.61-54.61-4.93-79.2-7.05-11.14-7.72-23-8.38-34.47-.62-10.83-1.26-22.03-7.4-32.37-12.62-21.26-40.2-50.78-50.34-58.69-2.75-2.14-10.28-7.12-20.9-7.12-11.42,0-22.22,5.99-31.24,17.31-1.58,1.64-3.02,3.05-4.3,4.22,3.5,6.6,5.84,12.31,6.45,13.86,2.43-.43,14.97-3.08,25.91-13.92l.63-.63.27.85c2.38,7.45,2.01,13.09,1.55,20.25-.05.8-.1,1.61-.15,2.45-.5,8.34,1.78,19.85,5.41,27.37l.05.1v.11c.04.83.06,1.72.09,2.66.67,21.44,2.25,71.64,62.81,71.64h.55Z"/>
    </g>
    <g>
      <path class="cls-17" d="m301.09,280.6l-.82-.72c.14-.16,3.49-3.92,7.19-4.41,3.73-.49,6.89,3.63,6.89,3.63-.03-.03-3.49-2.98-6.74-2.56-3.3.43-6.49,4.01-6.52,4.05Z"/>
      <path class="cls-17" d="m307.28,327.74l.97-.49c2.64,5.17,5.27,12.86,5.3,12.94,0,0-3.67-7.34-6.27-12.45Z"/>
      <path class="cls-17" d="m362.69,503.62c-4.87-1.32-6.68-5.28-6.76-5.45l.99-.44s1.69,3.66,6.05,4.85l-.28,1.05Z"/>
      <path class="cls-17" d="m381.22,490.52c-5.59-1.48-8.24-5.94-8.35-6.13l.94-.55s2.55,4.27,7.69,5.63l-.28,1.05Z"/>
      <path class="cls-17" d="m397.89,463.91c-5.39,0-9.65-2.74-9.85-2.87l.59-.91c.05.03,5.11,3.27,10.92,2.59l.13,1.08c-.61.07-1.2.1-1.79.1Z"/>
      <path class="cls-17" d="m393.67,438.13c-3.68,0-6.19-.67-6.38-.72l.29-1.05c.09.02,8.61,2.28,17.39-1.69l.45.99c-4.3,1.94-8.48,2.47-11.74,2.47Z"/>
      <path class="cls-17" d="m382.24,416.65c-1.27,0-2.03-.08-2.07-.09l.13-1.08c.12.02,11.65,1.25,20.68-6.45l.71.83c-7.07,6.03-15.6,6.79-19.45,6.79Z"/>
      <path class="cls-17" d="m327.7,384.46c-3.13,0-5.01-.06-5.09-.06l.04-1.09c.4.02,40.21,1.29,63.01-8.29l.42,1c-18.13,7.61-46.8,8.44-58.38,8.44Z"/>
      <path class="cls-17" d="m336.6,359.16c-15.09,0-25.96-4.01-26.17-4.09l.39-1.02c.39.15,38.92,14.34,71.57-11.47l.67.85c-15.74,12.44-32.82,15.72-46.46,15.72Z"/>
      <path class="cls-17" d="m323.39,329.83c-10.94,0-16.01-2.86-16.41-3.09l.55-.94c.19.11,19.16,10.7,64.44-9.81l.45.99c-22.51,10.2-38.5,12.85-49.04,12.85Z"/>
      <path class="cls-17" d="m321.14,305.31c-10.87,0-17.9-3.08-17.99-3.12l.44-.99c.12.05,11.92,5.2,28.61,1.94,15.91-3.11,20.7-10.88,20.75-10.96l.94.55c-.2.34-5.03,8.26-21.47,11.47-4.07.79-7.86,1.1-11.27,1.1Z"/>
      <path class="cls-17" d="m309.39,285.95c-3.9,0-6.38-.67-6.44-.69l.3-1.05c.17.05,17.13,4.62,32.49-11.11l.78.76c-9.94,10.17-20.56,12.09-27.13,12.09Z"/>
      <path class="cls-17" d="m307.86,276.44l-.65-.87.33.44-.33-.43c.07-.05,6.47-5.07,3.7-17.96l1.06-.23c2.92,13.62-3.82,18.84-4.11,19.06Z"/>
      <path class="cls-17" d="m293.35,286.41l-1.07-.22c.04-.18,3.72-18.53-4.72-24.57l.63-.89c9.02,6.45,5.32,24.89,5.16,25.67Z"/>
    </g>
    <path class="cls-9" d="m413.89,358.69l-29.98-21.09s-18.54,13.28-30.23,38.99c-3.87,7.45-4.43,12.48-5.54,16.95-1.12,4.47-5.77,9.38-4.28,22.57,1.49,13.19-.37,38.52,10.06,39.15,10.43.62,28.88-.94,29.99-14.16-.06-4.47-1.56-5.59-3.3-15.65-1.73-10.06-2.48-15.77-5.46-19.99,12.29-2.86,36.6-16.17,38.74-46.77Z"/>
    <path class="cls-8" d="m364.83,403.02c6.87,12.16,6.81,25.7,3.24,39.23-1.89,7.57-9.26,11.29-16.87,12.14.8.5,1.7.8,2.71.86,10.43.62,28.88-.94,29.99-14.16-.06-4.47-1.56-5.59-3.3-15.65-1.73-10.06-2.48-15.77-5.46-19.99,12.29-2.86,36.6-16.17,38.74-46.77l-.71-.5c-7.58,22.08-26.43,37.82-48.35,44.83Z"/>
    <path class="cls-2" d="m349.21,405.98c2.18-6.53,2.9-13.06,4.35-19.59,4.35-15.96,15.24-29.02,26.12-42.81,1.79-1.78,3.56-3.58,4.54-5.76l-.31-.22s-18.54,13.29-30.23,38.99c-3.87,7.45-4.43,12.48-5.54,16.95-1.12,4.47-5.77,9.38-4.28,22.57.97,8.56.53,22.22,2.94,30.93,3.39-13.32-1.76-27.86,2.41-41.06Z"/>
    <path class="cls-3" d="m357.89,455.92c-1.34,0-2.68-.04-4.01-.12-8.57-.51-9.27-15.81-9.89-29.31-.17-3.79-.34-7.36-.67-10.32-1.13-9.98,1.23-15.32,2.94-19.22.58-1.31,1.08-2.45,1.35-3.54.22-.88.42-1.77.62-2.71.86-3.9,1.83-8.31,4.97-14.36,6.47-14.22,15.1-24.93,21.51-31.64,5.09-5.33,9.51-7.35,9.51-7.35-.18.14-18.56,14.19-30.05,39.47-3.08,5.94-4.04,10.29-4.88,14.12-.21.94-.41,1.85-.63,2.74-.3,1.18-.81,2.36-1.41,3.72-1.67,3.79-3.95,8.97-2.86,18.66.34,2.99.5,6.59.68,10.39.57,12.39,1.28,27.82,8.87,28.27,4.7.28,28.19.94,29.41-13.66-.03-2.14-.43-3.53-1.03-5.63-.59-2.07-1.4-4.9-2.26-9.88l-.45-2.64c-1.42-8.35-2.28-13.39-4.92-17.13l-.47-.66.79-.18c12.34-2.87,36.22-16.23,38.32-46.28,0,0,0,11.77-4.64,20.93-8.08,15.94-23.32,23.82-32.67,26.22,2.44,3.85,3.29,8.88,4.66,16.92l.45,2.64c.85,4.92,1.65,7.72,2.23,9.76.62,2.18,1.04,3.62,1.07,5.97-.92,10.99-13.67,14.83-26.56,14.83Z"/>
    <path class="cls-3" d="m368.22,405.95c.06,0,5.89-.46,11.84-2.57l.36,1.03c-6.09,2.16-12.2,1.54-12.2,1.54Z"/>
    <g>
      <path class="cls-20" d="m373.41,467.92s.4-7,1.77-11.34c1.37-4.34,2.45-5.67,2.45-7.04,0-3.04-4.9-6.08-8.13-3.97-2.74,1.79-2.23,18.13,3.91,22.35Z"/>
      <path class="cls-16" d="m377.63,449.54c0-1.1-1.87-3.05-2.84-3.91-2.48,6.77-3.68,14.15-1.33,21.54.14-1.91.62-7.11,1.72-10.59,1.37-4.34,2.45-5.67,2.45-7.04Z"/>
      <path class="cls-6" d="m373.9,468.92l-.8-.55c-4.04-2.78-5.8-10.49-5.73-16.49.02-1.69.24-5.72,1.83-6.76.8-.52,1.72-.79,2.73-.79,1.47,0,3.01.58,4.25,1.58,1.27,1.04,2,2.36,2,3.64,0,.83-.33,1.61-.83,2.79-.43,1.01-1.01,2.39-1.65,4.41-1.33,4.22-1.74,11.14-1.74,11.2l-.06.96Zm-1.97-23.5c-.79,0-1.51.21-2.14.61-.64.42-1.3,2.39-1.34,5.86-.06,5.45,1.46,12.05,4.49,14.95.17-2.13.65-7.03,1.72-10.42.66-2.08,1.25-3.48,1.69-4.51.46-1.09.74-1.75.74-2.37,0-.95-.58-1.96-1.6-2.79-1.04-.85-2.34-1.34-3.56-1.34Z"/>
    </g>
    <g>
      <path class="cls-20" d="m353.17,469.16c.86,1.09,2.7-3.13,5.49-5.8,2.79-2.67,4-3.7,4.56-5.09.56-1.4.28-11.83-4.28-11.83-1.92.1-5.15,4.45-6.61,9.96-1.23,4.64-1.08,10.34.84,12.77Z"/>
      <path class="cls-16" d="m353.8,469.23c1-.6,2.63-3.73,4.86-5.87,2.79-2.67,4-3.7,4.56-5.09.29-.73.35-3.93-.3-6.81-5.33,4.11-7.88,11.22-9.12,17.78Z"/>
      <path class="cls-6" d="m353.49,469.88h0c-.29,0-.55-.14-.75-.38-2.16-2.74-2.1-8.87-.94-13.25,1.43-5.39,4.76-10.24,7.11-10.36h0c1.25,0,2.29.62,3.11,1.83,2.08,3.07,2.21,9.47,1.7,10.74-.53,1.33-1.53,2.28-3.71,4.35l-.99.94c-1.14,1.09-2.15,2.49-2.96,3.61-1.13,1.57-1.81,2.52-2.59,2.52Zm5.45-22.9c-1.42.08-4.59,3.92-6.09,9.55-1.25,4.72-.95,10.05.69,12.22.35-.22,1.07-1.21,1.66-2.03.84-1.16,1.87-2.6,3.09-3.76l.99-.94c2.06-1.96,3-2.85,3.44-3.96.36-.91.3-6.92-1.59-9.73-.62-.91-1.33-1.35-2.18-1.35Z"/>
    </g>
    <g>
      <path class="cls-20" d="m340.03,461.27c.43,1.03,2.78-1.84,5.54-3.3,2.75-1.46,4.05-2.56,4.79-3.52s-1.91-8.01-3.92-8.82c-.84-.04-1.85.51-4.2,4.47-1.98,3.34-3.17,8.86-2.21,11.17Z"/>
      <path class="cls-16" d="m340.02,461.25s0,.02,0,.02c.43,1.03,2.78-1.84,5.54-3.3,2.75-1.46,4.05-2.56,4.79-3.52.34-.44-.03-2.13-.72-3.93-3.92,2.84-7.62,5.79-9.62,10.72Z"/>
      <path class="cls-6" d="m340.34,462.04h0c-.36,0-.67-.21-.81-.55-1.08-2.61.32-8.4,2.24-11.66,2.34-3.95,3.49-4.74,4.59-4.74l.28.04c1.68.67,3.42,4.52,4.08,6.9.51,1.88.29,2.47.07,2.75-.93,1.21-2.46,2.34-4.97,3.67-1.12.59-2.2,1.45-3.07,2.15-1.19.94-1.83,1.44-2.41,1.44Zm5.99-15.86c-.6.05-1.52.65-3.62,4.2-1.91,3.23-2.98,8.34-2.24,10.52.35-.16,1.03-.7,1.6-1.16.91-.72,2.03-1.62,3.24-2.25,2.33-1.24,3.79-2.31,4.61-3.37.1-.23-.06-1.61-.95-3.79-.85-2.08-1.92-3.75-2.66-4.14Z"/>
    </g>
    <path class="cls-9" d="m384.74,299.85c-2.79-6.8-8.97-26.36-22.27-26.88l-9.05,9.86s-3.6,17.33,9.62,28.69c-5.22,3.98-10.43,5.66-14.9,8.45-4.47,2.79-11.83,9.69-11.83,18.35.19,4.1,9.81,9.31,19.71,8.66,9.91-.65,11.95-13.05,11.95-13.05,0,0,16.58-.46,20.02-11.45,1.77-6.61-.47-15.83-3.26-22.63Z"/>
    <path class="cls-8" d="m384.74,299.85c-2.64-6.44-8.33-24.3-20.2-26.63,13.9,10.5,19.5,34.79,15.87,45.7-1.28,3.83-8.73,8.78-14.45,6.46-4.4,11.95-18.18,19.25-29.59,13.36.79,4.02,10.09,8.87,19.66,8.24,9.91-.65,11.95-13.05,11.95-13.05,0,0,16.58-.46,20.02-11.45,1.77-6.61-.47-15.83-3.26-22.63Z"/>
    <path class="cls-2" d="m378.01,308.62c-5.08-2.18-11.03.12-14.65-2.06-6-4.91-8.46-11.35-10.26-21.26-.44,5.19-.24,17.47,9.95,26.21-5.22,3.98-10.43,5.66-14.9,8.45-4.39,2.74-11.57,9.45-11.82,17.9,5.01-10.16,10.42-13.99,17.67-17.53,10.33-5.06,13.05-10.21,24.02-11.71Z"/>
    <path class="cls-3" d="m354.28,347.58c-7.01,0-13.22-2.68-16.23-5.37-1.43-1.28-2.22-2.62-2.28-3.87,0-8.91,7.59-16.03,12.08-18.83,1.77-1.11,3.63-2.03,5.6-3,2.84-1.41,5.78-2.86,8.73-5.02-7.36-6.62-9.32-15.15-9.67-21.19-.25-4.41,1.44-7.35,1.44-7.35-.03.17-3.37,17.16,9.45,28.16l.51.44-.53.41c-3.21,2.45-6.38,4.02-9.44,5.53-1.94.96-3.78,1.87-5.51,2.95-4.3,2.69-11.57,9.47-11.57,17.89.04.92.71,2,1.92,3.08,3.19,2.86,10.13,5.51,17.21,5.04,9.37-.62,11.43-12.47,11.45-12.59l.07-.44h.45c.16-.02,16.23-.59,19.52-11.08,2.16-8.07-1.94-19.08-3.24-22.26-.27-.67-.58-1.46-.93-2.34-2.99-7.71-9.22-23.75-20.86-24.2,0,0,4.49-.95,9.93,3.28,6.53,5.07,9.83,15.08,11.95,20.53.34.88.64,1.66.92,2.32,1.34,3.26,5.54,14.55,3.28,22.98-3.25,10.37-17.37,11.67-20.1,11.83-.49,2.25-3.23,12.46-12.37,13.07-.6.04-1.19.06-1.78.06Z"/>
    <path class="cls-3" d="m359.5,314.54l-.55-.94c1.06-.63,2.25-1.45,3.03-2,.39-.27.68-.48.82-.56,1.94-1.18,3.8-2,5.52-2.56,6.01-1.95,10.26.39,10.26.39-.07-.02-6.93-1.94-15.21,3.1-.13.08-.41.27-.77.52-.8.56-2.01,1.4-3.1,2.04Z"/>
    <path class="cls-3" d="m368.25,335.22l-1.04-.32c.66-2.1-.15-5.2-.16-5.23,0,0,1.95,3.15,1.2,5.56Z"/>
    <path class="cls-15" d="m357.42,264.99s16.73,13.94,50.14,4c33.4-9.93,62.21-22.03,82.7-21.94,11.05-21.27,17.51-25.99,17.51-25.99,0,0,2.24-15.83,3.54-17.69,1.3-1.86,13.6-.37,14.34,0-.19-5.03-.56-9.31,1.3-10.8,1.86-1.49,8.2,1.68,8.2,1.68,0,0,11.18-15.09,16.21-16.39-.56-18.63-2.79-61.84,10.43-70.78-19.37,2.24-79.72,16.39-104.12,27.19-13.6,5.22-21.67,8.32-29.37,29.43-7.7,21.11-19.79,93.81-70.87,101.3Z"/>
    <path class="cls-18" d="m480.53,140.44c10.16-6.53,63.59-27.21,79.1-33.1-21.35,2.94-78.41,16.49-101.97,26.92-13.6,5.22-21.67,8.32-29.37,29.43-7.7,21.11-19.79,93.81-70.87,101.3,0,0,1.87,1.55,5.58,3.24,48.06.19,66.26-51.87,76.17-91.52,17.23,17.05,49.11,67.64,50.49,70.34.2,0,.4,0,.59,0,.11-.21.22-.41.32-.62-2.25-30.07-11.92-59.55-26.74-86.41,29.26,4.59,57.65,12.15,86.31,18.33.41-.22.79-.39,1.15-.49-3.44-3.72-47.55-35.98-70.77-37.43Z"/>
    <path class="cls-17" d="m384.68,273.11h0c-18.15,0-27.23-7.39-27.61-7.7l-.94-.78,1.21-.18c42.89-6.29,58.21-59.42,66.45-87.96,1.51-5.22,2.81-9.73,3.99-12.99,7.79-21.35,16.03-24.51,29.68-29.75,24.92-11.04,85.21-25.03,104.25-27.23l2.21-.26-1.84,1.25c-12.22,8.26-10.92,47.85-10.3,66.88.04,1.22.08,2.37.11,3.44v.43s-.41.11-.41.11c-4.79,1.24-15.79,16.04-15.9,16.19l-.27.37-.41-.2s-4.07-2.02-6.48-2.02c-.52,0-.91.1-1.14.28-1.48,1.18-1.33,4.79-1.15,8.98l.09,2.3-.82-.41c-.52-.21-5.38-.86-9.32-.86-3.67,0-4.26.57-4.34.69-.9,1.29-2.56,11.15-3.45,17.46l-.03.23-.18.14c-.06.05-6.52,4.96-17.35,25.8l-.15.29h-.55c-14.64,0-33.56,6.2-55.46,13.39-8.62,2.83-17.52,5.75-26.87,8.53-8.02,2.39-15.77,3.6-23.03,3.6Zm-25.87-7.79c2.86,1.89,11.54,6.7,25.87,6.7h0c7.16,0,14.8-1.19,22.72-3.55,9.33-2.77,18.23-5.7,26.84-8.52,21.93-7.2,40.88-13.41,55.68-13.44,10-19.18,16.18-24.8,17.33-25.74.34-2.41,2.31-15.87,3.6-17.71.35-.49,1.26-1.15,5.23-1.15,3.17,0,7.23.44,8.99.77l-.03-.66c-.19-4.66-.34-8.35,1.56-9.87.43-.34,1.04-.52,1.82-.52,2.21,0,5.42,1.4,6.55,1.93,1.73-2.3,10.92-14.29,15.82-16.1-.03-.95-.06-1.96-.1-3.02-.65-19.83-1.83-56.03,9.26-66.59-20.8,2.82-77.98,16.25-102.08,26.91-13.39,5.14-21.46,8.23-29.08,29.12-1.18,3.22-2.47,7.71-3.97,12.91-8.22,28.49-23.44,81.26-66.02,88.53Z"/>
    <g>
      <path class="cls-9" d="m448.91,142.83c13.04-6.71,71.84-28.31,112.88-35.76-20.86-.75-48.06,4.1-79.72,14.9-31.66,10.8-51.04,13.22-55.32,24.59-4.28,11.36-7.64,27.01-18.44,52.53-10.8,25.52-26.08,45.26-26.08,45.26,0,0-41.82.13-44.98,19.31l20.17,5.34s27.66-4.22,39.08-17.38c11.42-13.16,20.66-38.74,28.34-61.59,7.68-22.85,12.52-33.4,12.52-33.4,0,0,37.63,44.16,52.9,90.44-4.47-24.5-27.57-77.77-46.19-96.77,12.29,1.49,78.98,12.67,107.29,27.57-15.65-11.18-67.8-32.78-102.45-35.02Z"/>
      <path class="cls-8" d="m422.49,185.42c-7.98,18.14-19.27,41.75-27.98,59.16-7.25,14.51-32.04,13.12-38.66,24,0,0,3.54.11,6.64-.58,8.53-1.9,25.63-6.74,34.01-16.39,11.42-13.16,20.66-38.74,28.34-61.59,6.83-20.34,11.42-30.93,12.34-33.01l-1.48-5.54c-4.87,10.62-8.36,22.85-13.22,33.96Z"/>
      <path class="cls-8" d="m449.45,142.56c14.04-7,71.84-28.14,112.34-35.49-1.08-.04-2.19-.05-3.3-.06-40.22,5.7-83.45,17.87-116.78,37.29,0,0,51.61,8.65,75.82,17.91,6.53,2.18,13.06,5.8,20.31,9.43.54.21,1.04.53,1.53.91,4.46,1.7,8.51,3.48,11.98,5.3-15.65-11.18-67.8-32.78-102.45-35.02.17-.09.35-.18.54-.27Z"/>
      <path class="cls-8" d="m438.26,147.73c15.67,22.46,38.95,58.32,48.18,88.89,1.38,3.45,2.67,6.94,3.82,10.43-4.47-24.5-27.57-77.77-46.19-96.77.43.05-3.08-2.39-5.8-2.55Z"/>
      <path class="cls-3" d="m357.34,268.45c.27-.04,27.59-4.34,38.76-17.2,11.44-13.18,20.57-38.61,28.23-61.41,7.6-22.61,12.49-33.35,12.54-33.46l.36-.78.55.65c.35.41,33.12,39.15,49.76,81.65-7.31-26.17-27.09-70.15-43.86-87.25l-1.09-1.11,1.54.19c8.55,1.04,66.62,10.34,98.98,23.7-20.98-11.51-64.39-28.14-94.24-30.06l-1.96-.13,1.75-.9c13.07-6.72,67.16-26.59,107.77-34.8-20.46.18-45.95,5.31-74.19,14.94-8.11,2.77-15.42,4.99-21.86,6.94-18.73,5.69-30.03,9.12-33.12,17.32-1.45,3.84-2.8,8.19-4.36,13.24-3.09,9.99-6.94,22.43-14.09,39.31-10.71,25.29-25.99,45.18-26.15,45.38l-.16.21h-.26c-.42,0-41.88.78-44.93,19.29,0,0-.79-4.33,3.33-8.42,11.02-10.95,38.05-11.88,41.31-11.95,1.65-2.18,15.78-21.16,25.85-44.93,7.13-16.83,10.97-29.24,14.05-39.21,1.57-5.06,2.92-9.43,4.38-13.3,3.28-8.71,14.78-12.2,33.83-17.98,6.44-1.95,13.73-4.17,21.83-6.93,30.87-10.53,58.51-15.7,79.92-14.93l5.03.18-4.95.9c-38.65,7.02-94.83,27.22-110.94,34.83,34.6,2.92,85.62,24.18,100.72,34.97l-.57.92c-27.92-14.7-91.95-25.42-105.58-27.31,18.86,20.34,41.05,72.77,45.27,95.93l-1.05.27c-14.05-42.58-47.51-83.88-52.24-89.59-1.25,2.85-5.73,13.45-12.15,32.56-7.69,22.9-16.87,48.44-28.44,61.77-8.2,9.45-24.34,14.29-33.23,16.34-3.49.81-6.35.15-6.35.15Z"/>
    </g>
    <path class="cls-3" d="m388.6,245.2c-.07,0-6.77-.34-10.43-.12l-.06-1.09c3.72-.22,10.5,1.21,10.5,1.21Z"/>
    <g>
      <path class="cls-20" d="m396.63,149.41c.55,1.41,5.71-2.36,13.41-1.99,7.7.37,10.81,4.78,14.17,6.52,3.37,1.74,8.02-1.89,9.14-8.22,1.12-6.33-4.28-9.5-11.64-9.97-3.47-.22-10.2.04-15.46,2.98-5.9,3.29-10.13,9.38-9.62,10.68Z"/>
      <path class="cls-16" d="m410.15,144.07c-4.63.74-9.88,1.33-13.52,4.76-.05.24-.06.44,0,.58.55,1.41,5.71-2.36,13.41-1.99,7.7.37,10.81,4.78,14.17,6.52,2.96,1.53,6.9-1.09,8.58-6.03-7.43-1.02-15.02-5.06-22.64-3.84Z"/>
      <path class="cls-6" d="m426.01,154.92c-.72,0-1.41-.17-2.05-.5-.97-.5-1.91-1.21-2.91-1.96-2.64-1.98-5.63-4.23-11.04-4.5-4.31-.21-7.85.93-10.14,1.66-1.18.38-2.03.65-2.64.65h0c-.74,0-1.01-.42-1.11-.66-.69-1.76,3.92-8.04,9.86-11.35,4.84-2.7,10.7-3.11,13.76-3.11.69,0,1.37.02,2,.06,4.99.32,8.81,1.85,10.76,4.33,1.35,1.72,1.82,3.83,1.38,6.27-.92,5.19-4.3,9.11-7.88,9.11Zm-17.05-8.07c.36,0,.73,0,1.11.03,5.74.28,9.01,2.74,11.64,4.71.96.72,1.87,1.4,2.76,1.86.48.25,1,.37,1.55.37,2.64,0,5.9-3.07,6.81-8.21.38-2.13-.02-3.95-1.17-5.41-1.75-2.23-5.29-3.62-9.97-3.92-.61-.04-1.26-.06-1.93-.06-2.95,0-8.6.39-13.23,2.97-6.01,3.36-9.55,9.01-9.39,9.98.02,0,.05,0,.1,0h0c.44,0,1.31-.28,2.31-.6,2.16-.69,5.42-1.73,9.42-1.73Z"/>
    </g>
    <g>
      <path class="cls-12" d="m229.02,243.04s16.11-8.85,25.15-4.38c2.05,1.02-.96,11.04-1.11,10.97-.14-.07-24.04-6.59-24.04-6.59Z"/>
      <path class="cls-3" d="m253.06,250.17h-.13l-.12-.06c-.41-.13-15.84-4.34-23.94-6.55l-1.3-.35,1.18-.65c.42-.23,10.49-5.71,19.27-5.71,2.47,0,4.61.44,6.38,1.32.47.24,1.9.95.23,8.02-.94,3.98-1.19,3.98-1.57,3.98Zm-22.54-7.29c16.29,4.45,20.9,5.72,22.23,6.09.68-1.93,2.4-9.22,1.17-9.83-1.61-.8-3.6-1.2-5.9-1.2-6.75,0-14.54,3.48-17.51,4.94Z"/>
    </g>
    <g>
      <path class="cls-19" d="m164.73,343.5s2.98,9.5,6.71,11.36c.68,0-.93-10.74-.93-10.74,0,0-.68.25-5.77-.62Z"/>
      <path class="cls-13" d="m170.51,344.12s-.36.12-2.4-.12c.26,4.02,1.73,7.44,3.4,10.81.49-.78-1-10.69-1-10.69Z"/>
      <path class="cls-5" d="m171.44,355.4h-.13l-.11-.06c-3.89-1.94-6.86-11.29-6.98-11.69l-.27-.85.88.15c4.43.76,5.4.66,5.55.63l.63-.23.05.67c1.55,10.34,1.03,10.95.86,11.15l-.16.19-.31.03Zm-5.9-11.22c.76,2.16,2.95,7.86,5.53,9.8,0-1.54-.47-5.54-1.03-9.29-.64,0-1.93-.1-4.5-.51Z"/>
    </g>
    <g>
      <path class="cls-19" d="m177.43,343.5s4.56,8.32,8.94,10.09c.65.09-1.77-11.73-1.77-11.73,0,0-3.82,1.52-7.17,1.65Z"/>
      <path class="cls-13" d="m184.6,341.85s-1.39.55-3.23,1.02c1.08,3.62,2.57,7.52,4.95,10.69.02,0,.03.01.05.02.65.09-1.77-11.73-1.77-11.73Z"/>
      <path class="cls-5" d="m186.38,354.13l-.21-.04c-4.51-1.82-9.02-9.99-9.21-10.33l-.42-.77.88-.03c3.22-.12,6.95-1.59,6.99-1.61l.6-.24.13.64c2.33,11.4,1.89,11.94,1.71,12.17l-.16.2-.3.02Zm-8.04-10.15c1.14,1.92,4.39,7.02,7.59,8.79-.12-1.63-.89-6.03-1.73-10.19-1.09.39-3.48,1.16-5.86,1.4Z"/>
    </g>
    <g>
      <path class="cls-9" d="m161.2,325.96c.24,3.88-2.17,7.18-5.38,7.37-3.21.19-6-2.79-6.23-6.67-.24-3.88,2.17-7.18,5.38-7.37,3.21-.2,6,2.79,6.23,6.67Z"/>
      <g class="cls-21">
        <path class="cls-19" d="m159.06,320.97c-1.11-1.12-2.55-1.76-4.09-1.67-3.21.19-5.61,3.5-5.38,7.37.04.62.15,1.22.31,1.79.93-4.54,4.87-7.27,9.16-7.49Z"/>
      </g>
      <path class="cls-8" d="m153.32,329.8c-.87.56-2.13.33-3.08-.38,1.04,2.44,3.2,4.06,5.59,3.91,3.21-.19,5.61-3.5,5.38-7.37-.11-1.84-.81-3.48-1.84-4.67-2.68,1.64-3.2,6.69-6.04,8.51Z"/>
      <path class="cls-3" d="m155.53,333.89c-3.39,0-6.23-3.16-6.48-7.19-.25-4.17,2.39-7.73,5.89-7.95,3.52-.22,6.55,3.02,6.81,7.18.25,4.17-2.39,7.73-5.89,7.95-.11,0-.22,0-.33,0Zm-.26-14.05c-.09,0-.18,0-.26,0-2.9.18-5.08,3.23-4.87,6.8.22,3.56,2.73,6.33,5.66,6.16,2.9-.18,5.08-3.23,4.87-6.8-.21-3.46-2.58-6.16-5.39-6.16Z"/>
    </g>
    <g>
      <g>
        <path class="cls-19" d="m192.1,257.61s-.8-42.02,14.75-52.7c1.89-.75,1.69,5.91.53,13.78-1.99,13.41-.87,29.93-.87,29.93l-14.41,8.99Z"/>
        <path class="cls-16" d="m207.36,204.91c-4.41,15.58-7.08,31.83-7.78,48.04l6.94-4.32s-1.12-16.52.87-29.93c1.05-7.1,1.32-13.2-.03-13.79Z"/>
        <path class="cls-6" d="m191.58,258.58l-.02-.96c-.03-1.73-.62-42.43,14.99-53.15l.11-.06c.16-.06.32-.09.47-.09.24,0,.58.07.89.43,1.47,1.71.57,9.53-.1,14.04-1.95,13.2-.88,29.65-.86,29.81l.02.33-15.5,9.66Zm15.53-53.17c-13.78,9.56-14.45,44.91-14.46,51.23l13.31-8.3c-.14-2.39-.92-17.44.89-29.72,1.27-8.55.98-12.44.35-13.17-.02-.02-.03-.06-.09-.05Z"/>
      </g>
      <path class="cls-6" d="m199.29,242.45c-4.09,0-6.56-2.07-6.6-2.11l.71-.82c.2.17,5.02,4.16,12.55-.06l.53.95c-2.73,1.53-5.16,2.04-7.19,2.04Z"/>
      <path class="cls-6" d="m204.51,225.96c-5.11,0-8.2-2.68-8.35-2.81l.72-.81s3.78,3.26,9.69,2.38l.16,1.08c-.78.12-1.52.17-2.23.17Z"/>
    </g>
    <g>
      <path class="cls-9" d="m180.22,310.09s-11.55-5.49-17.97-.47c-6.43,5.03-12.56,17.97-1.03,33.37,3.95,2.98,21.83,2.86,29.28-2.86,7.45-5.71,7.33-9.03,10.93-13.83,3.6-4.05,11.05-5.42,11.05-5.42,0,0-3.35,12.91-7.33,20.49-3.97,7.57-8.69,13.04-6.58,18.13,2.11,5.09,12.17,6.58,19.74,4.59,7.57-1.99,9.81-4.35,12.67-11.92,2.86-7.57,4.97-13.85,13.16-18.85,8.2-4.99,23.84-13.07,29.55-19.9,5.71-6.83,15.02-33.15-9.56-56.62-11.55-10.43-48.68-25.58-69.54-1.74-11.18,10.56-14.9,23.16-12.67,38,2.28,15.12-1.71,17.01-1.71,17.01Z"/>
      <path class="cls-2" d="m210.23,274.89s.03-13.03,9.95-17.88c9.92-4.84,18.3,5.16,19.55,6.45-8.29-7.22-25.43-6.36-29.5,11.43Z"/>
      <g>
        <path class="cls-2" d="m192.5,296.43c2.33-30.37,26.44-53.21,43.36-52.77-2.6-.54-5.26-.92-7.94-1.12-22.78,6.06-34.77,30.87-35.42,53.89Z"/>
        <path class="cls-2" d="m216.73,242.96c-8.09,1.3-15.85,4.94-22.13,12.12-11.18,10.56-14.9,23.16-12.67,38,2.28,15.12-1.71,17.01-1.71,17.01,0,0-11.55-5.49-17.97-.47-5.86,4.58-11.46,15.74-3.69,29.33-4.3-26.21,8.31-30.21,24.23-27.45,0,0,2.5-2.88,2.96-9.28.47-6.63-1.01-16.84-.69-20.1,2.11-21.74,23.22-41.18,31.68-39.17Z"/>
      </g>
      <path class="cls-8" d="m219.86,265.95c-10.12,6.95-3.92,32.51,4.4,35.31,8.32,2.43,22.47-3.67,23.92-12.23,1.45-8.56-11.67-34.51-28.33-23.08Z"/>
      <path class="cls-8" d="m255.62,294.25c-18.8,16.27-35.29,14.23-51.26,25.16-9.52,6.52-9.8,13.62-19.48,18.6-9.2,4.73-22.01,4.17-26.46.71.79,1.4,1.72,2.83,2.8,4.28,3.95,2.98,21.83,2.86,29.28-2.86,7.45-5.71,7.33-9.03,10.93-13.83,3.6-4.05,11.05-5.42,11.05-5.42,0,0-.11.41-.3,1.12,16.38-5.55,35.71-10.18,43.44-27.77Z"/>
      <path class="cls-8" d="m264.14,256.82c-5.09-4.6-22.18-13.79-35.11-13.78,20.03,1.26,34.46,29.01,38.59,40.62,4.95,13.93,1.02,28.58-7.13,40.03,5.41-3.38,10.47-6.96,13.22-10.24,5.71-6.83,15.02-33.15-9.56-56.62Z"/>
      <path class="cls-3" d="m211.49,365.5c-5.33,0-11.66-1.52-13.42-5.78-1.73-4.17.73-8.37,3.84-13.69.91-1.56,1.85-3.16,2.76-4.9,3.31-6.31,6.23-16.5,7.05-19.51-2.03.49-7.16,1.99-9.89,5.05-1.09,1.46-1.86,2.83-2.6,4.15-1.66,2.97-3.23,5.78-8.41,9.75-4.71,3.61-13.08,4.9-19.34,4.9-4.95,0-8.91-.76-10.6-2.04l-.11-.11c-11.51-15.38-5.63-28.83,1.13-34.13,1.9-1.48,4.38-2.24,7.39-2.24,4.88,0,9.63,1.96,10.86,2.5.68-.64,3.11-3.88,1.23-16.3-2.34-15.53,1.86-28.11,12.83-38.47,7.44-8.51,17.5-12.84,29.86-12.84,15.77,0,32.59,7.51,40.41,14.58,13.44,12.83,16.3,26.09,16.32,34.95.03,9.86-3.46,18.54-6.71,22.42-4.55,5.44-15.1,11.53-23.58,16.43-2.24,1.29-4.36,2.52-6.11,3.58-7.73,4.71-9.88,10.45-12.62,17.72l-.32.85c-3.01,7.97-5.44,10.26-13.04,12.26-2.16.57-4.57.87-6.96.87Zm1.73-45.29l-.21.83c-.03.13-3.41,13.06-7.37,20.6-.92,1.76-1.87,3.38-2.78,4.94-2.96,5.06-5.3,9.06-3.78,12.73,1.29,3.1,6.16,5.11,12.42,5.11,2.3,0,4.61-.29,6.68-.83,7.23-1.9,9.42-3.95,12.3-11.59l.32-.85c2.69-7.17,5.02-13.36,13.07-18.27,1.76-1.07,3.88-2.3,6.13-3.6,8.4-4.85,18.86-10.89,23.29-16.18,3.13-3.74,6.48-12.13,6.45-21.72-.03-8.65-2.82-21.6-15.97-34.16-6.11-5.52-22.29-14.28-39.67-14.28-12.03,0-21.82,4.21-29.08,12.51-10.73,10.14-14.82,22.41-12.54,37.56,2.27,15.08-1.57,17.37-2.01,17.58l-.23.11-.23-.11c-.05-.03-5.39-2.53-10.69-2.53-2.76,0-5.02.67-6.72,2.01-5.52,4.32-12.82,16.68-.98,32.55,1.53,1.1,5.3,1.78,9.89,1.78,6.08,0,14.18-1.23,18.68-4.67,5-3.83,6.51-6.54,8.12-9.42.76-1.35,1.54-2.75,2.7-4.31,3.71-4.18,11.08-5.57,11.39-5.63l.84-.15Z"/>
    </g>
    <path class="cls-3" d="m173.55,336.37c-.07-.05-6.82-4.72-4.5-12.74,1.25-4.31,3.52-5.68,5.2-6.06,2.5-.58,5.01.7,6.37,2.22,0,0-3.01-1.99-6.13-1.16-1.99.53-3.53,2.3-4.4,5.31-2.1,7.27,3.46,12.44,3.46,12.44Z"/>
    <g>
      <path class="cls-3" d="m179.98,329.23c0,2.55-1.06,4.61-2.36,4.61s-2.36-2.06-2.36-4.61,1.06-4.61,2.36-4.61,2.36,2.06,2.36,4.61Z"/>
      <path class="cls-3" d="m177.62,334.39c-1.63,0-2.9-2.26-2.9-5.15s1.28-5.15,2.9-5.15,2.9,2.26,2.9,5.15-1.28,5.15-2.9,5.15Zm0-9.22c-.86,0-1.82,1.67-1.82,4.07s.96,4.07,1.82,4.07,1.82-1.67,1.82-4.07-.96-4.07-1.82-4.07Z"/>
    </g>
    <g>
      <path class="cls-19" d="m205.32,325.7c-.47.95,1.45,7.06,4.22,9.68,2.06-.58,2.49-6.98,2.49-6.98,0,0-6.05-4-6.71-2.7Z"/>
      <path class="cls-13" d="m211.64,331.21c.29-1.49.38-2.81.38-2.81,0,0-6.05-4-6.71-2.7-.03.06-.05.14-.06.24,1.9,2.18,3.99,3.97,6.39,5.27Z"/>
      <path class="cls-5" d="m209.38,335.99l-.22-.21c-2.77-2.61-4.99-8.99-4.33-10.32.1-.21.38-.56,1.05-.56,1.78,0,5.97,2.74,6.45,3.05l.26.17-.02.32c-.08,1.13-.58,6.81-2.88,7.46l-.3.08Zm-3.59-10c-.2.91,1.42,6.19,3.85,8.73.97-.72,1.62-3.76,1.81-6.04-1.72-1.11-4.54-2.7-5.58-2.7-.04,0-.07,0-.09,0Z"/>
    </g>
    <g>
      <path class="cls-15" d="m205.15,341.39c-3.97,7.57-8.69,13.04-6.58,18.13,2.11,5.09,12.17,6.58,19.74,4.59,7.57-1.99,9.81-4.35,12.67-11.92,2.86-7.57,4.97-13.85,13.16-18.85,8.2-4.99,23.84-13.07,29.55-19.9,3.57-4.27,8.55-16.17,5.77-30.22-5.73-.95-18.71-1.31-28.12,11.99-3.6,4.32-4.56,7.3-10.45,11.72-9.67,7.26-30.06,11.78-35.28,16.32h0c3.36-1.71,6.86-2.35,6.86-2.35,0,0-3.35,12.91-7.33,20.49Z"/>
      <path class="cls-18" d="m255.62,294.25c-2.13,2.27-6.02,4.82-8.25,6.03-2.1,2.91-2.01,3.3-6.47,6.65-9.67,7.26-30.06,11.77-35.28,16.32h0c3.36-1.71,6.86-2.35,6.86-2.35,0,0-.11.41-.3,1.12,16.38-5.55,35.71-10.18,43.44-27.77Z"/>
      <path class="cls-18" d="m279.47,283.52c-3.09-.51-6.23-1.74-11.85.15,3.6,12.86,2.05,26.96-10.45,35.71-6.53,4.35-18.29,10.76-22.65,16.57-9.1,14.7-9.38,27.48-32.52,27.3,4.14,2.22,10.87,2.59,16.32,1.16,7.57-1.99,9.81-4.35,12.67-11.92,2.86-7.57,4.97-13.85,13.16-18.85,8.2-4.99,23.84-13.07,29.55-19.9,3.57-4.27,8.55-16.17,5.77-30.22Z"/>
      <path class="cls-17" d="m211.49,365.5h0c-5.33,0-11.66-1.52-13.42-5.78-1.73-4.17.73-8.37,3.84-13.69.91-1.56,1.85-3.16,2.76-4.9,3.31-6.31,6.23-16.5,7.05-19.51-1.23.3-3.59.96-5.85,2.11l-3.12,2.05,2.51-2.95c2.46-2.14,7.98-4.2,14.37-6.58,7.39-2.75,15.76-5.87,20.94-9.76,4.05-3.04,5.69-5.33,7.59-7.99.82-1.14,1.67-2.33,2.76-3.64,7.36-10.39,16.91-12.58,23.62-12.58,1.68,0,3.37.14,5.01.41l.37.06.07.37c2.78,14.02-2,26.03-5.89,30.67-4.55,5.44-15.1,11.53-23.58,16.43-2.24,1.29-4.36,2.52-6.11,3.58-7.73,4.71-9.88,10.45-12.62,17.72l-.32.85c-3.01,7.97-5.44,10.26-13.04,12.26-2.16.57-4.57.87-6.96.87Zm1.73-45.29l-.21.83c-.03.13-3.41,13.06-7.37,20.6-.92,1.76-1.87,3.38-2.78,4.94-2.96,5.06-5.3,9.06-3.78,12.73,1.29,3.1,6.16,5.11,12.42,5.11h0c2.3,0,4.61-.29,6.68-.83,7.23-1.9,9.42-3.95,12.3-11.59l.32-.85c2.69-7.17,5.02-13.36,13.07-18.27,1.76-1.07,3.88-2.3,6.13-3.6,8.4-4.85,18.86-10.89,23.29-16.18,3.58-4.28,8.25-15.99,5.73-29.39-1.46-.22-2.96-.34-4.46-.34-6.45,0-15.64,2.11-22.76,12.16-1.1,1.32-1.93,2.48-2.74,3.61-1.87,2.61-3.64,5.08-7.83,8.22-5.31,3.99-13.76,7.14-21.22,9.91-2.96,1.1-5.84,2.17-8.28,3.22.38-.09.61-.13.65-.14l.84-.15Z"/>
    </g>
    <path class="cls-3" d="m178.37,309.92l.37-1.03c4.8,1.71,7.94,5.92,8.07,6.1,0,0-3.96-3.47-8.44-5.07Z"/>
    <g>
      <path class="cls-19" d="m206.19,337.5c-1.09.53-.8,8.81,2.46,11.52,2.05-1.54,4.34-4.04,4.34-4.04,0,0-5.59-8.07-6.8-7.48Z"/>
      <path class="cls-13" d="m212.99,344.98s-5.05-7.29-6.58-7.5c.97,3.66,2.54,6.74,4.7,9.42,1.08-1.04,1.89-1.91,1.89-1.91Z"/>
      <path class="cls-5" d="m208.63,349.71l-.33-.27c-2.82-2.34-3.45-8.18-3.16-10.65.12-1.01.38-1.57.81-1.78.12-.06.25-.09.38-.09,1.57,0,5.49,5.42,7.1,7.75l.25.36-.29.32c-.1.1-2.35,2.56-4.42,4.1l-.34.26Zm-2.23-11.68c-.11.24-.33,1.26-.21,3.12.16,2.35.91,5.54,2.48,7.15,1.46-1.15,2.98-2.72,3.61-3.38-2.25-3.21-5.01-6.6-5.89-6.9Z"/>
    </g>
    <g>
      <path class="cls-11" d="m212.45,337.38c-2.41,5.28-12.85,22.26-5.03,20.58h0c2.51-1.18,5.58-3.69,8.63-6,3.82-2.89,8.41-6.95,15.11-18.41,6.17-10.53,9.68-21.37,10.2-23.04-.13.02-.28.05-.42.08-6.27,3.86-14.37,6.47-21.25,8.37-1.09,3.16-3.89,11.05-7.25,18.41Z"/>
      <path class="cls-3" d="m241.37,310.52c-.13.02-.28.05-.42.08-3.81,2.34-8.29,4.22-12.76,5.77-2.29,6.75-1.56,14.31.27,21.61.87-1.34,1.77-2.8,2.71-4.42,6.17-10.53,9.68-21.37,10.2-23.04Z"/>
      <path class="cls-17" d="m206.44,358.63h0c-1.17,0-1.75-.55-2.03-1.01-1.53-2.53,1.62-9,5.58-16.58.82-1.57,1.53-2.92,1.96-3.88,3.36-7.36,6.17-15.29,7.23-18.36l.09-.27.28-.08c5.91-1.63,14.54-4.27,21.11-8.31l.09-.05,1.41-.26-.27.86c-.64,2.03-4.12,12.68-10.25,23.15-6.81,11.64-11.45,15.68-15.26,18.56-.53.4-1.05.8-1.58,1.2-2.58,1.98-5.02,3.85-7.15,4.85l-.12.04c-.4.09-.76.13-1.09.13Zm13.68-39.21c-1.13,3.26-3.89,10.99-7.17,18.19-.45.98-1.16,2.35-1.99,3.93-2.6,4.97-6.95,13.3-5.61,15.51.13.21.38.49,1.1.49h0c.24,0,.51-.03.8-.09,2.01-.96,4.39-2.78,6.9-4.7.53-.4,1.05-.81,1.58-1.21,3.73-2.82,8.26-6.78,14.97-18.25,5.3-9.06,8.61-18.25,9.78-21.77-6.48,3.8-14.62,6.31-20.36,7.9Z"/>
    </g>
    <g>
      <path class="cls-12" d="m191.49,296.81c.47.59,2.14-3.48,2.98-10.28.84-6.8,2.05-12.23,2.05-12.23,0,0-4.85-4.82-6.06-2.95-1.21,1.86-6.15,16.36,1.02,25.46Z"/>
      <path class="cls-3" d="m191.6,297.41h0c-.21,0-.4-.1-.53-.26-7.18-9.11-2.55-23.79-1.05-26.09.29-.44.74-.68,1.3-.68,1.98,0,5.24,3.18,5.6,3.54l.21.21-.07.29c-.01.05-1.22,5.48-2.04,12.18-.55,4.49-1.98,10.81-3.42,10.81Zm-.29-25.94c-.23,0-.32.09-.38.18-.81,1.24-6.07,15.25.69,24.42.56-1.03,1.67-4.34,2.32-9.6.72-5.85,1.73-10.75,2-11.98-1.3-1.25-3.53-3.02-4.62-3.02Z"/>
    </g>
    <g>
      <path class="cls-12" d="m201.67,261.42s9.56-12.05,17.48-15.86c-1.21-4.66-6.24-13.32-8.1-12.85-1.86.47-10,15.55-9.38,28.72Z"/>
      <path class="cls-3" d="m201.2,262.89l-.07-1.45c-.62-13.03,7.45-28.69,9.79-29.27.09-.02.19-.03.28-.03,2.5,0,7.39,9.1,8.48,13.28l.11.43-.4.19c-7.71,3.72-17.19,15.59-17.29,15.71l-.9,1.14Zm10-29.66c-1.44.49-9.02,13.93-9.02,26.71,2.56-3.06,9.84-11.35,16.32-14.67-1.42-4.89-5.94-12.04-7.31-12.04Z"/>
    </g>
    <path class="cls-3" d="m214.51,277.74s-.69-3.47,1.13-6.8c.95-1.75,2.31-3.55,4.22-5,1.51-1.14,3.2-2.05,5.11-2.42,4.44-.88,7.95.92,7.95.92-5.05-.84-9.22-.04-12.4,2.37-5.18,3.92-6.01,10.87-6.01,10.94Z"/>
    <path class="cls-3" d="m210.71,267.76c1.17-3.54,3.39-7.38,7.58-9.8,5.63-3.24,10.68-2.54,14.54-.77,4.76,2.18,6.9,6.71,6.9,6.71-.37-.48-9.17-11.74-20.9-4.99-8.71,5.01-8.33,17.14-8.33,17.26,0,0-1.22-4.1.21-8.41Z"/>
    <g>
      <path class="cls-10" d="m216.97,287.74l26.25-14.16s-8.71-11.09-18.34-6.34c-10.07,4.96-7.9,20.5-7.9,20.5Z"/>
      <path class="cls-19" d="m225.06,269.12c-7.85,3.36-10.74,21.88-3.23,29.93,5.57,5.97,28.02,2.11,25.79-14.16-1.37-9.31-10.1-21.11-22.56-15.77Z"/>
      <path class="cls-14" d="m247.62,284.89c-.53-3.58-2.15-7.53-4.65-10.73,1.71,7.5-1.43,15.72-7.67,20.82-4.48,2.56-9.53,3.43-14.65,2.59.36.52.75,1.02,1.18,1.47,5.57,5.97,28.02,2.11,25.79-14.16Z"/>
      <g>
        <path class="cls-4" d="m242.17,285.63c1.22,5.55-1.21,10.71-5.44,11.54-4.23.82-8.65-3.01-9.87-8.55-1.22-5.55,1.21-10.71,5.44-11.54,4.23-.82,8.65,3.01,9.87,8.55Z"/>
        <path class="cls-7" d="m233.48,291.43c-2.42,0-4.48-.84-6.41-2.02,1.45,5.11,5.64,8.54,9.66,7.75,4.18-.81,6.6-5.87,5.47-11.34-1.58,3.36-4.95,5.2-8.73,5.61Z"/>
        <path class="cls-10" d="m241.05,288.05c.84,3.82-.72,7.36-3.48,7.9-2.77.54-5.7-2.12-6.54-5.95-.84-3.82.71-7.36,3.48-7.9,2.77-.54,5.7,2.12,6.54,5.95Z"/>
        <path class="cls-19" d="m237.39,284.83c.2,1.57-.96,2.98-2.6,3.14-1.63.16-3.12-.98-3.31-2.55-.2-1.57.96-2.98,2.6-3.14,1.63-.16,3.12.98,3.31,2.55Z"/>
        <path class="cls-19" d="m235.62,293.41c.09.72-.44,1.37-1.19,1.44-.75.07-1.43-.45-1.53-1.17-.09-.72.44-1.37,1.2-1.44.75-.07,1.43.45,1.52,1.17Z"/>
        <path class="cls-3" d="m236.24,297.75c-4.32.43-8.66-3.54-9.87-9.05-1.28-5.81,1.33-11.26,5.82-12.13,4.51-.87,9.21,3.2,10.48,8.96,1.28,5.81-1.33,11.26-5.82,12.13-.2.04-.4.07-.6.09Zm-3.32-20.26c-.17.02-.34.04-.51.08-3.95.77-6.21,5.68-5.05,10.94,1.15,5.21,5.29,8.93,9.27,8.15,3.95-.77,6.21-5.68,5.05-10.94-1.1-4.99-4.95-8.6-8.75-8.23Z"/>
      </g>
      <path class="cls-3" d="m230.01,302.24h0c-3.78,0-6.9-1.03-8.58-2.82-3.96-4.24-5.5-11.87-3.91-19.43,1.19-5.66,3.93-9.91,7.32-11.37,2.13-.91,4.26-1.38,6.33-1.38,9.94,0,15.91,10.27,16.98,17.57.59,4.32-.49,8.19-3.13,11.22-3.99,4.58-10.37,6.21-15.02,6.21Zm1.16-33.91c-1.91,0-3.9.43-5.9,1.29-3.07,1.31-5.57,5.27-6.68,10.59-1.52,7.22-.09,14.47,3.64,18.46,1.47,1.57,4.31,2.48,7.78,2.48h0c5.53,0,11.11-2.29,14.2-5.83,2.46-2.82,3.43-6.31,2.87-10.35-1.01-6.9-6.62-16.63-15.91-16.63Z"/>
    </g>
    <path class="cls-3" d="m197.07,274.34l-1.09-.07c.04-.63,1.26-15.62,22.88-29.18,3.74-1.95,8.08-2.97,11.95-2.83l-.04,1.09c-3.69-.14-7.83.84-11.37,2.68-21.12,13.24-22.33,28.15-22.34,28.3Z"/>
    <g>
      <g>
        <path class="cls-19" d="m254.33,256.23c-.71,2.36,3.72,10.15,13.41,8.54,1.86-.75,6.33-9.69,9.06-24.84,2.73-15.15,2.61-27.44.87-27.81-1.74-.37-6.83,11.82-13.16,25.28-6.33,13.46-9.06,15.13-10.18,18.83Z"/>
        <path class="cls-16" d="m277.67,212.12s-.08,0-.12,0c-1.64,16.91-4.89,39.2-15,52.05,2.02.9,2.12,1.11,5.18.6,1.86-.75,6.33-9.69,9.06-24.84,2.73-15.15,2.61-27.44.87-27.81Z"/>
        <path class="cls-6" d="m265.18,265.53h0c-5.73,0-8.8-3.31-9.86-4.73-1.27-1.71-1.87-3.57-1.52-4.73.5-1.65,1.3-2.91,2.52-4.83,1.62-2.54,4.07-6.38,7.69-14.08,1.35-2.87,2.64-5.68,3.86-8.32,6.13-13.32,8.29-17.62,9.91-17.26,2.66.57,1.9,15.45-.45,28.44-2.73,15.11-7.21,24.37-9.4,25.25l-.11.03c-.9.15-1.79.23-2.64.23Zm12.38-52.86c-1.26.47-5.04,8.69-8.7,16.64-1.22,2.65-2.51,5.46-3.86,8.33-3.65,7.76-6.12,11.63-7.75,14.2-1.21,1.9-1.95,3.05-2.4,4.56-.21.69.19,2.2,1.35,3.76.96,1.29,3.75,4.29,8.99,4.29h0c.78,0,1.58-.07,2.4-.2,1.38-.69,5.86-8.73,8.69-24.41,2.77-15.37,2.42-26.2,1.3-27.17Z"/>
      </g>
      <path class="cls-6" d="m272.28,248.66c-8.16,0-11.04-4.86-11.17-5.09l.94-.54c.13.23,3.35,5.56,12.95,4.36l.14,1.08c-1.02.13-1.97.18-2.85.18Z"/>
      <path class="cls-6" d="m275.56,230.12c-4.25,0-6.66-2.23-6.78-2.35l.75-.79c.13.12,3.24,2.97,8.69,1.75l.24,1.06c-1.04.23-2.01.33-2.9.33Z"/>
    </g>
    <g>
      <path class="cls-19" d="m195.68,343.5c-1.09.53.84,8.35,4.1,11.07,2.05-1.54,2.7-3.58,2.7-3.58,0,0-5.59-8.07-6.8-7.48Z"/>
      <path class="cls-13" d="m202.48,350.98s-5.59-8.07-6.8-7.48c-.01,0-.02.02-.03.02,1.37,3.65,3.62,6.41,6.03,9.01.58-.87.8-1.56.8-1.56Z"/>
      <path class="cls-5" d="m199.76,355.26l-.33-.27c-2.93-2.44-4.84-8.74-4.58-10.93.06-.53.26-.88.59-1.04.12-.06.25-.09.38-.09,1.57,0,5.49,5.42,7.1,7.75l.15.22-.08.26c-.03.09-.73,2.23-2.89,3.86l-.34.26Zm-3.81-11.21c-.29,1.16,1.16,7.19,3.85,9.8,1.25-1.06,1.86-2.29,2.07-2.8-2.23-3.19-4.98-6.59-5.92-7Z"/>
    </g>
    <g>
      <path class="cls-20" d="m292.26,301.15c0,1.13-17.7,3.46-19.37,2.52-1.68-.94-1.86-5.59,0-6.43,1.86-.84,19.38,1.3,19.37,3.91Z"/>
      <path class="cls-16" d="m271.6,300.97c.12,1.19.57,2.3,1.29,2.7,1.68.94,19.37-1.39,19.37-2.52,0-.05-.02-.11-.03-.16-6.89.69-15.22.45-20.63-.03Z"/>
      <path class="cls-6" d="m274.81,304.44c-1.48,0-1.95-.15-2.19-.29-1.2-.67-1.67-2.56-1.6-4.14.07-1.61.68-2.83,1.64-3.26.22-.1.67-.23,2.01-.23,4.04,0,15.47,1.46,17.67,3.66.31.31.46.64.46.98,0,.49,0,1.16-7.31,2.26-4.02.61-8.32,1.02-10.68,1.02Zm-.14-6.83c-1.2,0-1.51.11-1.56.14-.57.26-.95,1.14-1,2.32-.06,1.42.39,2.77,1.04,3.14.03.02.31.15,1.66.15,4.88,0,15.12-1.54,16.82-2.35-.02-.02-.03-.04-.05-.06-1.69-1.69-11.92-3.34-16.9-3.34Z"/>
    </g>
    <g>
      <path class="cls-20" d="m297.76,284.74c.26,1.34-22.27,8.39-24.46,7.67-2.19-.72-3.48-6.18-1.48-7.59,2.01-1.42,25.35-3.16,25.94-.08Z"/>
      <path class="cls-16" d="m271.08,289.26c.39,1.48,1.21,2.81,2.21,3.15,2.2.72,24.72-6.33,24.46-7.67,0-.05-.04-.09-.06-.13-8.78,1.8-18.24,3.37-26.62,4.66Z"/>
      <path class="cls-6" d="m273.75,293c-.26,0-.46-.02-.63-.08-1.52-.5-2.5-2.65-2.77-4.43-.28-1.88.15-3.42,1.14-4.13,1.44-1.02,10.63-1.89,17.14-1.89,9.23,0,9.54,1.57,9.65,2.15.03.15.02.38-.19.63-1.6,1.94-20.81,7.74-24.35,7.74Zm14.89-9.44c-7.66,0-15.59,1.04-16.51,1.69-.64.46-.91,1.63-.7,3.08.26,1.73,1.13,3.26,2.03,3.56,0,0,.08.02.29.02,3.82,0,21.38-5.73,23.37-7.21-.35-.33-1.88-1.14-8.48-1.14Z"/>
    </g>
    <g>
      <path class="cls-20" d="m290.83,263.57c.6,1.22-19.87,15.24-22.18,15.12-2.31-.12-4.98-5.05-3.41-6.95,1.57-1.89,24.21-10.99,25.59-8.17Z"/>
      <path class="cls-16" d="m290.37,263.2c-7.83,5-17.88,10.73-24.49,13.34.76,1.18,1.8,2.1,2.77,2.15,2.31.12,22.78-13.89,22.18-15.12-.08-.17-.24-.29-.46-.37Z"/>
      <path class="cls-6" d="m268.69,279.24h-.06c-1.6-.09-3.1-1.9-3.83-3.56-.76-1.74-.75-3.34.03-4.28,1.6-1.93,18.97-8.91,24.44-8.91.41,0,1.64,0,2.05.84.12.25.08.53-.11.84-1.38,2.21-19.82,15.07-22.52,15.07Zm20.58-15.66c-5.41,0-22.44,7.11-23.6,8.51-.5.61-.45,1.82.13,3.15.7,1.61,1.95,2.85,2.89,2.9v.54s0-.54,0-.54c2.02,0,19.89-12.03,21.53-14.43-.15-.07-.43-.14-.95-.14Z"/>
    </g>
    <g>
      <g>
        <path class="cls-19" d="m209.28,340.46c-1.2-.77-.82,10.07,2.32,14.85,1.34-1.08,5.17-4.01,5.73-4.44-1.79-2.51-6.98-9.72-8.05-10.41Z"/>
        <path class="cls-13" d="m209.35,340.51c.68,4.51,3.35,8.47,5.87,12.32,1.36-1.05,1.8-1.73,2.12-1.97-1.76-2.46-6.79-9.45-7.98-10.35Z"/>
        <path class="cls-5" d="m211.47,356.11l-.33-.5c-2.88-4.39-3.51-13.73-2.68-15.27.22-.4.53-.47.7-.47.14,0,.28.04.41.13,1.09.7,5.61,6.91,8.2,10.55l.3.43-.63.48c-2.84,2.18-4.7,3.62-5.51,4.27l-.47.37Zm-2.16-14.91c-.35,1.82.09,9.19,2.43,13.3.94-.74,2.56-2,4.84-3.75-3.52-4.92-6.24-8.49-7.27-9.55Z"/>
      </g>
      <g>
        <path class="cls-19" d="m222.2,332.58c-1.01-.41.14,5.7,2.51,10.43,1.17-1.43,2.42-3.1,3.74-5.08-2.58-2.41-5.49-5.04-6.24-5.35Z"/>
        <path class="cls-13" d="m222.2,332.58c-.12-.05-.2,0-.26.12,1.48,2.53,3.16,5.01,5.21,7.11.42-.6.85-1.21,1.3-1.88-2.58-2.41-5.49-5.04-6.24-5.35Z"/>
        <path class="cls-5" d="m224.6,344.01l-.37-.75c-2.02-4.03-3.45-9.73-2.74-10.88.2-.32.57-.44.92-.3.28.11,1.03.42,6.41,5.46l.34.31-.26.38c-1.25,1.89-2.52,3.61-3.77,5.13l-.53.65Zm-2.23-10.7c-.01,1.28.81,5.1,2.46,8.69.96-1.21,1.94-2.55,2.91-3.99-3.34-3.12-4.76-4.28-5.37-4.7Z"/>
      </g>
    </g>
    <g>
      <path class="cls-19" d="m233.68,328.81s-4.38-4.07-4.5-7.8c.31-1.18,6.61.61,7.44,1.86-.9,1.97-2.93,5.94-2.93,5.94Z"/>
      <path class="cls-13" d="m235.14,325.93c.54-1.08,1.11-2.24,1.48-3.05-.72-1.1-5.69-2.61-7.08-2.16,2.51,1.2,4.27,3.04,5.6,5.21Z"/>
      <path class="cls-5" d="m233.84,329.7l-.53-.49c-.18-.17-4.54-4.27-4.67-8.18v-.08s.02-.08.02-.08c.14-.52.66-.79,1.55-.79,1.87,0,6.06,1.25,6.87,2.49l.17.25-.12.27c-.9,1.96-2.93,5.92-2.95,5.96l-.33.64Zm-4.1-8.48c.22,2.65,2.7,5.53,3.8,6.68.57-1.13,1.74-3.43,2.43-4.92-.89-.72-4.02-1.8-5.77-1.8-.24,0-.38.02-.46.04Z"/>
    </g>
    <g>
      <path class="cls-20" d="m356.34,359.02c-.99.08-3.79-5.53-4.28-8.69-.87-5.59.19-7.45,1.06-8.32.87-.87,5.41.81,5.66,3.1.24,2.3-.63,2.55-1.12,6.46-.5,3.91-.5,7.39-1.3,7.45Z"/>
      <path class="cls-16" d="m356.72,342.66c-1.83,5.26-1.86,10.63-.39,16.36h0c.81-.06.81-3.54,1.3-7.45.5-3.91,1.37-4.16,1.12-6.46-.1-.98-.99-1.84-2.04-2.45Z"/>
      <path class="cls-6" d="m356.32,359.56c-1.61,0-4.38-6.43-4.8-9.15-.91-5.88.25-7.83,1.21-8.79.26-.26.66-.39,1.18-.39,1.75,0,5.16,1.58,5.4,3.82.14,1.35-.07,2.06-.36,3.04-.24.8-.54,1.79-.76,3.54-.14,1.12-.24,2.22-.34,3.19-.29,3.1-.44,4.66-1.47,4.74h-.06Zm-2.41-17.25c-.32,0-.42.07-.42.07-.45.45-1.84,1.84-.9,7.85.47,3.01,2.77,7.41,3.65,8.15.23-.55.39-2.27.53-3.67.09-.98.19-2.08.34-3.22.23-1.84.55-2.88.8-3.72.28-.93.45-1.48.33-2.62-.15-1.44-2.84-2.85-4.31-2.85Z"/>
    </g>
    <g>
      <path class="cls-20" d="m343.11,359.73c1.03.03,1.4-4.19,2.61-7.17,1.21-2.98,2.91-4.81,3.17-6.61.42-2.94-3.07-5.91-6.1-5.03-1.77.47-2.47,5.29-2.42,9.93.05,4.64.88,8.83,2.75,8.88Z"/>
      <path class="cls-16" d="m343.27,359.7c.91-.38,1.3-4.31,2.45-7.13,1.21-2.98,2.91-4.81,3.17-6.61.18-1.26-.37-2.54-1.29-3.5-3.92,4.48-5.58,11.76-4.33,17.25Z"/>
      <path class="cls-6" d="m343.12,360.28h-.02c-2.87-.07-3.25-6.61-3.28-9.42-.02-2.27.11-9.75,2.83-10.46.4-.12.82-.18,1.26-.18,1.56,0,3.16.77,4.27,2.06.97,1.12,1.42,2.49,1.24,3.75-.16,1.1-.77,2.16-1.49,3.4-.56.96-1.19,2.05-1.71,3.34-.47,1.16-.82,2.54-1.12,3.75-.57,2.26-.94,3.76-1.98,3.76Zm.79-18.97c-.33,0-.66.05-.97.14-1.06.28-2.09,3.6-2.03,9.4.05,5.35,1.12,8.22,2.17,8.34.3-.28.69-1.81.97-2.93.31-1.25.67-2.67,1.17-3.9.56-1.37,1.21-2.49,1.78-3.48.68-1.18,1.23-2.12,1.35-3,.14-.95-.22-2-.99-2.88-.9-1.04-2.22-1.68-3.45-1.68Z"/>
    </g>
    <g>
      <path class="cls-20" d="m332.62,352.19c.65.33,1.55-2.3,3.35-4.66,1.8-2.36,3.4-3.14,3.41-4.96,0-1.81-.81-5.85-3.38-5.66-2.57.19-3.69,4.47-4,8.26-.31,3.79,0,6.71.62,7.02Z"/>
      <path class="cls-16" d="m332.63,352.19c.65.28,1.55-2.32,3.34-4.66,1.8-2.36,3.4-3.14,3.41-4.96,0-.91-.2-2.37-.72-3.58-3.31,3.18-5.32,8.14-6.02,13.2Z"/>
      <path class="cls-6" d="m332.73,352.76h0c-.12,0-.24-.03-.36-.08-1.41-.7-1.01-6.41-.92-7.55.21-2.55,1.07-8.51,4.5-8.76.84-.06,1.57.23,2.19.85,1.31,1.32,1.78,3.92,1.77,5.35,0,1.42-.83,2.29-1.87,3.39-.5.53-1.06,1.13-1.65,1.89-.74.96-1.33,1.99-1.8,2.82-.77,1.34-1.2,2.08-1.87,2.08Zm3.44-15.31s-.09,0-.13,0c-2.12.15-3.2,4.11-3.5,7.76-.29,3.49-.01,5.63.25,6.31.23-.29.57-.89.86-1.39.49-.85,1.1-1.92,1.88-2.94.62-.81,1.21-1.43,1.72-1.98.98-1.03,1.57-1.66,1.57-2.65,0-1.2-.38-3.51-1.45-4.58-.36-.36-.76-.54-1.21-.54Z"/>
    </g>
    <g>
      <path class="cls-19" d="m289.59,163.19c.22,1.04-6.46-2.26-16.14-.94-6.58,1.07-13.16,3.92-13.16,3.92,0,0-4.02.12-6.46-5.65-2.23-5.29.42-7.51.42-7.51,0,0,5.17-2.61,15.35-.62,10.18,1.99,19.25,7.33,19.99,10.8Z"/>
      <path class="cls-16" d="m254.57,162.01c2.43,4.25,5.72,4.17,5.72,4.17,0,0,6.58-2.86,13.16-3.92,9.69-1.32,16.37,1.98,16.14.94-.06-.26-.17-.54-.31-.82-11.11-4.63-22.75-6.42-34.71-.37Z"/>
      <path class="cls-6" d="m260.27,166.72c-.45,0-4.49-.17-6.94-5.98-2.36-5.6.45-8.04.57-8.14l.1-.07c.11-.06,2.89-1.43,8.31-1.43,2.33,0,4.81.25,7.38.76,9.84,1.92,19.57,7.27,20.42,11.22.05.22,0,.42-.13.58-.23.28-.59.28-.7.28-.4,0-1.01-.13-1.94-.34-1.94-.42-5.17-1.13-9.21-1.13-1.55,0-3.1.1-4.61.31-6.42,1.04-12.95,3.86-13.02,3.88l-.1.04h-.14Zm-5.71-13.25c-.32.31-2.13,2.34-.23,6.84,2.06,4.88,5.28,5.28,5.85,5.31.9-.38,7.08-2.92,13.18-3.91,1.58-.21,3.18-.32,4.77-.32,4.16,0,7.47.72,9.44,1.15.53.12.99.22,1.32.27-1.4-3.19-9.72-8-19.4-9.89-2.5-.49-4.92-.74-7.17-.74-4.74,0-7.34,1.09-7.76,1.28Z"/>
    </g>
    <path class="cls-17" d="m259.58,297.76c-2.66-3.48-9-5.28-9.04-5.3,0,0,3.23-.14,4.73.64.76.39,1.6.89,2.42,1.51.7.52,1.88,3.14,1.88,3.14Z"/>
    <path class="cls-17" d="m210.11,322.06l-.29-1.05c1.11-.3,2.38-.63,3.77-.99,8.23-2.12,20.67-5.32,28.88-11.06,9.45-6.61,13.06-14.92,13.09-15l1,.43c-.15.35-3.77,8.68-13.47,15.47-8.37,5.86-20.92,9.09-29.23,11.23-1.39.36-2.65.68-3.75.98Z"/>
    <path class="cls-17" d="m207.16,358.89l-.6-.91s4.87-3.19,8.63-6.03c4.07-3.08,9.09-7.7,15.5-18.65,6.6-11.27,10.19-23.04,10.22-23.16l1.04.31c-.04.12-3.67,12.01-10.33,23.39-6.51,11.12-11.63,15.83-15.79,18.97-3.79,2.86-8.64,6.04-8.69,6.08Z"/>
  </g>
</svg>